<svg xmlns="http://www.w3.org/2000/svg" viewBox="0 0 521.16 432"><defs><style>.cls-1{fill:#2c3e50;}.cls-2{fill:#fdc7bc;}.cls-3{fill:#e8ac3d;}.cls-4{fill:#c1d6e1;}.cls-5{fill:#fff;}</style></defs><title>Asset 1</title><g id="Layer_2" data-name="Layer 2"><g id="Layer_1-2" data-name="Layer 1"><path class="cls-1" d="M358.6,232.82c6.11,32.55.21,66.19-14.81,95.55a185.21,185.21,0,0,1-15.85,25.51,2.56,2.56,0,0,0,.91,3.48,2.6,2.6,0,0,0,3.48-.91c20.62-28,33.62-61.74,33.78-96.77a149.21,149.21,0,0,0-2.61-28.21c-.6-3.21-5.51-1.85-4.9,1.35Z"/><path class="cls-2" d="M374.78,417l-83.86-17.13a3.1,3.1,0,0,1-2.46-3.52l8.33-51.9a3.22,3.22,0,0,1,3.49-2.66l60.94,6c3.18-.08,5.65,2.11,5.27,3.92-1.41,6.77-7.84,20.25-3.12,25.56,9.56,10.75,12.38,10.34,16.4,17.78,3,5.51.3,15.22-1.29,19.89A3.22,3.22,0,0,1,374.78,417Z"/><path class="cls-3" d="M303.08,361.35a70.77,70.77,0,0,0-8.16-5.23l.87-5.39a79.61,79.61,0,0,1,10.42,6.54c18.32,13.57,28.49,33.2,28.71,51.59L329,407.65C328.69,391.13,319.53,373.53,303.08,361.35Z"/><path class="cls-4" d="M300,365.43a62.37,62.37,0,0,0-5.9-3.88l.87-5.43a70.77,70.77,0,0,1,8.16,5.23c16.45,12.18,25.61,29.78,25.89,46.3l-6-1.22C322.67,391.78,314.52,376.22,300,365.43Z"/><path class="cls-5" d="M296.82,369.51q-1.79-1.33-3.65-2.49l.88-5.47a62.37,62.37,0,0,1,5.9,3.88c14.57,10.79,22.72,26.35,23.07,41l-6-1.22C316.66,392.44,309.52,378.91,296.82,369.51Z"/><path class="cls-5" d="M369.73,387.57c-9.64-.3-21.21-1.17-27.44-9.87-2.84-4-3.26-8.75-3.43-13.35a137,137,0,0,1,.77-16.84c.15-1.82,3.07-1.41,2.91.4-.41,4.79-.84,9.59-.81,14.42,0,4.49.06,9.74,2.84,13.69,5.66,8.05,16.67,8.47,25.43,8.74,1.89.06,1.6,2.87-.27,2.81Z"/><path class="cls-5" d="M379.07,402.46,358.63,400c-3.1-.37-6.2-.88-9.32-1.07-2.14-.13-8.8,1.22-6.33,4.9,1,1.49-1.33,3.38-2.33,1.88-1.43-2.15-1-4.83.74-6.94,2.1-2.5,5.41-2.91,8.33-2.73,10,.62,19.89,2.35,29.76,3.54,1.81.21,1.41,3.1-.41,2.88Z"/><path class="cls-1" d="M354.07,371.88c-1.15.12-.91,1.87.24,1.76l7.34-.73c1.16-.11.91-1.87-.24-1.75Zm-1.08-8,8.72.86a.89.89,0,0,0,.22-1.77l-8.72-.85A.89.89,0,0,0,353,363.84Zm1-9.55a73,73,0,0,0,8.26,1.86.79.79,0,0,0,.67-.17.5.5,0,0,0,0,.12c-.15,4.77,4.45,13.32,10.58,10.23,2.39-1.21,2.68-4.15,1.41-6.25a8.28,8.28,0,0,0-3-2.79c4.24-.7,8.29-3,7.77-7.14-.35-2.73-3.25-3.81-5.73-3.16-3.89,1-7.32,5.42-10.17,8a.9.9,0,0,0-.26.37.84.84,0,0,0-.32.14.89.89,0,0,0-.72-1.11,71,71,0,0,1-7.8-1.75C353.59,352.32,352.9,354,354,354.29Zm17.58,1.33a10.09,10.09,0,0,1-2.87.27c-.85-.28-1.71-.51-2.52-.69l3.52-3.18c.75-.68,1.5-1.42,2.32-2l1.47-.95c1.36-.93,2.31-.53,2.83,1.18,1.81,1.15,1.75,2.26-.17,3.35a10.34,10.34,0,0,1-1.91,1.09A13.07,13.07,0,0,1,371.59,355.62Zm-6.88,1.06h0a9.22,9.22,0,0,0,3,.75,15.22,15.22,0,0,1,3.48,1.58,4.38,4.38,0,0,1,2.25,2.41c.82,1,.48,1.73-1,2.26-.5,1.17-1.2,1.56-2.1,1.16C366.69,364.73,364.77,359.72,364.71,356.68Z"/><path class="cls-1" d="M360.24,419.43a2.69,2.69,0,0,0,.52,3.81,2.79,2.79,0,0,0,3.88-.55,2.7,2.7,0,0,0-.52-3.82A2.8,2.8,0,0,0,360.24,419.43Z"/><ellipse class="cls-1" cx="302.78" cy="410.69" rx="2.77" ry="2.72" transform="translate(-118.31 122.55) rotate(-19.22)"/><path class="cls-4" d="M291.19,402.17l82.64,16.24a4.66,4.66,0,0,0,5.45-3.57l0-.12a4.48,4.48,0,0,0-3.56-5.33l-82.64-16.24a4.65,4.65,0,0,0-5.44,3.56l0,.13A4.48,4.48,0,0,0,291.19,402.17Z"/><path class="cls-1" d="M375.78,410.8q-42.48-8.9-85.21-16.64c-1.13-.21-.91-2,.22-1.77Q333.53,400.13,376,409c1.12.23.91,2-.22,1.76Z"/><path class="cls-1" d="M352.36,424.85v0h0Zm0,0Zm19.39-.67a3.75,3.75,0,0,0,0-.48v-.06c0-.07,0-.14,0-.2a2.34,2.34,0,0,0,0-.26c0-.29.08-.58.11-.88s0-.61.06-.92,0-.55,0-.83-.05-.55-.08-.82-.06-.56-.1-.83a8.2,8.2,0,0,0-.18-.86,5.16,5.16,0,0,0-.28-.78c-.09-.21-.2-.42-.3-.62s-.21-.4-.32-.6a5.53,5.53,0,0,0-.93-1.06,12.53,12.53,0,0,0-1.06-1c-.37-.31-.75-.61-1.13-.91a9.44,9.44,0,0,0-1.3-.86,6.94,6.94,0,0,0-.68-.32,6.44,6.44,0,0,0-.74-.25,4.82,4.82,0,0,0-.52-.11l-.23,0-.7-.11c-.54-.07-1.07-.14-1.61-.17h-1.46a9.84,9.84,0,0,0-1.62.21l-.7.14-.58.15-.33.09-.37.13c-.22.08-.43.18-.64.28l-1.06.36a.64.64,0,0,0-.42.44c-.19.14-.37.3-.55.46l-.24.24a3.12,3.12,0,0,0-.32.4l.07-.09a7.25,7.25,0,0,0-.46.67,5.28,5.28,0,0,0-.33.62,7.35,7.35,0,0,0-.32.77c-.1.26-.18.52-.26.79-.13.48-.24,1-.34,1.47-.05.25-.08.51-.11.76s-.07.54-.1.81a8.38,8.38,0,0,0-.06,1.22c0,.44.1.88.17,1.31s.16.8.26,1.19c.05.19.1.38.16.57a4.49,4.49,0,0,0,.23.61v0h0a.47.47,0,0,0,.05.1l.06.13,0-.07h0a9.2,9.2,0,0,0,.71,1.31c.1.13.19.26.28.4s.27.37.42.55.28.41.44.61l.16.21c.12.16.25.33.39.49s.11.13.17.2c.19.23.39.47.6.69s.33.31.5.45l.51.39a6.46,6.46,0,0,0,1.53.77l.45.17.21.07.08,0,.78.24.09,0,.34.1.53.11.63.08.17,0,.59,0a10.47,10.47,0,0,0,1.49,0l.79-.06c.24,0,.48-.06.72-.1l.12,0c.22,0,.44-.1.65-.16l.14,0,.55-.18.14-.05a7.51,7.51,0,0,0,1.43-.66,5.88,5.88,0,0,0,1.19-1,11.81,11.81,0,0,0,1-1.08,5.86,5.86,0,0,0,.49-.66,5.16,5.16,0,0,0,.38-.67,8.09,8.09,0,0,0,.33-.84,4.33,4.33,0,0,0,.21-.7A6.72,6.72,0,0,0,371.75,424.2Zm-6-11-.48-.13a.59.59,0,0,0,0-.13c.19.09.38.18.57.29Zm6,5.73v0h0Zm-.47-1.65v0l0,.06Zm.48,1.75v-.1h0Zm-19.38,5.82,0,0h0Zm0,0,0,0,0,.06h0Z"/><path class="cls-3" d="M358.93,422.57Zm0,0h0Zm5.89-.2a.61.61,0,0,0,0-.14v-.08a.19.19,0,0,1,0-.08l0-.27a2.46,2.46,0,0,0,0-.28c0-.08,0-.17,0-.25a2.11,2.11,0,0,0,0-.25l0-.25a2,2,0,0,0-.06-.26,1.69,1.69,0,0,0-.08-.24l-.09-.19-.1-.18a1.43,1.43,0,0,0-.28-.32l-.32-.31-.35-.27a2,2,0,0,0-.39-.26l-.21-.1-.23-.08-.15,0h-.07l-.22,0-.49-.05h-.44a4.13,4.13,0,0,0-.49.07l-.21,0-.18,0-.1,0-.11,0-.2.09-.32.11a.21.21,0,0,0-.13.13,1.07,1.07,0,0,0-.16.14l-.08.07-.09.12,0,0a1.43,1.43,0,0,0-.14.2,1.74,1.74,0,0,0-.1.19,2.29,2.29,0,0,0-.1.23,2.25,2.25,0,0,0-.08.24c0,.15-.07.3-.1.45a2.23,2.23,0,0,0,0,.23l0,.25a2.29,2.29,0,0,0,0,.37,1.83,1.83,0,0,0,.05.4c0,.12,0,.24.08.36a1,1,0,0,0,0,.17l.07.19h0v0l0,0v0h0a1.94,1.94,0,0,0,.22.4l.08.12a1.09,1.09,0,0,0,.13.17,1.27,1.27,0,0,0,.13.19l.05.06.12.15.05.06.18.21.15.14.16.12a2,2,0,0,0,.46.23l.14,0,.06,0h0l.24.07h0l.11,0,.16,0,.19,0h.23a3.26,3.26,0,0,0,.45,0l.24,0,.22,0h0l.19-.05h.05l.16-.05.05,0a1.89,1.89,0,0,0,.43-.2,1.76,1.76,0,0,0,.36-.29q.17-.17.3-.33c.06-.07.1-.14.15-.2s.07-.13.11-.2.07-.18.1-.26a1.72,1.72,0,0,0,.07-.21A2.7,2.7,0,0,0,364.82,422.37ZM363,419l-.15,0v0l.17.09Zm1.82,1.74h0Zm-.14-.5h0v0Zm.14.53v0h0Zm-5.89,1.77h0Zm0,0v0h0Z"/><path class="cls-1" d="M302.9,401.6a5,5,0,0,0-.88-.09,3.61,3.61,0,0,0-.84.07l-.74.17-.25.08-.09,0-.25.08-.1,0-.29.1-.41.13-.25.06-.39.11-.47.16-.17.06-.19.05-.09,0-.36.1-.18.06-.1,0-.15.05-.19.06c-.19.07-.38.14-.6.24l-.45.21-.31.18a4,4,0,0,0-.34.23l-.12.1,0,0c-.43.34-.87.7-1.28,1.08-.2.18-.38.37-.55.54a5.54,5.54,0,0,0-.72,1,5.84,5.84,0,0,0-.35.65l-.14.32c-.06.11-.11.23-.16.34a7.16,7.16,0,0,0-.53,1.54,7.28,7.28,0,0,0-.16,1.62,8,8,0,0,0,.2,1.62,11.54,11.54,0,0,0,.42,1.47c.2.54.43,1.06.64,1.51s.46.91.69,1.31.52.87.79,1.27a6.08,6.08,0,0,0,1,1.19,6.78,6.78,0,0,0,.7.54,5.27,5.27,0,0,0,.66.35l.5.2.16.06.85.32a12.51,12.51,0,0,0,1.48.42l.41.08.22,0h.1l.24,0,.12,0,.49.05.75,0,.78,0c.46,0,.95-.08,1.51-.16a13.9,13.9,0,0,0,1.6-.33,8.39,8.39,0,0,0,1.36-.44c.3-.13.55-.25.78-.37l.56-.32.07-.05a4.22,4.22,0,0,0,1.12-1.05,13.16,13.16,0,0,0,.9-1.36,12.6,12.6,0,0,0,.67-1.32q.15-.33.27-.66l0-.13c.08-.2.15-.42.23-.67.12-.43.24-.9.38-1.52a10.65,10.65,0,0,0,.24-1.57,9.45,9.45,0,0,0,0-1.5,15.33,15.33,0,0,0-.2-1.59,5,5,0,0,0-.21-.69A5.83,5.83,0,0,0,311,407a6.34,6.34,0,0,0-.91-1.25,7.08,7.08,0,0,0-1.12-1l-.11-.09c-.37-.28-.75-.57-1.14-.83s-.85-.54-1.27-.78h0l-.64-.34-.44-.2-.24-.12a11.92,11.92,0,0,0-1.43-.58h0a5.12,5.12,0,0,0-.7-.18Z"/><path class="cls-3" d="M298.72,412.45h0Zm0,0Zm5.89-.2c0-.05,0-.1,0-.15h0V412s0-.06,0-.08l0-.27c0-.09,0-.18,0-.28s0-.17,0-.25a2.11,2.11,0,0,0,0-.25l0-.25-.06-.27a2.09,2.09,0,0,0-.08-.23,1.14,1.14,0,0,0-.1-.19l-.09-.18a1.43,1.43,0,0,0-.28-.32c-.11-.11-.21-.21-.33-.31l-.34-.27a3.51,3.51,0,0,0-.4-.27,1.21,1.21,0,0,0-.2-.09l-.23-.08-.16,0-.06,0-.22,0-.49-.05h-.44a2.63,2.63,0,0,0-.49.07l-.22,0-.17.05-.1,0-.11,0-.2.09-.32.11a.19.19,0,0,0-.13.13l-.17.14-.07.07-.1.12,0,0c-.05.06-.09.13-.14.2s-.07.12-.1.19l-.09.23a2.25,2.25,0,0,0-.08.24c0,.15-.07.3-.11.45l0,.23,0,.25c0,.12,0,.25,0,.37s0,.26,0,.4.05.24.08.36l0,.17c0,.06.05.12.07.19h0s0,0,0,0l0,0v0h0a2.52,2.52,0,0,0,.21.4l.09.12a1.09,1.09,0,0,0,.13.17,2.14,2.14,0,0,0,.13.19l.05.06.11.15.06.06a1.68,1.68,0,0,0,.18.21l.15.14.16.12a2.47,2.47,0,0,0,.46.23l.14,0,.06,0h0l.23.07h0l.1,0,.17,0,.19,0h.23a3.26,3.26,0,0,0,.45,0l.24,0,.22,0h0l.19-.05h.05l.16-.05.05,0a2.11,2.11,0,0,0,.43-.2,1.76,1.76,0,0,0,.36-.29q.16-.17.3-.33a1.86,1.86,0,0,0,.14-.2,1.32,1.32,0,0,0,.12-.2c0-.09.07-.18.1-.26a.83.83,0,0,0,.06-.21A2,2,0,0,0,304.62,412.25Zm-1.83-3.35-.15,0v0l.17.09Zm1.81,1.74h0Zm-.14-.5h0v0Zm.15.53v0h0Zm-5.89,1.77h0Zm0,0v0Z"/><path class="cls-1" d="M317.21,349c-.12,0-3.8,5.23-4.85,6.62-.3.39-.57.3-.57.3s-1.33-.68-1.8-1c-1.15-.76-4.79-2.45-4.79-2.45s1.59,4.57,2,6.07a3.59,3.59,0,0,1,.3,1c-.07.38.17.12-.37.43a12.36,12.36,0,0,1-1.13.51c-.92.4-1.85.92-2.74,1.4l-2.48,1.34,8.25,2.87s.42,2.43.52,3.17.17,1.32.24,2c.05.36.28,1.66.28,1.66l4-6.19,2.53,1.12L319,369c.77.37,4.16,1.73,4.16,1.73s-3.53-6.09-3.88-6.5c2.21-1.48,8.13-5.81,8.13-5.81s-4.51.69-6.32.69a4.89,4.89,0,0,1-1.43,0c-.33-.15-.17.07-.33-.4a8.61,8.61,0,0,1-.25-1.52c-.07-.39-1.31-7.11-1.83-8.17Z"/><path class="cls-1" d="M181.43,230.67c-3.91,15.94-11.88,31.26-24.57,41.91-14.24,12-32.72,16.39-51,15.3-14.35-.87-28.35-4.64-41.73-9.76-3-1.17-5,3.51-2,4.68,22.29,8.54,47.39,13.87,71,7.6A70.75,70.75,0,0,0,175,259.27a95.55,95.55,0,0,0,11.53-27.95,2.57,2.57,0,0,0-2.2-2.85,2.62,2.62,0,0,0-2.85,2.2Z"/><path class="cls-2" d="M20.13,336.88l-.87-85.59a3.1,3.1,0,0,1,2.93-3.15l52.49-2.76A3.22,3.22,0,0,1,78,248.24l7,60.83c.75,3.09-.88,6-2.73,6-6.91,0-21.44-3.41-25.64,2.32-8.5,11.61-7.51,14.28-13.94,19.77-4.76,4.06-14.81,3.49-19.72,2.92A3.23,3.23,0,0,1,20.13,336.88Z"/><path class="cls-3" d="M59.48,255.08a71.46,71.46,0,0,0,3.4-9.08l5.44-.28a78.33,78.33,0,0,1-4.19,11.56c-9.42,20.77-26.48,34.83-44.41,38.92l-.07-6.08C35.74,286.38,51,273.72,59.48,255.08Z"/><path class="cls-4" d="M54.83,252.88a63.42,63.42,0,0,0,2.55-6.59l5.5-.29a71.46,71.46,0,0,1-3.4,9.08c-8.46,18.64-23.74,31.3-39.83,35L19.59,284C33.84,280.63,47.34,269.39,54.83,252.88Z"/><path class="cls-5" d="M50.19,250.68c.61-1.36,1.17-2.72,1.66-4.1l5.53-.29a63.42,63.42,0,0,1-2.55,6.59c-7.49,16.51-21,27.75-35.24,31.16L19.53,278C31.93,274.89,43.66,265.06,50.19,250.68Z"/><path class="cls-5" d="M47.85,325.75c-1.74-9.48-3.32-21,3.88-28.9,3.3-3.62,7.87-5,12.33-6.16a138.39,138.39,0,0,1,16.63-2.79c1.81-.23,2,2.71.22,2.94-4.77.6-9.55,1.19-14.27,2.23-4.38,1-9.51,2.11-12.79,5.66-6.68,7.22-4.78,18.07-3.2,26.69.34,1.86-2.47,2.17-2.8.33Z"/><path class="cls-5" d="M35.25,338l-1.89-20.51c-.29-3.1-.44-6.24-.91-9.33-.32-2.12-3-8.35-6.13-5.17-1.24,1.28-3.57-.58-2.32-1.87a5.67,5.67,0,0,1,6.94-.75c2.88,1.54,4,4.68,4.42,7.57,1.49,9.87,1.88,19.94,2.8,29.84.16,1.83-2.74,2-2.91.22Z"/><path class="cls-1" d="M59.89,307.15c-.35-1.11-2-.5-1.66.6l2.25,7c.35,1.11,2,.5,1.67-.6Zm7.64-2.75,1,8.71a.89.89,0,0,0,1.77-.16l-1-8.7A.89.89,0,0,0,67.53,304.4Zm9.55-1a72.37,72.37,0,0,0-.08,8.46.78.78,0,0,0,.3.62h-.12c-4.69.85-12.08,7.15-7.77,12.5,1.68,2.08,4.61,1.74,6.4.06a8.34,8.34,0,0,0,2.1-3.51c1.57,4,4.7,7.47,8.61,6.09,2.6-.91,3-4,1.89-6.26-1.8-3.59-6.84-6-10-8.27a.93.93,0,0,0-.42-.17.8.8,0,0,0-.2-.28.9.9,0,0,0,.94-.94,68.86,68.86,0,0,1,.07-8C78.91,302.56,77.16,302.24,77.08,303.39Zm2.39,17.47a9.74,9.74,0,0,1-.86-2.75c.09-.89.13-1.78.14-2.62l3.85,2.78c.82.6,1.7,1.18,2.47,1.85l1.24,1.23c1.19,1.14,1,2.15-.56,3q-1.11,3-3.31.53A10.32,10.32,0,0,1,81,323.27,14.27,14.27,0,0,1,79.47,320.86ZM77,314.35v0a9.26,9.26,0,0,0-.12,3.07,14.6,14.6,0,0,1-.81,3.73,4.29,4.29,0,0,1-1.88,2.7c-.78,1-1.59.84-2.42-.51-1.25-.24-1.78-.84-1.57-1.81C69.54,318,74,315.05,77,314.35Z"/><path class="cls-1" d="M14.71,323.17a2.71,2.71,0,0,0-3.63,1.31,2.82,2.82,0,0,0,1.36,3.68,2.7,2.7,0,0,0,3.63-1.32A2.81,2.81,0,0,0,14.71,323.17Z"/><path class="cls-1" d="M12.3,262.66A2.69,2.69,0,0,0,8.68,264,2.8,2.8,0,0,0,10,267.65a2.69,2.69,0,0,0,3.62-1.32A2.79,2.79,0,0,0,12.3,262.66Z"/><path class="cls-4" d="M17.07,252l1.49,84.2a4.66,4.66,0,0,0,4.63,4.58h.13a4.48,4.48,0,0,0,4.46-4.6L26.29,252a4.67,4.67,0,0,0-4.63-4.58h-.13A4.47,4.47,0,0,0,17.07,252Z"/><path class="cls-1" d="M26.41,336.55q-.22-43.4-1.64-86.8c0-1.15,1.74-1.31,1.77-.16Q28,293,28.18,336.39c0,1.15-1.77,1.31-1.77.16Z"/><path class="cls-1" d="M7.75,316.6h0Zm0,0Zm4.73,18.81c.16,0,.31-.08.47-.12l.05,0,.19-.06h.27l.87-.08c.31,0,.61-.08.92-.14s.54-.13.8-.19.54-.16.8-.25l.78-.28a8.24,8.24,0,0,0,.81-.35,4.31,4.31,0,0,0,.7-.44c.19-.13.36-.28.54-.42l.52-.44a5.82,5.82,0,0,0,.84-1.13,14.34,14.34,0,0,0,.76-1.25c.22-.43.44-.86.65-1.3a9.44,9.44,0,0,0,.56-1.45c.07-.24.13-.48.18-.73a6.9,6.9,0,0,0,.09-.78c0-.18,0-.35,0-.53a1.77,1.77,0,0,1,0-.23c0-.24,0-.47-.05-.71,0-.54-.09-1.08-.17-1.61,0-.23-.09-.46-.14-.69l-.18-.73a9.38,9.38,0,0,0-.54-1.54c-.09-.22-.18-.44-.28-.66l-.28-.53-.15-.31c-.06-.11-.14-.22-.21-.33a5.45,5.45,0,0,0-.41-.57c-.18-.32-.38-.64-.57-1a.64.64,0,0,0-.52-.32c-.18-.15-.37-.3-.56-.43l-.29-.2c-.14-.08-.3-.15-.45-.22l.1,0a7.92,7.92,0,0,0-.75-.31,4.32,4.32,0,0,0-.68-.19c-.27-.06-.54-.12-.81-.16s-.55-.06-.83-.08c-.5,0-1,0-1.52,0-.25,0-.51,0-.76.06l-.81.07a7,7,0,0,0-1.21.2,10.73,10.73,0,0,0-1.24.44c-.38.15-.75.32-1.11.5l-.52.27a6.49,6.49,0,0,0-.55.36l0,0h0l-.09.07-.12.08.07-.05h0a8.75,8.75,0,0,0-1.13,1l-.33.35c-.16.17-.31.35-.45.53s-.35.37-.51.56a1.63,1.63,0,0,0-.17.2l-.4.48-.16.21c-.19.24-.38.48-.55.73a5.82,5.82,0,0,0-.33.59c-.09.18-.19.38-.28.58a6.52,6.52,0,0,0-.42,1.66c0,.15,0,.31-.08.47a1.8,1.8,0,0,0,0,.22v.09c0,.25,0,.53-.06.81v.09c0,.12,0,.24,0,.35a5,5,0,0,0,0,.55c0,.21,0,.42,0,.63l0,.16c0,.2,0,.4.08.59A11.28,11.28,0,0,0,3.12,329c.07.27.15.52.22.76s.16.46.25.68l.05.12a6.45,6.45,0,0,0,.29.59l.07.14c.09.17.19.33.29.49l.08.14a7.65,7.65,0,0,0,.94,1.26,6.25,6.25,0,0,0,1.19.95,12.58,12.58,0,0,0,1.26.72c.28.14.52.25.75.34a5.72,5.72,0,0,0,.73.23c.3.07.61.11.89.15s.49.05.73.06A7.08,7.08,0,0,0,12.46,335.42Zm9.51-8.2,0-.5a.29.29,0,0,0,.13-.05,6.29,6.29,0,0,1-.17.62Zm-4.34,7h0Zm1.51-.8h0l-.05,0Zm-1.61.83.1,0h0ZM7.77,316.58l0,0h0Zm0,0,0,0,0,0h0Z"/><path class="cls-3" d="M11.36,322.54h0Zm0,0Zm1.44,5.71.14,0h0l.06,0h.08l.26,0,.28,0,.25-.06.24-.07.23-.09.25-.1a1.53,1.53,0,0,0,.21-.14l.17-.13.16-.13a1.76,1.76,0,0,0,.25-.34c.08-.13.16-.25.23-.38l.2-.39a2.45,2.45,0,0,0,.17-.45,1.42,1.42,0,0,0,0-.22,1,1,0,0,0,0-.24v-.23c0-.07,0-.14,0-.21a3.87,3.87,0,0,0-.05-.49c0-.07,0-.14,0-.21a2.25,2.25,0,0,1-.05-.22,2.38,2.38,0,0,0-.17-.47l-.09-.2a.8.8,0,0,0-.08-.16l-.05-.1s0-.06-.06-.1l-.12-.17-.18-.29a.18.18,0,0,0-.15-.1l-.18-.13-.08-.06-.14-.07,0,0-.23-.1-.2-.06L14,322l-.25,0h-.46L13,322l-.24,0c-.13,0-.25,0-.37.06l-.38.14-.34.15-.15.08-.17.11h0l0,0,0,0h0a3.17,3.17,0,0,0-.35.29l-.1.11s-.09.1-.13.16a1.29,1.29,0,0,0-.16.17l-.05.06-.12.15-.05.06-.16.22a1.74,1.74,0,0,0-.11.18,1.42,1.42,0,0,1-.08.18,2.17,2.17,0,0,0-.13.5l0,.15a.13.13,0,0,0,0,.06v0a2,2,0,0,0,0,.25v0a.41.41,0,0,0,0,.11v.17a1.37,1.37,0,0,0,0,.19v.05l0,.18a4.31,4.31,0,0,0,.09.44c0,.08.05.16.07.23l.07.21,0,0a1,1,0,0,0,.09.18l0,0,.09.16,0,0a2.24,2.24,0,0,0,.29.38,1.62,1.62,0,0,0,.36.29l.38.22.23.1.22.07.27.05h.22A1.61,1.61,0,0,0,12.79,328.26Zm2.89-2.49s0-.1,0-.15l0,0c0,.07,0,.13-.05.19Zm-1.32,2.14Zm.46-.24h0v0Zm-.49.25h0Zm-3-5.38Zm0,0h0Z"/><path class="cls-1" d="M20.09,263.37a6.68,6.68,0,0,0-.1-.89,3.64,3.64,0,0,0-.25-.8c-.11-.27-.21-.49-.31-.69s-.09-.15-.14-.23l-.05-.08-.13-.23-.05-.09-.15-.26c-.08-.12-.15-.25-.22-.38l-.11-.22-.19-.37-.26-.43-.09-.14-.09-.18-.05-.09a3.24,3.24,0,0,0-.17-.32c0-.06-.07-.11-.1-.16a.41.41,0,0,1-.05-.09,1,1,0,0,1-.08-.14c0-.06-.07-.12-.11-.17a5.61,5.61,0,0,0-.36-.54,3.15,3.15,0,0,0-.3-.39l-.24-.27a1.58,1.58,0,0,0-.3-.28.52.52,0,0,0-.11-.1l0,0c-.43-.34-.87-.7-1.33-1-.21-.16-.43-.3-.64-.43a6,6,0,0,0-1.1-.5,6.13,6.13,0,0,0-.7-.2l-.35-.08-.37-.08a7.55,7.55,0,0,0-1.61-.2,7.91,7.91,0,0,0-1.62.19,8.27,8.27,0,0,0-1.54.54,9.8,9.8,0,0,0-1.35.72c-.48.31-1,.65-1.34.94a14,14,0,0,0-1.14.95c-.38.34-.74.69-1.07,1a5.76,5.76,0,0,0-1,1.23,6,6,0,0,0-.38.8,4.84,4.84,0,0,0-.2.72L.26,261l0,.18c-.06.34-.1.62-.13.89a14.4,14.4,0,0,0-.1,1.54c0,.12,0,.25,0,.41a1.77,1.77,0,0,0,0,.23v.1c0,.08,0,.16,0,.24a.49.49,0,0,1,0,.12c0,.13,0,.31.06.49s.08.49.14.74.12.52.19.76c.13.44.29.91.48,1.43a15.17,15.17,0,0,0,.65,1.5,9.71,9.71,0,0,0,.73,1.24c.19.26.36.48.52.68s.29.33.43.48l.06.06a4.24,4.24,0,0,0,1.27.87,10.06,10.06,0,0,0,1.51.59,13.42,13.42,0,0,0,1.44.39c.23.05.47.08.7.12l.13,0,.71.07c.45,0,.93,0,1.56.06a11.91,11.91,0,0,0,1.59-.1,8.3,8.3,0,0,0,1.46-.3,15,15,0,0,0,1.52-.54,4.32,4.32,0,0,0,.64-.34,5.5,5.5,0,0,0,.68-.52,6.22,6.22,0,0,0,1-1.15,7.43,7.43,0,0,0,.72-1.3l.06-.13c.2-.41.41-.85.58-1.29a14.71,14.71,0,0,0,.49-1.41v0c.07-.22.13-.46.2-.69s.07-.32.1-.47l.06-.27a10.94,10.94,0,0,0,.27-1.51v0a5.79,5.79,0,0,0,0-.72Z"/><path class="cls-3" d="M8.6,261.56Zm0,0ZM10,267.28l.15,0h0l.06,0h.08l.27,0,.27,0,.25-.06.24-.08.24-.08.24-.11a1,1,0,0,0,.22-.13l.16-.13.16-.13a1.77,1.77,0,0,0,.26-.35c.08-.12.16-.24.23-.37l.19-.4a3.38,3.38,0,0,0,.18-.44,1.74,1.74,0,0,0,0-.22l0-.24v-.23c0-.07,0-.14,0-.22s0-.32-.05-.49a1.17,1.17,0,0,0-.05-.2,1.89,1.89,0,0,0,0-.23,4.34,4.34,0,0,0-.16-.47l-.09-.2a.8.8,0,0,1-.08-.16l-.05-.09-.06-.1a1.09,1.09,0,0,0-.13-.17l-.17-.3a.19.19,0,0,0-.16-.09l-.17-.14-.09-.05-.14-.07h0l-.22-.09a1.66,1.66,0,0,0-.21-.06L11.2,261,11,261h-.46l-.23,0L10,261a2.38,2.38,0,0,0-.37.06l-.37.13-.34.16-.16.08a.91.91,0,0,0-.16.11h0l0,0,0,0,0,0h0a2.43,2.43,0,0,0-.34.3l-.1.1-.14.17-.15.16-.05.07a.81.81,0,0,0-.12.14l-.05.07a1.84,1.84,0,0,0-.17.22,1.62,1.62,0,0,0-.1.18l-.09.17a1.73,1.73,0,0,0-.12.51l0,.14v.09a2.11,2.11,0,0,1,0,.25v.14a.43.43,0,0,0,0,.16,1.21,1.21,0,0,0,0,.19v.05c0,.06,0,.12,0,.18a4.31,4.31,0,0,0,.09.44c0,.09,0,.16.07.24a1.19,1.19,0,0,0,.08.2v0l.09.18,0,0,.09.15,0,0a2.2,2.2,0,0,0,.28.38,1.89,1.89,0,0,0,.36.29,3.07,3.07,0,0,0,.38.22l.23.11.23.06a1.28,1.28,0,0,0,.27.05l.22,0A2.52,2.52,0,0,0,10,267.28Zm2.89-2.49c0-.05,0-.1,0-.15l0,0a1.33,1.33,0,0,1-.05.19Zm-1.31,2.14h0Zm.45-.24Zm-.48.25h0Zm-3-5.39h0Zm0,0h0Z"/><path class="cls-1" d="M74.51,266.3c0-.12-5.91-2.62-7.5-3.35-.44-.21-.4-.5-.4-.5s.38-1.44.59-2c.49-1.27,1.38-5.19,1.38-5.19s-4.13,2.52-5.52,3.21c-.24.12-.67.5-.93.51s-.08.19-.5-.27-.5-.68-.73-1c-.59-.81-1.29-1.61-1.95-2.38l-1.83-2.15-1.07,8.67s-2.29.93-3,1.18l-1.88.65c-.34.11-1.57.61-1.57.61l6.89,2.58s-.47,2.29-.56,2.71c-.19.87-.4,1.73-.6,2.6s-.81,4.44-.81,4.44,5.21-4.74,5.54-5.17c1.91,1.85,7.39,6.72,7.39,6.72s-1.63-4.26-2-6a4.8,4.8,0,0,1-.3-1.39c.07-.35-.1-.15.32-.41a8.32,8.32,0,0,1,1.43-.56c.38-.15,6.68-2.77,7.61-3.51Z"/><path class="cls-1" d="M402.79,85.49c12-33.2-9.48-74.38-43.56-83.56S285.9,17.55,279.57,52.28c-5.63-28.73-37.47-49.42-66-42.9s-48.23,39-40.82,67.31c-28.43-7.2-60.2-5.66-85,10S47.37,133.94,55.59,162.1s43.53,46.65,69.47,33c-10.59,26.2,3.41,59.67,29.51,70.51s59.7-2.85,70.78-28.85c4.64,28.16,27.73,53.45,56.07,56.75s58.32-19.07,59.72-47.57c10.43,24.32,42.44,36.61,66.46,25.53s35.45-43.41,23.72-67.13c23.29,12.5,54,11.82,74.81-4.48S548.9,60.31,402.79,85.49Z"/><path class="cls-3" d="M294.93,159.45a14.25,14.25,0,0,0,.29-3.9,24.74,24.74,0,0,0-.6-3.69,20.26,20.26,0,0,0-1.28-3.76,21.89,21.89,0,0,0-2-3.38,13.39,13.39,0,0,0-1.08-1.38c-.41-.45-.85-.87-1.28-1.28a9.45,9.45,0,0,0-1.61-1.27l-.13-.08-1.4-.86a32.87,32.87,0,0,0-3.48-1.75l-.95-.39-.39-.23c-.58-.36-1.19-.66-1.8-1a23.08,23.08,0,0,0-3.21-1.33l-.71-.22c-1-.31-2.09-.57-3.15-.79a17.19,17.19,0,0,0-1.75-.27,15.13,15.13,0,0,0-2,0,11.25,11.25,0,0,0-4,1.06,12.92,12.92,0,0,0-1.85.95l-.5.36-.26.06-.35.09c-.56.15-1.14.3-1.7.51a10.56,10.56,0,0,0-1.36.59,10.79,10.79,0,0,0-1.14.73,12.14,12.14,0,0,0-1.33,1.16,16.5,16.5,0,0,0-1.49,1.61c-.33.43-.64.89-.93,1.33l-.1.15a20.74,20.74,0,0,0-1.83,3.43c-.21.49-.42,1-.67,1.69s-.34,1.07-.49,1.61l0,.15a25.52,25.52,0,0,0-.77,3.94,18.14,18.14,0,0,0-.09,1.84c0,.37,0,.75.05,1.11s0,.63.09.94.12.66.18.95a7.88,7.88,0,0,0,.24.83l.09.29a12.22,12.22,0,0,0,.61,1.61c.42.92.87,1.83,1.3,2.72l.27.54c.34.7.62,1.22.91,1.71l.16.27c.27.46.56.93.86,1.38a23.86,23.86,0,0,0,2.28,2.92c.49.52,1,1.08,1.58,1.6a17.8,17.8,0,0,0,1.4,1.18,16.71,16.71,0,0,0,1.48,1.05c.66.42,1.34.8,1.91,1.1a24.28,24.28,0,0,0,3.32,1.44c.53.19,1,.36,1.55.51.79.24,1.57.44,2.32.59a21.52,21.52,0,0,0,3.66.51,13.1,13.1,0,0,0,2.14-.07,18.36,18.36,0,0,0,1.82-.32,23.36,23.36,0,0,0,3.68-1.21h0c.55-.24,1.12-.49,1.66-.78s1.05-.61,1.66-1l.13-.08c.49-.3,1-.61,1.49-.95s.86-.63,1.27-1l.2-.16a14.86,14.86,0,0,0,2.66-2.79c.41-.54.77-1.05,1.11-1.58a18.41,18.41,0,0,0,.95-1.74l.08-.17c.23-.49.48-1,.67-1.51s.45-1.22.61-1.77A36.58,36.58,0,0,0,294.93,159.45Z"/><path class="cls-3" d="M415,197.79a14.28,14.28,0,0,1-1.93,3.42,24.14,24.14,0,0,1-2.54,2.73,20.54,20.54,0,0,1-3.14,2.43,22.71,22.71,0,0,1-3.52,1.72,13.3,13.3,0,0,1-1.66.55c-.59.15-1.19.26-1.77.36a10.38,10.38,0,0,1-2.05.17h-.16c-.53,0-1.09,0-1.63-.06a33.25,33.25,0,0,1-3.87-.47l-1-.2-.45,0c-.69,0-1.37-.12-2.05-.19a22,22,0,0,1-3.4-.67l-.71-.21c-1-.31-2.06-.68-3.06-1.08a16.91,16.91,0,0,1-1.61-.75,15.92,15.92,0,0,1-1.7-1.1,11.18,11.18,0,0,1-2.75-3.1,11.55,11.55,0,0,1-1-1.82c-.08-.19-.16-.38-.23-.58l-.18-.19-.23-.27a16.73,16.73,0,0,1-1.14-1.36,10.33,10.33,0,0,1-.81-1.25,11.23,11.23,0,0,1-.54-1.24,12,12,0,0,1-.47-1.69,16.65,16.65,0,0,1-.35-2.17c0-.54,0-1.09,0-1.63v-.17a20.16,20.16,0,0,1,.38-3.87c.09-.53.21-1.09.38-1.79a14.73,14.73,0,0,1,.48-1.6l.05-.16a26.89,26.89,0,0,1,1.54-3.7,17.71,17.71,0,0,1,.94-1.58c.21-.32.44-.62.65-.9s.4-.5.61-.73.45-.48.67-.69.44-.39.66-.57a2.11,2.11,0,0,0,.23-.19,13.92,13.92,0,0,1,1.4-1c.86-.53,1.74-1,2.59-1.54l.52-.31c.67-.39,1.2-.67,1.71-.91l.28-.14c.48-.23,1-.47,1.48-.67a23.56,23.56,0,0,1,3.51-1.17c.7-.17,1.45-.34,2.21-.46a18.22,18.22,0,0,1,1.81-.21c.69-.05,1.27-.07,1.82-.06.79,0,1.56.08,2.21.15a24.05,24.05,0,0,1,3.55.63c.55.14,1.08.28,1.58.44.79.24,1.55.5,2.26.79a21.08,21.08,0,0,1,3.32,1.61,12.19,12.19,0,0,1,1.75,1.23,17.59,17.59,0,0,1,1.33,1.28,21.88,21.88,0,0,1,2.4,3.05l0,0c.33.5.66,1,.95,1.57s.54,1.09.84,1.73l.06.14c.25.52.5,1.06.72,1.61s.37,1,.53,1.5l.09.25a15,15,0,0,1,.66,3.79c0,.67.06,1.31,0,1.93a16.39,16.39,0,0,1-.17,2l0,.18c-.07.54-.15,1.09-.27,1.63s-.31,1.26-.47,1.81C416,195.14,415.57,196.48,415,197.79Z"/><path class="cls-4" d="M349.06,176.48c-6.5-2-13-4-19.57-5.84-1.95-.55-3.89-1.08-5.84-1.61-1.22-.34-3.84-.95-3.84-.95s-1.47,3.66-1.2,4.88a17.77,17.77,0,0,0,10,12.76,22.23,22.23,0,0,0,11.49,2.18,10.12,10.12,0,0,0,4.31-1.69c2.77-1.73,4.39-4.1,6.09-6.38a21.41,21.41,0,0,0,1.24-2.47s-1.59-.57-2.64-.88Z"/><path class="cls-4" d="M374.49,150.61c.28.37,5.48,2.07,5.51,2.07.49.12,1.52.43,2.68.77,1.05-4.9,8.61-25,17.89-23.84a5.37,5.37,0,0,1,4,2.09,9,9,0,0,1,1.25,1.53c1.28,1.71,3.83,8.49,3,15.62.2,4.7-1.41,10-2.2,12.24,4.87,1.49,8.57,2.59,8.57,2.59s4.1-9.56,3-18.06c.65-9.68-4.38-19.25-6.72-21.73a16.94,16.94,0,0,0-2.29-2.23c-1.57-1.85-4.09-2.81-6.94-3.28C384.41,115.41,373.16,149.83,374.49,150.61Z"/><path class="cls-4" d="M274.63,124.9s3.75,1.5,8.15,3.13c1.51-4.57,3.25-9,5.16-13.41s4-9.21,7.36-11.84c7.08-5.56,13.89-1.91,14.21,8.19a71.93,71.93,0,0,1-1.63,15.64c-.17.87-1.23,4.6-2.26,8.16l3.09.8c1.11.3,6.21,1.62,6.21,1.62s4.11-14.11,4.34-16a47.56,47.56,0,0,0-.47-16.89c-2.68-11.19-15.25-16.64-26.36-12-5.28,2.2-7.89,7.08-10.28,11.49a92.38,92.38,0,0,0-6.34,14.25C275.38,119.31,274.63,124.9,274.63,124.9Z"/><path class="cls-1" d="M270.23,146.38a1.23,1.23,0,0,0,0-.37,2.7,2.7,0,0,0-.06-.36,2.17,2.17,0,0,0-.12-.36,1.4,1.4,0,0,0-.19-.32l-.1-.13-.12-.13-.16-.12h0l-.13-.09-.34-.16-.09,0,0,0a1,1,0,0,0-.17-.1,1.66,1.66,0,0,0-.31-.12l-.06,0-.31-.07-.16,0h-.2a1.26,1.26,0,0,0-.38.1l-.18.09-.05,0H267l-.17.05a.75.75,0,0,0-.13.06l-.11.07a.6.6,0,0,0-.12.11l-.15.15-.09.13h0a2.55,2.55,0,0,0-.17.33l-.07.17c0,.05,0,.1,0,.15h0a3.1,3.1,0,0,0-.07.38,1.09,1.09,0,0,0,0,.18.34.34,0,0,0,0,.1.25.25,0,0,0,0,.09s0,.07,0,.1a.19.19,0,0,1,0,.08v0l.06.16c0,.08.08.17.13.26l0,.05a.76.76,0,0,0,.09.16v0l.09.13a1.71,1.71,0,0,0,.22.28l.15.15a.77.77,0,0,0,.13.12l.14.1.19.1a1.8,1.8,0,0,0,.31.14l.15.05.23.06a1.87,1.87,0,0,0,.35,0h.2l.17,0a1.9,1.9,0,0,0,.36-.12h0l.16-.07.16-.1h0a.42.42,0,0,0,.14-.09l.13-.09h0a1.6,1.6,0,0,0,.26-.27l.11-.15.09-.17h0a1,1,0,0,0,.07-.15l.06-.17A3.35,3.35,0,0,0,270.23,146.38Z"/><path class="cls-1" d="M282.21,153.53a1.61,1.61,0,0,0,0-.37,1.63,1.63,0,0,0-.05-.36,1.91,1.91,0,0,0-.13-.36,1.4,1.4,0,0,0-.19-.32.49.49,0,0,0-.1-.13l-.12-.13-.15-.12h0l-.13-.08-.34-.17-.09,0,0,0-.18-.09-.3-.13-.07,0-.3-.07-.17,0h-.19a1.24,1.24,0,0,0-.39.1l-.18.09s0,0,0,0H279l-.16.05-.14.06-.1.07-.13.11a1,1,0,0,0-.14.15.51.51,0,0,0-.09.13h0a1.74,1.74,0,0,0-.18.33l-.06.16a1,1,0,0,0-.05.16h0a3.25,3.25,0,0,0-.08.38c0,.06,0,.11,0,.18s0,.07,0,.1a.28.28,0,0,0,0,.09s0,.07,0,.09l0,.08v0a.75.75,0,0,0,.05.16l.13.26,0,0c0,.06.06.11.09.16l0,0,.08.13.22.28.15.15.13.12.15.1.18.1a1.92,1.92,0,0,0,.32.14l.15.05.22.06a2,2,0,0,0,.35,0h.2l.18,0a1.6,1.6,0,0,0,.35-.12h0l.16-.08.16-.09h0a1.19,1.19,0,0,0,.15-.09l.12-.09h0a2,2,0,0,0,.25-.27l.11-.15.09-.17v0l.06-.14.06-.17C282.14,153.79,282.18,153.66,282.21,153.53Z"/><path class="cls-1" d="M271,157.91a1.21,1.21,0,0,0,0-.37,2.33,2.33,0,0,0-.06-.35,1.9,1.9,0,0,0-.12-.36c0-.1-.11-.2-.19-.33l-.1-.13-.13-.12a.79.79,0,0,0-.15-.12h0l-.14-.08a2.5,2.5,0,0,0-.33-.17l-.09,0,0,0-.17-.09a1.69,1.69,0,0,0-.31-.13l-.07,0-.3-.08-.17,0h-.19a1,1,0,0,0-.38.11.51.51,0,0,0-.18.09l-.05,0h-.06l-.16,0-.13.06-.11.07-.13.11a1.07,1.07,0,0,0-.14.16l-.09.12v0a2.45,2.45,0,0,0-.18.33,1.38,1.38,0,0,0-.06.16l0,.15v0a1.69,1.69,0,0,0-.07.38.91.91,0,0,0,0,.17v.11s0,.06,0,.09,0,.06,0,.09a.24.24,0,0,0,0,.08v0l.06.15.12.26,0,.05a1.31,1.31,0,0,0,.09.17v0l.08.13a1.82,1.82,0,0,0,.22.28l.15.16.14.11.14.1.18.11.32.13.15.05a.9.9,0,0,0,.22.06,2,2,0,0,0,.35,0h.21l.17,0a2.42,2.42,0,0,0,.35-.11h0l.16-.07.15-.09h0l.14-.09.12-.09,0,0a1.63,1.63,0,0,0,.26-.27l.1-.15.09-.16v0a.94.94,0,0,0,.06-.15.64.64,0,0,0,.06-.16A3,3,0,0,0,271,157.91Z"/><path class="cls-1" d="M391.12,180.18a1.61,1.61,0,0,0,0-.37,2.39,2.39,0,0,0-.05-.36,1.91,1.91,0,0,0-.13-.36,1.4,1.4,0,0,0-.19-.32.49.49,0,0,0-.1-.13l-.12-.13-.16-.12h0l-.13-.08-.34-.17-.09,0,0,0-.18-.09-.3-.13-.07,0-.3-.07-.17,0h-.2a1,1,0,0,0-.38.1l-.18.09,0,0h-.06l-.17.05-.13.06-.11.07-.12.11-.15.15-.08.13h0a1.74,1.74,0,0,0-.18.33l-.06.16a1,1,0,0,0,0,.16h0a3.25,3.25,0,0,0-.08.38c0,.06,0,.11,0,.18s0,.07,0,.1a.28.28,0,0,0,0,.09s0,.07,0,.09l0,.08v0a.75.75,0,0,0,.05.16c0,.08.09.17.13.26l0,0c0,.06.06.11.09.16l0,0,.08.13.22.28.15.15.13.12.14.1.19.1a1.61,1.61,0,0,0,.32.14l.14,0,.23.06a2,2,0,0,0,.35,0h.2l.18,0a2.86,2.86,0,0,0,.35-.12h0l.16-.08.16-.09h0l.14-.09.13-.09h0a2,2,0,0,0,.25-.27l.11-.15.09-.17v0l.06-.14.06-.17C391.05,180.44,391.09,180.31,391.12,180.18Z"/><path class="cls-1" d="M406.07,186.82a1.29,1.29,0,0,0,0-.38,2.57,2.57,0,0,0-.06-.35,1.9,1.9,0,0,0-.12-.36c-.05-.1-.11-.2-.19-.33l-.1-.13-.13-.12-.15-.12h0l-.14-.08a2.5,2.5,0,0,0-.33-.17l-.09,0,0,0-.17-.09a1.69,1.69,0,0,0-.31-.13l-.07,0-.3-.08-.17,0h-.19a.9.9,0,0,0-.39.1.56.56,0,0,0-.17.09l-.05,0h-.06l-.16,0-.13.05-.11.07-.13.11a1.07,1.07,0,0,0-.14.16l-.09.13h0a2.45,2.45,0,0,0-.18.33,1.38,1.38,0,0,0-.06.16s0,.1-.05.15v0a1.8,1.8,0,0,0-.07.38.91.91,0,0,0,0,.17v.11s0,.06,0,.09,0,.06,0,.09a.24.24,0,0,0,0,.08v0l.06.15.12.26,0,0a1.31,1.31,0,0,0,.09.17v0l.08.14a2.3,2.3,0,0,0,.22.27l.15.16.14.11.14.1.18.11a3.37,3.37,0,0,0,.32.14l.15,0a.9.9,0,0,0,.22.06,2,2,0,0,0,.35,0h.21l.17,0a2.42,2.42,0,0,0,.35-.11h0l.16-.08.15-.09h0l.14-.09.12-.09,0,0a1,1,0,0,0,.25-.27l.11-.15.09-.16v0a1.47,1.47,0,0,0,.06-.14.88.88,0,0,0,.06-.17A3.29,3.29,0,0,0,406.07,186.82Z"/><path class="cls-1" d="M395.05,190.55a1.23,1.23,0,0,0,0-.37,2.33,2.33,0,0,0-.06-.35,2.29,2.29,0,0,0-.12-.37l-.19-.32a.75.75,0,0,0-.11-.13l-.12-.12-.15-.12h0l-.13-.09-.33-.16-.09,0,0,0-.17-.1a2,2,0,0,0-.31-.12l-.07,0-.3-.08-.17,0h-.19a1.32,1.32,0,0,0-.39.1,1,1,0,0,0-.17.1l-.05,0h-.06l-.16,0-.13.06-.11.07-.13.11-.14.15-.09.13v0a1.69,1.69,0,0,0-.18.33.91.91,0,0,0-.06.16c0,.05,0,.1-.05.15v0a2.74,2.74,0,0,0-.08.37v.29s0,.06,0,.09,0,.06,0,.09a.31.31,0,0,0,0,.08v0a.44.44,0,0,0,.06.16l.12.26,0,.05c0,.07.06.12.08.16l0,0,.08.13a1.82,1.82,0,0,0,.22.28l.15.16.14.11.14.1.18.11.32.13.15,0,.22.06.35.05h.21l.17,0a1.6,1.6,0,0,0,.35-.12h0l.16-.07.16-.1h0l.14-.09.12-.1h0a1.23,1.23,0,0,0,.25-.27l.11-.15a1.31,1.31,0,0,0,.09-.17h0l.06-.15a.58.58,0,0,0,.06-.17A2.43,2.43,0,0,0,395.05,190.55Z"/></g></g></svg>