<svg xmlns="http://www.w3.org/2000/svg" viewBox="0 0 690.44 432"><defs><style>.cls-1{fill:#d89279;}.cls-2{fill:#fdc7bc;}.cls-3{fill:#c1d6e1;}.cls-4{fill:#e8ac3d;}.cls-5{fill:#2c3e50;}</style></defs><title>Asset 7</title><g id="Layer_2" data-name="Layer 2"><g id="Layer_1-2" data-name="Layer 1"><path class="cls-1" d="M393.57,0c9.35,0,18.69,1.51,28,3,9.61,1.59,19.19,2.52,28.93,3.56,5,.51,10,1.12,14.95,1.73,2.5.33,5,.63,7.51,1s5,.69,7.54,1c1.24.17,2.47.37,3.71.55l1.85.27,1.86.31,3.7.64,3.69.74c.61.13,1.23.25,1.84.39l1.84.44c1.22.3,2.44.59,3.66.93s2.42.7,3.63,1.07c.61.18,1.21.37,1.81.58l1.8.63a124.68,124.68,0,0,1,12,5c3.9,1.89,7.73,3.89,11.48,6s7.46,4.37,11.14,6.59l11,6.74c6,3.63,11.88,7.33,17.64,11.25A206.51,206.51,0,0,1,589.71,65c.73.61,1.46,1.23,2.17,1.87a1.51,1.51,0,0,1,.5.29l2.7,2.27,2.69,2.3,1.35,1.14,1.33,1.16,2.68,2.3,2.65,2.31,1.34,1.15L608.44,81l2.67,2.32,2.64,2.32c1.76,1.51,3.46,3.07,5.21,4.59.88.76,1.72,1.54,2.6,2.29s1.76,1.52,2.63,2.27c3.37,2.89,6.93,5.62,9.57,9.19a1.74,1.74,0,0,1,.11.18l1.21,1.37.6.68.3.35.32.37,2.56,3.06,1.28,1.52,1.22,1.56,2.44,3.12h0a186.38,186.38,0,0,1,11.25,16.61,154.62,154.62,0,0,1,9,17.52c.48,1.15.94,2.3,1.38,3.46s.87,2.32,1.23,3.49.75,2.35,1.1,3.53c.17.59.36,1.18.51,1.77l.46,1.78c.31,1.18.6,2.37.89,3.55.15.6.28,1.19.41,1.79l.38,1.78.76,3.56.69,3.56c.62,3.06,1.19,6.09,1.88,9.09.33,1.5.64,3,1,4.49l.52,2.23.5,2.23.63,2.68c.21.89.44,1.78.64,2.67q.62,2.67,1.27,5.34c2.3,9.7,4.39,19.38,6.58,29,.41,1.78.82,3.55,1.19,5.33.26,1.18.51,2.37.76,3.55s.47,2.37.7,3.56.49,2.67.72,4,.41,2.68.6,4c.39,2.69.65,5.38.85,8.1a216.53,216.53,0,0,1,0,24.57c-.05,1-.09,2-.14,3.06l-.3,6.11c-.15,3.05-.26,6.09-.35,9.13,0,2-.08,4.06-.07,6.08,0,2.48,0,4.95.06,7.43.13,9.89.39,19.77.21,29.65l-.06,2.47c0,.91-.05,1.81-.09,2.72a1.53,1.53,0,0,1,.09.54q-.26,13.44.22,26.92c.15,4.42.32,8.86.67,13.3.34,4.26.94,8.53.38,12.8a1.18,1.18,0,0,1,0,.2l-.34,7.1-.17,3.59-.1,1.82,0,.93,0,.48,0,.54-44.05-5.17v-.87l0-1,0-2,.08-4c.07-2.67.16-5.35.29-8,.07-1.52.17-3,.29-4.55a.43.43,0,0,1,0-.11c0-1.8-.1-3.6-.12-5.39,0-4.24,0-8.47.05-12.71.11-8.46.3-16.93.45-25.39v-.88c.23-13.4.18-26.8-.28-40.15q-.46-13.65-1.16-27.22c-.12-2.26-.22-4.52-.36-6.77-.38-6.78-.8-13.54-1.31-20.29s-1.19-13.58-2-20.32-1.93-13.42-3.15-20c-.2-1.11-.4-2.22-.61-3.32l-.67-3.29c-.43-2.2-.93-4.37-1.4-6.56q-2.2-9.79-4.94-19.35c-.62-2.11-1.22-4.24-1.9-6.32l-.79-2.53-.22-.71-.23-.7-.48-1.41-1-2.81c-.68-1.84-1.39-3.68-2.13-5.49-.35-.8-.71-1.59-1.08-2.38-.55-1.18-1.1-2.36-1.74-3.49L619.87,159l-.62-1.08c-.2-.36-.43-.7-.64-1l-2-3.13c-.16-.27-.33-.52-.51-.77l-.52-.75-1.05-1.51-.7-1-.35-.5-.37-.48-1.46-1.92-1.07-1.42c-.37-.47-.75-.92-1.12-1.37-.75-.91-1.48-1.83-2.22-2.73s-1.56-1.78-2.33-2.68l-.57-.68-.6-.64-1.18-1.3-1.16-1.3-1.29-1.42c-.87-1-1.73-1.93-2.59-2.9-.49-.54-1-1.09-1.45-1.64l-1.41-1.67-.06-.08c-1.25-1.19-2.52-2.36-3.75-3.55-.73-.69-1.46-1.38-2.18-2.08l-1.08-1.06-1.09-1-2.15-2.09-2.17-2.07c-5.78-5.5-11.63-10.81-17.63-15.86l0,0-.56-.48,0,0a203.61,203.61,0,0,0-30.38-21,260.38,260.38,0,0,0-46.35-20.23c-2.05-.7-4.14-1.31-6.22-2l-3.15-.9-1.57-.44-1.59-.41c-4.23-1.13-8.53-2.1-12.85-3l-3.26-.65c-1.08-.21-2.18-.4-3.27-.6-2.18-.41-4.38-.75-6.58-1.12-4.41-.67-8.84-1.31-13.31-1.83-8.93-1.07-18-1.82-27.07-2.42a167.72,167.72,0,0,0-22.09-.47c-8.84.59-17.64,1.91-26.45,3.2L357.23,2.59c6-.68,12-1.32,18.08-1.8S387.45,0,393.57,0Z"/><path class="cls-1" d="M1.32,385.65c.83-9.06,3-17.95,5-26.83a244,244,0,0,0,4.34-27.75c1-9.53,2-19.08,2.69-28.69.68-9.44,1.31-18.85,3.22-28.18A239.05,239.05,0,0,1,23,250.72c2.43-7.77,5-15.5,7-23.39,1.7-6.43,3.29-12.92,5-19.42s3.58-13,5.84-19.5q.47-1.33,1-2.67a1.61,1.61,0,0,1,.08-.57c1.56-4.44,3.13-8.92,4.81-13.46L48,168.29l1.35-3.44.34-.87.36-.87.72-1.74.36-.88.18-.44.17-.4.68-1.6,1.31-3.16c.44-1.06.86-2.12,1.32-3.18.9-2.12,1.76-4.25,2.6-6.41s1.62-4.16,2.49-6.21c.21-.52.45-1,.7-1.53s.49-1,.76-1.49a32.28,32.28,0,0,1,1.73-2.88l.13-.17c2.5-4.27,5-8.55,7.72-12.79h0l1.28-2,1.34-2,2.69-4c.22-.34.45-.67.69-1l.71-1,1.42-2,1.43-2,.72-1,.75-1q1.52-1.94,3-3.85c.51-.63,1-1.28,1.54-1.9l1.61-1.86c1.08-1.23,2.16-2.46,3.26-3.68s2.28-2.37,3.43-3.54c.89-.89,1.79-1.77,2.7-2.63s1.9-1.65,2.86-2.45,1.93-1.6,2.91-2.39l.74-.58.76-.56,1.52-1.1,3.07-2.18L111,76.45l1.58-1,3.16-2,1.58-1,.78-.5.8-.48Q121,70.21,123,69l2-1.28.5-.32L126,67l1-.61c1.36-.83,2.7-1.66,4-2.51l2-1.27,2-1.22c1.61-1,3.22-2,4.82-3,.8-.52,1.62-1,2.44-1.46l2.43-1.46,3.32-2c.27-.17.55-.33.83-.48l.84-.47,1.68-.95,3.36-1.9,1.67-.95c.56-.32,1.13-.61,1.69-.91q3.39-1.82,6.76-3.66c2.27-1.17,4.54-2.34,6.8-3.54.83-.44,1.66-.9,2.5-1.31l2.52-1.24,3.37-1.64,1.69-.81c.56-.27,1.12-.55,1.69-.79,2.57-1.11,5.14-2.19,7.75-3.22,1.3-.53,2.62-1,3.94-1.41s2.65-.86,4-1.26l3-.88c.51-.15,1-.27,1.53-.39l1.54-.36q3.08-.72,6.16-1.35l1.54-.32.77-.15.77-.14,3.1-.51,6.18-1c1-.17,2.06-.3,3.09-.44q3.09-.4,6.16-.84l2.3-.34,1.15-.17,1.15-.15c1.54-.21,3.07-.42,4.59-.65,2-.31,4.07-.64,6.09-1,2.47-.41,4.94-.83,7.4-1.28,9.86-1.81,19.68-3.55,29.54-4.89l1.24-.17,1.23-.14c.91-.11,1.81-.2,2.72-.29a1.65,1.65,0,0,1,.53-.17c2.23-.28,4.47-.58,6.7-.91l6.64-1,3.3-.53,3.3-.54q3.3-.57,6.59-1.19c4.33-.82,8.67-1.65,13-2.67,2.07-.49,4.13-1.06,6.21-1.5a33.38,33.38,0,0,1,6.3-.85h.2c2.33-.25,4.65-.52,7-.79l7-.8,2.58,44.28c-2.67.39-5.35.78-8,1.14s-5.36.68-8.06,1c-1.52.16-3,.3-4.57.41H339c-1.78.31-3.56.66-5.35,1-4.2.7-8.42,1.29-12.65,1.87l-6.34.86-6.36.82-3.18.39-3.12.42-6.24.8h-.05l-.79.1h0c-13.16,1.75-26.22,3.83-39.06,6.48l-6.53,1.41c-1.09.23-2.19.45-3.27.69l-3.24.76-6.48,1.49L229.94,68l-3.22.8c-1.07.26-2.12.57-3.18.85L218.77,71l-1.2.32c-.4.1-.79.21-1.18.33l-2.36.69L209.3,73.7l-1.18.34c-.4.11-.78.24-1.17.36l-2.34.75-4.71,1.5-.59.19-.58.21-1.16.41-2.32.84-2.31.83-1.16.42-.58.21-.57.23-4.54,1.83-2.28.92c-.38.15-.75.32-1.12.49l-1.11.5-4.46,2-1.11.5-1.09.54-2.18,1.08-2.18,1.08-1.09.53-.54.28-.54.28-5.67,3.08c-.48.25-.94.54-1.4.81l-1.38.82-2.78,1.63-1,.61c-.35.2-.68.43-1,.65l-2,1.3-2,1.3-1,.64c-.35.22-.66.46-1,.68l-3.95,2.74-1,.68c-.32.23-.64.48-1,.72l-1.93,1.43L138.61,109l-2.51,2-2,1.61c-.38.3-.77.59-1.14.9l-1.1,1-2.2,1.9-1.1,1-.54.48-.53.5c-.7.67-1.39,1.35-2.08,2s-1.22,1.22-1.82,1.84l-.33.35-.32.36-.64.74c-.43.49-.84,1-1.26,1.49-1,1.28-2.11,2.56-3.08,3.92-.74,1-1.47,2-2.19,3l-.54.76c-.18.25-.35.52-.52.78l-1,1.57-1.36,2.1-.68,1c-.22.35-.43.71-.65,1.07l-1.9,3.17-.95,1.59-.91,1.61c-.63,1.11-1.25,2.2-1.88,3.29l-.48.82-.45.84-.92,1.67c-.62,1.11-1.25,2.2-1.88,3.3s-1.23,2.23-1.86,3.34c-.36.62-.72,1.24-1.09,1.86s-.72,1.25-1.1,1.87a.47.47,0,0,1-.06.09c-.71,1.55-1.41,3.11-2.14,4.66-.82,1.85-1.68,3.68-2.56,5.5s-1.72,3.69-2.59,5.52l-.33.69c-.05.11-.11.23-.15.33l-.14.31L89,181.1l-.55,1.22L88,183.58c-.72,1.66-1.41,3.42-2.12,5.16-1.38,3.52-2.71,7.19-4,10.92l0,.05-.24.71v0c-2,5.95-3.88,12.1-5.61,18.37s-3.31,12.64-4.79,19.09q-3,13.2-5.81,26.62c-1,4.47-1.87,9-2.81,13.44s-1.86,9-2.78,13.52C56,309.71,53.1,328.2,50.42,346.74c-1.34,9.28-2.62,18.58-3.9,27.88a223.58,223.58,0,0,0-2.45,22.5c-.16,4.51-.17,9-.11,13.54,0,2.25.08,4.51.14,6.75l.08,3.36.1,3.28L0,421.53l0-4.6,0-4.49q.06-4.49.19-9C.47,397.52.77,391.58,1.32,385.65Z"/><path class="cls-2" d="M374.56,57.65c1.21,0,2.43.13,3.65.21l2.86.16c1.91.11,3.81.16,5.72.24s3.83.17,5.74.22l2.86.08,1.43,0,1.44.05,5.74.18,3.59.08,3.6.14c2.4.1,4.8.18,7.19.29l5.76.36c1.46.1,2.92.18,4.37.29l4.38.37,4.38.36,2.19.21,2.19.24,3.65.37,1.83.19.91.09.92.12,7.32.9c1.22.13,2.44.33,3.66.5l3.67.54,3.67.52L471,65l4.4.72,1.1.18,1.1.2,2.2.41c2,.35,3.92.7,5.89,1s3.93.77,5.91,1.13l3,.53,6,1.22,3,.63q3.72.9,7.41,1.92c.62.17,1.23.34,1.84.53l1.83.6q1.83.6,3.63,1.26l2,.76c.33.14.67.26,1,.41l1,.44c1.33.59,2.64,1.2,4,1.83l1.3.63c.87.42,1.75.84,2.6,1.31l6.39,3.48c.43.22.85.47,1.27.72l1.26.73,5.17,3c.44.24.86.51,1.28.77l1.28.79,2.54,1.57,2.54,1.57c.84.53,1.67,1.1,2.5,1.64l5,3.32,4.63,3.31a1.48,1.48,0,0,1,.26.24c.8.59,1.6,1.19,2.37,1.81s1.52,1.29,2.27,2,1.49,1.32,2.22,2l1.1,1c.36.34.73.67,1.07,1,.69.71,1.37,1.44,2,2.18l1,1.1c.84.92,1.68,1.83,2.54,2.72s1.68,1.83,2.57,2.69c.32.31.65.61,1,.91l1,.88c.52.43,1,.86,1.57,1.28s1,.86,1.55,1.29c1,.87,2,1.75,3,2.67l1.21,1.18.59.6.3.3.33.37c.87,1,1.73,2,2.59,3a1.63,1.63,0,0,1,.75.52c.92,1.17,1.84,2.33,2.78,3.48l.35.43.33.44.66.87,1.32,1.73.89,1.15.83,1.15,1.25,1.73.63.87.32.43.29.44,2.36,3.48c.27.39.51.78.75,1.17l.73,1.17.28.46.44.72c.35.6.72,1.19,1,1.79s.63,1.21.93,1.82.6,1.22.89,1.83c.15.3.3.61.43.92l.39.92c.52,1.24,1,2.48,1.49,3.73s.86,2.5,1.28,3.75c.2.63.41,1.26.59,1.89l.54,1.88.86,2.95c.4,1.47.8,2.93,1.22,4.39l.31,1.09.29,1.09.6,2.17c.26,1,.55,1.93.79,2.89l.77,2.88c.19.72.4,1.44.58,2.15l.55,2.15c.37,1.43.76,2.86,1.1,4.28l.89,3.56c.3,1.19.57,2.37.85,3.55.59,2.37,1.1,4.73,1.63,7.09.22.95.41,1.89.6,2.83l.58,2.83c.2.95.38,1.91.57,2.86l.55,2.86c.19.95.36,1.9.53,2.85l.53,2.85c.18,1,.34,1.9.51,2.85l.5,2.85c.17.95.33,1.9.49,2.85l.48,2.84c1.27,7.58,2.45,15.14,3.61,22.69.21,1.41.43,2.82.65,4.23l.66,4.22q.43,2.82.92,5.62c.31,1.88.63,3.75,1,5.62l.51,2.8.53,2.81.51,2.81.5,2.82c.25,1.4.48,2.81.7,4.22s.43,2.82.61,4.23c.24,1.89.46,3.78.62,5.66l.1,1.34c.17,2.22.23,4.45.26,6.67l0,1.34v2.67l-.06,6.67,0,2.67v16.36l0,5.45v5.17a.83.83,0,0,1,0,.32,106.65,106.65,0,0,1-.73,10.85c-.11.9-.24,1.8-.37,2.71l-.2,1.35a67.1,67.1,0,0,0-.77,6.77c0,.41,0,.82,0,1.23s0,.82,0,1.23c.07,2.47.36,4.93.37,7.41,0,2.06-.13,4.12-.26,6.18a1,1,0,0,1,.19.7c-.2,3.16-.25,6.33-.26,9.51l0,4.79,0,2.41v3l-46.13-3.14.11-3.57.1-3.73c0-2.49.09-5,.12-7.51l.06-4.19a.92.92,0,0,1-.07-.87l0-.07v0l.07-.59.07-.71.06-.71c.07-.76.16-1.51.27-2.27s.25-1.51.42-2.26c.77-3.35,1.66-6.68,2.2-10.06a101.2,101.2,0,0,0,.93-18.48.43.43,0,0,1,0-.11c-.14-1.79-.22-3.59-.24-5.38,0-1.34,0-2.69,0-4s.09-2.69.14-4l.13-2.68.14-2.69.13-2.69c.07-1.35.11-2.7.14-4l0-1.35v-1.35c0-1.35,0-2.7-.1-4q-.07-1.35-.21-2.7t-.3-2.7l-.34-2.69-.16-1.35-.14-1.34c-.17-1.8-.3-3.6-.41-5.4-.17-2.69-.26-5.4-.35-8.09l-.07-2.71q-.07-2.69-.12-5.4l-.15-5.39-.1-2.7c0-1.12-.09-2.24-.15-3.36s-.14-2.24-.22-3.36c-.15-2.24-.39-4.46-.65-6.69-.79-6.28-1.87-12.51-3.14-18.67l-.56-2.64c-.19-.88-.38-1.75-.59-2.62l-.6-2.62c-.2-.87-.41-1.74-.63-2.6l-.65-2.6-.33-1.29-.34-1.29-1-3.86-1.08-3.83-.35-1.26-.37-1.25-1.09-3.76-1.13-3.72c-.24-.83-.5-1.65-.76-2.47l-.76-2.46c-.24-.82-.52-1.62-.78-2.43l-.77-2.43-1.58-4.81c-.27-.8-.55-1.58-.82-2.38L579,197l-.83-2.33-.6-1.76-.64-1.72-.62-1.73-.31-.86-.32-.85-.69-1.79c-.23-.6-.45-1.2-.71-1.77-.5-1.16-1-2.32-1.51-3.46a90.49,90.49,0,0,0-4.21-8,72.44,72.44,0,0,0-6.73-9.65l-1-1.12c-.33-.37-.64-.78-1-1.1a.47.47,0,0,1-.47-.37v-.05l0,0-.23-.33-.29-.39-.29-.39-.06-.07-.07-.09-.17-.2-.33-.39c-.21-.26-.43-.53-.63-.8-.42-.55-.82-1.11-1.19-1.7a80.41,80.41,0,0,0-5.24-7.71c-.43-.56-.91-1.07-1.38-1.59s-1-1-1.45-1.51-1-1-1.49-1.48-1-1-1.55-1.42q-1.6-1.35-3.27-2.64c-.55-.42-1.1-.86-1.66-1.27l-1.74-1.18-.09,0c-.71-.41-1.4-.84-2.08-1.29-.34-.22-.68-.44-1-.67s-.67-.47-1-.68c-1-.66-2-1.35-3-2.06l-1.48-1.07-.74-.55-.75-.52-2-1.4-2-1.42-1-.72-1-.67c-1-.66-2.09-1.33-3.14-2-.71-.43-1.41-.87-2.13-1.27-1.1-.58-2.21-1.14-3.33-1.67-.76-.35-1.52-.69-2.29-1l-.58-.23-.59-.21-1.19-.41c-1.58-.54-3.17-1.07-4.72-1.67-.38-.16-.78-.28-1.18-.43l-1.18-.42c-.78-.29-1.56-.58-2.34-.89l-1.74-.7-.87-.35-.89-.33c-1.17-.44-2.35-.9-3.52-1.37-2.32-1-4.71-1.81-7.08-2.72l-1.78-.67c-.3-.11-.59-.24-.89-.34l-.91-.3-3.62-1.21c-1-.33-2-.68-3-1l-3.09-.85c-2.07-.53-4.13-1.1-6.25-1.46s-4.26-.79-6.4-1.13-4.32-.55-6.48-.81l-1.62-.18-1.64-.13-3.26-.26-3.27-.24-3.28-.12-3.94-.14c-.66,0-1.31-.06-2-.06h-2l-3.95,0c-1.32,0-2.63,0-3.95,0l-2.62,0c-2.62.06-5.22.06-7.84.17l-5.23.15L407,102l-1.31.06-2.62.11-3.94.13c-.65,0-1.31,0-2,.06l-2,.1c-1.76.07-3.51.14-5.26.19l-2,.06c-.66,0-1.32,0-2,.08l-4,.14c-1.4,0-2.79.09-4.19.15s-2.8.19-4.2.29l-5.22.41-1.3.11-1.31.15-2.61.28L359.32,58.2l.74-.1c1.2-.15,2.4-.28,3.6-.37s2.42-.12,3.63-.14C369.71,57.54,372.13,57.57,374.56,57.65Z"/><path class="cls-2" d="M60.74,403.36c.19-1.16.4-2.32.61-3.48.16-.91.32-1.83.47-2.74.61-3.64,1.13-7.3,1.59-11s.87-7.33,1.24-11c.46-4.59.89-9.18,1.32-13.77l.54-5.5q.83-8.34,1.61-16.7,1.3-13.93,2.41-27.94.33-4.18.6-8.39c.25-3.74.45-7.48.6-11.25l.09-2.82.18-5.67.1-2.84c.2-4.74.51-9.49,1.11-14.21.18-1.34.38-2.67.61-4s.49-2.66.76-4l.28-1.32.58-2.65c.25-1.1.52-2.2.77-3.31l.79-3.31.61-2.65c.44-1.83.84-3.64,1.29-5.48l.65-2.74.67-2.76.33-1.38.35-1.39.7-2.78c.49-1.86,1-3.72,1.49-5.6s1-3.59,1.52-5.39a1.3,1.3,0,0,1,.14-.32,81.33,81.33,0,0,1,4.53-11.42c.23-.48.47-1,.71-1.43s.51-1,.78-1.46l.79-1.44q2.07-3.63,4.16-7.24c.2-.37.39-.73.58-1.11s.36-.75.53-1.12c.51-1.13,1-2.32,1.5-3.48.25-.59.49-1.17.75-1.75s.54-1.17.83-1.74c.48-1,1-1.9,1.53-2.84s1.12-1.86,1.68-2.79a1.13,1.13,0,0,1,.17-.75l1.93-3.25c.65-1.1,1.26-2.2,1.9-3.31l1.28-2.23.95-1.68c.31-.56.65-1.11,1-1.68l2-3.36c.45-.75.92-1.49,1.38-2.23l.27-.43.44-.68c.36-.55.72-1.1,1.09-1.64s.78-1.07,1.18-1.6c.8-1,1.62-2.09,2.46-3.11s1.76-2,2.66-3c.46-.49.91-1,1.37-1.46l1.42-1.4,2.89-2.77,2.33-2.1c2.3-2.14,4.69-4.17,7-6.25l2.39-2,2.37-2c.29-.26.59-.5.9-.74l.91-.73,1.81-1.46,1.8-1.47c.61-.48,1.23-.94,1.85-1.41l3.06-2.35.77-.59.78-.56,1.56-1.11,3.12-2.24c1-.73,2.12-1.42,3.17-2.13l2.54-1.68.64-.42.64-.4,1.3-.79,2.61-1.59,1.31-.8.65-.4.66-.38,5.29-3c.88-.52,1.77-1,2.66-1.45l2.67-1.42,2.66-1.43,2.69-1.34c7.15-3.67,14.38-6.88,21.61-10.08,2.72-1.14,5.42-2.3,8.12-3.48q2.72-1.11,5.41-2.26c1.8-.77,3.59-1.57,5.39-2.31l2.69-1.15,2.7-1.16,1.35-.59q.68-.3,1.35-.57l2.71-1.09c1.35-.55,2.72-1.09,4.08-1.62s2.73-1,4.11-1.51c1.84-.62,3.68-1.22,5.54-1.77l1.32-.39c2.19-.64,4.4-1.12,6.62-1.58l1.33-.28,2.68-.53c1.11-.21,2.22-.43,3.34-.63l3.33-.58,2.67-.48,5.44-1,5.44-1,5.43-1c1.81-.36,3.61-.64,5.41-1l5.14-.91a1.16,1.16,0,0,1,.32,0,94.66,94.66,0,0,1,10.91-1.12c.92,0,1.84-.08,2.76-.11l1.37,0a68.31,68.31,0,0,0,6.88-.34l1.24-.17,1.23-.23c1.22-.24,2.43-.54,3.65-.82s2.45-.53,3.68-.73c2.07-.33,4.15-.51,6.23-.71a1.05,1.05,0,0,1,.67-.31c6.39-.53,12.7-1.73,19.1-2.61l.46-.06,3.88,46.07-3.68.42-1.84.21-.92.1-.92.13-7.36,1-2,.27c-.69.09-1.37.2-2.05.3a.9.9,0,0,1-.84.2h-.11l-.59,0-.7,0-.7,0q-1.12.08-2.25.09c-.75,0-1.51,0-2.27-.08-1.69-.14-3.38-.27-5.08-.38s-3.39-.19-5.08-.19c-.77,0-1.53,0-2.3,0l-1.15,0-1.14.08c-1.52.12-3.05.28-4.56.47-3,.38-6.05.87-9.05,1.5l-.11,0c-1.72.46-3.46.84-5.21,1.16-1.31.25-2.64.44-3.95.66s-2.63.4-3.95.58l-2.63.34-2.65.32c-.88.11-1.76.21-2.64.35-1.31.19-2.63.39-3.94.6l-1.32.23-1.31.23c-1.3.25-2.61.51-3.9.83-.86.22-1.72.46-2.57.73-1.7.52-3.38,1.09-5.07,1.64l-1.27.4c-.43.14-.86.25-1.28.39q-2.52.8-5.09,1.48c-1.27.35-2.56.67-3.85,1l-3.83,1-2.56.63c-1.71.41-3.44.79-5.13,1.24l-5.09,1.31c-.85.22-1.71.43-2.54.67q-3.13.91-6.26,1.9l-1.56.5c-.51.17-1,.36-1.52.55-1,.38-2,.76-3,1.16l-2.14.85-1.06.43-1,.46-4.15,1.89-2.07,1-2,1-4,2.09c-.39.19-.76.4-1.13.62l-1.11.64q-2.24,1.28-4.44,2.56l-4.29,2.71-1.07.68c-.36.22-.7.47-1,.7l-3.11,2.13c-.51.36-1,.7-1.54,1.07l-1.49,1.11-2,1.46-.74.54-.37.27-.36.29-1.43,1.13-2.86,2.24c-1.23,1-2.46,2.06-3.69,3.07l-.46.38-.45.4-.89.79-1.78,1.56c-.3.26-.61.51-.89.78l-.87.81-1.73,1.6-.87.79-.84.82L168.69,167l-.84.81c-.29.27-.55.56-.83.83-.81.84-1.63,1.67-2.46,2.5s-1.6,1.7-2.42,2.54l-.64.68-.32.33-.3.35-1.22,1.41-1.22,1.41c-.4.47-.78,1-1.17,1.46l-1.43,1.84-.36.46-.34.47-.69,1-1.37,1.91c-.44.64-.87,1.31-1.31,2-1.25,1.83-2.41,3.78-3.6,5.69l-1.73,3-.43.74-.42.76-.84,1.52-.94,1.69-.93,1.73a.84.84,0,0,1-.32.76l-.05,0,0,0c-.1.16-.21.3-.32.46l-.36.56-.36.57c-.39.61-.79,1.21-1.22,1.8s-.88,1.16-1.35,1.74c-1.06,1.29-2.16,2.53-3.24,3.84-.53.66-1.07,1.32-1.59,2-.26.34-.52.67-.77,1s-.21.27-.31.39l-.27.34-.48.63c-.16.21-.31.47-.46.71a16.72,16.72,0,0,0-.9,1.51l-.42.82c-.14.27-.29.53-.42.83-.26.59-.52,1.17-.77,1.76a64.87,64.87,0,0,0-2.54,7.77.34.34,0,0,1,0,.1c-.32,1.63-.71,3.22-1.12,4.85-.33,1.21-.66,2.43-1,3.65s-.72,2.46-1.1,3.68l-.74,2.47c-.25.83-.51,1.65-.76,2.49l-.73,2.5c-.36,1.26-.71,2.54-1,3.81-.22.85-.42,1.71-.62,2.57q-.45,1.93-.78,3.9c-.6,3.51-.75,7.1-1.18,10.66-.21,1.78-.47,3.55-.74,5.33-.41,2.66-.88,5.33-1.37,8s-1,5.32-1.54,8l-.77,4-.74,4c-.8,4.47-1.51,9-2,13.49-.95,9.15-1.42,18.37-1.71,27.61-.17,5.54-.28,11.09-.38,16.63l-.05,2.75q-.1,4.13-.19,8.24l-.16,5.49-.19,5.49c-.11,2.74-.23,5.49-.37,8.23-.1,1.82-.2,3.65-.32,5.48-.17,2.74-.36,5.47-.58,8.21s-.42,5.79-.58,8.68c-.1,1.81-.18,3.61-.26,5.4l-.1,2.69-.08,2.63-46.18-2.36v-.77c0-2.41.19-4.75.44-7.09S60.35,405.69,60.74,403.36Z"/><path class="cls-3" d="M109.87,389q-.47-9.13-.37-18.27l0-2.28,0-2.28.14-4.56.22-4.56.12-2.28.16-2.28a337.45,337.45,0,0,1,4.47-36.3,346.26,346.26,0,0,1,20.79-71.22l1.83-4.36.92-2.18c.31-.72.64-1.44,1-2.16l1.9-4.33.95-2.16.23-.55.06-.13.07-.16.15-.32.59-1.28c.8-1.71,1.57-3.42,2.38-5.12l2.57-5c.21-.42.41-.85.64-1.26l.69-1.25,1.36-2.49,1.37-2.5,1.45-2.46,1.47-2.49.73-1.25.79-1.22,3.15-4.87,3.37-4.71.85-1.18.89-1.13,1.79-2.27,1.82-2.26c.62-.72,1.26-1.44,1.89-2.16l1.91-2.15,1-1.07c.32-.35.66-.68,1-1,1.34-1.36,2.68-2.71,4.05-4,.33-.34.69-.64,1-1l1.05-1,2.12-1.88,1-.89c.35-.3.69-.6,1-.87.71-.56,1.43-1.12,2.15-1.66l2.16-1.63,1.09-.8,1.11-.76q2.23-1.49,4.48-2.93c.74-.5,1.51-.93,2.27-1.37l2.28-1.33L202.4,158c.38-.22.77-.42,1.15-.62l1.16-.6,4.61-2.4,4.63-2.24,2.31-1.12,2.31-1,4.37-2c1.45-.65,2.91-1.25,4.37-1.88l2.18-.93,1.1-.46,1.09-.42,4.38-1.7c.73-.27,1.46-.57,2.2-.82l2.19-.76,4.4-1.48c1.47-.47,2.94-.88,4.41-1.31l2.21-.62c.74-.19,1.47-.42,2.21-.58,2.63-.63,5.28-1.22,7.93-1.71a2.09,2.09,0,0,1,.79,0,240.59,240.59,0,0,1,29.08-6.44c1.21-.2,2.42-.43,3.63-.61l3.61-.57c2.41-.38,4.81-.8,7.2-1.15s4.79-.77,7.17-1.16,4.75-.79,7.11-1.23a2.06,2.06,0,0,1,.44-.14c1-.19,2-.33,3-.5l1-.17.33,0c11.06-1.74,22.15-2.61,33.15-3.42l1.95-.16,2-.14,3.94-.29,3.94-.32,4-.31c1.33-.11,2.65-.22,4-.35l2-.19c.66-.07,1.33-.12,2-.18,2.67-.24,5.34-.54,8-.86,3.08-.32,6.16-.64,9.27-.89l4.7-.3,2.36-.14,1.18-.06,1.19,0,4.78-.11,2.39,0,2.42,0,4.85.08,1.21,0,1.23.06,2.46.13,3.08.18,1.54.1,1.56.14c2.08.2,4.16.39,6.24.62s4.21.57,6.32.88c1,.13,2.12.34,3.18.53l3.2.59,1.91.36c.64.13,1.29.29,1.93.43l3.87.89c.64.16,1.28.29,1.93.47l1.94.54,3.89,1.1a139.74,139.74,0,0,1,30.87,13.44c.52.3,1,.59,1.55.91l1.51,1,3,1.94.75.49.73.52,1.46,1,2.91,2.09c1,.71,1.88,1.45,2.82,2.19s1.87,1.46,2.77,2.22l2.67,2.31c.88.77,1.79,1.53,2.62,2.34A158.21,158.21,0,0,1,540.22,173l1.59,2.07,1.51,2.07,1.51,2.07.37.52.36.51.72,1,2.14,3.09,2.07,3.05c1.4,2,2.68,4,4,6l.5.75.49.74,1,1.48,2,3q1.18,1.83,2.38,3.66c.75,1.21,1.51,2.42,2.26,3.64,3,4.9,5.68,9.78,8.11,14.66s4.6,9.74,6.49,14.62q.93,2.43,1.8,4.88c.55,1.62,1.11,3.25,1.61,4.88a134.17,134.17,0,0,1,4.09,17.76c1,5.91,1.7,11.77,2.45,17.57l.3,2.31c.77,5.85,1.5,11.66,2.06,17.45s1,11.55,1.06,17.3c0,2.56,0,5.13-.09,7.68a2,2,0,0,1-.18.74c.75,9.55.82,19.09.76,28.58s-.22,18.94.07,28.37a1.62,1.62,0,0,1,.07.44c0,1,0,2,.06,3l0,1a1.69,1.69,0,0,1,0,.32c0,5.51-.09,11-.33,16.55q-.18,4.14-.44,8.32l-.27,4.21-.31,4.48L529,417.24v-3.86l-.05-4.15c0-2.78-.11-5.59-.19-8.4l0-1a1.48,1.48,0,0,1-.1-.57,49.41,49.41,0,0,0-.51-7.28c-.31-2.43-.68-4.85-.87-7.28q-.65-8.15-1.36-16.25l-1.41-16.2q-.68-8.07-1.28-16.08a2,2,0,0,1,0-.43,1.65,1.65,0,0,1-.14-.6c-.08-4.08-.08-8.15-.07-12.21s0-8.13,0-12.17c-.07-5.2-.28-10.37-.8-15.45a90.43,90.43,0,0,0-2.72-14.9c-1.13-4-2.36-8-3.7-11.84a148.64,148.64,0,0,0-9.19-21.15,87.69,87.69,0,0,0-5.24-8.62l-2-2.81-1.87-2.61-1.85-2.53-.92-1.27-.92-1.23L492,225.92c-2.82-3.7-5.57-7.2-8.29-10.45l-1-1.2-.51-.6-.25-.3-.26-.29c-.68-.75-1.36-1.51-2-2.28l-2-2.17-.5-.55-.52-.51-1-1-.87-.89-.9-.83-.88-.83c-.3-.28-.59-.58-.89-.83-.61-.52-1.21-1-1.81-1.59-.15-.13-.3-.27-.46-.39l-.46-.37-.93-.76a81.61,81.61,0,0,0-10.63-7.28l-1.45-.82-.72-.42-.76-.37-1.52-.77-.76-.39c-.25-.13-.5-.26-.77-.37-.93-.41-1.85-.83-2.78-1.26a112.3,112.3,0,0,0-18.49-6.24c-.54-.15-1.12-.26-1.68-.39l-1.69-.37-1.7-.37-.85-.18-.87-.16-5.24-.89q-2.67-.34-5.36-.66l-.9-.1-.91-.07-1.82-.14c-1.22-.09-2.44-.18-3.65-.25s-2.47-.09-3.7-.12l-3.71-.05a253.89,253.89,0,0,0-25.77,1.7l-6.51.8c-1,.12-2,.28-3,.42-3.38.5-6.77.95-10.11,1.53-2.18.36-4.36.69-6.52,1.07l-1,.18a1.69,1.69,0,0,1-.55.18c-1.19.15-2.38.37-3.55.63-.59.13-1.18.27-1.76.42l-.88.22-.86.25c-2.32.66-4.62,1.37-6.95,1.89l-7.75,1.85c-2.56.64-5.1,1.3-7.66,1.92s-5.06,1.34-7.59,2-5,1.36-7.5,2c-1.23.35-2.46.7-3.7,1l-1.85.5-.93.25-.91.27-3.66,1-1.83.5-1.8.53a1.41,1.41,0,0,1-.4.05,1.53,1.53,0,0,1-.53.25c-7.44,1.69-14.87,3.12-22,5l-3.42,1-1.71.49-1.66.55c-1.11.37-2.22.75-3.32,1.14s-2.15.84-3.22,1.28l-1.59.66-.4.17-.38.19-.77.37c-1,.5-2,1-3,1.53l-.37.2-.36.21-.72.43-1.43.87-1.41.9a8.19,8.19,0,0,0-.68.47l-.66.49-2.22,1.65-.55.41-.53.44-1.05.86c-.69.58-1.41,1.14-2.08,1.73l-2,1.79A85.85,85.85,0,0,0,218.9,234a82.85,82.85,0,0,0-7.74,12.35l-.72,1.44-.36.71-.18.36-.17.37q-.63,1.48-1.32,2.94c-.4,1-.79,2-1.21,3l-.31.76-.38,1-.75,2c-4.07,10.59-8.07,21.28-11.86,32.13-1.92,5.42-3.73,10.9-5.51,16.41l-.34,1-.32,1-.64,2.07-1.3,4.16L184.56,320c-.42,1.4-.85,2.79-1.23,4.2-2.77,9.76-5.42,19.65-7.52,29.68-.54,2.5-1,5-1.46,7.54-.24,1.26-.43,2.53-.64,3.8s-.41,2.53-.58,3.8c-.71,5.07-1.23,10.17-1.51,15.27-.22,4.34-.36,8.69-.34,13s.12,8.62.35,12.83c0,.77.09,1.54.14,2.29s.1,1.52.16,2.26l.09,1.1.1,1.08,0,.52.06.51,0,.24,0,.22,0,.21v0h0L110.77,422l-.06-1.38,0-1.13-.06-2.17-.09-4.17-.15-8.16C110.27,399.63,110.14,394.3,109.87,389Z"/><path class="cls-4" d="M353.56,222l1.84.15,1.44.14c1,.09,1.92.15,2.88.23s1.91.16,2.87.23l5.75.44q3.6.27,7.18.64c1,.09,1.91.21,2.86.32,1.45.16,2.89.37,4.34.56.72.09,1.44.21,2.17.31s1.44.2,2.16.32q7.21,1.09,14.41,2.56l2.15.43,2.15.45,5.75,1.2,1.44.3c1,.18,1.92.41,2.89.61.48.11,1,.21,1.44.33,1.2.29,2.41.58,3.6.92s2.38.69,3.56,1.1l2,.74.49.2.25.1.27.12,1.08.49.71.33,1.42.68,3.47,1.91,1.34.83c1.87,1.1,3.64,2.34,5.41,3.58l2.59,1.95c.85.68,1.67,1.38,2.5,2.06l.6.49.57.52,1.14,1,.13.15c.39.37.79.73,1.16,1.12l1.11,1.19,1.08,1.2.26.31.26.32.5.63,1,1.3.48.65c.78,1.1,1.54,2.22,2.38,3.25l.45.57.46.55c.47.55,1,1.08,1.43,1.62.25.27.47.54.7.82s.45.56.67.85c.37.48.72,1,1.07,1.47s.66,1,1,1.51a.88.88,0,0,1,.3.28c.37.58.76,1.16,1.14,1.74s.75,1.16,1.13,1.74l.77,1.14,2.24,3.48c.25.38.48.78.72,1.17l.13.22.22.37c.35.59.69,1.2,1,1.8s.62,1.24.91,1.86.57,1.26.85,1.89.52,1.28.77,1.92l.75,1.93.55,1.53c.27.76.56,1.52.84,2.27l.83,2.28.56,1.51.54,1.51.83,2.26.8,2.26.67,1.89.65,1.88.64,1.89.62,1.89c.33,1,.66,2,1,3l.94,3.08.9,3.08c.31,1,.58,2.05.88,3.08l.44,1.54.42,1.54c.57,2.06,1.1,4.12,1.66,6.18s1.07,4.12,1.58,6.18l1.17,4.63.78,3.08c.27,1,.53,2,.8,3.07l.41,1.54c.28,1,.54,2.05.82,3.08l.4,1.54c.38,1.55.77,3.1,1.09,4.66.22,1,.44,2.08.62,3.13l.13.74c.2,1.23.37,2.47.51,3.71l.09.74.16,1.5.36,3.73.14,1.49.61,6.1L497,380l.28,3.05.27,2.9a1.08,1.08,0,0,1,0,.18q.23,3,.21,6.11,0,.76,0,1.53l0,.77c0,1.27-.08,2.55,0,3.82,0,.23,0,.46,0,.7l.06.69c.14,1.38.37,2.75.47,4.14.09,1.15.12,2.32.14,3.48a.68.68,0,0,1,.11.38c0,1.79.14,3.57.25,5.36l.17,2.7c.06.91.12,1.8.16,2.77v.31l-19.63-.26-.06-2-.09-2.07c-.06-1.39-.14-2.78-.22-4.18l-.14-2.33a.7.7,0,0,1-.06-.48v-1.19c0-.42,0-.85,0-1.27s0-.85.08-1.27c.19-1.89.42-3.78.5-5.69a69.6,69.6,0,0,0-.47-10.31s0,0,0-.06c-.15-1-.27-2-.37-3-.07-.74-.14-1.49-.2-2.24l-.15-2.25-.09-1.5-.09-1.5-.09-1.5c0-.76-.1-1.51-.16-2.26l-.07-.75-.07-.75c-.08-.75-.17-1.5-.28-2.25-.07-.5-.15-1-.24-1.49-.19-1-.4-2-.6-3l-.14-.74-.15-.74c-.18-1-.34-2-.5-3-.24-1.49-.45-3-.67-4.48l-.2-1.5-.41-3c-.13-1-.28-2-.43-3l-.22-1.5c-.19-1.24-.4-2.48-.63-3.71s-.48-2.46-.75-3.68c-.8-3.45-1.71-6.87-2.74-10.23-.14-.48-.29-1-.44-1.44l-.92-2.85-1-2.84c-.16-.47-.32-.94-.5-1.41-.5-1.4-1-2.81-1.53-4.19l-.52-1.37c-.25-.69-.52-1.37-.79-2.05l-.79-2.05-1.08-2.7c-.35-.9-.74-1.78-1.1-2.68l-.55-1.34c-.18-.44-.37-.88-.56-1.32l-.56-1.33c-.36-.89-.76-1.75-1.13-2.63-.29-.66-.55-1.33-.85-2l-.87-1.95c-.29-.7-.61-1.38-.94-2.05s-.64-1.35-1-2l-1.29-2.45c-.21-.41-.44-.81-.67-1.21l-.68-1.19-.48-.84c-.16-.28-.33-.55-.5-.82l-1-1.63c-.33-.55-.68-1.07-1-1.6l-1-1.58-1.2-1.71a.48.48,0,0,1-.27-.33v-.06l-.15-.26-.18-.3-.19-.3q-.32-.47-.6-1c-.18-.33-.36-.67-.53-1l-.29-.58-.29-.57-.59-1.13q-.28-.57-.6-1.14l-.67-1.07c-.2-.32-.42-.63-.63-.95s-.43-.62-.67-.91c-.47-.58-.94-1.16-1.43-1.73-.24-.29-.5-.54-.76-.81l-.77-.78-.79-.77-.82-.72,0,0c-.34-.26-.66-.53-1-.8-.17-.13-.32-.28-.49-.4l-.48-.39c-.49-.39-1-.8-1.44-1.22-.23-.21-.48-.39-.72-.59l-.72-.59-1-.81-1-.75-1-.76c-.24-.19-.5-.36-.76-.53l-.77-.51-1-.67c-.53-.3-1.08-.57-1.63-.84-.36-.18-.73-.36-1.11-.51l-1.15-.39-1.14-.39-.29-.1-.32-.1-.64-.21c-.85-.29-1.69-.61-2.54-.91-1.27-.46-2.53-.95-3.8-1.42-.63-.24-1.26-.5-1.9-.73l-1.9-.72c-.63-.24-1.27-.47-1.91-.69l-1.92-.68c-1.07-.35-2.15-.7-3.23-1s-2.17-.61-3.26-.86a105.68,105.68,0,0,0-13.43-2.13c-2.69-.28-5.4-.43-8.1-.58l-1.34-.06-2-.08-2-.06c-.89,0-1.78,0-2.67-.08l-1.34,0-1.33,0-2,0-2,0c-.88,0-1.77,0-2.66,0-1.34,0-2.67,0-4,0-.7,0-1.41,0-2.11,0s-1.41,0-2.12.05l-2.63.12-2.63.19L345.85,222l.37,0A43.88,43.88,0,0,1,353.56,222Z"/><path class="cls-4" d="M203,423.44c.07-.67.13-1.33.2-2l.16-1.56q.31-3.13.55-6.25c.16-2.08.3-4.16.45-6.24.17-2.6.34-5.2.53-7.8.08-1,.15-2.07.23-3.11.26-3.15.52-6.29.79-9.44.45-5.25.93-10.49,1.43-15.75.14-1.58.29-3.15.44-4.72l.27-3.16c.09-1.05.17-2.11.26-3.16l.12-1.59.24-3.18c0-.53.09-1.06.13-1.59l.18-2,.22-2c.15-1.32.34-2.64.55-4,.24-1.48.54-2.95.87-4.41l.17-.73.35-1.46.92-3.64.37-1.46c.25-1,.5-2,.76-3s.5-2,.77-3,.52-2,.8-3,.53-2,.82-3l.8-2.83a.87.87,0,0,1,.07-.17c.31-1,.62-2,1-2.93s.72-1.92,1.11-2.87c.2-.48.41-.95.62-1.42l.31-.7c.26-.59.53-1.17.79-1.76s.5-1.18.72-1.79l.24-.66c.08-.22.15-.45.22-.67.22-.68.41-1.36.61-2s.42-1.36.66-2c.39-1.11.88-2.19,1.34-3.28a.87.87,0,0,1,.07-.41c.27-.62.55-1.25.81-1.88s.52-1.26.79-1.89l.53-1.26c.52-1.27,1.08-2.54,1.61-3.81.18-.42.38-.84.57-1.26l.11-.24.18-.39c.58-1.25,1.27-2.46,2-3.64.35-.59.74-1.17,1.11-1.75s.76-1.14,1.17-1.7.81-1.11,1.22-1.67.66-.85,1-1.29c1-1.29,2-2.56,3-3.84l1-1.25c.34-.41.67-.84,1-1.24l1.56-1.84c.52-.61,1.06-1.2,1.58-1.8s.89-1,1.34-1.47l1.35-1.46,1.38-1.41.69-.7.71-.69,1.12-1.09c.37-.37.76-.71,1.15-1.06l1.16-1.07,1.18-1,1.18-1,1.2-1,1.2-1,1.21-1,1.22-1,1.23-.94c3.28-2.5,6.65-4.85,10.06-7.06,1.27-.85,2.57-1.63,3.85-2.46l2.58-1.6c.86-.52,1.72-1,2.58-1.58l1.3-.78c.87-.53,1.74-1.06,2.61-1.56l1.32-.76c.66-.38,1.33-.73,2-1.09s1.34-.71,2-1c.9-.43,1.81-.88,2.73-1.26l.66-.27L294,232c.55-.2,1.1-.38,1.66-.57l.66-.22c.45-.14.89-.29,1.34-.42l1.68-.49c.55-.17,1.11-.33,1.67-.48l1.35-.38c.91-.27,1.83-.52,2.75-.77l1.37-.38,1.38-.36c.92-.23,1.83-.48,2.76-.7s1.83-.47,2.76-.68L316,226h.17c.92-.19,1.85-.35,2.78-.49s1.87-.24,2.8-.33c.47,0,.94-.08,1.41-.1l.71,0c.58,0,1.17-.06,1.76-.11s1.17-.09,1.75-.17l.63-.09.62-.13c1.26-.25,2.5-.58,3.76-.79,1.05-.17,2.11-.26,3.17-.36a.61.61,0,0,1,.35-.14c3.25-.27,6.48-.78,9.73-1.15l.24,0,1.25,21.78c-2.46.21-4.93.46-7.38.78l-2,.27a.48.48,0,0,1-.42.09h-.35l-.35,0-.34,0c-.38,0-.75,0-1.13,0s-.74,0-1.12,0c-.84,0-1.68-.11-2.51-.14s-1.68-.06-2.52,0a43.15,43.15,0,0,0-9,1.37l-.06,0c-.84.26-1.69.5-2.55.7-.64.16-1.28.32-1.93.46l-1.93.41-1.3.27-1.29.27-1.29.29c-.65.14-1.29.29-1.93.47l-.64.17-.64.18c-.64.18-1.28.39-1.9.61-.42.15-.84.31-1.25.48-.83.34-1.64.73-2.46,1.09l-.61.27-.61.27c-.82.36-1.65.69-2.47,1-.61.26-1.23.51-1.85.75l-1.85.74-1.24.49-2.47,1-2.45,1-1.21.56a58.23,58.23,0,0,0-5.91,3.09,74.41,74.41,0,0,0-7.76,5.43l-1.06.85-2.06,1.75-2,1.81-1,.94-.73.7-.71.71c-.47.49-1,.95-1.42,1.45l-.91,1c-.23.25-.46.48-.68.73l-.67.74c-.44.5-.89,1-1.32,1.49-.57.67-1.16,1.32-1.71,2s-1.13,1.35-1.66,2.05l-.82,1c-.27.34-.52.69-.79,1l-.79,1c-.51.72-1,1.41-1.53,2.12l-1.12,1.61-1.1,1.64-.29.43-.28.44-.56.9-.55.9-.53.93-.65,1.16-.63,1.19c-.2.4-.42.79-.62,1.19l-.59,1.22-.42.86c-.14.29-.26.58-.4.87l-.79,1.76c-.51,1.19-1,2.37-1.51,3.59-.27.67-.55,1.34-.8,2a.6.6,0,0,1-.14.44l0,0v0l-.14.27-.15.34-.16.33c-.17.36-.33.72-.51,1.07s-.37.7-.57,1c-.45.76-.9,1.52-1.34,2.29-.22.39-.44.77-.65,1.17s-.41.79-.61,1.2a53.69,53.69,0,0,0-3.3,9.3.13.13,0,0,1,0,.06c-.21.95-.44,1.89-.7,2.82-.19.7-.38,1.41-.59,2.1l-.63,2.09-.43,1.4c-.15.46-.29.93-.43,1.39l-.42,1.41c-.21.7-.41,1.41-.6,2.12-.13.47-.25.95-.37,1.43-.18.71-.34,1.44-.49,2.16-.2,1-.34,2-.48,2.95s-.27,2-.43,3-.32,2-.5,2.95c-.27,1.47-.55,2.94-.85,4.41s-.59,2.94-.89,4.41-.58,2.95-.86,4.43c-.44,2.47-.86,5-1.14,7.46-.59,5.06-.92,10.17-1.13,15.29-.12,3.07-.2,6.14-.26,9.21l0,1.52c0,1.52,0,3-.08,4.57l-.05,3-.06,3-.09,4.56-.08,3c-.05,1.51-.09,3-.14,4.54s-.09,3.2-.1,4.8c0,1,0,2,0,3l0,1.47,0,.72,0,.66-19.64.11,0-.47c0-1.41,0-2.74,0-4.09S202.84,424.77,203,423.44Z"/><path class="cls-5" d="M321.34,94.76c-32.74,0-65.76-.53-98.48.58-9.75.33-19.46.75-29.2,1.2-6.1.28-19,1.78-19,1.78s-1.68,33,1.29,42.26c9.86,30.72,29.35,70.68,63.74,78.69,19.54,4.55,39.94,2.07,56.08-10.49,8.22-6.39,13-15.06,17.52-24.12,10.37-20.7,14.55-43.72,19.21-66.23,1.1-5.33,2.28-23,2.28-23s-8.14-.71-13.39-.71Z"/><path class="cls-5" d="M525.12,97.76c-32.74,0-65.76-.53-98.49.58-9.75.33-19.45.75-29.19,1.2-6.1.28-19.05,1.77-19.05,1.77s-1.68,33,1.28,42.27c9.86,30.72,29.36,70.67,63.74,78.68,19.54,4.56,39.95,2.08,56.08-10.48,8.22-6.4,13-15.06,17.52-24.13,10.38-20.69,14.55-43.71,19.21-66.23,1.11-5.33,2.28-23,2.28-23s-8.13-.71-13.38-.71Z"/><path class="cls-5" d="M537,86.85c-2,.13-4,.1-6,.16s-3.88.19-5.81.32c-4.08.29-8.14.6-12.22.85s-8.09.38-12.14.49-8.15.28-12.23.34-8.41.07-12.62.09c-8.53,0-17,.2-25.56,0-8.32-.15-16.64-.29-25-.31-8.52,0-17,.11-25.56-.11-6.53-.17-13.06-.4-19.59-.62-10.4-.35-20.8-.7-31.2-.86-8.55-.12-17.1-.08-25.65,0q-6.39.07-12.79.1c-4,0-8-.17-12-.26-16.79-.4-33.56-.57-50.34-.42-8.82.07-17.63.15-26.45.07s-17.38-.13-26.07-.12c-10.58,0-21.14.08-31.72-.14a4.51,4.51,0,0,0-.49,2.07c-.42,2.89-.57,5.83-.72,8.74,0,.52-.63,10.86.05,10.87,9.67.2,19.33.18,29,.14,8.08,0,16.14,0,24.22.1q12.39.12,24.77.12c9,0,17.9,0,26.86.16,8.4.13,16.81.41,25.21.66,8.23.26,16.45.56,24.68.49,17.14-.15,34.26,0,51.4.49q12.56.33,25.13.71c8.43.24,16.86.16,25.29.12,8.72-.05,17.44.08,26.16.21,3.83,0,7.66.13,11.5.09q6.7-.06,13.43-.16c16.36-.23,32.75-.25,49-1.94,4.73-.5,9.4-1.06,14.16-1.3,2.47-.13,4.94-.06,7.42-.18,2.68-.12,5.37-.28,8-.44a4.27,4.27,0,0,0,.46-2c.4-2.73.54-5.5.69-8.24.11-2,.18-4,.2-6,0,.21.16-4.19-.26-4.21-1.62-.09-3.25-.18-4.87-.23-2.8-.09-5.6-.1-8.4.09Z"/><path class="cls-4" d="M257.88,142.92l.15-.3c2-3.78,4.3-7.38,6.14-11.3s3.5-7.85,5.48-11.6c.94-1.78,1.83-3.6,2.74-5.4.49-1,1-2,1.51-2.93.41-.79,1.8-2.52,1.69-3.57-.16-1.43-1.92-.24-2.41.05a29.5,29.5,0,0,0-2.84,2,32.47,32.47,0,0,1-4.6,2.71,123.2,123.2,0,0,0-12.24,8c-4,2.82-7.86,5.83-11.79,8.75-2.67,2-6.63,4.63-9.6,6.77-.93.67-4.18,2.83-4.18,2.83s5.84,6,10.24,10.49c-1.27,3-2.47,6-3.67,9-2.4,6.08-5,12.11-7.32,18.2-1.2,3.1-2.23,6.26-3.59,9.29-.42,1-3.27,5.89-2.08,6.76,1.5,1.09,5-2.29,6.14-3.14,2.73-2,5.5-3.89,8.25-5.83,4.5-3.19,9.33-5.8,13.89-8.87,5.58-3.75,11.32-7.42,16.58-11.6,1.43-1.15,8.05-5.74,8.05-5.74S265.29,149.28,257.88,142.92Z"/><path class="cls-4" d="M472.14,150.41l.16-.3c2-3.78,4.3-7.38,6.14-11.3s3.5-7.84,5.47-11.59c.94-1.79,1.83-3.6,2.74-5.41.5-1,1-2,1.51-2.93.42-.79,1.81-2.52,1.69-3.57-.16-1.43-1.92-.24-2.41,0a26.73,26.73,0,0,0-2.83,2,32.52,32.52,0,0,1-4.61,2.7,122.68,122.68,0,0,0-12.24,8c-4,2.81-7.86,5.82-11.79,8.74-2.67,2-6.62,4.63-9.6,6.77-.92.67-4.18,2.83-4.18,2.83s5.84,6,10.25,10.49c-1.27,3-2.48,6-3.67,9-2.41,6.08-5,12.11-7.33,18.21-1.2,3.09-2.23,6.25-3.58,9.29-.43,1-3.28,5.88-2.09,6.75,1.51,1.09,5-2.29,6.14-3.14,2.74-2,5.51-3.89,8.26-5.83,4.49-3.19,9.33-5.79,13.89-8.87,5.57-3.75,11.31-7.41,16.57-11.6,1.44-1.15,8.05-5.74,8.05-5.74S479.56,156.77,472.14,150.41Z"/><path class="cls-5" d="M400.08,211.1s-10.06-.5-18.39-.83c-.13,9.23-.83,30.54-4.67,38.78-9.31,20-25.28,15-33.5-3.09-2.21-4.87-4.64-23.46-4.65-35.18-9.34.28-16.57.52-16.57.52-4.24,9.19,2.29,47.21,7.76,55,15.46,22.15,45.06,26.73,62,.22C401.06,252.44,400.08,211.1,400.08,211.1Z"/></g></g></svg>