<svg xmlns="http://www.w3.org/2000/svg" viewBox="0 0 457.42 425.8"><defs><style>.cls-1{fill:#2c3e50;}</style></defs><title>Asset 12</title><g id="Layer_2" data-name="Layer 2"><g id="Layer_1-2" data-name="Layer 1"><path class="cls-1" d="M126.34,8c1.82-.42,37.25,120,40,130.31-28.77.23-57.55-.45-86.32-.56-11.34,0-22.64,0-34,.27C37.25,138.25,0,140.72,0,140.72s43.32,31.88,59.66,42.77c10.78,7.17,21.11,15,31.46,22.77,3.78,2.84,7.5,5.77,11.33,8.55,5.59,4.05,16.12,8.53,20.17,13.67,8.34,10.56,5.73-1.41,3.07,12.46-2.21,11.56-40.4,108.51-40.4,108.51s25.08-17.25,28.54-19.55c26.56-17.6,54.41-33,80.67-51.17,1,5.2,21.3,85.63,22.65,85.31,0,.06.66,2.39.71,2.38h0c.26-.06,6.08,19.71,6.57,21.38.73,2.58,7,24.15,7.22,24.1h0c.44-.1,5.24,13.9,5.24,13.9s7.32-23.74,7.8-26.56c6.86-40.68,15.35-80.53,20.91-121.42,24,14.07,47.28,29.23,70.51,44.54,5.74,3.79,45.43,26.23,45.43,26.23S354.81,271,350.9,262.1c-5.16-11.72-23.78-55.29-23.78-55.29s43.77-25.55,56.2-31.23c20.36-9.29,40.77-18.47,61-28a62.07,62.07,0,0,0,13.06-8.25s-3.3-3.7-13.06-5.17C422.67,130.88,401.82,124,380.1,121c-25.76-3.61-51-5.06-76.68-9.59,10.64-27.7,22-55.06,32.73-82.74C340.44,17.55,345.33,0,345.33,0s-5.12.57-14.53,10.35c-28.34,29.44-61.61,59.3-95.53,82-9,6-6.92,6.52-16.17.21-10.14-6.9-19.23-17.15-28.46-25.29-10.42-9.18-20.81-18.41-30.93-27.93-4.46-4.19-26.24-33-33.37-31.31Zm94.58,354.27c.15.6,0,0,0,0h0s0-.08,0,0Z"/></g></g></svg>