<svg xmlns="http://www.w3.org/2000/svg" viewBox="0 0 1366.53 273.91"><defs><style>.cls-1{fill:#2c3e50;}.cls-2{fill:#d89279;}.cls-3{fill:#c1d6e1;}.cls-4{fill:#fdc7bc;}.cls-5{fill:#e8ac3d;}</style></defs><title>Asset 11</title><g id="Layer_2" data-name="Layer 2"><g id="Layer_1-2" data-name="Layer 1"><path class="cls-1" d="M297,38.78a98.24,98.24,0,0,1,20.54-.61l.17.76a4,4,0,0,1,.07.76l-.48,4.05-.57,4-.12.85,0,.76-.35,9.82-.24,6-.25,6q-.11,11.26.09,18.54c.09,1.64.22,3.69.41,6.16l.5,6.25,1.14,14.78a3.78,3.78,0,0,1-1.43.44l-1.42.15a11.22,11.22,0,0,0-2.85.4c-.13,0-.25.09-.38.28a.91.91,0,0,0-.21.46,1,1,0,0,0,.18.48l.37.39.19.1.28.1,3.1.83a21.69,21.69,0,0,1,3,.93,7.33,7.33,0,0,0,3.11.37l.48-.09.56,0a125.74,125.74,0,0,0,16.91.71l1.33-.06,1.32,0a5,5,0,0,1,1.88.52l.84.4.94.31a2.51,2.51,0,0,0,1.67,1l.95.12,1,.12c.5.08.89-.22,1.16-.91a1.63,1.63,0,0,0,0-.76,14.9,14.9,0,0,1-.08-4.35l.06-2.17a10.63,10.63,0,0,0-.14-2.09,11.37,11.37,0,0,1,0-2.65l0-1.32,0-1.32,0-1.51c-.05-.57-.1-1-.15-1.43a7.33,7.33,0,0,1,0-3.87,1,1,0,0,0,0-1,4.83,4.83,0,0,1-.33-2l0-1,.12-.94c.17-1.63.31-3.77.45-6.42l.17-3.3.18-3.21q.26-2.55.35-6.33l.16-6.33.24-5.48.14-5.39,0-2.27a13.51,13.51,0,0,1,.06-2.27l.45-6.41.45-6.52.35-2.73.36-2.83.76-.07.75,0,2.55.06,2.55.07,3.89-.28,4-.28,3.31-.2,3.51-.19.16.95.17.85.26,11.92L376,62.74c0,1.57,0,3.4-.14,5.48l-.32,5.38-.59,8.12-.58,8a130.13,130.13,0,0,0-.17,13.71l.29,10.88.26,4.73.16,4.74,0,2.17-.05,2.08,0,2.08.16,1.33c0,.57,0,1,0,1.32a52.38,52.38,0,0,0-.67,7.65v3.87l-.19,3.88-.33,8.88-.32,8.88q-.19,3.78-.25,9.64l-.15,9.64-.23,5.29-.23,5.29-.14,1.79-.14,1.89-.33,13a8.19,8.19,0,0,1-2.29.7l-1.14.16-1.14.16q-3.42.66-7.4,1-6.54.67-10.48-.56a3.56,3.56,0,0,0-3.32.2.58.58,0,0,0-.38.28.9.9,0,0,0-.21.47.31.31,0,0,0,.09.38l.37.38.46.3.47.2a.4.4,0,0,1,.09.29l.08.38c0,.06-.07.15-.19.27a.23.23,0,0,1-.2.09l-.94,0-.95,0a10.64,10.64,0,0,1-.29-3.13l.13-1.51,0-1.42.05-2.27a18.39,18.39,0,0,0-.22-2.27c-.05-.51-.1-1.14-.14-1.9l0-1,0-1-.39-6.72-.49-6.73a23.69,23.69,0,0,1,.07-3l0-1.51,0-1.51a22.09,22.09,0,0,1,.08-2.93l.16-2.84v-6.62l0-4.35,0-4.44.36-6.61.45-6.61c.08-.69.23-1.73.46-3.11a4.19,4.19,0,0,0-.39-3.32,1,1,0,0,1-.18-.38c-.06-.13-.06-.22,0-.28a1.5,1.5,0,0,0,.21-1l-.17-.48-.18-.47-.17-.86-.17-.85c-1-.41-1.62-.55-1.88-.43s-.83.51-1.54,1.38l-4.37.64-4.36.55c-4.24.53-7.47.85-9.67,1-.57,0-1.26-.07-2.08-.15l-1.13-.22-1.13-.22,0-1-.07-1c-.16-1-.69-1.53-1.57-1.55a1.87,1.87,0,0,0-1.92,1.08,11.51,11.51,0,0,0-.93,3l-.22,1.5L313.3,144a2.28,2.28,0,0,1,.15,1.61l-.21.75-.12.76L313,150.2l-.18,3.21-.41,8.88-.42,8.88-.43,5.66-.43,5.66-.23,5.48-.23,5.39-.13,1.41-.14,1.51,0,2.37,0,2.36-.11,4.25-.17,2.93-.17,2.93-.06,2.36a11.68,11.68,0,0,1-.24,2.26,37.21,37.21,0,0,1-7,.49,87.48,87.48,0,0,1-9.45-.53l-1,0-1-.13a3.39,3.39,0,0,1-2.06-.9l-.06-1.42,0-1.51a11.78,11.78,0,0,1,.07-3,4.22,4.22,0,0,0,0-1.79,18.56,18.56,0,0,1-.28-4.08l.06-2.08.15-2.07,0-3-.11-3,0-1.32.09-11.06a22.77,22.77,0,0,1,.16-2.36,19.68,19.68,0,0,0,.29-4l.05-2,0-2V162l.07-2.65.07-2.64.49-8.12V148a30.6,30.6,0,0,1-.06-5.11l.26-2.54.06-2.56q0-2.36.06-5.76l.24-5.67q.24-9.65.49-15.59l.48-7.55c.13-3,.33-5.51.57-7.65l.26-2.73.07-2.74.12-.85.11-.76a10.51,10.51,0,0,0,.54-2.63l.13-1.32.13-1.32.39-4.15,1-11.42.41-4.72c.11-1.82.18-3.4.22-4.72l.05-5.86.15-5.76,0-1,0-.85.55-2.92.23-1.5Z"/><path class="cls-2" d="M9.75,16.82a117.31,117.31,0,0,1,24.48-.72l.2.9a4.24,4.24,0,0,1,.09.91L34,22.74l-.69,4.83-.14,1,0,.9L32.69,41.2l-.3,7.09-.29,7.1Q32,68.8,32.21,77.48q.15,2.94.49,7.34l.6,7.46,1.35,17.62a4.43,4.43,0,0,1-1.7.52l-1.7.18a13.28,13.28,0,0,0-3.39.48.62.62,0,0,0-.46.33,1,1,0,0,0-.24.55,1,1,0,0,0,.21.57l.44.47.22.11.33.13,3.7,1a24.44,24.44,0,0,1,3.58,1.11,8.64,8.64,0,0,0,3.71.43l.56-.1.68,0a149.25,149.25,0,0,0,20.16.85l1.58-.07,1.57,0a6.41,6.41,0,0,1,2.24.62l1,.48,1.11.37a3,3,0,0,0,2,1.17l1.13.15,1.23.14c.6.09,1.06-.27,1.38-1.09a2,2,0,0,0,0-.9,17.32,17.32,0,0,1-.1-5.19l.07-2.59a13.09,13.09,0,0,0-.16-2.49,13.45,13.45,0,0,1,0-3.15l0-1.58,0-1.58,0-1.8c-.06-.68-.12-1.24-.18-1.7a8.76,8.76,0,0,1,0-4.62,1.25,1.25,0,0,0,0-1.24,5.52,5.52,0,0,1-.39-2.37l0-1.24.14-1.13q.3-2.92.54-7.65l.21-3.94.21-3.83q.3-3,.42-7.54l.19-7.55.28-6.53.16-6.42,0-2.71a16.38,16.38,0,0,1,.07-2.7l.53-7.65.54-7.77.42-3.26.43-3.37.9-.09.9,0,3,.07,3,.08,4.63-.33,4.74-.33L98.74,15l4.18-.23.19,1.13.2,1,.32,14.22.31,14.21q0,2.82-.17,6.53l-.39,6.42L102.69,68l-.7,9.57a154.25,154.25,0,0,0-.19,16.34l.34,13,.31,5.65.19,5.64,0,2.59-.07,2.48,0,2.48.19,1.59c0,.67,0,1.2,0,1.57A61.88,61.88,0,0,0,102,138v4.63l-.22,4.61-.39,10.59L101,168.42c-.16,3-.25,6.83-.3,11.49l-.18,11.49-.27,6.31L100,204l-.16,2.14-.17,2.25L99.26,224a9.62,9.62,0,0,1-2.73.83l-1.36.19-1.35.19A85.41,85.41,0,0,1,85,226.4q-7.8.82-12.49-.66a4.23,4.23,0,0,0-4,.24.75.75,0,0,0-.46.33,1.22,1.22,0,0,0-.24.56.36.36,0,0,0,.11.45l.43.46.56.35.56.24a.49.49,0,0,1,.1.34l.1.46c0,.07-.08.18-.23.33a.37.37,0,0,1-.23.11l-1.13,0-1.12,0a12.65,12.65,0,0,1-.36-3.73l.16-1.8,0-1.69.07-2.7a22.67,22.67,0,0,0-.27-2.72c-.06-.6-.11-1.35-.16-2.25l0-1.24,0-1.24-.47-8-.59-8a28.27,28.27,0,0,1,.1-3.6l0-1.81,0-1.8a27.4,27.4,0,0,1,.09-3.49l.2-3.38v-3.94l0-4,0-5.18,0-5.3.42-7.88.54-7.88c.1-.82.28-2.06.55-3.71a5,5,0,0,0-.46-3.95,1.15,1.15,0,0,1-.22-.46c-.07-.15-.07-.27,0-.34a1.76,1.76,0,0,0,.26-1.23l-.21-.57-.21-.57-.2-1-.2-1c-1.19-.48-1.94-.65-2.24-.51s-1,.62-1.85,1.65L57,137l-5.2.66q-7.57.93-11.53,1.17c-.67,0-1.5-.07-2.47-.18l-1.35-.26-1.34-.25,0-1.24L35,135.61c-.2-1.2-.82-1.82-1.87-1.85a2.23,2.23,0,0,0-2.29,1.3,13.51,13.51,0,0,0-1.11,3.58l-.27,1.79-.27,1.8a2.67,2.67,0,0,1,.18,1.92l-.25.9-.14.89-.21,3.72-.21,3.83-.49,10.58-.5,10.58-.51,6.76-.51,6.75-.28,6.53L26,201.11l-.15,1.68-.16,1.8,0,2.82,0,2.82-.13,5.07-.2,3.49-.21,3.49-.07,2.82a13.52,13.52,0,0,1-.29,2.7,44.53,44.53,0,0,1-8.36.57,101,101,0,0,1-11.26-.63l-1.23,0-1.24-.14a4.06,4.06,0,0,1-2.45-1.08L.26,224.8.19,223a14.76,14.76,0,0,1,.09-3.6,4.89,4.89,0,0,0,.06-2.14A22.25,22.25,0,0,1,0,212.39l.06-2.48.18-2.47,0-3.61L.1,200.22l0-1.58.11-13.19a27.65,27.65,0,0,1,.18-2.81,23.15,23.15,0,0,0,.35-4.73l.06-2.36,0-2.37,0-9.47.08-3.15L1,157.4l.58-9.68v-.67A35.64,35.64,0,0,1,1.5,141l.3-3,.08-3c0-1.88,0-4.17.06-6.88l.29-6.75q.3-11.49.59-18.59l.57-9q.24-5.3.68-9.12l.31-3.26L4.46,78l.14-1,.14-.89A12.44,12.44,0,0,0,5.38,73l.15-1.58.16-1.57.46-4.95L7.4,51.26l.49-5.62c.12-2.18.21-4.06.25-5.63l.07-7,.17-6.87,0-1.13,0-1,.65-3.47.27-1.8Z"/><path class="cls-3" d="M424.74,254l.14-3.18.14-3.19a39.82,39.82,0,0,1,.48-6,47.73,47.73,0,0,0,.5-7.71,22.7,22.7,0,0,1,.69-5.7q1-4.41,1.9-10.58l.64-5.25L430,207q.39-3.21.63-6.31a26.5,26.5,0,0,1,.57-4.19l.5-2.08.52-2,.78-3.86.77-3.87,1.39-6.65,1.4-6.64q1.94-10.14,2.61-17.87l.61-5.6.61-5.61.15-2.13.07-2,.33-3,.61-4.72q.44-2.77.78-4.74a27.19,27.19,0,0,1,.91-3.35l.54-1.72.46-1.63.79-2.81.8-2.72a31.12,31.12,0,0,0,1.14-5.57,7.78,7.78,0,0,1,.27-1.78l.46-1.72a15.82,15.82,0,0,0,.58-6.84,5.76,5.76,0,0,1,.72-3.5l6.17-.94L461.19,92l4.33-.76,4.41-.77q11-2.12,17-2l1.15.06a5.67,5.67,0,0,1,2.79.62,6.76,6.76,0,0,1,1.31,2.69q1.09,3.15,2.31,7.53l2,7.47q1.62,5.93,3.67,15.41l1.71,7.77,1.79,7.67,3.69,15.67,1.15,4.65,1.14,4.65,1.26,4.9c.53,1.83,1,3.42,1.43,4.79l2.47,7.43q1.48,4.53,2.55,7.42l1.31,3.57a27.78,27.78,0,0,0,1.48,3.47,21.69,21.69,0,0,1,1.47,4.35l.64,2.14.65,2.14a15.3,15.3,0,0,1,1,4.31,23.17,23.17,0,0,0,.69,3.63l.61,1.79.54,1.89,2.2,7.36,2.19,7.28,2.09,6.23,2.17,6.14.33.67a1.93,1.93,0,0,1,.23.68,12.47,12.47,0,0,0,.57,3.12l.5,1.54.49,1.45.12.42,0,.35a1.31,1.31,0,0,1-.81.78l-.52,0-.53.05-5.38.78c-2.09.32-3.85.63-5.28.95q-4.31,1-9.78,1.81l-1.65.24-1.66.16-.41-.58-.31-.5L508.64,250,507,246.35c-1.26-2.75-2.29-5.18-3.07-7.28l-.9-2-1-1.93-3.74-7.83-3.83-7.83q-2.16-4.2-4.37-7.95-3.33-5.49-3.65-8.81l-.13-.43-.13-.43-.65-1.26-.73-1.25-.48-1.27-.39-1.29c-1.63-.54-2.68-.39-3.12.48a1.72,1.72,0,0,1-1.19.46c-1.52,0-3.27.17-5.24.41l-5.22.76-2.44.24-2.45.14-.55-.21-.56-.3a4.3,4.3,0,0,0-3.78,3.71l.23,1.56.07,1.67v1.67l-.11,1.69-.09,2.74v2.73l-.1,4.5c-.08,1.65-.17,3.13-.28,4.43-.1.89-.18,2.13-.27,3.72V229l-.17,1.87-.19,3.54-.29,3.46a55.71,55.71,0,0,1-.92,7l-.5,3.13-.41,3-.59.23-.52.14-7.86.66-2.37.14-2.27.22a24.68,24.68,0,0,0-4.5.78l-.79.07h-1.93a3.17,3.17,0,0,0-1.05.1,18,18,0,0,1-3.72.71l-1.84.08-1.92.19a3.82,3.82,0,0,1-1-.09l-.63-.11Z"/><path class="cls-4" d="M134.57,273.48l.1-2.37.1-2.36a30.16,30.16,0,0,1,.36-4.49,35,35,0,0,0,.37-5.73,17.76,17.76,0,0,1,.51-4.24c.49-2.19,1-4.81,1.42-7.86l.48-3.91.53-4c.2-1.59.36-3.15.47-4.69a21.22,21.22,0,0,1,.43-3.12l.37-1.54.39-1.48.57-2.87.58-2.87,1-4.94,1-4.95a132.44,132.44,0,0,0,1.94-13.28l.46-4.17.45-4.17.11-1.58.06-1.51.24-2.25.45-3.51c.22-1.37.41-2.55.58-3.53a20.89,20.89,0,0,1,.68-2.48l.4-1.29.35-1.21.58-2.08.6-2a25,25,0,0,0,.85-4.14,5.24,5.24,0,0,1,.2-1.33l.33-1.28a11.68,11.68,0,0,0,.44-5.08,4.18,4.18,0,0,1,.53-2.61l4.59-.7,4.5-.82,3.22-.57,3.29-.57a65.3,65.3,0,0,1,12.62-1.47l.86,0a4.23,4.23,0,0,1,2.07.46,5.06,5.06,0,0,1,1,2c.54,1.57,1.11,3.43,1.71,5.6l1.51,5.55q1.22,4.41,2.73,11.47l1.27,5.77,1.33,5.7L196,198.68l.85,3.46.85,3.45.94,3.64c.39,1.36.74,2.55,1.06,3.57l1.83,5.52c.74,2.25,1.38,4.08,1.9,5.52l1,2.65a18.14,18.14,0,0,0,1.1,2.58,16.59,16.59,0,0,1,1.09,3.24l.48,1.59.48,1.59a11.31,11.31,0,0,1,.76,3.2,16.63,16.63,0,0,0,.52,2.7l.45,1.34.4,1.4,1.63,5.47L213,255l1.56,4.64,1.61,4.56.24.5a1.38,1.38,0,0,1,.18.5,9.77,9.77,0,0,0,.42,2.32l.37,1.14.37,1.08.09.32,0,.26a1,1,0,0,1-.6.58l-.39,0-.39,0-4,.57c-1.54.24-2.85.47-3.92.7q-3.21.76-7.27,1.35l-1.23.18-1.23.12-.31-.43-.23-.37-1.3-2.63-1.24-2.69q-1.39-3.07-2.28-5.42l-.67-1.5-.72-1.44-2.78-5.82-2.85-5.82q-1.6-3.12-3.25-5.91-2.47-4.09-2.72-6.55l-.09-.32-.1-.32-.48-.94-.55-.93-.35-.95-.29-1c-1.21-.41-2-.29-2.32.35a1.27,1.27,0,0,1-.88.35,37.65,37.65,0,0,0-3.9.3l-3.88.57-1.81.17-1.83.11-.41-.16-.41-.22a3.2,3.2,0,0,0-2.81,2.76l.17,1.16.06,1.24,0,1.24-.07,1.25-.07,2v2l-.07,3.35c-.06,1.23-.13,2.32-.21,3.29-.07.66-.13,1.58-.19,2.77v1.37l-.13,1.39-.15,2.63-.21,2.58a41.51,41.51,0,0,1-.68,5.17l-.37,2.33-.31,2.25-.44.18-.39.1-5.84.49-1.76.1-1.69.16a20.26,20.26,0,0,0-3.35.58l-.58.06h-1.44a2.57,2.57,0,0,0-.78.08,12.69,12.69,0,0,1-2.76.52l-1.37.07-1.43.14a3.08,3.08,0,0,1-.73-.07l-.46-.08Z"/><path class="cls-5" d="M659.36,2.4a140.55,140.55,0,0,1,29.19-.87l.24,1.08a5.35,5.35,0,0,1,.1,1.08l-.68,5.76-.82,5.76-.16,1.21,0,1.07-.49,14-.35,8.46L686,48.37q-.13,16,.14,26.34c.12,2.34.31,5.25.58,8.75l.71,8.89,1.62,21a5.26,5.26,0,0,1-2,.62l-2,.22a15.34,15.34,0,0,0-4,.57.71.71,0,0,0-.55.39,1.34,1.34,0,0,0-.29.66,1.36,1.36,0,0,0,.25.68l.53.55.26.14.4.15,4.41,1.19a27.92,27.92,0,0,1,4.26,1.32,10.31,10.31,0,0,0,4.42.51l.68-.12.8,0a178.21,178.21,0,0,0,24,1l1.89-.08,1.88,0a7.12,7.12,0,0,1,2.67.74l1.19.56,1.33.44a3.65,3.65,0,0,0,2.39,1.41l1.34.16,1.47.18c.71.1,1.26-.33,1.65-1.31a2.28,2.28,0,0,0,0-1.07,21.15,21.15,0,0,1-.11-6.18l.08-3.09a15.35,15.35,0,0,0-.19-3,15.91,15.91,0,0,1,0-3.77l0-1.88.05-1.88,0-2.15c-.07-.81-.14-1.48-.22-2a10.62,10.62,0,0,1,0-5.51,1.46,1.46,0,0,0,0-1.48,6.79,6.79,0,0,1-.46-2.83l0-1.48.17-1.34q.36-3.48.64-9.12l.25-4.7.25-4.56c.25-2.41.41-5.41.5-9l.23-9,.34-7.78.19-7.66-.05-3.22a19.36,19.36,0,0,1,.08-3.23l.64-9.12.64-9.26.5-3.88.51-4,1.08-.11,1.07,0,3.63.09,3.62.1,5.52-.4,5.66-.39,4.71-.28,5-.28.23,1.35.24,1.22.37,16.94.37,16.94c0,2.24,0,4.84-.19,7.79L771,51.89l-.83,11.53-.83,11.4a184.24,184.24,0,0,0-.23,19.48l.41,15.47.37,6.73.22,6.72.06,3.09-.08,3,.06,3,.22,1.88c0,.81,0,1.44,0,1.89a73.28,73.28,0,0,0-.95,10.86v5.51l-.27,5.5-.46,12.62-.46,12.62q-.27,5.37-.35,13.7l-.22,13.7-.32,7.52-.33,7.51-.2,2.55-.2,2.68-.48,18.54a11,11,0,0,1-3.25,1l-1.61.23-1.62.22a104.56,104.56,0,0,1-10.52,1.48q-9.3,1-14.9-.78a5,5,0,0,0-4.71.28.84.84,0,0,0-.55.39,1.22,1.22,0,0,0-.28.66.44.44,0,0,0,.12.55l.52.55.66.42.66.28a.56.56,0,0,1,.13.41l.12.54c0,.09-.1.22-.28.39a.38.38,0,0,1-.27.13l-1.35,0-1.34,0a15.12,15.12,0,0,1-.42-4.44l.19-2.15,0-2,.08-3.23a26.07,26.07,0,0,0-.32-3.23c-.07-.72-.14-1.61-.2-2.69l0-1.48,0-1.48-.56-9.55-.7-9.56a32.18,32.18,0,0,1,.11-4.3l.06-2.15,0-2.15a31.12,31.12,0,0,1,.11-4.16l.23-4V190l0-6.18,0-6.32.51-9.39.64-9.39c.11-1,.33-2.46.65-4.42s.23-3.62-.55-4.72a1.34,1.34,0,0,1-.26-.54c-.08-.18-.08-.32,0-.41a2.14,2.14,0,0,0,.31-1.47l-.25-.68-.25-.67-.24-1.22-.24-1.21c-1.42-.58-2.31-.78-2.67-.61s-1.19.73-2.2,2l-6.21.92-6.2.78q-9,1.11-13.74,1.39c-.81,0-1.79-.09-3-.21l-1.61-.31-1.6-.31,0-1.47-.1-1.48c-.23-1.44-1-2.18-2.23-2.21a2.67,2.67,0,0,0-2.73,1.54,16.59,16.59,0,0,0-1.31,4.27l-.33,2.14-.32,2.14a3.24,3.24,0,0,1,.21,2.29l-.3,1.07-.16,1.07-.25,4.43-.25,4.56-.59,12.62-.59,12.61-.61,8.05-.61,8-.33,7.79-.33,7.65-.19,2-.19,2.14,0,3.36.05,3.37-.16,6-.24,4.16-.24,4.16-.08,3.36a17.47,17.47,0,0,1-.35,3.21,52.69,52.69,0,0,1-10,.69,122.49,122.49,0,0,1-13.42-.75l-1.47,0-1.48-.17a4.86,4.86,0,0,1-2.92-1.28l-.08-2-.08-2.15a16.86,16.86,0,0,1,.11-4.3,5.81,5.81,0,0,0,.06-2.55,27.24,27.24,0,0,1-.39-5.79l.08-3,.21-2.95,0-4.3-.15-4.3,0-1.88.14-15.72a30.84,30.84,0,0,1,.22-3.36,28,28,0,0,0,.41-5.63l.07-2.82-.06-2.82,0-11.29.1-3.76.09-3.76.7-11.54v-.81a42.85,42.85,0,0,1-.08-7.26l.36-3.61.09-3.63q0-3.36.08-8.2l.34-8.05q.35-13.69.7-22.16L651.78,94c.19-4.2.47-7.83.81-10.86l.37-3.89.1-3.9.17-1.2.16-1.07a15.3,15.3,0,0,0,.77-3.75l.18-1.87.18-1.88.56-5.9,1.49-16.22.57-6.71c.15-2.59.26-4.83.31-6.71l.08-8.33.21-8.19,0-1.34,0-1.21.78-4.15.32-2.14Z"/><path class="cls-1" d="M802.9,218.92l.14-3.19.14-3.18a39.82,39.82,0,0,1,.48-6,47.73,47.73,0,0,0,.5-7.71,22.83,22.83,0,0,1,.69-5.71q1-4.41,1.9-10.57l.64-5.26.73-5.35q.39-3.21.63-6.31a26.61,26.61,0,0,1,.57-4.2l.5-2.07.52-2,.78-3.86.77-3.86,1.39-6.65,1.4-6.65q1.94-10.14,2.61-17.86l.61-5.61.61-5.6.15-2.13.07-2,.33-3,.61-4.73q.44-2.76.78-4.74a27.61,27.61,0,0,1,.91-3.34l.54-1.73.47-1.63.78-2.8.8-2.72a31.12,31.12,0,0,0,1.14-5.57,7.47,7.47,0,0,1,.28-1.79l.45-1.71a15.83,15.83,0,0,0,.58-6.84,5.74,5.74,0,0,1,.72-3.5l6.17-.94,6.06-1.11,4.33-.76,4.41-.78q11-2.1,17-2l1.15.07a5.7,5.7,0,0,1,2.79.61,6.91,6.91,0,0,1,1.31,2.7q1.09,3.15,2.31,7.53l2,7.47q1.62,5.91,3.67,15.41L880.05,95l1.79,7.67,3.69,15.68,1.15,4.64,1.14,4.65,1.26,4.9q.79,2.75,1.43,4.8l2.47,7.42c1,3,1.84,5.5,2.55,7.42l1.31,3.58a27.78,27.78,0,0,0,1.48,3.47,21.27,21.27,0,0,1,1.47,4.35l.64,2.14.65,2.14a15.23,15.23,0,0,1,1,4.31,23.6,23.6,0,0,0,.69,3.63l.61,1.79.54,1.89,2.2,7.36,2.19,7.28,2.09,6.23,2.17,6.13.33.67a2.27,2.27,0,0,1,.24.69,12,12,0,0,0,.56,3.11l.5,1.54.49,1.45.12.43,0,.35a1.33,1.33,0,0,1-.81.78l-.52,0-.53.05-5.38.78c-2.09.31-3.85.63-5.28.94q-4.3,1-9.78,1.81l-1.65.25-1.66.16-.41-.58-.31-.5-1.75-3.53-1.66-3.63c-1.26-2.76-2.29-5.18-3.07-7.28l-.9-2-1-1.93-3.74-7.84-3.83-7.82q-2.16-4.2-4.37-8-3.33-5.5-3.65-8.81l-.13-.43-.13-.43-.65-1.26-.73-1.25-.48-1.28-.39-1.28c-1.63-.55-2.67-.39-3.12.47a1.72,1.72,0,0,1-1.19.47,49.8,49.8,0,0,0-5.24.41l-5.22.76-2.44.23-2.45.15-.55-.21-.56-.3a4.29,4.29,0,0,0-3.78,3.71l.23,1.56.07,1.66v1.68l-.11,1.68-.09,2.74v2.73l-.1,4.5c-.08,1.66-.17,3.13-.28,4.43-.1.89-.18,2.13-.27,3.73v1.85l-.17,1.86-.19,3.54-.29,3.47a55.27,55.27,0,0,1-.92,7l-.5,3.13-.41,3-.59.23-.52.14-7.86.66-2.37.14-2.27.21a26.54,26.54,0,0,0-4.5.78l-.79.08h-.88l-1.05,0a2.92,2.92,0,0,0-1,.1,18,18,0,0,1-3.72.7l-1.84.09-1.92.18a3.73,3.73,0,0,1-1-.08l-.63-.12Z"/><path class="cls-3" d="M1005,124.86c-.07,1.2-.11,2.51-.11,3.94l-1-.22-.91-.23-.9-.11-.79-.12a2.55,2.55,0,0,0-1.69.91l.57,1.46.34.56a.61.61,0,0,1,.11.57,2.44,2.44,0,0,0,.22,2.14,4.15,4.15,0,0,0,2.71,1.13l.79.33.33,1.13.12,1.24.45,9.24.22,10.71.34,12.85.11.67v.68a4,4,0,0,1-.22,1.46,1.25,1.25,0,0,0-.11.9,9.43,9.43,0,0,1,.56,4.06l-.11,1.92-.12,2c.08,1.35.08,3.11,0,5.29l-.22,5.3a39.44,39.44,0,0,1-.68,4.73,35.55,35.55,0,0,0-.56,6.76q-.12,2.49-.56,6l-.34,2.93-.45,2.93a80.74,80.74,0,0,0-.57,14.76l.57,7.55.56,7.55.23,2,.45,2.14H979.61l-.34-1.58-.34-1.57a11.08,11.08,0,0,1-.23-3v-2.48l.12-2.48a20.51,20.51,0,0,0-.34-5l.11-.57.11-.67.23-.79a1,1,0,0,0,.11-.79,10.89,10.89,0,0,1-.22-3.95l.11-2,.11-2-.11-8.79q-.12-5.19.11-8.79l.12-6.65v-6.54l.22-2.48.11-2.36c-.07-4.29-.22-8.34-.45-12.18l-.45-5-.34-5-.22-5.19-.11-5.18-.34-7.55-.45-7.55V127.45l-.12-5.07-.22-8.68v-.34l.22-7,.12-6.87v-12l.11-3.83.11-6,.23-6.09q.23-7.09.67-12l.23-2.82V53.86a5.65,5.65,0,0,1,.11-1.24,36.57,36.57,0,0,0,.9-8.9v-.79a2,2,0,0,0-.11-.79,4,4,0,0,0-1.24-1.58,4.22,4.22,0,0,0-.9-.23h-1l.12-.9.11-.79q-.23-3.72,3.72-5.41l3.16-1.57,3-1.58,1.8-.79,5.07-1.69a44.41,44.41,0,0,1,5.07-1.47l4.74-1.24,4.84-1a41.79,41.79,0,0,1,9.81-.79,108.4,108.4,0,0,1,20.85,2.26q8.79,1.91,17.69,8.9l5,3.83,5,3.83a48,48,0,0,1,5.86,5.52l-.68-.22-.68-.23-2.47-1.8-2.48-1.69a53.52,53.52,0,0,0-5.3-3.16l-4.51-2.14a42.15,42.15,0,0,0-4.62-1.91l-1.8-.79-1.92-.68a34,34,0,0,0-3.72-1.35,120.29,120.29,0,0,0-13.75-2.59c-2.78-.38-5.44-.64-8-.79h-9.46l-2.48.11a28.11,28.11,0,0,0-6.31.57l-3.16.56-3,.67a78.72,78.72,0,0,0-16.57,4.74l-.45.22-.45.23-.45.22-.56.23a2,2,0,0,0-.57,1c-.07.76.6,1.24,2,1.47a4.35,4.35,0,0,0,2.59-.34,68.94,68.94,0,0,1,11.27-3.72q16.9-3.82,30.09-2.36,9.92,1.13,16.23,2.47a33.31,33.31,0,0,1,7.21,2.37l4.62,2,4.51,2A62.35,62.35,0,0,1,1073.37,54c2,2,3.72,3.68,5.07,5.18a44.86,44.86,0,0,1,3.72,4.63,15.82,15.82,0,0,1,2.48,11.38L1084,79l-.56,3.83-1.35,8.57a27.39,27.39,0,0,1-4.06,11q-3.49,6-11.16,13.07l-1.24,1.35-1.12,1.24-.91.79a2.85,2.85,0,0,1-1,.57l-3,1-3,1a26.81,26.81,0,0,1-6.31,1.46,3,3,0,0,0-1.57.34,24.62,24.62,0,0,1-4.85,1.13l-2.48.45-2.37.45-1.24.34-1.24.22a8.13,8.13,0,0,0-2.36.68,24.38,24.38,0,0,1-4.74,1.46l-2.48.57-2.36.56a28.85,28.85,0,0,1-8.57,1l-4.62.12a1.9,1.9,0,0,1-2.14-1.47l-.11-.68-.11-.67a2.12,2.12,0,0,0-.23-1.13,4.22,4.22,0,0,0-1.8-1.8,1.7,1.7,0,0,0-.9,0l-.57.22Z"/><path class="cls-2" d="M1163,126.38c-.18,1-.34,2.18-.47,3.43l-.86-.29-.77-.28-.77-.18-.68-.18a2.27,2.27,0,0,0-1.56.63l.36,1.33.24.53a.52.52,0,0,1,0,.5,2.15,2.15,0,0,0,0,1.89,3.67,3.67,0,0,0,2.26,1.23l.66.37.19,1,0,1.09-.46,8.11-.79,9.36-.89,11.24,0,.6-.06.59a3.7,3.7,0,0,1-.33,1.25,1.17,1.17,0,0,0-.19.78A8.06,8.06,0,0,1,1159,173l-.27,1.66-.29,1.76c-.06,1.19-.22,2.73-.49,4.62l-.69,4.6a32.74,32.74,0,0,1-1,4.07,30.47,30.47,0,0,0-1.12,5.84q-.33,2.16-1,5.16l-.57,2.53-.66,2.51a71.8,71.8,0,0,0-1.86,12.83l-.2,6.64-.21,6.63v1.79l.19,1.91-3.44-.36-3.44-.37-7.27-.77-3.64-.38-3.73-.4-.15-1.4-.15-1.41a9.35,9.35,0,0,1,.08-2.68l.23-2.16.33-2.15a17.79,17.79,0,0,0,.16-4.36l.15-.48.16-.58.27-.67a.85.85,0,0,0,.17-.67,9.6,9.6,0,0,1,.17-3.47l.29-1.76.28-1.75L1132,202c.25-3,.55-5.58.91-7.66l.71-5.79.6-5.7.43-2.14.32-2.06q.49-5.61.73-10.66l.06-4.36.17-4.36.28-4.54.38-4.54.4-6.61.31-6.63.57-5.41.58-5.5.37-4.44.61-7.59,0-.29.84-6.08.74-6,.55-5.21.55-5.22.45-3.33.65-5.2.76-5.28q.85-6.18,1.71-10.46l.45-2.44.27-2.55a4.5,4.5,0,0,1,.22-1.08,32.17,32.17,0,0,0,1.61-7.68l.07-.69a1.75,1.75,0,0,0,0-.69,3.65,3.65,0,0,0-.93-1.5,4.13,4.13,0,0,0-.77-.28l-.88-.09.18-.78.17-.67q.15-3.27,3.74-4.38l2.9-1.08,2.8-1.1,1.65-.52,4.58-1a38.8,38.8,0,0,1,4.56-.8l4.24-.65,4.32-.44a37.26,37.26,0,0,1,8.63.22,96.1,96.1,0,0,1,18,3.89,38.8,38.8,0,0,1,14.61,9.41l4,3.8,4,3.8a40.65,40.65,0,0,1,4.6,5.36l-.57-.26-.57-.26-2-1.8-2-1.71a46.36,46.36,0,0,0-4.33-3.24l-3.73-2.28a36.07,36.07,0,0,0-3.86-2.1l-1.5-.86-1.6-.76a29.13,29.13,0,0,0-3.12-1.53,107.81,107.81,0,0,0-11.76-3.53q-3.58-.87-6.9-1.43l-3.05-.32-3-.32-2.16-.23-2.18-.13a24.42,24.42,0,0,0-5.55-.09l-2.81.2-2.71.3a69.42,69.42,0,0,0-14.89,2.6l-.42.16-.41.15-.41.16-.52.14a1.73,1.73,0,0,0-.58.83c-.14.65.41,1.14,1.63,1.47a3.73,3.73,0,0,0,2.29-.06,60,60,0,0,1,10.18-2.2q15.1-1.77,26.46.72c5.7,1.26,10.35,2.49,13.93,3.66a28.48,28.48,0,0,1,6.08,2.73l3.84,2.2,3.74,2.18a54.92,54.92,0,0,1,13.11,11.43q2.38,2.85,3.94,5a37.58,37.58,0,0,1,2.82,4.38,13.9,13.9,0,0,1,1.11,10.16l-.94,3.28-.85,3.29-2,7.34a24,24,0,0,1-4.56,9.26,52.68,52.68,0,0,1-10.94,10.37l-1.21,1.07-1.09,1-.86.6a2.49,2.49,0,0,1-.94.4l-2.75.6-2.75.61a23,23,0,0,1-5.64.69,2.7,2.7,0,0,0-1.4.15,22,22,0,0,1-4.34.54l-2.2.16-2.11.17-1.11.18-1.1.09a7,7,0,0,0-2.13.37,21.5,21.5,0,0,1-4.26.84l-2.22.26-2.11.27a25.35,25.35,0,0,1-7.57.1l-4-.33c-1-.11-1.63-.6-1.73-1.48l0-.6,0-.6a1.91,1.91,0,0,0-.1-1,3.64,3.64,0,0,0-1.4-1.74,1.58,1.58,0,0,0-.79-.08l-.51.14Z"/><path class="cls-4" d="M1311,67.48l-.51.45-.41.43q-1,1.1.24,1.77l.41.23,1,.16a15.35,15.35,0,0,0,2.1-3.42l1.8-3.56,1.7-3.55q1.41-2.85,2.77-6.16l.41-1.19.4-1.2a16.5,16.5,0,0,1,1-2.31,4.18,4.18,0,0,0,.29-.61,11.38,11.38,0,0,1,1.25-3.4l.93-1.54.82-1.63,1.71-3.46c.59-1.28,1.09-2.45,1.52-3.52l2.72-6.54,2.62-6.51.88-1.93.88-1.92.69-1.23.28-.7.38-.71,1-.33,1.2-.26c1.22-.29,2.59-.66,4.11-1.12l4.1-1.22.35-.24a11.29,11.29,0,0,1,6-1.47l2.16-.2,2.15-.19a29.1,29.1,0,0,1,3.86-.24l4,0,.39.13.4.14-.23.41a2.35,2.35,0,0,0-2.06,1.61,86.31,86.31,0,0,1-4.24,7.87,73.27,73.27,0,0,0-3.61,6.94l-1.7,3.55-1.7,3.55-.91,1.73-.9,1.74-1.51,3.52-1.53,3.43-1,1.94-1,1.93q-1.34,2.74-2.17,5-.36.81-.87,1.92l-1,1.85q-1.86,3.75-4.29,9.59l-.78,2-.76,2.09a43.47,43.47,0,0,1-1.83,4q-.6,1.22-1.38,3.12l-1.29,3.12-.06.2-2.48,4.79-.87-.07-.77-.09a1.14,1.14,0,0,0-.53.26.9.9,0,0,0-.19.69l.11.84.12.84a3.76,3.76,0,0,1-1.41,4.36l-.17.12-.08.11c-.12,1-.26,2.06-.41,3.28a4.64,4.64,0,0,1,1.32,3.42,98.28,98.28,0,0,0,1.09,10.19l1,5.75.44,3.26c.23,1.23.44,2.28.62,3.14a14.7,14.7,0,0,1,.34,1.85l.34,1.75.12.94.12.83a8.88,8.88,0,0,0,.25,1.87,13.83,13.83,0,0,1,.29,2.14l.06,1.13.15,1.12a12.69,12.69,0,0,1,.29,2.14l0,1,.06,1.13c.11.8.25,2.05.41,3.73l.16,1.88.16,1.87.58,3.62.6,3.71.86,4.91.76,4.93.09.65.09.65a4,4,0,0,0,.54,1.26.54.54,0,0,1,.15.35l0,.39a25.64,25.64,0,0,0,.27,4l.36,1.94.37,2,.8,3.87.83,4,.86,5,.88,5.1.49,2.21.58,2.2.19.64.08.65a.58.58,0,0,1-.56.74l-5.76.87-5.66,1-6.21,1c-2.41.39-4.48.8-6.19,1.22l-2.85.67-3,.59c-.15-.61-.31-1.32-.48-2.12l-.29-2.14-.26-2-.79-5.1-.57-4.2q-.33-2.42-.66-4.17l-.14-.36,0-.28a15,15,0,0,0-.15-2.54l-.17-1.21-.16-1.21-.15-1.79v-.75a4.74,4.74,0,0,0,0-.76,7.44,7.44,0,0,1-.39-2.13l-.29-2.14-.22-2.34-.42-2.41v-.19a21.58,21.58,0,0,0-1.13-7.62,7.34,7.34,0,0,1-.43-1.75l-.13-1.68-.7-5.88-.6-5.8-.28-2.81a24.72,24.72,0,0,1-.1-2.83c0-.5-.07-1.16-.17-2l-.14-1-.14-1a44.15,44.15,0,0,1-.09-4.82c0-.63-.06-1.13-.11-1.5l-.1-.75-.1-.74a3.85,3.85,0,0,1,.08-1.53l.06-.29,0-.38-1.86-15.77-.42-3.17-.54-3.25a1.89,1.89,0,0,1,.45-1.57,1.05,1.05,0,0,0,0-1.52,4.8,4.8,0,0,1-.81-1l-.81-1.12a7.56,7.56,0,0,0-1.7-2,1.62,1.62,0,0,1-.5-.88,14.55,14.55,0,0,0-1.62-2.81l-.94-1.39-.94-1.3a28.05,28.05,0,0,1-2.26-3.39A34.64,34.64,0,0,0,1288,81.4l-1.16-1.55-1.16-1.55-.23-.35-.24-.34c-.67-1.18-1.55-2.58-2.66-4.2l-1.49-2-1.43-2.09q-.95-1.38-2.55-3.45l-2.65-3.43-5-6.72L1266.7,52l-2-2.67-1.87-2.59a56.5,56.5,0,0,1-3.68-5.48c-.82-1.4-1.78-3.11-2.87-5.11l-2.7-5.23-.25-.44-.18-.64.71-.38.62-.27,8.67-1.84,6.72-1.48,2-.37,5.09-.88,4.82-.84,2.14-.29,2.24-.3.75,1.32a40.8,40.8,0,0,0,5.47,7.51l.21.16.13.26a13.91,13.91,0,0,0,2,3.14l1.32,1.34,1.23,1.35a13.31,13.31,0,0,1,2,2.86l3.78,8.31L1305.2,54l2.14,4.64.7,1.62.58,1.53.45,1.17.44,1.17c.37.9.73,1.68,1.07,2.32l.25.44Z"/></g></g></svg>