<svg xmlns="http://www.w3.org/2000/svg" viewBox="0 0 432 609.81"><defs><style>.cls-1{fill:#e8ac3d;}.cls-2{fill:#d89279;}.cls-3{fill:#fdc7bc;}.cls-4{fill:#c1d6e1;}.cls-5{fill:#2c3e50;}.cls-6{fill:#fff;}</style></defs><title>Asset 9</title><g id="Layer_2" data-name="Layer 2"><g id="Layer_1-2" data-name="Layer 1"><path class="cls-1" d="M121,369.59c-3.75,4.23-8.32,16.68-9.47,19.59-2.5,6.31-6.15,14.07-2.34,20.5,4,6.68,15.71,11,23.29,4.89,8.08-6.49,1.36-18.74-2-25.86-.52-1.09-7.94-19-9.47-19.12Z"/><path class="cls-1" d="M259,475.47c-3.74,4.23-8.31,16.68-9.46,19.59-2.5,6.31-6.16,14.07-2.35,20.5,4,6.68,15.71,11,23.29,4.89,8.09-6.49,1.36-18.74-2-25.86-.51-1.09-7.94-19-9.47-19.12Z"/><path class="cls-2" d="M392.2,390c-.36-1-8.82-19.81-9.42-20.93a34.5,34.5,0,0,0-3,4.09,54.54,54.54,0,0,0-3,5.69c-.53,1-1.08,2-1.54,2.92l-.7,1.45c-2.53,5-5.28,10.71-6.26,16.51-1.06,3.49,0,8.27.16,9,1,4,4.51,9.15,10,10.61.69.19,6.54,1.06,7.74.51,3.69-.42,6.37-3,7.57-6.91C396.09,405.25,395,397.4,392.2,390Z"/><path class="cls-2" d="M311.83,554.27c-.27-.73-6.65-14.92-7.1-15.76a27.81,27.81,0,0,0-2.24,3.08,40,40,0,0,0-2.28,4.29c-.4.74-.82,1.47-1.16,2.2-.19.38-.34.68-.53,1.09-1.91,3.73-4,8.06-4.72,12.43-.8,2.62,0,6.23.12,6.75.73,3,3.4,6.9,7.54,8,.51.15,4.92.8,5.83.39,2.77-.32,4.79-2.28,5.69-5.21C314.76,565.78,313.9,559.87,311.83,554.27Z"/><path class="cls-2" d="M114.39,484.18c-.36-1-8.82-19.81-9.42-20.92a33.28,33.28,0,0,0-3,4.08,54.76,54.76,0,0,0-3,5.7c-.53,1-1.08,1.95-1.54,2.92-.25.51-.45.91-.7,1.45-2.53,4.95-5.28,10.7-6.27,16.5-1.06,3.49,0,8.28.16,9,1,4,4.52,9.16,10,10.61.68.2,6.54,1.07,7.74.51,3.68-.41,6.36-3,7.56-6.91C118.28,499.47,117.14,491.62,114.39,484.18Z"/><path class="cls-3" d="M40.65,410.49c-2,6.22-3.54,13.54-.53,19.8s14.88,11.87,20.13,4c3.6-5.39,2.17-12.2.66-17.78-.85-3.18-8-21.24-11.23-24.83h0S41.36,408.29,40.65,410.49Z"/><path class="cls-3" d="M179.55,465.86c-2,6.22-3.53,13.54-.52,19.8s14.88,11.87,20.12,4c3.61-5.39,2.18-12.2.67-17.78-.86-3.18-8-21.25-11.23-24.83h0S180.27,463.66,179.55,465.86Z"/><path class="cls-4" d="M202.39,361.38c-4,7.35-13.47,30.54-13.54,33.73-.1,4.9,1.73,10.85,5.75,14.37,4.17,3.64,13.64,3.58,17.44.74,7.27-7,2.45-19.14,0-26.77-.42-1.33-7.17-21.76-9.65-22.07Z"/><path class="cls-4" d="M224,566.1c-3.41,6.31-11.57,26.22-11.62,29-.09,4.21,1.48,9.31,4.94,12.34s11.71,3.08,15,.63c6.24-6,2.1-16.43,0-23-.37-1.14-6.16-18.69-8.29-18.95Z"/><path class="cls-4" d="M343.24,451.72c-4,7.35-13.47,30.54-13.54,33.73-.1,4.9,1.73,10.85,5.75,14.37,4.17,3.64,13.64,3.58,17.44.74,7.27-7,2.45-19.14,0-26.77-.43-1.33-7.17-21.76-9.65-22.07Z"/><path class="cls-5" d="M288.84,380.81c-4,7.35-13.47,30.54-13.54,33.73-.1,4.9,1.73,10.84,5.76,14.37s13.64,3.58,17.44.74c7.26-7,2.44-19.14,0-26.77-.43-1.33-7.18-21.76-9.66-22.07Z"/><path class="cls-5" d="M152.15,521.52c-3.4,6.28-11.52,26.1-11.57,28.83-.09,4.18,1.47,9.26,4.91,12.27s11.66,3.07,14.91.64c6.21-6,2.08-16.36,0-22.88-.37-1.14-6.14-18.6-8.25-18.86Z"/><path class="cls-3" d="M95.38,36.59c-1.73,1-3.47,2-5.14,3.16l-2.52,1.68c-.83.57-1.64,1.18-2.45,1.77l-1.22.9-.61.46c-.21.15-.4.31-.6.47L80.45,47c-.39.33-.8.65-1.18,1l-1.15,1L75.85,51A119.27,119.27,0,0,0,59.91,69.66c-.29.43-.6.84-.88,1.27l-.85,1.27c-.57.86-1.14,1.7-1.71,2.55s-1.12,1.7-1.69,2.55S53.61,79,53,79.82c-1.16,1.7-2.38,3.38-3.5,5.11-.57.86-1.14,1.72-1.7,2.59s-1.06,1.77-1.58,2.66c-2,3.46-3.45,7.16-5.09,10.76l-2.29,5.15c-.72,1.73-1.44,3.46-2.07,5.22q-.42,1.18-.78,2.37a.77.77,0,0,0,0,.25c-2.43,5.77-4.18,11.79-6.41,17.59a.83.83,0,0,0-.07.13l-.34.92-.12.3,0,.1c-.31.85-.62,1.71-.9,2.57l-.84,2.59c-.56,1.72-1.05,3.46-1.59,5.19-1,3.27-2,6.52-3.17,9.73L22,154.42l-.48,1.37-1,2.77c-.6,1.85-1.18,3.7-1.73,5.57-.68,2.33-1.33,4.68-1.92,7l-.53,2.12-.49,2.13c-.33,1.43-.65,2.86-.94,4.3s-.6,2.87-.86,4.32c-.91,4.8-1.64,9.63-2.26,14.47-.12,1-.25,2-.37,2.94-.17,1.47-.36,2.93-.57,4.4s-.42,2.92-.68,4.38-.54,3-.8,4.43-.53,3-.76,4.43c-.16,1-.3,2-.43,3-.44,3.61-.49,7.24-.66,10.86l0,.72c-.1,1.83-.23,3.66-.32,5.5S7,242.8,7,244.64c0,.82,0,1.64,0,2.46a1.55,1.55,0,0,0,.05.23c-.41,6.15-.2,12.33-.58,18.48l0,.14,0,1,0,.31v.11c-.08,1.8-.11,3.6-.12,5.41,0,.91,0,1.81,0,2.73l0,2.81,17-.26.06-1.36.08-1.42.17-2.87,0-.34a.65.65,0,0,0,0-.2,21,21,0,0,1,.24-2.49c.12-.83.24-1.65.33-2.49l.55-5.58q.28-2.81.52-5.61c.17-1.87.31-3.74.44-5.62a.76.76,0,0,0,0-.15.65.65,0,0,0,0-.21c.07-2.86,0-5.73,0-8.61a75.34,75.34,0,0,1,.56-11c.22-1.54.46-3.07.7-4.6s.5-3.07.75-4.6l.78-4.58.8-4.57.27-1.53.78-4.57c.29-1.78.59-3.55.85-5.32s.54-3.56.8-5.33l.66-4.58.88-6.09.23-1.53c.07-.5.14-1,.22-1.52l.21-1.32q.59-4,1.26-8l.48-2.64c.24-1.33.52-2.64.8-3.95.2-.87.38-1.75.61-2.61l.33-1.3.35-1.29c.4-1.47.85-2.92,1.3-4.37s.93-2.9,1.42-4.33c.25-.72.49-1.44.74-2.15l.36-1,1.2-3.29.81-2.12.12-.31a.51.51,0,0,0,.09-.18,21.9,21.9,0,0,1,1-2.3c.36-.74.74-1.49,1.06-2.25.71-1.71,1.47-3.4,2.2-5.1.36-.85.73-1.7,1.11-2.54s.73-1.7,1.09-2.55l1.09-2.54,1.07-2.55a.37.37,0,0,0,0-.14.5.5,0,0,0,.11-.19c.5-1.3.95-2.63,1.4-4s.93-2.65,1.39-4c.29-.85.62-1.69.94-2.53s.65-1.69,1-2.52.74-1.64,1.14-2.45.79-1.61,1.26-2.38l1.14-2c.39-.65.76-1.31,1.17-1.94l1.8-2.87c.29-.48.61-1,.92-1.42L66,94.83l.93-1.41,1-1.38c.65-.92,1.27-1.85,1.91-2.77l1.74-2.42c.29-.4.56-.82.86-1.21l.88-1.2c.59-.79,1.16-1.59,1.73-2.39s1.19-1.57,1.77-2.36l.87-1.19.9-1.16L80.32,75l1.83-2.3.91-1.15L84,70.42l1.87-2.26L87.81,66l.84-1c.28-.32.58-.62.87-.93l1.74-1.86c.57-.64,1.19-1.22,1.79-1.82l1.82-1.79,1.93-1.73,1-.86c.33-.28.65-.57,1-.83.67-.54,1.35-1.08,2-1.61l1-.79c.34-.26.7-.5,1-.74l1.83-1.25c.61-.41,1.22-.82,1.85-1.2l1.89-1.16,1-.57.47-.28.48-.27,2.83-1.57L104.4,31.16l-2.24,1.37L101,33.2l-1.12.7c-.74.46-1.49.91-2.25,1.36l-1.14.66Z"/><path class="cls-3" d="M362.77,27A90.85,90.85,0,0,0,352,21.14c-3.66-1.69-7.37-3.17-11.11-4.5a179.71,179.71,0,0,0-22.92-6.35c-3.91-.84-7.81-1.54-11.67-2.52s-7.82-2-11.78-2.76-7.74-.94-11.62-1.35c-3.67-.4-7.35-.84-11-1-.83,0-1.65-.05-2.48-.05a.67.67,0,0,0-.24,0C262.94,2,256.72,2,250.55,1.44l-.14,0-1-.08-.31,0H249c-3.6-.26-7.22-.3-10.84-.38-1.7,0-3.4-.06-5.11-.13S229.66.65,228,.5C226,.35,224.06.23,222.1.14L219.18.05l-1.47,0h-5.14L208.9.12c-1.47,0-2.93.13-4.4.22l-2.22.14-2.22.19c-1.47.13-2.95.26-4.43.44-4.91.53-9.81,1.32-14.68,2.25L178,4l-1.11.22-1.1.23-2.21.44c-1.48.27-3,.57-4.44.82L166.87,6l-2.26.4-2.27.4c-.75.13-1.5.29-2.25.45-1,.21-2,.43-3,.67-1.8.45-3.58,1-5.34,1.61l-5.25,1.88-.7.25c-1.77.64-3.56,1.23-5.32,1.91l-2.64,1c-.88.35-1.74.74-2.6,1.12s-1.53.71-2.29,1.08a1,1,0,0,0-.2.15c-5.9,2.31-11.49,5.36-17.22,8.06l-.14.05-.91.43-.29.13-.1.05c-.83.43-1.65.86-2.46,1.3l-1.23.66-1.21.67-2.4,1.42c-.8.47-1.61.93-2.39,1.43l8.78,14.58c.81-.46,1.66-.86,2.49-1.29s1.66-.86,2.5-1.27l.3-.14.18-.07c.72-.37,1.47-.68,2.23-1l2.26-.88c1.68-.69,3.32-1.42,5-2.06l2.51-1,2.54-1,1.26-.51,1.27-.5c.84-.32,1.69-.65,2.53-1l.13-.07a.84.84,0,0,0,.2,0l.94-.44,1-.42,1.89-.88c1.25-.61,2.52-1.17,3.79-1.75l1.23-.55.62-.27.62-.26c.83-.34,1.67-.67,2.51-1l1.26-.47,1.29-.41c.85-.26,1.72-.51,2.59-.73s1.48-.35,2.21-.52l2.22-.49c3-.64,5.94-1.21,8.93-1.73l1.12-.21,1.12-.18,2.24-.38,1.5-.25c1.5-.23,3-.47,4.49-.73,1.74-.27,3.49-.55,5.23-.85L188,22c.88-.14,1.75-.3,2.62-.43l4.5-.73c2-.31,4-.65,6-.93l1.51-.22,1.5-.23,1.32-.18,4-.54,4-.48L216,18l2-.18,2-.13,2.67-.14,1.34,0h3.61l2.28.05,2.27.08,2.28.11,2.27.14,1,.07,3.5.27c.76.05,1.51.13,2.27.2l.33,0a.65.65,0,0,0,.2,0,23,23,0,0,1,2.48.29c.82.15,1.64.3,2.47.41l5.54.7,2.77.36c.93.11,1.85.23,2.78.33s1.85.23,2.78.33l2.78.3a.75.75,0,0,0,.15,0l.21.05c2.83.17,5.68.23,8.53.33,1.83.08,3.66.16,5.48.34.91.08,1.83.18,2.73.3s1.81.28,2.71.46c1.51.29,3,.63,4.52.94,4.51,1,9,2.09,13.45,3.19l5.95,1.48c3.94,1,7.9,1.91,11.84,2.84S329.11,33,333,34.08c3.39.9,6.78,1.83,10.08,2.91a67.86,67.86,0,0,1,9.54,3.84c.63.33,1.27.65,1.89,1l1.83,1.07.91.53.88.58,1.76,1.16c.84.59,1.66,1.21,2.49,1.81L372,32.91l-2.28-1.51-.57-.38-.58-.37-1.16-.73-1.15-.74-.58-.37-.58-.36C364.31,28,363.54,27.48,362.77,27Z"/><path class="cls-3" d="M418.44,284.12c1.49-7.49,2.6-15,3.46-22.61s1.48-15.31,1.87-23c.1-1.95.19-3.89.32-5.83s.27-3.88.5-5.82.49-3.94.73-5.9.46-3.9.63-5.87c.31-3.8.18-7.65.27-11.51.08-3.66.24-7.34.13-11,0-.82-.07-1.64-.13-2.46a.6.6,0,0,0-.05-.24c.09-3.08,0-6.17,0-9.26s-.16-6.19-.09-9.28a.76.76,0,0,0,0-.15v-1.4c0-3.61-.18-7.22-.37-10.84-.17-3.4-.32-6.81-.29-10.24,0-1,0-2,0-2.94l0-1.47-.05-1.47c0-2-.16-3.92-.29-5.88-.09-1.23-.19-2.45-.3-3.68s-.25-2.45-.4-3.68l-.28-2.2-.14-1.1-.17-1.1-.34-2.22c-.11-.74-.25-1.48-.38-2.21s-.26-1.48-.41-2.21l-.44-2.21a149.49,149.49,0,0,0-3.8-14.58c-.29-1-.63-1.94-.94-2.91-.95-2.9-2-5.79-2.88-8.73s-1.88-6-3-8.92L411,79.72c-.2-.49-.42-1-.63-1.46a83,83,0,0,0-5.56-10.06l-.4-.66-.75-1.25-.79-1.24-.79-1.24c-.26-.41-.52-.83-.8-1.23-.55-.81-1.11-1.61-1.67-2.41s-1.18-1.57-1.79-2.34c-.27-.34-.54-.69-.83-1l-.87-1a.94.94,0,0,0-.2-.16,77.92,77.92,0,0,0-6.44-7.52l-1.74-1.77c-.29-.3-.57-.6-.87-.89l-.89-.86-1.77-1.74c-.61-.57-1.2-1.14-1.8-1.72l-.1-.12-.75-.73-.25-.23-.09-.07c-.72-.64-1.46-1.27-2.19-1.9-.37-.32-.76-.62-1.14-.92l-1.15-.89-1.15-.89-1.18-.84-1.19-.84c-.4-.27-.79-.57-1.2-.83L362.38,47c.36.25.7.55,1.05.82l1,.84c.7.54,1.36,1.15,2,1.73l.23.21a.71.71,0,0,0,.12.13,9,9,0,0,1,.86.76c.27.28.53.56.79.85l.78.85.39.42.38.42,1.75,1.88,1.7,1.92.42.48.41.5.82,1c.28.33.56.65.83,1l.8,1c.53.67,1.09,1.32,1.6,2l.79,1c.26.35.54.67.79,1a.32.32,0,0,0,.1.1.76.76,0,0,0,.09.18c.42.51.84,1,1.27,1.51l.32.37.32.39.63.77.64.76c.21.25.43.51.63.77l1.24,1.57A45.54,45.54,0,0,1,390.72,81l.88,2,.44,1,.41,1,.82,2,.76,2.07.38,1,.36,1,.72,2.09.68,2.11.34,1.06.32,1.06.44,1.42c.22.7.42,1.42.63,2.13s.43,1.42.63,2.14q1.44,5,2.83,10l.59,2.16c.2.72.37,1.45.57,2.18l.38,1.45.37,1.46c.24,1,.5,1.94.72,2.92l.35,1.47c.12.49.24,1,.35,1.47l.29,1.29q.9,3.86,1.66,7.76c.17.87.32,1.74.47,2.61.24,1.31.43,2.63.62,3.94.12.88.22,1.76.32,2.65,0,.44.09.88.13,1.32l.11,1.33c.23,3,.34,6,.39,9.07l0,2.28v1c0,1.17,0,2.34,0,3.51l0,2.27v.34a.64.64,0,0,0,0,.2,23.07,23.07,0,0,1-.13,2.49c-.08.84-.18,1.67-.22,2.5l-.33,5.58-.16,2.8-.14,2.8-.12,2.81-.1,2.8a.71.71,0,0,0,0,.15.78.78,0,0,0,0,.22c0,2.85.2,5.71.31,8.58a75.91,75.91,0,0,1-.18,11.08c-.16,1.55-.34,3.11-.52,4.66q-.83,7-1.64,14c-.23,2.07-.44,4.15-.65,6.23-.81,8.29-1.18,16.63-1.53,25-.31,7.27-.43,14.58-1.28,21.82-.36,3.08-.79,6.15-1.25,9.21l-.53,3.34L417,294.05C417.38,290.71,417.79,287.41,418.44,284.12Z"/><path class="cls-1" d="M109.11,59.39l-1.33,1.18-1,.92c-.68.62-1.36,1.25-2,1.86l-1,.92c-.35.31-.7.61-1,.93l-2,1.86-1,.93-1,1L96,71.31l-2.5,2.47c-.67.65-1.3,1.34-1.94,2l-1.45,1.55c-.25.26-.48.52-.71.79l-.7.8C87.74,80,86.79,81,85.9,82.13l-1.12,1.35c-.38.45-.76.9-1.12,1.36l-2.18,2.75c-.72.92-1.41,1.86-2.12,2.78S78,92.24,77.29,93.18l-1.23,1.69-1.2,1.7-1.62,2.26c-.53.76-1.06,1.52-1.6,2.27l-.81,1.13-1.59,2.29-.79,1.15c-.66,1-1.27,1.93-1.88,2.92-.31.49-.62,1-.91,1.48s-.57,1-.84,1.51c-.62,1.15-1.21,2.32-1.73,3.51l-.27.59-.51,1.19c-.22.5-.44,1-.64,1.5l-.61,1.5-.5,1.2L60,122.29l-.5,1.23-1,2.45c-.34.81-.65,1.64-1,2.45l-1,2.46-.9,2.34a.4.4,0,0,0,0,.15c-.3.82-.6,1.65-.85,2.49s-.49,1.68-.71,2.53c-.11.42-.21.85-.32,1.28l-.14.64c-.23,1.07-.47,2.14-.8,3.18-.07.19-.13.38-.2.56l-.2.56c-.42,1.11-.93,2.19-1.33,3.31-.34.93-.59,1.89-.86,2.85a.55.55,0,0,0-.19.29c-.15.54-.32,1.09-.49,1.63s-.33,1.09-.51,1.63l-.36,1.08L48.15,157l-.55,1.62-.36,1.08-.07.21-.11.33c-.35,1.09-.63,2.19-.87,3.29s-.47,2.23-.64,3.35l-.27,1.69-.2,1.32c-.22,1.32-.43,2.64-.67,3.95l-.24,1.31-.24,1.32-.76,3.93-.65,3.27-.63,3.26c-.18.87-.34,1.74-.49,2.62l-.49,2.64-.47,2.65L40,197.49l-.47,2.64q-.95,5.3-1.88,10.58l-.72,3.95-.51,2.62c-.17.88-.35,1.75-.54,2.63l-.28,1.31L35,223.85l-.28,1.31c-.26,1.32-.53,2.64-.76,4-.15.89-.28,1.77-.4,2.66,0,.21-.06.42-.08.62-.12,1-.21,2.1-.29,3.15l0,.63-.07,1.26-.15,3.15-.07,1.26L32.54,247l-.15,2.58-.16,2.58-.14,2.45a.42.42,0,0,0,0,.16c-.08,1.71-.07,3.43,0,5.16,0,.43,0,.86.07,1.29l0,.65c.08,1.07.16,2.15.14,3.23,0,.19,0,.39,0,.58s0,.39,0,.59c-.1,1.17-.28,2.33-.35,3.51-.06,1-.05,2-.05,2.94a.59.59,0,0,0-.1.33c0,1.51,0,3-.12,4.53l-.12,2.28c0,.76-.08,1.52-.11,2.33v.26l19.15-.31,0-1.7,0-1.78.13-3.58.08-2a.54.54,0,0,0,0-.42v-.05l0-.29v-.67c0-.37,0-.73-.06-1.09s-.06-.73-.11-1.09c-.23-1.62-.52-3.23-.65-4.86a54.36,54.36,0,0,1,.12-8.84.43.43,0,0,1,0,0c.11-.86.19-1.71.25-2.57,0-.64.08-1.28.1-1.92l.06-1.94,0-1.28,0-1.29,0-1.29c0-.65,0-1.3,0-1.94l0-.65,0-.65c0-.64.08-1.29.15-1.93,0-.43.1-.86.16-1.29.13-.86.28-1.72.42-2.57l.1-.64.1-.65c.11-.86.22-1.72.32-2.58.14-1.29.25-2.58.36-3.88l.1-1.3.19-2.59c.07-.86.13-1.73.2-2.59l.11-1.3c.09-1.08.19-2.16.32-3.23s.26-2.16.43-3.23c.24-1.51.49-3,.78-4.53l.44-2.25.47-2.25.28-1.28c.18-.86.39-1.71.59-2.56s.39-1.7.6-2.55l.32-1.27q.46-1.92,1-3.81l.32-1.26c.32-1.25.64-2.51,1-3.76l.64-2.51.64-2.5.63-2.5.31-1.25.62-2.51c.3-1.25.6-2.5.91-3.76s.63-2.65,1-4c.45-1.63.9-3.27,1.4-4.89.67-2.29,1.41-4.55,2.14-6.82l.63-1.88a.5.5,0,0,0,.16-.38v-.06l.06-.27.09-.33.08-.32q.13-.53.24-1.05c.08-.35.14-.71.2-1.07.11-.79.21-1.59.32-2.39s.24-1.59.41-2.38.32-1.42.5-2.13.41-1.39.64-2.08.46-1.37.71-2.05.53-1.35.8-2l0-.05c.35-.77.68-1.54,1-2.32.48-1.17.91-2.36,1.32-3.55l.42-1.19.42-1.18.43-1.19c.2-.6.44-1.19.67-1.78.16-.39.31-.78.48-1.17.24-.58.49-1.16.77-1.73.37-.76.78-1.49,1.2-2.23l1.26-2.2c.41-.74.8-1.48,1.18-2.23.28-.56.59-1.12.87-1.68s.57-1.12.85-1.68l.42-.85.43-.84.85-1.68c.56-1.14,1.17-2.23,1.76-3.34l.76-1.38.81-1.34c.27-.44.54-.89.82-1.33l.42-.66c.14-.22.29-.43.44-.64.6-.87,1.21-1.72,1.83-2.57s1.29-1.66,1.94-2.48,1.34-1.61,2-2.4l1-1.18c.34-.39.7-.76,1.06-1.14.85-.91,1.69-1.83,2.58-2.69s1.75-1.75,2.67-2.57l.89-.82.67-.63.34-.31.34-.29,1.37-1.19.91-.8c.3-.27.63-.53.94-.79l1.88-1.57.71-.59.72-.57,1.43-1.16,1-.78,1-.75,1.45-1.14c.48-.38,1-.77,1.45-1.14,1-.78,2.09-1.57,3.15-2.32l2-1.36,1-.68c.33-.22.69-.43,1-.64L115.07,55l-.31.18c-.25.16-.5.3-.75.47l-.73.5c-.48.33-1,.68-1.43,1s-.93.71-1.39,1.08S109.56,59,109.11,59.39Z"/><path class="cls-1" d="M350.92,50.5l-.83-.4-.85-.39c-.44-.2-.88-.41-1.32-.59-.87-.38-1.74-.79-2.61-1.15s-1.73-.76-2.59-1.12l-1.28-.55-1.29-.53-1.28-.54-1.28-.52-1.6-.65-1.6-.63c-1.06-.43-2.13-.82-3.19-1.22-.85-.33-1.71-.63-2.56-.93-1.3-.48-2.6-.9-3.89-1.36l-3.9-1.3c-4.33-1.42-8.67-2.76-13-4.07-1.3-.37-2.6-.77-3.9-1.17-.86-.25-1.73-.52-2.59-.79l-2.59-.81-1.3-.41-2.59-.83-1.3-.41c-1.09-.33-2.18-.64-3.27-.94s-2.2-.57-3.31-.82-2.51-.48-3.77-.68l-.64-.09-1.27-.17-3.17-.4-1.27-.16c-1.73-.21-3.46-.45-5.19-.65l-2.6-.33-2.6-.3L264,25.3h-.16c-1.73-.16-3.47-.26-5.21-.25h-1.31l-.66,0c-1.09,0-2.18.06-3.27,0l-.59,0-.59-.07c-1.17-.14-2.34-.36-3.52-.48-1-.1-2-.12-3-.15a.68.68,0,0,0-.33-.11c-1.13,0-2.27-.11-3.41-.18L240.87,24c-1.14-.09-2.27-.21-3.42-.29l-1.15-.08-.22,0-.35,0L234,23.49c-.58,0-1.15,0-1.72,0-1.15,0-2.3.11-3.44.22l-1.72.18-1.35.14c-1.34.12-2.69.27-4,.39l-1.34.11-1.35.11c-1.35.12-2.69.23-4,.33l-3.37.29-1.68.15-1.68.17-2.68.27-5.42.64-2.71.35c-.9.12-1.81.23-2.71.37-1.8.26-3.61.49-5.41.78l-2.7.41c-.9.13-1.8.29-2.7.44l-2,.32c-.67.1-1.34.23-2,.33l-5.41.87-1.35.21-1.37.2-1.36.23-1.36.23-2,.36-2,.44c-.9.2-1.8.41-2.69.64l-.63.18c-1,.31-2.07.65-3.09,1l-.62.21c-.41.14-.81.3-1.22.45l-3,1.17-.61.23-.61.24-2.48,1-1.24.48-1.24.5-2.48,1-1.23.5-1.23.53-2.34,1a.35.35,0,0,0-.13.08c-.41.17-.81.36-1.21.57s-.8.4-1.19.61c-.79.41-1.57.84-2.34,1.28-.39.23-.76.48-1.14.72l-.57.36c-.93.61-1.88,1.19-2.86,1.73l-.54.28-.54.26c-1.1.53-2.25.95-3.33,1.51-.9.47-1.77,1-2.64,1.52a.58.58,0,0,0-.35.09c-2.66,1.62-5.43,3.07-8.13,4.66l-.2.12,10.52,16c1-.6,2-1.21,2.94-1.8l3-1.71c.55-.32,1.13-.62,1.69-.92a.52.52,0,0,0,.37-.16l0,0h0l.23-.15.27-.18.28-.17.87-.58.84-.64c.62-.48,1.23-1,1.84-1.46s1.24-1,1.9-1.41,1.2-.76,1.82-1.12,1.23-.72,1.87-1l1.93-.92c.65-.29,1.3-.59,2-.85h.06c.78-.27,1.56-.57,2.32-.9l1.72-.74,1.7-.76,1.14-.53c.37-.18.75-.36,1.13-.52l1.15-.51,1.73-.74.58-.24.59-.23,1.78-.62c.4-.13.81-.25,1.21-.36.81-.24,1.64-.41,2.46-.61l.62-.15.61-.16,2.44-.68c1.22-.34,2.42-.73,3.63-1.1l1.22-.37,2.42-.76,2.44-.71,1.22-.36c1-.3,2.05-.54,3.08-.79s2.07-.5,3.11-.68l2.22-.39,1.12-.18,1.11-.16,2.24-.3,1.11-.14,1.13-.12,1.28-.12,2.56-.24,2.57-.18,1.29-.08,3.85-.19c.43,0,.85,0,1.28-.06l3.81-.13,2.55-.07,2.54-.08,2.54-.06,1.27,0,2.54,0,1.9-.06,1.91,0c1.34,0,2.69-.07,4,0l2.51,0c.84,0,1.67.06,2.51.09,1.18.05,2.35.1,3.55.18l3.56.24,2,.15a.53.53,0,0,0,.41.06h2.09c.36,0,.72,0,1.08-.08l2.41-.27c.8-.08,1.61-.15,2.42-.19a39.79,39.79,0,0,1,4.37.08c1.46.09,2.91.27,4.35.46h.06c.83.15,1.67.28,2.51.39,1.26.16,2.53.27,3.8.38l1.27.1,1.27.09,1.27.12c.64,0,1.28.11,1.91.18.43,0,.85.09,1.28.15l1.89.3c1.69.29,3.34.8,5,1.16.84.19,1.68.37,2.52.53,1.26.24,2.52.48,3.79.69l3.79.65c1.27.21,2.54.45,3.8.68,1,.19,2.1.42,3.14.65s2.09.49,3.12.77a126.69,126.69,0,0,1,12.26,4.08c2.41.91,4.77,1.91,7.12,2.91l1.15.51,1.73.76,1.72.78,2.26,1c.76.34,1.5.71,2.25,1.06l1.66.8c.55.27,1.11.52,1.65.8.72.37,1.46.71,2.16,1.08.53.28,1.08.54,1.6.82l1.57.83,1.61.89,1.56,1c1.31.78,2.51,1.71,3.75,2.59L357.58,54.6l-.3-.23c-1-.74-2-1.45-3.08-2.1S352,51.07,350.92,50.5Z"/><path class="cls-1" d="M397.08,286.27c0-.55,0-1.11,0-1.67v-1.3c0-1.75,0-3.49.09-5.23s.15-3.48.26-5.22c.14-2.18.3-4.35.46-6.52.07-.87.13-1.74.2-2.6q.29-4,.63-7.9.57-6.57,1.33-13.13c.15-1.31.31-2.62.49-3.92.23-1.74.49-3.48.78-5.21l.23-1.31.23-1.3,0-.16a.52.52,0,0,0,0-.11l.05-.21L402,230c.09-.39.18-.85.27-1.32s.22-1.21.32-1.82l.26-1.74c.16-1.1.29-2.2.4-3.31s.2-2.51.25-3.77l0-.63,0-1.27.05-3.16,0-1.27.13-5.18.06-2.59.07-2.59,0-2.46a.66.66,0,0,0,0-.15c0-1.73-.06-3.45-.21-5.17,0-.43-.08-.86-.13-1.29l-.07-.65c-.12-1.08-.24-2.15-.27-3.23v-.59c0-.19,0-.39,0-.58.06-1.17.18-2.34.21-3.52,0-1,0-2-.07-2.94a.58.58,0,0,0,.09-.33c-.06-1.12-.06-2.25-.06-3.38V175.9c0-1.12,0-2.25.07-3.38l0-1.13v-.57q0-1.69-.15-3.39c-.11-1.13-.25-2.26-.4-3.38-.08-.57-.16-1.13-.26-1.69l-.21-1.33c-.2-1.33-.36-2.66-.55-4l-.18-1.33-.16-1.33-.49-4c-.12-1.11-.27-2.23-.41-3.34l-.2-1.67-.1-.84-.12-.83c-.13-.89-.25-1.78-.38-2.67s-.27-1.8-.41-2.7l-.41-2.7-.46-2.7c-.15-.9-.29-1.8-.46-2.7-.33-1.8-.64-3.61-1-5.41l-.52-2.71-.57-2.7c-.27-1.36-.59-2.7-.88-4.06l-.29-1.35c-.09-.46-.2-.91-.3-1.36-.21-.9-.41-1.81-.6-2.72-.09-.46-.21-.91-.31-1.36l-.63-2.74c-.1-.46-.22-.92-.34-1.37l-.55-2-.29-1c-.09-.34-.21-.68-.32-1-.29-.9-.6-1.8-.92-2.69l-.23-.63C390,96,389.51,95,389,94l-.29-.61c-.19-.4-.4-.8-.61-1.2l-.77-1.5L387,89.9l-.2-.37-.2-.37L385.92,88c-.45-.81-.87-1.63-1.33-2.43l-1.41-2.41c-.45-.8-1-1.59-1.45-2.38L381,79.57c-.25-.4-.49-.8-.76-1.18l-1.49-2.21-.11-.13c-.52-.77-1.12-1.5-1.71-2.23l-.9-1.07-.46-.54-.48-.51-1-1-.5-.49-.62-.63c-.21-.2-.41-.41-.63-.61-.42-.41-.84-.83-1.23-1.26-.15-.16-.29-.31-.43-.48l-.41-.49c-.39-.5-.81-1-1.22-1.48s-.83-1-1.26-1.45a27.28,27.28,0,0,0-2.34-2.22.66.66,0,0,0-.2-.31l-.91-.84-.47-.41-.46-.4L361.55,58c-.6-.57-1.25-1.08-1.88-1.62l-1.9-1.61-.19-.14L346.35,70.11c.22.15.42.33.63.5l.62.5,1.25,1c.22.17.41.35.61.53l.6.54,1.19,1.07c.23.19.43.41.65.61l.63.63a.43.43,0,0,0,.25.28h0v0l.2.15.23.19.24.2.37.31.37.31c.26.21.52.41.79.6l.91.62.46.31.44.33c.59.45,1.17.9,1.73,1.39A16.09,16.09,0,0,1,360,81.63c.46.49.91,1,1.35,1.5s.83,1.07,1.23,1.61l.59.82c.21.27.38.57.57.85a.08.08,0,0,0,0,0c.39.69.81,1.36,1.25,2,.32.49.63,1,1,1.5l1,1.47.65,1,.66,1,.66,1c.31.52.62,1,.92,1.56l.3.53.3.53.21.4.2.41.39.83c.17.37.33.75.48,1.12s.31.76.44,1.15l.4,1.16.21.58.21.57c.31.76.58,1.54.88,2.3.22.58.45,1.15.69,1.72s.44,1.15.67,1.73l.46,1.15c.15.38.32.76.46,1.15l.44,1.16c.29.78.6,1.56.88,2.34l.41,1.18.5,1.48.25.75c.08.25.15.5.22.75.29,1,.57,2,.83,3,.33,1.45.64,2.9.92,4.37l.39,2.2c.12.73.25,1.47.34,2.21l.18,1.27c.11.85.24,1.69.32,2.54l.28,2.55c0,.43.09.85.13,1.28l.33,3.84.09,1.27.13,1.91c.05.64.11,1.27.14,1.91l.17,2.54c.06.85.11,1.7.16,2.55l.17,2.55c0,.43.05.85.08,1.28.05.85.11,1.7.17,2.55.05.64.09,1.28.13,1.92l.14,1.92c.12,1.36.18,2.72.24,4.08.09,1.68.12,3.39.15,5.09,0,1.19,0,2.4,0,3.61s0,2.41,0,3.62v2a.55.55,0,0,0,0,.42v0l0,.29c0,.11,0,.22,0,.34l0,.34c0,.36.05.72.1,1.09s.09.72.16,1.08c.3,1.61.63,3.21.83,4.83.18,1.46.26,2.93.3,4.41s0,2.94-.07,4.41a.09.09,0,0,0,0,0c-.08.86-.13,1.71-.15,2.57-.05,1.28-.05,2.56,0,3.85l0,1.28,0,1.29,0,1.29c0,.64,0,1.29,0,1.93,0,.43,0,.86,0,1.29,0,.65,0,1.29-.09,1.94-.12,1.73-.42,3.44-.6,5.16-.1.87-.17,1.73-.24,2.6,0,.66-.09,1.31-.13,2l-.09,1.87c0,.59-.07,1.16-.11,1.79l-.07,1,0,.59,0,.65-.15,4c-.09,2.19-.21,4.39-.42,6.58-.43,4.43-1,8.84-1.64,13.25l-1.15,7.93-.19,1.31-.54,3.93-.34,2.62-.31,2.63c-.16,1.31-.3,2.62-.44,3.94-.09.88-.17,1.75-.25,2.63-.12,1.32-.23,2.63-.32,3.95s-.21,2.79-.34,4.19c-.15,1.73-.33,3.46-.5,5.2l19.08,1.64,0-.34A54.31,54.31,0,0,0,397.08,286.27Z"/><path class="cls-4" d="M114.88,87.62c-.64.6-1.27,1.22-1.87,1.85l-.45.49-.42.5-.85,1c-.55.68-1.1,1.37-1.63,2.07l-1.54,2.15q-.83,1.1-1.62,2.19c-.55.73-1.11,1.44-1.67,2.15-1.08,1.45-2.25,2.84-3.33,4.28l-.86,1.09-.42.54-.42.56c-.54.73-1.1,1.47-1.66,2.2s-1.08,1.47-1.63,2.21l-.83,1.1-.8,1.1-1.59,2.18q-.77,1.1-1.5,2.22c-.25.37-.5.74-.73,1.12l-.67,1.16c-.44.77-.87,1.55-1.26,2.36a67,67,0,0,0-3.2,8.46l-.68,2.15c-.23.71-.45,1.42-.67,2.14s-.46,1.41-.7,2.12-.47,1.4-.73,2.1c-1.67,4.53-3.51,9-5,13.55l-.29.94a.54.54,0,0,0-.11.18c-.25.77-.52,1.54-.79,2.31s-.53,1.54-.81,2.31l-.85,2.29q-.43,1.14-.9,2.28c-.59,1.5-1.19,3-1.87,4.46a19.62,19.62,0,0,0-1.7,4.31.15.15,0,0,0,0,.07c-.48,1.63-1,3.24-1.48,4.87h0A123.52,123.52,0,0,0,66,189.32c-.16.81-.28,1.63-.38,2.46s-.16,1.65-.22,2.48c-.1,1.66-.16,3.33-.21,5,0,1.08-.11,2.14-.21,3.2s-.21,2.11-.36,3.16c-.17,1.26-.35,2.52-.56,3.78-.56,3.44-1.16,6.86-1.87,10.27l-.39,1.88-.26,1.26-.24,1.25a49.66,49.66,0,0,0-.75,5.7c-.19,2.9-.08,5.82,0,8.73l.05,1.09c0,.73,0,1.45.08,2.18,0,1.09.06,2.18.06,3.26,0,.73,0,1.45,0,2.17,0,.89-.08,1.77-.13,2.65-.21,3.53-.51,7.06-.66,10.59l0,.88,0,1a.38.38,0,0,0-.05.19q-.22,4.81-.83,9.61c-.2,1.58-.42,3.16-.71,4.73a20.23,20.23,0,0,0-.6,4.56s0,.05,0,.07c-.08,1.73-.17,3.45-.25,5.18l18.37-.36c0-.18,0-.44.06-.67l.06-.71.12-1.45c.07-1,.13-1.94.18-2.91,0-.55,0-1.1,0-1.66v0c.07-.65.16-1.3.23-1.95.16-1.53.28-3.06.38-4.6.22-3.07.37-6.15.52-9.22v-.31h0q.34-7.32.88-14.63.38-5,.71-10l.17-2.49c.16-2.49.31-5,.47-7.48s.34-5,.57-7.54.48-5,.76-7.51q.28-2.51.6-5c.31-2.49.63-5,1-7.48l.33-2.5.14-1c.21-1.5.4-3,.69-4.49.07-.33.13-.66.2-1,.11-.5.23-1,.35-1.48s.35-1.25.54-1.87c.28-.93.56-1.86.88-2.78l.62-1.84c.3-.9.63-1.8.94-2.7.63-1.85,1.28-3.68,1.82-5.55.08-.26.15-.52.23-.79l.21-.79v0c.23-.61.47-1.21.69-1.82.54-1.42,1-2.86,1.5-4.29s1-2.88,1.44-4.31l.7-2.15.72-2.14v0l.09-.27h0c1.51-4.53,3.14-9,4.93-13.36.6-1.5,1.24-3,1.86-4.45.15-.37.31-.74.47-1.1l.48-1.1c.33-.73.63-1.47,1-2.19l1-2.18c.16-.37.33-.73.5-1.09l.5-1.08c.65-1.45,1.37-2.86,2-4.29a98.07,98.07,0,0,1,10-16.11c.24-.31.47-.63.71-.93l.74-.91.73-.9.37-.46.38-.45c1-1.18,2-2.41,3.15-3.56l1.29-1.42c.21-.24.44-.47.67-.69l.68-.68c.45-.45.92-.9,1.39-1.33s1-.83,1.49-1.22,1.23-.92,1.86-1.37l1.94-1.26c1.29-.85,2.65-1.59,4-2.39L125.86,79.45,123,81.32c-.94.64-1.87,1.31-2.8,2s-1.82,1.37-2.72,2.09S115.71,86.83,114.88,87.62Z"/><path class="cls-4" d="M330.88,68.6a50.64,50.64,0,0,0-9.9-3.52c-3.44-1-6.71-2.11-10-3.32s-6.7-2.45-10-3.71A63.47,63.47,0,0,0,291,54.88c-1.46-.31-2.93-.52-4.4-.7-.74-.09-1.47-.16-2.21-.23s-1.48-.14-2.22-.2l-4.42-.35-2.2-.22c-.73-.08-1.46-.16-2.18-.27-4.75-.66-9.45-1.55-14.21-2.07l-1-.09a.62.62,0,0,0-.19-.07c-1.62-.2-3.24-.39-4.85-.64l-2.42-.37-2.41-.42c-.8-.14-1.59-.28-2.39-.44s-1.58-.32-2.37-.49a19,19,0,0,0-4.59-.79h-.07l-2.56-.22-2.6-.21h0a93.86,93.86,0,0,0-13.41-.32,23.94,23.94,0,0,0-2.55.27c-.85.12-1.69.27-2.53.43s-1.67.37-2.5.56l-2.49.6c-1.07.27-2.14.52-3.21.73l-1.6.3-1.61.29c-1.29.23-2.58.41-3.87.62l-2.65.4c-.88.13-1.76.29-2.65.42l-2.65.4c-.88.14-1.77.27-2.65.39-.66.1-1.31.18-2,.29l-1.3.21-1.3.23c-.49.08-1,.17-1.46.27l-1.44.34c-1,.23-1.92.49-2.86.79-1.42.48-2.83,1-4.21,1.6s-2.74,1.24-4.1,1.88l-1,.5-2,1c-1,.47-2,1-3,1.45-.68.32-1.36.62-2.05.9s-1.67.73-2.51,1.09c-1.69.68-3.36,1.42-5,2.13l-.63.27-.62.28L152.6,66c-.83.39-1.66.76-2.48,1.17l-.82.42-.89.47a.34.34,0,0,0-.19,0l-1.12.55-1.12.55c-.74.37-1.49.74-2.24,1.09l-1.13.53-1.13.55-2.27,1.06c-.76.33-1.5.69-2.25,1s-1.51.68-2.28,1a21.14,21.14,0,0,0-4.29,2.12l0,.05c-.74.48-1.49.95-2.24,1.41s-1.51.92-2.24,1.42l10.83,14.83.6-.35.62-.35,1.21-.7c.81-.47,1.59-1,2.4-1.44.45-.27.9-.55,1.34-.84l0,0,1.67-.83c.66-.32,1.31-.66,2-1l1-.52,1-.51c1.3-.66,2.58-1.37,3.9-2l1.95-1,2-1h0l.25-.12h0q6.26-3.1,12.81-5.66c3-1.14,6-2.27,9-3.32l2.26-.79c1.15-.38,2.29-.77,3.42-1.16l3.45-1.12c2.32-.73,4.66-1.42,7-2,.59-.16,1.18-.32,1.77-.46l1.79-.42,1.78-.41,1.8-.38,2.4-.49,2.4-.44,1.81-.33,1.81-.29,1.82-.3,1.82-.26,2.43-.36,1-.12c1.47-.19,2.94-.4,4.42-.48l1,0c.49,0,1,0,1.48,0l1.89.08c1,.06,1.9.1,2.84.21l1.88.19,1.39.15,1.38.18,1.42.17,1.42.16c1,.11,1.92.21,2.88.28l.81.06.82,0h0c.63.1,1.27.22,1.9.31,1.5.22,3,.43,4.5.6,3,.39,6,.7,9,1.07h0l.28,0h0q7.13.84,14.2,2.09c1.61.28,3.21.58,4.81.87l2.4.45,1.2.22,1.2.24c3.2.6,6.39,1.25,9.58,1.9s6.4,1.45,9.56,2.32,6.28,1.82,9.36,2.86,6.11,2.16,9.08,3.36a40.76,40.76,0,0,1,6.85,3.28l.92.62.46.32.44.33.86.66c.3.22.56.45.83.68s.55.44.81.69l.8.73.79.73c.26.25.51.51.77.75l11.29-14.49c-.9-.81-1.85-1.56-2.79-2.32l-.71-.57-.74-.56-.75-.54-.37-.28L337,72.3l-1.5-1-1.51-1c-.51-.31-1-.6-1.53-.89S331.4,68.86,330.88,68.6Z"/><path class="cls-4" d="M376.93,279.77a73.42,73.42,0,0,0-.4-9.71,65.18,65.18,0,0,1,.12-10c.27-3.39.6-6.78,1.09-10.16a79.09,79.09,0,0,0,1.09-9.94c0-.43,0-.86,0-1.28v-1.14l0-.05,0,0h0s0,0,0,0l.05-.62c0-.21,0-.43.05-.63,0-.83,0-1.58,0-2.29v-1l-.05-.95-.11-1.88c-.15-2.5-.3-5-.28-7.47,0-4.75.34-9.46.32-14.18v-1a.46.46,0,0,0,0-.2q0-4.81.48-9.61c.15-1.58.31-3.16.55-4.73a19.84,19.84,0,0,0,.47-4.52s0,0,0-.07c0-.83,0-1.67.07-2.5l.08-2.52h0a126,126,0,0,0,0-13c-.06-.83-.16-1.66-.28-2.49s-.25-1.65-.42-2.47-.36-1.64-.54-2.46-.38-1.64-.58-2.46c-.25-1.05-.46-2.11-.65-3.17s-.38-2.12-.53-3.19c-.17-1.27-.36-2.56-.52-3.85-.42-3.51-.89-7-1.27-10.6l-.23-2-.16-1.31c-.05-.44-.12-.88-.19-1.31-.16-1-.33-2-.52-2.94s-.47-1.95-.74-2.91c-.11-.36-.22-.72-.34-1.09s-.24-.72-.37-1.07c-.26-.72-.53-1.43-.81-2.14s-.6-1.41-.9-2.11-.61-1.4-.94-2.09l-.5-1c-.33-.69-.65-1.38-1-2.08-.52-1-1-2.06-1.49-3.1-.34-.69-.67-1.38-1-2.08L365.9,111l-.59-1.28c-.76-1.71-1.59-3.41-2.42-5.12l-1.32-2.52c-.45-.83-.94-1.65-1.42-2.48-.17-.27-.32-.55-.5-.81l-.58-.88a.39.39,0,0,0-.08-.2c-.9-1.48-1.88-2.93-2.81-4.41q-.75-1.1-1.47-2.19c-.24-.38-.49-.74-.74-1.1L353.21,89c-.25-.36-.48-.73-.74-1.08l-.77-1.07c-.51-.71-1-1.45-1.53-2.16s-1-1.41-1.49-2.08a12.89,12.89,0,0,0-1.76-1.86l-.06,0c-1.36-1.3-2.72-2.61-4.15-3.84L331.42,91.31l.93.91c.31.3.6.62.9.93l.91.91.9.93c.33.35.69.67,1,1l0,0c.36.45.7.92,1.05,1.36l.32.39.3.41.62.8c.21.26.42.52.62.79l.6.81c.82,1.07,1.58,2.19,2.37,3.28.38.57.75,1.13,1.14,1.69.19.28.37.57.55.86l.55.87h0l.14.22h0l.43.69.41.71.82,1.41.78,1.45c.25.49.52,1,.76,1.47.48,1,1,2,1.43,3l.68,1.53c.22.51.43,1,.64,1.55.6,1.41,1.11,2.87,1.67,4.3s1.06,2.92,1.54,4.41c.25.75.52,1.48.74,2.23.72,2.25,1.42,4.52,2.08,6.83s1.27,4.68,1.81,7.06,1,4.8,1.45,7.22c.27,1.62.57,3.24.81,4.88.39,2.44.73,4.91,1.07,7.38l.32,2.47.14,1c.19,1.49.37,3,.49,4.5,0,.33.05.67.06,1,0,.51,0,1,0,1.52s0,1.29,0,1.94c0,1-.08,1.94-.14,2.91l-.12,1.94-.22,2.88c-.07,1-.12,1.95-.18,2.94s-.09,2-.1,3q0,.42,0,.84c0,.28,0,.56,0,.84v0c0,.66-.12,1.32-.17,2-.11,1.54-.18,3.09-.23,4.64s-.1,3.09-.12,4.64,0,3.08-.06,4.62v.31h0c-.06,4.89-.15,9.76-.37,14.59-.1,2.27-.21,4.55-.31,6.82l-.17,3.28c0,.47-.05.91-.09,1.25l0,.25V234l0,.1a16.46,16.46,0,0,0-.2,1.72l0,.54v.4l0,.78,0,1.56c0,1,0,2.09-.05,3.13-.07,6.88-.31,13.74-.51,20.6q-.17,5.16-.26,10.3a81.44,81.44,0,0,1-.34,8.27c-.39,3.28-1,6.54-1.53,9.81l18.33,1.14C376.09,288.17,376.69,284,376.93,279.77Z"/><path class="cls-2" d="M222.22,71.1c-.7.09-1.4.2-2.09.3l-1.64.24-3.25.5c-1.09.16-2.17.35-3.25.53l-1.63.26-1.61.29-1.62.29c-.54.1-1.08.18-1.61.3l-2,.4-1,.19c-.33.06-.67.13-1,.21-1.33.3-2.67.57-4,.89l-3.17.78c-.8.2-1.6.44-2.39.65s-1.6.43-2.39.66l-2.37.71-1.19.35-1.18.38q-7.87,2.48-15.54,5.62L167,85.6q-.57.23-1.14.48l-1.14.5c-2,.85-4,1.78-6.07,2.67l-1.51.7c-1,.47-2,.92-3,1.42l-1.51.75c-1.26.6-2.48,1.29-3.71,2s-2.42,1.42-3.6,2.17l-1,.66c-.33.22-.65.45-1,.69-.65.46-1.29.94-1.92,1.42l-.63.48-1.24,1L138,101.79l-.76.65-.75.66-1.2,1-.62.54c-.21.17-.41.36-.61.55l-1.21,1.1-1.21,1.11-1.19,1.14-1.18,1.15-.59.57c-.2.19-.38.39-.58.59l-2.29,2.37-2.12,2.34-.11.15c-.18.21-.37.41-.54.62l-.52.65c-.35.43-.69.87-1,1.31s-.67.87-1,1.33-.63.92-.93,1.38-.6.93-.9,1.4c-.15.23-.3.46-.44.71-.7,1.21-1.43,2.4-2.15,3.57l-.41.63c-.15.2-.29.41-.43.61l-1.3,1.84c-.43.61-.86,1.22-1.24,1.86-.64,1.06-1.24,2.15-1.79,3.26a.8.8,0,0,0-.28.32c-.67,1.26-1.3,2.52-2,3.76-.23.42-.44.83-.65,1.25l-1,1.87c-.33.63-.63,1.25-1,1.88l-.62,1.26-.12.24-.18.39c-.57,1.27-1.11,2.56-1.57,3.87-.23.65-.46,1.31-.67,2s-.41,1.32-.6,2-.39,1.33-.57,2l-.42,1.56-.32,1.18-.31,1.17-.65,2.34-.42,1.55-.43,1.56-.62,2.33-.32,1.16-.3,1.17-.51,1.94-.5,1.94-.49,1.93L96,177.48c-.26,1-.49,2.07-.73,3.11l-.36,1.57-.34,1.57c-.23,1.05-.46,2.09-.68,3.14s-.45,2.1-.66,3.14l-.64,3.15q-1.27,6.28-2.42,12.57l-.88,4.7-.6,3.13c-.2,1-.4,2.08-.62,3.12l-.31,1.57c-.22,1-.43,2.08-.64,3.12l-.31,1.57c-.3,1.57-.59,3.14-.84,4.71-.17,1.06-.33,2.11-.45,3.16l-.09.75c-.14,1.24-.24,2.48-.33,3.73l0,.75L85,237.53l-.19,3.75-.08,1.49-.33,6.12L84.22,252,84.06,255l-.14,2.91a.55.55,0,0,0,0,.18c-.08,2-.06,4.07,0,6.11q0,.77.09,1.53l0,.76c.08,1.28.16,2.55.15,3.83,0,.23,0,.46,0,.69s0,.46,0,.69c-.09,1.39-.26,2.77-.32,4.16-.05,1.16,0,2.32,0,3.48a.81.81,0,0,0-.1.39c0,1.78,0,3.57-.07,5.35s-.13,3.57-.17,5.43v.29l19.15-.5v-2.05l0-2.13.09-4.27.06-2.38a.75.75,0,0,0,0-.5v-.06l0-.34,0-.4v-.4c0-.44,0-.87-.06-1.3s-.07-.86-.12-1.29c-.25-1.92-.54-3.84-.68-5.77a75.09,75.09,0,0,1,.08-10.5.2.2,0,0,0,0-.07c.11-1,.19-2,.25-3.05,0-.76.08-1.52.1-2.29l.06-2.29,0-1.53,0-1.53,0-1.53c0-.76,0-1.53.07-2.3l0-.77,0-.76c0-.77.1-1.53.17-2.3q.08-.76.18-1.53c.13-1,.29-2,.44-3.05l.11-.77.11-.76q.19-1.53.36-3.06c.16-1.53.3-3.07.43-4.6l.13-1.53.25-3.07.27-3.07.15-1.53.19-1.92.23-1.91c.15-1.27.34-2.54.54-3.8q.89-5.37,2.11-10.65l.35-1.5c.24-1,.47-2,.73-3s.5-2,.77-3l.4-1.49c.2-.74.41-1.49.62-2.22l.62-2.22.43-1.46c.42-1.46.87-2.91,1.29-4.37l.89-2.89c.29-1,.61-1.91.9-2.87s.62-1.91.92-2.87c.15-.47.29-1,.45-1.42l.94-2.85c.48-1.41.93-2.83,1.42-4.24s1.06-3,1.61-4.42l1.1-2.7,1.16-2.66.87-1.84.43-.92.45-.91c.31-.6.6-1.2.91-1.8l.94-1.77.26-.49.27-.49.55-1a.64.64,0,0,0,.25-.39v0l.12-.29c.06-.11.11-.23.17-.34l.17-.33c.18-.35.36-.71.52-1.07s.32-.74.47-1.1c.35-.82.67-1.65,1-2.47s.72-1.61,1.14-2.39.78-1.38,1.2-2.06.91-1.32,1.39-2,1-1.27,1.5-1.89l.78-.93.4-.45.42-.45,0,0c.68-.66,1.32-1.35,2-2,.5-.51,1-1,1.47-1.54l.72-.79.75-.76,1-1c.33-.34.65-.7,1-1l1-1c.52-.5,1-1,1.57-1.5l1.08-1c.55-.47,1.09-1,1.68-1.38.78-.58,1.58-1.13,2.39-1.67s1.65-1,2.46-1.58c.39-.27.81-.53,1.22-.79l1.22-.81.91-.61.92-.6,1.83-1.21c.3-.21.61-.4.92-.6l.93-.59c.62-.4,1.23-.81,1.86-1.19l1.89-1.15,1-.57,1-.54c1.08-.6,2.14-1.22,3.25-1.76s2.2-1.12,3.34-1.6a100.94,100.94,0,0,1,14.12-4.94l2.17-.58,2.17-.52,1.09-.26.55-.13.54-.11,2.19-.46c.48-.1,1-.21,1.45-.29l2.17-.4,1.09-.21,1.09-.17,1.45-.25,1.45-.23,2.9-.43,2.18-.28c.72-.09,1.45-.2,2.17-.27l2.9-.34,2.18-.21,1.09-.11c.36,0,.72-.06,1.09-.09l2.3-.18c.77,0,1.53-.07,2.3-.1l1.43,0h3.58l.71,0,.22-19.16-.44,0-.53,0h-1.59c-.7,0-1.41,0-2.11.07C225,70.79,223.61,70.94,222.22,71.1Z"/><path class="cls-2" d="M354.63,283.46l0-2,0-1.55q0-3.12,0-6.23c0-2.08.09-4.16.16-6.23.09-2.6.21-5.19.3-7.79l.12-3.1c.11-3.15.22-6.3.36-9.44.09-2.62.21-5.24.33-7.87s.25-5.24.39-7.86c.07-1.58.16-3.15.26-4.71l.21-3.14c.07-1.05.15-2.09.24-3.14l.14-1.57.29-3.15.13-1.57c.2-2.63.41-5.26.46-7.9,0-1.49,0-3,0-4.47l0-.74-.06-1.49c-.05-1.24-.13-2.5-.18-3.74l-.07-1.5-.27-6.15-.16-3.08c-.05-1-.09-2.06-.16-3.09l-.16-2.93,0-.18c-.07-1-.18-2-.3-3.08s-.25-2-.42-3.07q-.12-.76-.27-1.53l-.14-.76c-.22-1.28-.49-2.55-.63-3.84,0-.24-.06-.47-.08-.71s0-.47-.05-.7c-.1-1.41-.12-2.83-.25-4.25-.13-1.18-.32-2.36-.5-3.53a.79.79,0,0,0,0-.41c-.23-1.35-.43-2.71-.61-4.08l-.2-1.36-.28-2.06-.31-2.06-.2-1.38-.05-.26c0-.14,0-.28-.07-.43-.13-.68-.28-1.37-.43-2.05l-.24-1-.28-1c-.19-.68-.38-1.35-.59-2s-.45-1.34-.68-2-.46-1.34-.73-2l-.6-1.57-.22-.59-.23-.59-.47-1.18-.46-1.18-.5-1.17-.65-1.57-.68-1.57c-.18-.39-.34-.79-.52-1.18l-.55-1.17-.55-1.17-.58-1.16a74.6,74.6,0,0,0-4.32-7.61c-.31-.5-.66-1-1-1.47l-.5-.73c-.17-.24-.35-.47-.53-.71A65.16,65.16,0,0,0,332.7,105c-.41-.44-.8-.89-1.22-1.32l-1.25-1.28c-.86-.83-1.71-1.66-2.59-2.44l-.66-.6-.71-.61c-.48-.4-1-.82-1.45-1.18s-1-.76-1.45-1.12l-1.46-1.06c-2-1.36-3.92-2.62-5.89-3.79-.74-.45-1.49-.86-2.23-1.29l-2.22-1.24c-.5-.28-1-.53-1.49-.79s-1-.54-1.49-.79c-1-.51-2-1-3-1.53l-1.49-.76q-1.5-.75-3-1.47l-1.51-.7-1.14-.52-1.15-.5c-.76-.33-1.52-.65-2.3-1-1-.4-2.06-.81-3.1-1.16l-.74-.25c-1.23-.41-2.48-.76-3.72-1.1l-.75-.2L285.2,78c-1.25-.32-2.51-.59-3.76-.88-.51-.12-1-.24-1.51-.34-1-.23-2.06-.47-3.09-.69l-3.08-.65-3.09-.62-3.1-.58c-1-.19-2-.35-2.94-.52a.65.65,0,0,0-.19,0c-1-.18-2.07-.29-3.11-.42s-2.08-.2-3.13-.27l-1.56-.08-.79,0-2-.07c-.65,0-1.3-.08-1.95-.13l-.71-.08-.7-.1c-1.41-.22-2.81-.48-4.22-.65l-.89-.1-.88-.06-1.78-.1a.82.82,0,0,0-.4-.13c-.9-.06-1.82-.1-2.72-.17l-2.73-.21-2.72-.22-2.83-.18-.27,0-.22,19.16,2,.07.5,0,.52,0,1.05.06,2.08.14,2.08.17,1.16.09,1.16.11a.67.67,0,0,0,.47.08h.4l.39,0h.39l1.26,0c.43,0,.85,0,1.27,0,.94,0,1.88-.12,2.82-.15s1.89-.09,2.83-.06a60,60,0,0,1,10.18,1.16l.06,0c1,.24,1.94.42,2.91.62.73.14,1.47.27,2.2.39l2.2.38,1.47.24,1.47.25,1.47.25,2.2.43.73.15.72.17c.73.17,1.45.36,2.17.55q.72.21,1.44.45t1.41.48l1.41.51.7.25.71.24c.93.34,1.88.65,2.82,1,.7.24,1.41.47,2.12.69l2.11.7.7.23.7.24c.93.32,1.87.62,2.8,1l1.39.49,1.37.51c.46.18.92.34,1.37.53l1.69.69,1.65.74c.56.24,1.09.52,1.63.78l.8.41.79.42,1.1.62,1.07.64.54.32.51.34,1,.67c.34.22.66.46,1,.69l.5.35.47.36.93.72.88.74c.34.28.63.57.95.86.15.14.3.27.46.43l.49.49c.32.32.65.64.95,1s.62.66.92,1l.88,1c.29.34.56.69.85,1l.31.39.3.4.6.8c.39.54.76,1.09,1.14,1.64l.71,1.11c.19.27.35.56.52.85l.51.85c.33.57.64,1.16,1,1.74l.6,1.19.31.59.29.61L327,128l.54,1.25.28.62.25.63.52,1.27c.18.42.33.86.5,1.29s.34.85.49,1.3l.46,1.31c.25.65.45,1.33.68,2l.34,1,.32,1c.46,1.43.85,2.9,1.24,4.38.21.93.44,1.86.65,2.79l.57,2.83c.48,2.69.93,5.4,1.27,8.15.1.76.22,1.52.3,2.29a.62.62,0,0,0,0,.48v.06l.06.32.07.39.07.38c.07.42.16.83.25,1.24s.18.83.29,1.23c.26.92.51,1.83.76,2.74s.47,1.84.66,2.77c.08.42.17.84.24,1.27s.14.85.2,1.28c.12.85.23,1.71.32,2.57.17,1.72.29,3.45.36,5.18v.06c0,1,0,2,.07,3l.13,2.27q.07,1.14.18,2.28l.13,1.51.13,1.52.12,1.52c.06.76.12,1.52.16,2.29,0,.51,0,1,.07,1.53,0,.77,0,1.53.06,2.3,0,2.06-.19,4.13-.24,6.19,0,1,0,2.07,0,3.1,0,1.55,0,3.1,0,4.66l.12,4.65.12,4.67c.07,2.59.06,5.19,0,7.78s-.23,5.24-.39,7.86-.38,5.24-.6,7.85q-.19,2.35-.42,4.71l-.44,4.7-.15,1.56-.42,4.66-.28,3.11-.25,3.11c-.13,1.55-.25,3.1-.36,4.66l-.21,3.11c-.1,1.56-.19,3.11-.27,4.67s-.19,3.29-.3,4.94c-.08,1-.15,2-.24,3.06l-.26,3,19.1,1.44,0-.42A70.59,70.59,0,0,0,354.63,283.46Z"/><path class="cls-5" d="M431.65,322c2.27-22.17-6.5-42.48-27.15-52.88-23.08-11.62-54.53.42-66.84,21.5-4.26-16.92-7.9-34.14-13.44-50.38-8.47-24.8-18-52.28-34.46-73-16.83-21.15-47.77-30.82-74.17-30.93-33.33-.14-61.37,14.67-84.07,37.14-12.88,12.74-23.59,34-30.72,50.62-3.11,7.28-6,15-8.39,22.56-2.87,9.23-2.48,18.43-2.61,28-5.45-18.65-14.7-34.1-35.29-36.83-24.25-3.21-41.28,9.25-50.12,31.3-10.42,26-.19,70.88,9,81.07,2.38,2.63,102.85.68,147.17,0,26.42-.38,261.16.61,265.38-6.62C428.67,339,431.76,326.79,431.65,322Z"/><path class="cls-4" d="M228.85,158.55c-5.81,1-7.71,10.4-6.81,15.24a33.19,33.19,0,0,0,3.57,8.88c.28.54,1.87,2.5,1.81,3.08-.08.87-3.26,2.64-4,3.1-6.07,3.84-12.7,3-18-1.77-.55-.5-2.27-1.77-2.29-2.5,0-.48,1.84-3,2.13-3.49a24.57,24.57,0,0,0,2.81-8.34c.76-5.33.24-15.62-7.94-13.37-6.44,1.77-6.92,10.8-5.8,16.11.52,2.47,2.85,5.17,3.1,7.48.17,1.47.2,1.33-1.86,2.28a11.18,11.18,0,0,1-5.51.89c-6-.27-11.42-2.89-13.58-8.76-1-2.86-1-6-2-8.87-.49-1.42-1.07-3-3-2.13s-.83,3.54-.54,5.07c1.37,7.07,3.47,13.3,10.25,16.81a21.61,21.61,0,0,0,8.66,1.88,17.13,17.13,0,0,0,4.52-.25c1.8-.39,3.29-1.91,5-2.27s1.25.08,2.71,1.53a25.45,25.45,0,0,0,4.33,3.4,16.76,16.76,0,0,0,10.21,2.62,19.57,19.57,0,0,0,7.67-2.38c1.45-.83,2.7-2.18,4.17-2.94.3-.16.86-1,1.18-1,.14,0,2.27,2.35,2.26,2.34,4.28,3.92,11,6.94,16.76,5,6.08-2.07,9.23-8.83,11.05-14.49.73-2.26,5.24-17,.85-17.36-3-.22-2.29,8.12-2.67,10.09A42.13,42.13,0,0,1,254,186.1c-3.93,7.23-10.3,8.69-17.19,4.23-1.12-.73-3-2-3.66-3.17-1-1.81-.08-1.94,1.11-3.95a29.22,29.22,0,0,0,3.65-9.19c1.22-6.24.13-17.05-9-15.47Zm2,3.69c8.34,2.14,2,16.42-.86,20.61-2.1-3.47-4.62-8.07-4.36-12.22.17-2.86,1.25-9,5.22-8.39Zm-28.28.83c3.45.94,1.8,8.24,1.44,10.63a34.19,34.19,0,0,1-3.24,7.36c-1.79-3.12-6.53-19.19,1.8-18Zm2.73,23.86Z"/><path class="cls-3" d="M137.12,270.19c-2.09,4.52,1.12,23.24,3.82,27.09,7.61,10.9,22.18,13.16,30.51.11,4.44-6.95,4-27.3,4-27.3s-11.24-.57-13.87-.54C153.65,269.63,137.12,270.19,137.12,270.19Z"/><path class="cls-3" d="M294.05,268.55a39.45,39.45,0,0,0-5.2-.35c-1.32.06-7,0-7.27,0-8-.4-25.39-.32-25.39-.32s-1,9.16,2.09,16.08c1.92,8.39,8.64,15.21,11.26,16.72a15.91,15.91,0,0,0,2.51,1.3c1.81,1.16,4.19,1.33,6.74,1C294.66,300.94,295.38,268.86,294.05,268.55Z"/><path class="cls-4" d="M232,268a37.68,37.68,0,0,0-4.87-.33c-.42,0-1.31,0-2.31,0,.34,4.15-.84,22-8.5,23.23a4.38,4.38,0,0,1-3.66-.7,7.54,7.54,0,0,1-1.37-.91c-1.42-1.06-5.08-5.83-6.13-11.69a30.4,30.4,0,0,1-1.19-10.25c-4.22,0-7.43,0-7.43,0s-1,8.57,2,15.06c1.8,7.85,8.09,14.24,10.54,15.66a13.77,13.77,0,0,0,2.36,1.21c1.69,1.1,3.92,1.25,6.3.95C232.54,298.36,233.22,268.31,232,268Z"/><path class="cls-5" d="M152,277.53a2,2,0,0,0-.09-.42c-.05-.12-.11-.24-.18-.37a3.12,3.12,0,0,0-.25-.35,3.29,3.29,0,0,0-.32-.29L151,276l-.17-.09a.9.9,0,0,0-.21-.08h0l-.17,0-.42-.07h-.11l-.05,0-.22,0-.37,0h-.08l-.36,0-.19,0-.21.06a1.33,1.33,0,0,0-.38.23.81.81,0,0,0-.16.16l-.05.05,0,0,0,0-.16.1-.13.11-.09.11-.11.16c0,.07-.07.14-.1.22l-.06.17h0a1.74,1.74,0,0,0-.08.42,1.12,1.12,0,0,0,0,.2v.2a3,3,0,0,0,0,.43c0,.06,0,.13.05.19s0,.08,0,.12l0,.09.05.1a.56.56,0,0,1,0,.08l0,0a1,1,0,0,0,.11.15l.22.24,0,.05.15.15,0,0,.14.12a2,2,0,0,0,.33.23l.21.12.18.08.19.06.23.06.39,0h.18l.26,0a1.84,1.84,0,0,0,.4-.06l.22-.07.18-.09a2.5,2.5,0,0,0,.34-.24h0l.15-.13.14-.15v0l.12-.14.11-.14v0a1.68,1.68,0,0,0,.19-.38,1.59,1.59,0,0,0,.07-.2c0-.06,0-.13,0-.21v0l0-.18V278C152,277.83,152,277.68,152,277.53Z"/><path class="cls-5" d="M167.31,281.36a1.54,1.54,0,0,0-.1-.41,1.79,1.79,0,0,0-.18-.37,2.22,2.22,0,0,0-.25-.35,2.26,2.26,0,0,0-.31-.29l-.15-.11-.18-.09a.84.84,0,0,0-.2-.08h0l-.17,0a3.32,3.32,0,0,0-.42-.07h-.11l-.05,0-.22,0a2.33,2.33,0,0,0-.37,0h-.08l-.36,0a.63.63,0,0,0-.19,0,.83.83,0,0,0-.21.06,1.14,1.14,0,0,0-.38.23,1.29,1.29,0,0,0-.17.16l0,.05,0,0,0,0-.16.1-.12.11-.1.11-.1.16c0,.07-.07.14-.1.22l-.06.17h0a2.38,2.38,0,0,0-.09.42c0,.06,0,.12,0,.2a1.08,1.08,0,0,0,0,.18v0a3,3,0,0,0,0,.43,1.33,1.33,0,0,0,.05.19s0,.08,0,.12a.36.36,0,0,0,0,.09l0,.1.05.08,0,0a.58.58,0,0,0,.11.15l.22.24.05.05a1.06,1.06,0,0,0,.15.15l0,0,.13.12.33.23.22.12.18.08.19.06.23.06.39,0H165l.26,0a1.94,1.94,0,0,0,.4-.06l.22-.07.18-.09a2.3,2.3,0,0,0,.34-.25h0a.93.93,0,0,0,.15-.13l.15-.15v0l.12-.14.1-.14,0,0a1.68,1.68,0,0,0,.19-.38,1.52,1.52,0,0,0,.06-.2,1.08,1.08,0,0,0,0-.21v0a1.1,1.1,0,0,0,0-.18,1.41,1.41,0,0,0,0-.2C167.32,281.67,167.32,281.52,167.31,281.36Z"/><path class="cls-5" d="M156.56,289.81a1.45,1.45,0,0,0-.1-.41,1.79,1.79,0,0,0-.18-.37,1.83,1.83,0,0,0-.25-.35,3.05,3.05,0,0,0-.31-.29l-.15-.11-.18-.09a.6.6,0,0,0-.21-.08h0l-.17,0a3.51,3.51,0,0,0-.42-.08h-.16l-.22,0a1.55,1.55,0,0,0-.37,0h-.44l-.19,0L153,288a1.17,1.17,0,0,0-.38.24,1.29,1.29,0,0,0-.17.16l0,.05h0l0,0-.16.11-.12.11-.1.11-.1.16a2,2,0,0,0-.1.21l-.06.17v0a2.47,2.47,0,0,0-.09.41c0,.06,0,.13,0,.2a1.2,1.2,0,0,0,0,.19h0a3,3,0,0,0,0,.44,1.8,1.8,0,0,0,.05.19s0,.08,0,.11a.3.3,0,0,0,0,.1l0,.09a.22.22,0,0,0,.05.08l0,0,.11.15.22.24.05.05.15.15,0,0,.13.12.33.23.22.12.18.08.19.06.23.05a2.3,2.3,0,0,0,.39,0h.44l.4-.06a1.52,1.52,0,0,0,.22-.08l.18-.09a1.72,1.72,0,0,0,.34-.24h0l.15-.13.14-.16h0l.12-.15a1.13,1.13,0,0,0,.1-.13l0,0a1.45,1.45,0,0,0,.19-.37c0-.07,0-.14.06-.2a1.29,1.29,0,0,0,0-.21v0a1.1,1.1,0,0,0,0-.18,1.41,1.41,0,0,0,0-.2C156.57,290.12,156.57,290,156.56,289.81Z"/><path class="cls-5" d="M269.05,276.76a1.3,1.3,0,0,0-.09-.42,2.41,2.41,0,0,0-.18-.36,2.31,2.31,0,0,0-.25-.36,2.22,2.22,0,0,0-.31-.28.66.66,0,0,0-.16-.11,1,1,0,0,0-.17-.1l-.21-.08h0l-.17-.05-.42-.07h-.15l-.22-.05-.38,0h-.08l-.35,0-.19,0a.83.83,0,0,0-.21.06,1.38,1.38,0,0,0-.39.23l-.16.16,0,.06h0l0,0-.16.11-.12.1a.52.52,0,0,0-.1.11l-.1.16a1.51,1.51,0,0,0-.11.22c0,.05,0,.11-.05.17v0a2.29,2.29,0,0,0-.08.41c0,.06,0,.12,0,.2v.2a2.82,2.82,0,0,0,.05.43,1.46,1.46,0,0,0,.05.2.49.49,0,0,0,0,.11.42.42,0,0,0,0,.1l0,.09a.35.35,0,0,1,.05.08l0,0,.12.14c.07.09.15.17.22.25l0,0,.15.15,0,0a.69.69,0,0,0,.13.11,1.82,1.82,0,0,0,.33.23l.21.12.19.08.18.06.24.06a2.13,2.13,0,0,0,.39,0h.44a1.89,1.89,0,0,0,.39-.07.94.94,0,0,0,.22-.07l.18-.09a3.53,3.53,0,0,0,.35-.24h0l.15-.14.14-.15h0l.13-.15.1-.14,0,0a1.61,1.61,0,0,0,.18-.38,1.18,1.18,0,0,0,.07-.2c0-.06,0-.13.05-.21v0a1,1,0,0,0,0-.17,1.62,1.62,0,0,0,0-.21A3.24,3.24,0,0,0,269.05,276.76Z"/><path class="cls-5" d="M287.48,279.06a1.18,1.18,0,0,0-.09-.41c-.05-.12-.11-.24-.18-.37a2.41,2.41,0,0,0-.25-.35,3.05,3.05,0,0,0-.31-.29l-.16-.11a1.4,1.4,0,0,0-.17-.09,1,1,0,0,0-.21-.09h0l-.17-.05-.42-.07h-.15l-.22,0a1.64,1.64,0,0,0-.38,0h-.43l-.19,0-.21.06a1.11,1.11,0,0,0-.39.24l-.16.16a.1.1,0,0,0,0,.05h0l0,0-.16.11-.12.1a.58.58,0,0,0-.1.12.74.74,0,0,0-.1.16,2.12,2.12,0,0,0-.11.21,1.54,1.54,0,0,0-.05.17v0a2.29,2.29,0,0,0-.08.41c0,.06,0,.12,0,.2v.2a3,3,0,0,0,.05.44,1.8,1.8,0,0,0,.05.19.36.36,0,0,0,0,.11.3.3,0,0,0,0,.1l0,.09.05.08,0,0,.12.15.22.24,0,.05.15.15,0,0,.13.12a2.51,2.51,0,0,0,.33.23l.21.12.19.07.18.07.24.05a2.06,2.06,0,0,0,.39,0h.44a2.85,2.85,0,0,0,.39-.06,1,1,0,0,0,.22-.08.76.76,0,0,0,.18-.09,1.8,1.8,0,0,0,.35-.24h0l.15-.13.14-.16h0l.13-.15.1-.14,0,0a1.79,1.79,0,0,0,.18-.37c0-.07,0-.14.07-.2a1.3,1.3,0,0,0,0-.21v0a1.1,1.1,0,0,0,0-.18,1.48,1.48,0,0,0,0-.2A3.39,3.39,0,0,0,287.48,279.06Z"/><path class="cls-5" d="M276.73,286.74a1.63,1.63,0,0,0-.09-.42l-.18-.36a2.41,2.41,0,0,0-.25-.35,1.76,1.76,0,0,0-.31-.29l-.16-.11-.17-.1-.21-.08h0l-.17,0a3.32,3.32,0,0,0-.42-.07h-.15l-.22-.05a2.43,2.43,0,0,0-.38,0h-.43l-.19,0a1.05,1.05,0,0,0-.21.06,1.11,1.11,0,0,0-.39.24l-.16.15,0,.06h0l0,0-.16.11-.13.1-.09.12a.74.74,0,0,0-.1.16,1.39,1.39,0,0,0-.11.21,1.09,1.09,0,0,0-.05.17v0a2.29,2.29,0,0,0-.08.41c0,.06,0,.12,0,.2v.2a3,3,0,0,0,.05.44,1.8,1.8,0,0,0,.05.19l0,.11a.69.69,0,0,1,0,.1.41.41,0,0,1,.05.09l.05.08,0,0,.12.15.22.24,0,.05a2.11,2.11,0,0,1,.15.15l0,0,.13.12.33.23.21.12.19.07.18.07.24,0,.39.05h.44a2.85,2.85,0,0,0,.39-.06,1,1,0,0,0,.22-.08l.18-.09a2.38,2.38,0,0,0,.35-.24h0l.15-.14a1,1,0,0,0,.14-.15h0l.13-.15.1-.14,0,0a1.79,1.79,0,0,0,.18-.37c0-.07,0-.14.07-.2a1.55,1.55,0,0,0,0-.21v0a1.1,1.1,0,0,0,0-.18c0-.08,0-.14,0-.21A3.32,3.32,0,0,0,276.73,286.74Z"/><path class="cls-5" d="M276.73,286.74a1.63,1.63,0,0,0-.09-.42l-.18-.36a2.41,2.41,0,0,0-.25-.35,1.76,1.76,0,0,0-.31-.29l-.16-.11-.17-.1-.21-.08h0l-.17,0a3.32,3.32,0,0,0-.42-.07h-.15l-.22-.05a2.43,2.43,0,0,0-.38,0h-.43l-.19,0a1.05,1.05,0,0,0-.21.06,1.11,1.11,0,0,0-.39.24l-.16.15,0,.06h0l0,0-.16.11-.13.1-.09.12a.74.74,0,0,0-.1.16,1.39,1.39,0,0,0-.11.21,1.09,1.09,0,0,0-.05.17v0a2.29,2.29,0,0,0-.08.41c0,.06,0,.12,0,.2v.2a3,3,0,0,0,.05.44,1.8,1.8,0,0,0,.05.19l0,.11a.69.69,0,0,1,0,.1.41.41,0,0,1,.05.09l.05.08,0,0,.12.15.22.24,0,.05a2.11,2.11,0,0,1,.15.15l0,0,.13.12.33.23.21.12.19.07.18.07.24,0,.39.05h.44a2.85,2.85,0,0,0,.39-.06,1,1,0,0,0,.22-.08l.18-.09a2.38,2.38,0,0,0,.35-.24h0l.15-.14a1,1,0,0,0,.14-.15h0l.13-.15.1-.14,0,0a1.79,1.79,0,0,0,.18-.37c0-.07,0-.14.07-.2a1.55,1.55,0,0,0,0-.21v0a1.1,1.1,0,0,0,0-.18c0-.08,0-.14,0-.21A3.32,3.32,0,0,0,276.73,286.74Z"/><path class="cls-6" d="M147.93,236.79a8.35,8.35,0,0,0-1.38.11,15.46,15.46,0,0,0-3.66.92,6.77,6.77,0,0,0-.78.42c-.24.15-.53.32-.8.52a10.89,10.89,0,0,0-1.31,1.17c-.17.17-.35.36-.55.6l-.07.07c-.12.15-.25.29-.36.45a8.79,8.79,0,0,0-.69,1.17l-.15.19-.05.06a4.25,4.25,0,0,0-.56.95,4.7,4.7,0,0,0-.32,1.32,8,8,0,0,0,0,2.38l0,.17c0,.25.08.51.13.77s.17.68.25,1a10,10,0,0,0,.39,1,7.33,7.33,0,0,0,.51.91l.13.2a9.23,9.23,0,0,0,.6.89,4.34,4.34,0,0,0,.43.52l.27.25.06.06.09.08c.12.1.24.22.37.32l0,0,.37.28.21.16.55.41a17.52,17.52,0,0,0,1.53,1c.27.16.55.3.86.45l.42.18.37.13.08,0c.29.09.58.16.87.22h0l.08,0a8.08,8.08,0,0,0,1,.19l.24,0,.26,0,.38,0h.43l.68,0h.17a6.55,6.55,0,0,0,.92-.13,6,6,0,0,0,1-.32,6.12,6.12,0,0,0,.81-.38l.93-.51.79-.47.05,0c.31-.19.62-.38.92-.59a6.74,6.74,0,0,0,.71-.58,6.94,6.94,0,0,0,.72-.81,9.54,9.54,0,0,0,.95-1.54,4.22,4.22,0,0,0,.36-.87,4.55,4.55,0,0,0,.13-.49l0-.11c0-.14.07-.29.09-.43l0-.09.08-.54c.09-.53.16-1.11.24-1.87v0a8.63,8.63,0,0,0,0-2.27c0-.24-.11-.48-.17-.71a1.6,1.6,0,0,0-.05-.21c-.08-.31-.17-.62-.24-.85a6.34,6.34,0,0,0-.4-1,8.73,8.73,0,0,0-.54-.88c-.14-.2-.31-.42-.53-.69a8.12,8.12,0,0,0-.73-.71,6.84,6.84,0,0,0-1.39-1,14.37,14.37,0,0,0-1.73-.76c-.58-.22-1.17-.38-1.72-.53a6.83,6.83,0,0,0-1-.19c-.3,0-.61-.06-.94-.09Z"/><path class="cls-6" d="M283.34,235.7A6.42,6.42,0,0,0,283,234a10.9,10.9,0,0,0-.74-1.5,8.88,8.88,0,0,0-1-1.46,10.39,10.39,0,0,0-1.29-1.19,5,5,0,0,0-.64-.46c-.23-.14-.48-.26-.72-.38a4.31,4.31,0,0,0-.85-.34l-.07,0-.72-.19a13.87,13.87,0,0,0-1.72-.29l-.46-.05-.2,0a9,9,0,0,0-.9-.18,10.06,10.06,0,0,0-1.55-.16h-.34c-.48,0-1,0-1.45.07a6.83,6.83,0,0,0-.79.11,8,8,0,0,0-.87.25,5.22,5.22,0,0,0-1.59,1,4.58,4.58,0,0,0-.67.65l-.18.22-.1.06-.13.09a5.87,5.87,0,0,0-.67.43,4.11,4.11,0,0,0-.51.44,4.68,4.68,0,0,0-.39.46,5.64,5.64,0,0,0-.43.67,8,8,0,0,0-.43.88c-.09.23-.16.47-.23.7l0,.08a8.92,8.92,0,0,0-.34,1.71c0,.24-.05.5-.07.82a6.26,6.26,0,0,0,0,.75v.07A12.32,12.32,0,0,0,263,239c.05.26.12.52.2.8s.11.32.17.47a3.52,3.52,0,0,0,.16.39c.07.14.13.27.2.39s.14.22.21.33a1,1,0,0,1,.08.11,4.11,4.11,0,0,0,.47.61c.3.34.61.68.91,1l.19.2a7.25,7.25,0,0,0,.61.62l.1.09.55.49a10.4,10.4,0,0,0,1.36,1c.28.17.58.34.89.49a13.39,13.39,0,0,0,1.53.59c.34.09.68.16,1,.22a10.47,10.47,0,0,0,1.61.19l.74,0c.37,0,.73,0,1.07,0a9.63,9.63,0,0,0,1.64-.26,6.43,6.43,0,0,0,.91-.3c.24-.11.5-.24.74-.38a10.25,10.25,0,0,0,1.43-1h0a7.88,7.88,0,0,0,.62-.55l.58-.64,0-.05c.17-.19.35-.39.51-.6s.29-.38.43-.58l.07-.09a6.9,6.9,0,0,0,.77-1.54c.11-.29.2-.56.28-.83a8.28,8.28,0,0,0,.18-.87v-.08c0-.25.08-.5.1-.74s0-.58,0-.84C283.41,237,283.4,236.34,283.34,235.7Z"/><path class="cls-5" d="M281.32,234.19a2.87,2.87,0,0,0-.18-.79,5.66,5.66,0,0,0-.34-.71,4.81,4.81,0,0,0-.49-.67,4.2,4.2,0,0,0-.6-.56,3.39,3.39,0,0,0-.29-.21l-.34-.18a1.49,1.49,0,0,0-.4-.15h0l-.33-.09a6.21,6.21,0,0,0-.8-.14l-.21,0-.1,0c-.13,0-.28-.06-.42-.09a5.66,5.66,0,0,0-.72-.07h-.15c-.23,0-.46,0-.68,0l-.37.05a2.64,2.64,0,0,0-.4.12,2.53,2.53,0,0,0-.74.45,3,3,0,0,0-.31.31.39.39,0,0,0-.08.1l0,0-.06,0a2.36,2.36,0,0,0-.31.2,2.31,2.31,0,0,0-.24.2,2.13,2.13,0,0,0-.18.22,1.67,1.67,0,0,0-.2.31,2.6,2.6,0,0,0-.2.41c0,.11-.08.22-.11.32v0a5.51,5.51,0,0,0-.16.79c0,.12,0,.24,0,.38s0,.24,0,.36v0a6.88,6.88,0,0,0,.08.83c0,.13.06.24.1.38s0,.15.07.21,0,.13.08.19l.09.18.1.15,0,.05a3.15,3.15,0,0,0,.22.29l.42.46.09.09.28.29.05,0,.26.23a5,5,0,0,0,.63.45l.41.22.35.15.36.12c.16.05.32.08.45.11a5.39,5.39,0,0,0,.75.08H277a4,4,0,0,0,.5,0,4.24,4.24,0,0,0,.77-.12,3,3,0,0,0,.42-.14,2.79,2.79,0,0,0,.34-.18,4.37,4.37,0,0,0,.67-.46h0l.29-.26c.09-.09.17-.19.27-.3l0,0a3.22,3.22,0,0,0,.24-.28l.2-.27,0,0a3.22,3.22,0,0,0,.36-.72c.05-.13.09-.26.13-.38s.06-.26.09-.41v0a2,2,0,0,0,0-.34c0-.14,0-.27,0-.39A8.34,8.34,0,0,0,281.32,234.19Z"/><path class="cls-5" d="M156.62,243a3,3,0,0,0-.18-.8,4.93,4.93,0,0,0-.34-.7,4.34,4.34,0,0,0-.48-.68,4.16,4.16,0,0,0-.6-.55,2.09,2.09,0,0,0-.3-.21l-.33-.18a2.56,2.56,0,0,0-.4-.16h0l-.34-.09c-.23-.05-.47-.09-.8-.13l-.21,0-.09,0-.42-.08a3.51,3.51,0,0,0-.72-.07h-.16c-.22,0-.45,0-.68,0a2.23,2.23,0,0,0-.36.05,2.77,2.77,0,0,0-.41.12,2.26,2.26,0,0,0-.74.45,2.2,2.2,0,0,0-.31.3l-.08.1,0,0-.06,0-.31.2a2.25,2.25,0,0,0-.24.21,2,2,0,0,0-.18.21l-.2.31c-.07.13-.14.27-.2.41s-.07.22-.1.33v0a3.65,3.65,0,0,0-.16.8,2.09,2.09,0,0,0,0,.38c0,.12,0,.23,0,.35v0a4.44,4.44,0,0,0,.08.84,2.83,2.83,0,0,0,.09.37,3.1,3.1,0,0,0,.16.4l.09.18a.78.78,0,0,0,.1.15l0,.06a2.09,2.09,0,0,0,.22.28c.14.16.28.32.43.47l.08.09.29.29.05,0,.25.22a5.51,5.51,0,0,0,.63.45l.42.23.35.15.36.12a6.13,6.13,0,0,0,1.2.19h.34l.5,0a7,7,0,0,0,.76-.12,2.67,2.67,0,0,0,.42-.15,2.81,2.81,0,0,0,.35-.17,4.29,4.29,0,0,0,.66-.47h0a3.32,3.32,0,0,0,.28-.26l.28-.29,0,0,.24-.27.19-.27,0,0a3.39,3.39,0,0,0,.36-.71,3.43,3.43,0,0,0,.12-.39,2.35,2.35,0,0,0,.09-.4v0c0-.11,0-.23,0-.35s0-.27,0-.39A8.15,8.15,0,0,0,156.62,243Z"/></g></g></svg>