<svg xmlns="http://www.w3.org/2000/svg" viewBox="0 0 941.75 432"><defs><style>.cls-1{fill:#d89279;}.cls-2{fill:#fdc7bc;}.cls-3{fill:#e8ac3d;}.cls-4{fill:#c1d6e1;}</style></defs><title>Asset 10</title><g id="Layer_2" data-name="Layer 2"><g id="Layer_1-2" data-name="Layer 1"><path class="cls-1" d="M445.64.83c-2.42-.2-4.84-.34-7.26-.46L434.75.19,432.94.11l-.91,0h-.92q-7.38-.1-14.77,0l-1.84,0c-.62,0-1.24.05-1.85.08L409,.33c-2.46.14-4.93.29-7.39.45-4.94.25-9.86.89-14.78,1.46a319.68,319.68,0,0,0-58.66,12.89l-7.25,2.38-3.62,1.18L313.66,20q-3.6,1.25-7.23,2.39c-1.21.38-2.43.76-3.65,1.12s-2.42.78-3.64,1.15c-2.47.75-5,1.48-7.44,2.21L288,27.91l-3.69,1.21c-2.47.82-4.93,1.65-7.38,2.51-1.22.43-2.45.85-3.66,1.33s-2.41,1-3.6,1.5a115.43,115.43,0,0,0-13.47,6.78L249.64,45,248,46l-1.61,1-3.23,1.94L237,52.46l-1.55.89-1.52.93-3,1.89q-3,1.89-6,3.82c-.5.33-1,.64-1.49,1l-1.46,1c-1,.7-1.93,1.4-2.88,2.11q-2.57,1.91-5,3.93a1.69,1.69,0,0,0-.4.49c-.85.52-1.67,1.08-2.49,1.65l-2.45,1.7q-2.43,1.71-4.85,3.47l-2.41,1.76L199.06,79l-4.69,3.69L192,84.49c-.39.31-.79.61-1.17.92l-1.15,1c-1.54,1.26-3.07,2.52-4.62,3.75s-3.12,2.45-4.69,3.67-3.09,2.46-4.67,3.66a1.86,1.86,0,0,0-.33.19l-2,1.53-.65.47-.2.18c-.91.72-1.83,1.42-2.71,2.17l-2.62,2.27q-2.61,2.27-5.19,4.58L160.76,110c-.43.39-.84.79-1.26,1.19l-2.5,2.39-5,4.76-.6.56-.58.57-1.15,1.15-2.34,2.27c-1.56,1.51-3.13,3-4.73,4.48-3.13,3-6.32,6-9.67,8.77q-2.79,2.48-5.54,5c-1.84,1.68-3.69,3.36-5.44,5.13s-3.53,3.51-5.28,5.28l-1.3,1.34c-.44.44-.85.9-1.28,1.36L111.55,157l-3.14,3.46-1.56,1.74-1.5,1.78c-2,2.37-4,4.76-6,7.17-2.3,2.93-4.56,5.89-6.82,8.86-.57.74-1.11,1.51-1.66,2.27l-1.63,2.29L86,189.14l-.81,1.15-.78,1.17L82.9,193.8l-3.07,4.71A354,354,0,0,0,61.53,231c-1.1,2.26-2.2,4.51-3.29,6.77-.85,1.68-1.62,3.38-2.44,5.07s-1.63,3.37-2.47,5.05c-1.66,3.36-3.33,6.71-5.16,10s-3.64,6.69-5.46,10L40,273c-.88,1.69-1.76,3.38-2.58,5.09-1.1,2.29-2.18,4.59-3.21,6.91-3.64,8.46-6,17.38-8.64,26.15l-.54,1.75c-.68,2.22-1.38,4.43-2.08,6.64s-1.36,4.44-2,6.66c-.33,1.11-.67,2.22-1,3.33l-.91,3.36c-.59,2.24-1.17,4.49-1.65,6.76-.43,2-.84,4-1.16,6.1a1.61,1.61,0,0,0,0,.62c-2.22,7.43-3.89,15-5.51,22.63s-3.15,15.21-5.09,22.77a1.28,1.28,0,0,0-.14.34L5,394.52l-.21.77a1.17,1.17,0,0,0,0,.26c-1,4.45-1.89,8.94-2.65,13.49l-.55,3.43L1,415.94l-.49,3.55-.25,1.83L0,423.42l54.86,6.5,0-.05,0-.06v-.08l.07-.33.16-.72.33-1.53.36-1.58.36-1.6c.26-1.07.51-2.14.78-3.23s.53-2.17.81-3.26l.2-.77a1.19,1.19,0,0,0,.18-.43,26.14,26.14,0,0,1,.73-2.83c.29-.93.62-1.85,1-2.78l1-2.76c.35-.93.68-1.86,1-2.79.64-2.1,1.34-4.19,2-6.29l2-6.29c1.37-4.2,2.71-8.4,4-12.61l2-6.33,1.91-6.34a1.06,1.06,0,0,0,0-.35,1.33,1.33,0,0,0,.23-.46q1.13-4.92,2.09-9.91l1-5c.32-1.67.63-3.34,1-5,1.75-8.56,3.88-17.06,7.47-25,.76-1.66,1.51-3.34,2.29-5l2.38-4.94,1.2-2.47,1.23-2.45,2.47-4.89L97.77,297,99,294.54l.63-1.21.65-1.2,2.6-4.8c.43-.8.85-1.61,1.28-2.4l1.32-2.38,1.75-3.19,1.29-2.39,1.33-2.37q1.32-2.37,2.6-4.76c.5-.93,1-1.84,1.52-2.76l1.52-2.76,1.49-2.78.74-1.39.76-1.38q1.52-2.76,3-5.54l.73-1.4.76-1.37,1.5-2.77q1.29-2.37,2.55-4.76l2.61-4.72c2.26-4.24,4.67-8.37,7-12.58.59-1,1.21-2.07,1.81-3.11l1.82-3.11,1.57-2.72q2.43-4,4.87-8.07c.79-1.36,1.66-2.67,2.5-4l2.55-4c.58-.87,1.13-1.77,1.73-2.63l1.8-2.58c.9-1.28,1.81-2.57,2.72-3.84.47-.64.92-1.28,1.39-1.91l1.45-1.86q1.94-2.46,3.94-4.89l1-1.2c.34-.4.69-.78,1-1.17.7-.78,1.41-1.55,2.12-2.31,1.21-1.31,2.43-2.6,3.66-3.89.61-.65,1.25-1.27,1.88-1.88l1.92-1.86,3.85-3.68,1-.92,1-.88,2-1.76,4-3.5c.62-.53,1.22-1.07,1.86-1.58l6.35-5.14c.69-.55,1.36-1.12,2.07-1.66l2.11-1.6.63-.47a1.3,1.3,0,0,0,.41-.23,39.58,39.58,0,0,1,4.74-3.34c.82-.52,1.67-1,2.51-1.48s1.67-1,2.47-1.53l5.36-3.62c1.81-1.16,3.63-2.31,5.42-3.48l2.7-1.77,1.34-.89c.45-.29.91-.57,1.37-.85q2.73-1.71,5.42-3.46l2.68-1.77c.9-.58,1.82-1.13,2.72-1.71,1.8-1.14,3.6-2.3,5.38-3.49a1.1,1.1,0,0,0,.25-.23,1.3,1.3,0,0,0,.45-.2c1.29-1,2.62-1.94,3.92-2.93s2.6-2,3.88-3c2.55-2.08,5.19-4,7.82-6l2.55-1.9,1.28-1,.64-.47.66-.45c1.75-1.18,3.53-2.34,5.32-3.46.9-.57,1.81-1.12,2.72-1.66l1.37-.8c.46-.26.94-.49,1.41-.73,1.89-1,3.81-1.86,5.76-2.68l2.47-1,1.23-.51.61-.26.63-.23,5-1.85,3.76-1.39c1.25-.46,2.49-.94,3.77-1.33l7.62-2.5,1.9-.62c.63-.21,1.26-.43,1.9-.61l3.84-1.13q3.84-1.14,7.66-2.32c2.28-.64,4.57-1.25,6.85-1.9l3.41-1,1.71-.5c.56-.17,1.13-.35,1.71-.49,2.28-.59,4.56-1.22,6.84-1.86l3.4-1,1.7-.51c.57-.17,1.15-.3,1.72-.46,2.29-.61,4.57-1.23,6.85-1.88l3.43-1,1.71-.5,1.72-.45q3.47-.89,6.91-1.83l3.45-.95,1.73-.47,1.74-.42,7-1.73,3.49-.88,1.75-.44,1.76-.38c4.09-.89,8.18-1.84,12.29-2.78.51-.12,1-.23,1.54-.32l1.56-.3,3.1-.6,6.23-1.16,3.13-.55c1-.17,2.09-.3,3.14-.44q3.15-.42,6.3-.78c2.11-.23,4.22-.45,6.32-.63s4.29-.24,6.43-.32c3.66-.14,7.31-.13,11-.11l2.73,0,2.74.08,5.47.19c1.33,0,2.66.12,4,.2l4,.24.06-55.24c-2.12,0-4.24,0-6.36,0s-4.23,0-6.35,0l-3.17-.09L452,1.21C449.88,1.13,447.76,1,445.64.83Z"/><path class="cls-1" d="M939.11,394.61a292.74,292.74,0,0,0-9.85-58.21,351,351,0,0,0-20.39-55.84c-2.11-4.56-4.29-9.07-6.43-13.6s-4.22-9.09-6.18-13.72l-3-7.07c-1-2.35-2-4.72-3-7-2-4.7-4.24-9.34-6.66-13.86-4.72-8.75-10.86-16.62-16.57-24.74-5.42-7.71-10.79-15.48-17-22.62-1.36-1.61-2.82-3.14-4.29-4.66a1.64,1.64,0,0,0-.52-.35c-4.75-6.31-10-12.25-15.35-18.08s-10.78-11.57-16-17.55a1.06,1.06,0,0,0-.21-.31l-1.66-1.88-.52-.61a1.7,1.7,0,0,0-.19-.19c-6.22-6.83-13-13.11-19.87-19.32-6.46-5.85-13-11.63-19.16-17.85-.87-.89-1.77-1.76-2.67-2.63L767,91.86c-1.82-1.72-3.69-3.39-5.55-5.07s-3.8-3.27-5.72-4.89-3.9-3.17-5.87-4.73l-3.75-2.85-1.88-1.42-1.91-1.38-3.84-2.74c-1.29-.89-2.6-1.77-3.9-2.65l-2.35-1.57L729.8,63c-1.6-1-3.18-2-4.8-3-6.48-4-13.14-7.64-19.91-11.1A310.54,310.54,0,0,0,670.3,34c-2.4-.85-4.81-1.67-7.21-2.51-1.8-.64-3.61-1.21-5.41-1.84l-5.39-1.85c-1.8-.62-3.59-1.25-5.37-1.91s-3.58-1.29-5.35-2l-2.7-1.06-2.71-1-5.41-2.07-5.45-2c-.91-.32-1.81-.66-2.73-1l-2.75-.91c-2.45-.78-4.9-1.57-7.39-2.22-9-2.48-18.3-3.43-27.46-4.75l-1.83-.27-3.48-.53-3.47-.51-3.48-.51L571,6.85l-1.74-.22c-2.32-.29-4.64-.57-7-.82s-4.65-.4-7-.53c-1-.06-2.08-.12-3.12-.14s-2.09,0-3.13,0a1.59,1.59,0,0,0-.61.13c-1.93-.24-3.87-.48-5.81-.65s-3.88-.32-5.82-.46l-2.92-.21L531,3.8l-5.83-.28c-1.95-.1-3.89-.14-5.83-.23L513.5,3c-1.93-.08-3.87-.18-5.8-.31l-2.89-.22-2.9-.22a1.35,1.35,0,0,0-.36-.08L499.12,2l-.79-.08a1.13,1.13,0,0,0-.26,0c-1.13-.08-2.25-.15-3.38-.21l-3.38-.12c-2.25-.07-4.51-.12-6.76-.16H474.42l-3.37,0L471,56.69l3.46.23,3.45.27,3.45.28c1.15.09,2.3.18,3.44.3l.81.08a1.21,1.21,0,0,0,.47.12,41.2,41.2,0,0,1,5.92.78c2,.38,3.91.84,5.88,1.12l3.3.45,3.29.5,6.56,1q3.29.51,6.57,1l1.64.22,1.63.25,3.28.48,3.27.43,3.27.46L534,65c1.09.14,2.18.26,3.27.41a1.36,1.36,0,0,0,.35,0,1.34,1.34,0,0,0,.49.15c1.67.11,3.34.2,5,.26l1.26,0,1.26.06,2.51.1,5,.14,5,.2c8.64.38,17.3,1.11,25.59,3.46,1.74.49,3.47,1,5.2,1.54l2.6.77,2.57.83c6.89,2.17,13.66,4.62,20.37,7.11l5,1.89,5,2,1.67.64,1.66.66q2.48,1,5,2t4.94,2c7.68,3.09,15.34,6.12,23,9.23l2.45,1c.83.33,1.65.66,2.46,1l4.9,2,6.52,2.78c2.15,1,4.33,1.9,6.48,2.88l3.23,1.47c1.08.49,2.16,1,3.22,1.5l2.8,1.32c5.59,2.67,11.19,5.39,16.64,8.38,1.84,1,3.63,2,5.43,3l2,1.18,2,1.22c1.32.83,2.65,1.64,3.94,2.5,1.72,1.16,3.45,2.32,5.12,3.54.84.61,1.67,1.23,2.5,1.86s1.66,1.25,2.46,1.91a199.51,199.51,0,0,1,15.8,14.12c1.27,1.22,2.5,2.5,3.74,3.76l1.69,1.74,2.8,3,1.39,1.48,1.36,1.52c1.18,1.31,2.38,2.6,3.53,3.94l.52.59a1,1,0,0,0,.25.4,28,28,0,0,1,1.91,2.17c.59.77,1.16,1.56,1.72,2.36l1.66,2.39c.55.81,1.11,1.6,1.7,2.36s1.34,1.7,2,2.56l2,2.58c1.33,1.71,2.59,3.46,3.9,5.17l7.74,10.38,3.87,5.18,3.9,5.16a1.13,1.13,0,0,0,.25.24,1.1,1.1,0,0,0,.23.44c4.28,5,8.86,9.81,13.27,14.81,5.65,6.43,11.08,13.16,15.06,20.78q2.52,4.8,4.87,9.68c2.37,4.88,4.61,9.81,6.78,14.78s4.3,9.94,6.37,14.95l5.51,13.34c1.81,4.44,3.67,8.87,5.54,13.3l5.6,13.3c3.74,8.88,7.42,17.82,10.92,26.87,3,7.87,6.07,15.8,8.71,23.86a175.44,175.44,0,0,1,6.33,24.54c.61,3.53,1.14,7.07,1.56,10.6s.78,7.05,1,10.51c.09,1.27.17,2.51.23,3.74l.07,1.8,0,.43c0,.13,0,.3,0,.39v.63l55.06-4.47-.19-2.05-.19-1.75-.38-3.38-.73-6.6C939.79,403.27,939.38,399,939.11,394.61Z"/><path class="cls-2" d="M849.9,390.1c-.32-1.26-.66-2.52-1-3.77s-.67-2.51-1-3.76c-.57-1.95-1.11-3.92-1.69-5.87-2.28-7.81-4.6-15.58-7.06-23.32s-5-15.42-7.72-23.07c-3.39-9.56-7-19-11-28.39l-.58-1.41-.61-1.39L818,296.33c-.82-1.86-1.62-3.73-2.49-5.57q-7.68-16.81-16.7-33.09l-3.8-6.75-4-6.68c-.33-.56-.65-1.12-1-1.67l-1-1.65-2.06-3.3-2.05-3.3-2.13-3.26-2.14-3.26-1.06-1.63c-.35-.54-.73-1.07-1.1-1.61l-4.43-6.42c-.36-.54-.74-1.07-1.13-1.6L771.8,215l-2.3-3.16c-.77-1.05-1.52-2.12-2.31-3.16l-2.38-3.11c-1.9-2.48-3.76-5-5.76-7.4l-2.93-3.67-1.47-1.83c-.49-.61-1-1.2-1.51-1.8l-4-4.8c-.68-.8-1.33-1.62-2-2.4L745,181.27l-4.15-4.73c-.68-.8-1.41-1.55-2.12-2.33l-2.13-2.32-4.28-4.65-4.41-4.55-2.2-2.28-1.11-1.14-1.14-1.1-4.59-4.42c-1-.91-1.9-1.84-2.89-2.73l-3-2.65-3-2.64-1.51-1.31c-.5-.44-1-.88-1.52-1.29q-3.09-2.52-6.23-5l-1.58-1.24c-.52-.41-1-.82-1.59-1.2l-3.25-2.34q-1.83-1.31-3.69-2.59l-1.86-1.27c-.62-.43-1.27-.81-1.9-1.22q-3.82-2.4-7.7-4.72l-1.29-.77-1.31-.73-5.27-2.88c-4.37-2.46-8.9-4.59-13.36-6.83-.9-.44-1.78-.9-2.69-1.33l-2.72-1.25L647,107.2l-2.78-1.29c-.93-.42-1.87-.8-2.81-1.2l-5.63-2.39c-1.88-.78-3.74-1.63-5.65-2.33l-5.7-2.19-2.85-1.09-1.42-.55-.71-.28-.72-.25-11.51-4c-.45-.17-.91-.31-1.37-.45l-1.38-.43-2.75-.85-5.51-1.71a3.94,3.94,0,0,0-.7-.14L594,87.63l-.73-.21-.73-.18-2.93-.74q-2.94-.72-5.88-1.39l-2.94-.66c-.49-.1-1-.22-1.47-.31l-1.49-.27c-2-.35-4-.68-5.92-1s-4-.62-6-.91c-.49-.07-1-.13-1.49-.18L563,81.6c-2.49-.27-5-.55-7.44-.87s-4.93-.7-7.4-1q-1.33-.19-2.67-.42t-2.67-.48c-1.33-.26-2.65-.53-4-.81l-2-.42-1-.21-1-.18c-2.65-.49-5.31-1-8-1.34-2.23-.32-4.47-.61-6.72-.83s-4.48-.33-6.73-.48a3.34,3.34,0,0,0-1.48-.43l-3.87-.3-1.93-.16c-.65-.06-1.29-.12-1.93-.15-2.58-.16-5.15-.33-7.72-.53l-5.14-.41c-2.58-.24-5.14-.35-7.71-.51L476,71.59l-2.57-.15-1.28-.08-1.28,0-1,0-1.59,0c-2.57,0-5.13,0-7.7,0-1.28,0-2.56,0-3.85.08-.64,0-1.28,0-1.92.06l-1.91.13c-5.1.35-10.19.81-15.27,1.33-2.58.33-5.16.69-7.74,1l-6.06.83-9.1,1.43-4.54.69L409,77l-1.14.2-2.27.41-6.06,1.06c-2,.35-4,.66-6.05,1.09l-9.06,1.79-2.27.45-2.26.51-4.52,1-3.76.85c-1.26.28-2.51.55-3.76.88l-7.48,1.93-3.75,1-3.71,1.09-7.43,2.17c-1,.28-2,.62-2.95.94l-2.94,1-5.88,2c-1,.31-2,.69-3,1l-2.95,1.09L322,99.64c-1,.35-1.95.77-2.92,1.16L316.12,102l-5.81,2.37c-1.93.83-3.84,1.71-5.75,2.56l-5.74,2.57-5.66,2.76-2.83,1.38c-.95.46-1.9.9-2.82,1.4a369.58,369.58,0,0,0-43.2,26l-3.88,2.69-3.8,2.8c-2.53,1.87-5.1,3.69-7.56,5.65l-5,3.85-1.24,1-1.22,1-2.44,2c-1.62,1.33-3.27,2.63-4.88,4l-4.8,4.07-2.42,2c-.8.67-1.57,1.39-2.36,2.08L200,176.26l-1.18,1.05-1.16,1.07-2.3,2.16c-1.53,1.44-3.09,2.87-4.6,4.34q-3.36,3.33-6.69,6.7c-2.17,2.29-4.31,4.61-6.45,6.94-.72.77-1.39,1.58-2.08,2.37l-2.05,2.4-2,2.41c-.34.41-.68.81-1,1.22l-1,1.23-1.82,2.34-2.25,2.94c-.37.5-.75,1-1.11,1.49l-1.07,1.5c-1.42,2-2.83,4-4.23,6.08-.54.81-1.07,1.64-1.61,2.47l-3.2,5c-.67,1-1.29,2.09-1.93,3.14l-1.91,3.15c-.63,1.05-1.28,2.09-1.9,3.15l-1.84,3.18-3,5.08-2.94,5.23c-.49.88-1,1.75-1.47,2.62l-1.42,2.64L135,263.4l-2.75,5.32-1.37,2.66-1.33,2.67-2.65,5.36-2.56,5.39c-.42.9-.86,1.79-1.27,2.7l-1.24,2.71c-.77,1.72-1.57,3.43-2.34,5.15l-2.26,5.19a3.41,3.41,0,0,0-.22.66c-.4.91-.77,1.83-1.13,2.75l-1.09,2.76-1.06,2.76c-.35.93-.67,1.86-1,2.79-.66,1.86-1.31,3.73-1.93,5.6s-1.19,3.76-1.77,5.65l-.42,1.41-.4,1.43-.78,2.85-.78,2.86c-.61,2.39-1.22,4.77-1.87,7.14s-1.28,4.75-2,7.1c-.26.85-.53,1.7-.8,2.55s-.57,1.69-.87,2.53q-1.34,3.8-2.71,7.56c-.88,2.53-1.78,5.05-2.53,7.63-.64,2.15-1.24,4.3-1.77,6.48l-.8,3.27-.76,3.27a3.5,3.5,0,0,0-.65,1.4q-2.34,10.1-4.66,20.19c-.76,3.39-1.52,6.8-2.24,10.26-.36,1.73-.71,3.47-1,5.25s-.66,3.55-1,5.52l-.1.62-.1.77,61.76,6.9h0l0-.16.05-.33.11-.78.27-1.68c.19-1.14.4-2.32.61-3.5.43-2.37.9-4.78,1.39-7.19,1-4.83,2.11-9.7,3.31-14.56.32-1.35.68-2.7,1-4.05s.69-2.7,1-4a2.65,2.65,0,0,0,.55-1.66v-.13l0-.09c.07-.39.14-.78.23-1.17l.3-1.38.31-1.39c.31-1.48.64-3,.92-4.46.14-.75.27-1.5.4-2.25s.25-1.51.36-2.26c1-6.72,1.89-13.48,3.46-20.14a161.55,161.55,0,0,1,5.27-17.8c1-2.93,2.15-5.8,3.29-8.68.58-1.44,1.2-2.85,1.8-4.27s1.21-2.85,1.86-4.25l.12-.19q1.22-2.41,2.35-4.85c.78-1.62,1.56-3.23,2.32-4.86,1.1-2.45,2.28-4.86,3.38-7.31l.82-1.84.86-1.82,1.68-3.66c.73-1.64,1.52-3.24,2.28-4.86l1.14-2.43.57-1.22.59-1.2,2.38-4.81c.59-1.21,1.23-2.39,1.86-3.58l1.9-3.56c.21-.4.42-.79.64-1.18l.67-1.17,1.35-2.32c.69-1.16,1.37-2.32,2.07-3.46s1.45-2.26,2.19-3.38c.5-.75,1-1.5,1.51-2.24l.76-1.11.8-1.08c2.14-2.88,4.31-5.75,6.57-8.52l1.66-2.1c.56-.71,1.09-1.42,1.66-2.11q1.68-2.08,3.32-4.2c.55-.7,1.09-1.42,1.65-2.11l1.67-2.08c1.68-2.07,3.3-4.21,5-6.24l2.52-3.11,1.26-1.56,1.29-1.52,3.43-4.08.85-1,.88-1,1.76-2,1.75-2c.59-.66,1.16-1.35,1.77-2L244,212.6l1.81-1.95,1.86-1.9,3.74-3.78c.77-.8,1.59-1.54,2.39-2.31l2.43-2.27,2.43-2.27,2.5-2.17,2.52-2.16c.85-.72,1.68-1.46,2.56-2.13q2.59-2,5.24-4.07a224.32,224.32,0,0,1,31.75-19.78l1.18-.62c.39-.21.8-.39,1.2-.59l2.4-1.16,4.81-2.31c.39-.2.8-.38,1.21-.55l1.22-.53,2.45-1.07c1.63-.7,3.25-1.42,4.89-2.11l5-1.93,2.48-1c.83-.32,1.65-.66,2.5-.94l7.54-2.62c1.24-.47,2.53-.82,3.8-1.22l3.81-1.18c1.68-.52,3.34-1.07,5.06-1.51l7.62-2.1c.63-.18,1.28-.33,1.92-.48l1.93-.46,3.85-.93c3.39-.89,6.87-1.54,10.31-2.29l2.58-.55,1.29-.28,1.31-.23,5.21-.94,2.6-.47,1.3-.25.65-.12.66-.1,5.24-.79,5.24-.83c3.52-.44,7-.88,10.56-1.36,1.31-.19,2.65-.3,4-.44l4-.41c2.66-.27,5.3-.63,8-.8l8.5-.64c1.4-.13,2.86-.16,4.31-.22l4.35-.15,5.4-.18,2.71-.08c.9,0,1.8,0,2.7,0l10.78.06h1.9l1.89.07,3.78.15,7.57.31c.63,0,1.26,0,1.89.09l1.88.14,3.76.28,7.51.54c.7,0,1.39.13,2.08.2l2.07.22,4.15.44a2.62,2.62,0,0,0,1.72.27l.13,0h.09l1.18,0,1.41.06,1.41.08c1.5.11,3,.22,4.51.28s3,.09,4.53.07l2.52,0,1.27,0h1.26l5,.07c1.68,0,3.36.06,5,.12.84,0,1.69.05,2.53.1s1.67.14,2.5.22q4.56.45,9.09,1.07c.76.09,1.51.23,2.25.37l2.24.42c1.5.28,3,.58,4.48.89s3,.61,4.46,1l4.4,1.17,4.39,1.21,2.19.61,2.16.71.2.08q2.48.93,5,1.77l2.51.84,1.25.4,1.24.44c2.48.89,5,1.73,7.47,2.54l1.88.61c.63.2,1.24.44,1.86.65l3.71,1.31,5,1.7c1.64.61,3.27,1.25,4.91,1.87l4.91,1.86c.63.23,1.23.5,1.83.76l1.82.78,3.62,1.58c1.61.71,3.23,1.4,4.79,2.22,2.35,1.19,4.69,2.41,7,3.66.79.41,1.53.89,2.28,1.35l2.25,1.41q2.22,1.41,4.44,2.87c.37.23.73.49,1.08.75l1.08.76,2.16,1.53c1.44,1,2.88,2,4.34,3s2.85,2.06,4.29,3.08l2.15,1.51,1.09.75c.36.24.72.49,1.07.76q3.18,2.35,6.39,4.65c1.09.74,2.12,1.57,3.17,2.36l3.16,2.38,1.59,1.19.79.59.77.61,3.1,2.47,3.11,2.46c.53.4,1,.83,1.53,1.26l1.52,1.28,3,2.56,1.52,1.28c.5.43,1,.89,1.48,1.33,2,1.78,4,3.54,5.9,5.35,3.16,3.1,6.39,6.14,9.38,9.42l2.27,2.44c.38.41.77.81,1.13,1.23l1.09,1.26c1.45,1.69,2.89,3.38,4.32,5.09a267.18,267.18,0,0,1,15.83,21.9c4.85,7.61,9.36,15.46,13.53,23.48,5,9.64,9.48,19.55,13.56,29.63l2,5c.26.62.5,1.25.73,1.88l.72,1.9,1.43,3.77,2.75,7.61c1.15,3.41,2.36,6.79,3.45,10.22s2.19,6.85,3.27,10.28c1.55,5.17,3.09,10.34,4.5,15.55l.72,2.6c.24.87.46,1.74.7,2.61.45,1.74.94,3.47,1.36,5.21l1,3.92,1,3.93c.33,1.31.64,2.62.94,3.93s.64,2.62.93,3.93c1.29,5.55,2.39,11.13,3.33,16.69.57,3.46,1.1,6.91,1.53,10.32l.31,2.55.28,2.5c.08.82.16,1.65.23,2.42s.13,1.61.15,1.94l62-4.65-.14-2.12c-.06-.76-.12-1.46-.18-2.16s-.14-1.39-.21-2.08-.15-1.36-.23-2l-.26-2q-.54-4-1.26-7.88Q851.87,397.65,849.9,390.1Z"/><path class="cls-3" d="M759.14,373.34a137.53,137.53,0,0,0-6.52-18.84c-2.58-6.13-5.47-12.12-8.46-18l-1.14-2.3-1.15-2.29c-.76-1.53-1.49-3.07-2.24-4.6s-1.5-3.06-2.23-4.59c-.36-.77-.73-1.54-1.11-2.3l-1.11-2.3c-1.43-3.08-3-6.13-4.41-9.21l-2.25-4.61L727.4,302l-1.16-2.3c-3.09-6.29-6.44-12.48-9.83-18.66-1.75-3.07-3.45-6.17-5.26-9.22l-1.34-2.3c-.44-.76-.89-1.53-1.35-2.29l-2.76-4.57c-.88-1.51-1.84-3-2.77-4.46s-1.87-3-2.84-4.43l-3-4.35-1.5-2.16-1.57-2.12c-1.06-1.41-2.12-2.82-3.2-4.21s-2.24-2.73-3.39-4.08l-1.73-2c-.29-.33-.57-.67-.88-1l-.91-1c-1.21-1.29-2.45-2.57-3.7-3.82a175.71,175.71,0,0,0-28.49-22.32c-10.14-6.52-20.62-12.27-31-18-8.49-4.67-17.05-9.2-25.86-13.13L591.57,174l-3.33-1.39c-2.23-.92-4.45-1.86-6.69-2.74l-6.78-2.48-1.69-.61-.85-.3-.86-.27-3.44-1.07c-1.26-.39-2.52-.77-3.79-1.14a2,2,0,0,0-.71-.37c-12.48-3.81-25-7.19-37.62-10.36l-4.66-1.17-2.33-.59-2.33-.53q-4.68-1.07-9.34-2.28c-6-1.36-11.92-3.25-18.07-3.24l-.29,0-5-.46-1.26-.12-1.26-.08-2.51-.17-5-.36-2.52-.18-1.26-.09-1.25-.06h0l-6.45-.29-3.23-.13-1.62-.07c-.54,0-1.08-.05-1.61-.05-4.29-.05-8.59-.09-12.89-.09q-3.28.09-6.6.23l-3.3.14c-.55,0-1.1,0-1.65.08l-1.65.14c-2.21.18-4.41.38-6.62.59l-1.65.17c-.55.05-1.1.11-1.65.19l-3.3.47c-3.37.51-6.71,1.05-10,1.89q-2.49.6-5,1.25c-.82.22-1.64.43-2.46.67l-2.45.77c-6.52,2-12.93,4.42-19.25,7-2,.85-4.08,1.66-6.12,2.45-1,.38-2,.83-3.05,1.24l-3,1.24c-4.08,1.57-8.09,3.33-12.15,4.94-4.83,2.08-9.69,4.08-14.49,6.3-6.58,2.93-13,6.21-19.4,9.54-1.59.85-3.16,1.75-4.75,2.61l-2.37,1.3-1.19.65-1.17.69-4.69,2.72-1.18.68-.59.34-.58.35-2.31,1.42c-2.27,1.4-4.58,2.75-6.79,4.24L289,200.59c-.75.49-1.45,1-2.18,1.53l-2.16,1.56c-3.27,2.31-6.36,4.83-9.44,7.38-1.52,1.3-3,2.65-4.46,4-.73.67-1.46,1.36-2.18,2.05s-1.4,1.42-2.1,2.15a182.76,182.76,0,0,0-22,28.41c-.83,1.24-1.6,2.5-2.38,3.76l-2.33,3.77c-.77,1.26-1.51,2.54-2.26,3.8l-1.7,2.84c-.57.94-1.1,1.9-1.66,2.85l-1.66,2.85-.84,1.41-.81,1.43c-1.44,2.54-3,5-4.39,7.56l-1.35,2.3c-.45.76-.91,1.52-1.34,2.3l-2.64,4.61c-3.48,6.18-6.9,12.37-10.1,18.66s-6.2,12.65-8.94,19.12l-1.34,3.25c-.48,1.19-1,2.39-1.41,3.6a2.17,2.17,0,0,0-.41.66c-2.41,5.9-4.74,11.81-7.08,17.73S187.21,362,184.92,368s-4.45,11.77-6.78,17.66c-2.23,5.65-4.74,11.27-5.66,17.38a2.64,2.64,0,0,0,0,.28q-1.12,4.95-2.18,10c-.18.84-.35,1.69-.52,2.55l-.5,2.59-.25,1.33-.24,1.35-.24,1.41-.12.75-.06.41-.08.56,59.31,6q2.29-9.52,4.6-19c.23-1,.45-1.89.66-2.84s.44-1.9.64-2.85c0-.05,0-.1,0-.14.71-2.19,1.49-4.37,2.23-6.55,1.72-5.14,3.39-10.3,5.14-15.42,3.49-10.26,7.2-20.4,11.24-30.36l0-.06c.13-.32.25-.63.38-.94v0a294.54,294.54,0,0,1,23-45c3.06-4.78,6.16-9.52,9.46-14.08l1.22-1.72c.4-.58.84-1.13,1.25-1.7L290,286.2c.85-1.12,1.72-2.21,2.57-3.32l1.29-1.66c.43-.56.88-1.09,1.32-1.63l2.64-3.25,2.72-3.19q8.16-9.51,17.19-18.16A180.74,180.74,0,0,1,337.1,238.9l2.58-1.82,1.29-.91c.43-.3.88-.57,1.31-.87l2.65-1.72,1.32-.86c.44-.29.88-.58,1.34-.84l5.43-3.25,5.55-3,.92-.51.95-.47,1.89-.95c1.27-.63,2.52-1.27,3.79-1.89L370,220c1.29-.58,2.56-1.21,3.89-1.72l5.9-2.46,6-2.24c.5-.19,1-.39,1.51-.56l1.53-.51,3.05-1c1-.34,2-.7,3.06-1l3.1-.92,4.14-1.24,4.2-1.11,3.37-.9c.63-.18,1.27-.32,1.92-.47l1.92-.44,3.85-.87c1.28-.31,2.58-.52,3.88-.75s2.61-.43,3.92-.63c1.16-.18,2.31-.38,3.49-.47,1.77-.17,3.53-.31,5.3-.41l1.7-.09c.57,0,1.13-.06,1.7-.06h3.42l5.12,0c1.74.07,3.5.16,5.24.25,2.33.12,4.65.23,7,.37,3.41.3,6.81.6,10.21.88.87.06,1.73.17,2.59.26l2.59.28c1.72.19,3.45.36,5.17.52l1.29.11c.43,0,.85.11,1.28.15l2.57.3c1.7.19,3.41.36,5.12.51,1,.08,1.94.15,2.89.26s1.93.19,2.89.27h.14l3.36.65,1.68.32.84.15.83.18q3.92.83,7.83,1.53l1,.18,1,.2,1.94.42,3.87.8c10.31,2.21,20.43,4.7,30.31,7.75l.06,0,.92.3h0l2.92.93,1.46.47c.49.15,1,.3,1.45.49l5.74,2.08,1.44.52,1.41.57,2.81,1.15,2.83,1.13c.93.39,1.84.83,2.77,1.24l2.76,1.25c.92.42,1.86.8,2.75,1.27l5.42,2.7.67.33.67.37L585,234l2.65,1.45,1.32.72.67.37.64.38,2.59,1.55,1.76,1.06c.59.35,1.2.68,1.76,1.06l3.45,2.23c2.34,1.43,4.55,3.05,6.82,4.58l.85.58.43.29.41.3,1.65,1.22,3.32,2.43c1.1.82,2.16,1.69,3.25,2.53l1.62,1.26c.55.42,1.09.84,1.61,1.29a259.2,259.2,0,0,1,24.34,22.64c15.46,16.53,28.3,36,38.62,57.14,2.58,5.29,5.06,10.64,7.36,16.09s4.48,11,6.54,16.57c1.64,4.5,3.25,9,4.66,13.61a115.3,115.3,0,0,1,3.4,14c1,5.65,1.6,11.35,2,17,.19,2.82.34,5.63.41,8.39,0,1.38.07,2.74.08,4.07,0,.65,0,1.32,0,1.94v.46l0,.44a3,3,0,0,1,0,.58l59.48-3.88-.09-2.2-.09-1.82-.1-1.75-.1-1.72c-.07-1.15-.16-2.26-.25-3.39l-.28-3.33c-.4-4.43-.89-8.8-1.5-13.13s-1.3-8.65-2.14-12.92c-.4-2.14-.87-4.26-1.34-6.39S759.68,375.44,759.14,373.34Z"/><path class="cls-4" d="M672.43,404.76a187,187,0,0,0-10.72-53,192.1,192.1,0,0,0-11.2-25.48,182.11,182.11,0,0,0-15.09-23.91c-.73-1-1.43-1.94-2.17-2.88L631,296.63l-1.11-1.42-1.15-1.4L626.48,291c-.74-.94-1.54-1.85-2.31-2.79s-1.54-1.86-2.3-2.8-1.56-1.85-2.33-2.79l-1.16-1.42c-.38-.47-.76-.95-1.15-1.41-3.15-3.81-6.33-7.65-9.76-11.3l-2.59-2.73c-.87-.9-1.78-1.77-2.69-2.64s-1.81-1.74-2.75-2.58-1.91-1.65-2.88-2.46l-1.41-1.15c-.48-.39-1-.76-1.46-1.11-1-.72-2-1.42-3-2.11-2-1.4-4.11-2.63-6.21-3.87s-4.26-2.37-6.4-3.52l-1.6-.87c-.53-.29-1.09-.54-1.63-.82-1.08-.55-2.16-1.1-3.23-1.66-8.18-4.19-16.52-8.08-25.24-10.63-1-.28-1.95-.55-2.93-.8l-1.47-.37c-.49-.12-1-.21-1.49-.3a1.52,1.52,0,0,0-.6,0c-1.78-.61-3.58-1.19-5.37-1.74s-3.63-1-5.44-1.44c-.91-.23-1.82-.46-2.73-.67l-2.74-.57-2.74-.56-1.37-.27c-.46-.1-.91-.19-1.37-.26-3.66-.59-7.3-1.29-10.93-1.79l-2.72-.43-1.36-.23-.68-.12-.67-.1c-1.81-.26-3.61-.54-5.41-.86a1.28,1.28,0,0,0-.33-.11c-.76-.13-1.52-.26-2.28-.37l-.73-.11a1.1,1.1,0,0,0-.25,0q-3.15-.39-6.32-.69c-1.06-.12-2.11-.16-3.16-.23l-3.16-.16L477,220c-1.06,0-2.1,0-3.15-.06l-6.28-.09c-2,0-3.92,0-5.88,0l-2.94,0c-.49,0-1,0-1.46,0h-1.47c-1.95,0-3.9,0-5.85-.09l-1.47-.06-1.52,0c-1,0-2,0-3-.1l-3.48-.13H437c-2.34,0-4.67,0-7,.2l-3.52.23-1.77.12-1.76.19-3.53.4c-1.18.14-2.36.26-3.54.47q-2.2.34-4.41.72c-.74.13-1.48.25-2.21.4l-2.2.46-4.4,1c-1.46.36-2.92.76-4.38,1.15l-2.62.72c-.87.24-1.74.53-2.6.8-1.74.56-3.47,1.1-5.19,1.71a155.66,155.66,0,0,0-20.28,8.86l-4.06,2.21c-.68.36-1.34.77-2,1.16l-2,1.19-2,1.2c-.66.4-1.3.84-1.94,1.26l-3.85,2.56c-1.26.88-2.5,1.8-3.74,2.7l-1.86,1.37L344.32,252c-1.2,1-2.41,1.9-3.59,2.88l-3.47,3c-.94.8-1.84,1.64-2.75,2.48l-2.7,2.51c-5.34,5.09-10.4,10.35-15.58,15.49a205,205,0,0,0-15,16.25c-.77.95-1.52,1.92-2.27,2.88s-1.44,2-2.14,3-1.27,1.81-1.85,2.75-1.15,1.88-1.71,2.82l-.82,1.43-.78,1.45c-.51,1-1,1.93-1.52,2.91s-1,2-1.43,2.94-1,2-1.4,2.95l-1.35,3-.69,1.47-.66,1.48-.72,1.56c-.94,2-1.81,4-2.71,5.95-.46,1-.87,2-1.3,3s-.87,2-1.27,3c-.81,2-1.63,4-2.34,6-.36,1-.73,2-1.07,3.05s-.65,2.05-1,3.07-.53,1.84-.77,2.77-.46,1.86-.67,2.79a1.26,1.26,0,0,0,0,.58,180.3,180.3,0,0,0-6.05,20.47q-1.25,5.16-2.45,10.33c-.82,3.43-1.65,6.86-2.56,10.28a1.69,1.69,0,0,0-.13.31c-.19.72-.38,1.45-.55,2.18l-.19.69a2,2,0,0,0,0,.24c-1,4-1.7,8.11-2.32,12.26-.31,2.08-.6,4.17-.85,6.3l-.19,1.62-.19,1.64-.17,1.71-.09.91-.1,1.16L312,429.94c0,.13,0,0,0-.06s0-.16,0-.23l.11-.56.25-1.21q.27-1.26.57-2.58c.4-1.75.83-3.53,1.29-5.32l.16-.63a.8.8,0,0,0,.16-.35,24.25,24.25,0,0,1,1.48-4.61c.61-1.51,1.28-3,1.8-4.53q1.77-5.13,3.64-10.2l3.76-10.12c1.24-3.36,2.51-6.69,3.72-10a.73.73,0,0,0,0-.29.7.7,0,0,0,.23-.35c1.5-5.2,2.7-10.52,4.19-15.76l.36-1.27.38-1.25.79-2.5q.42-1.23.87-2.46l.46-1.22.49-1.2c.33-.8.68-1.59,1-2.38s.75-1.55,1.15-2.31a43.79,43.79,0,0,1,2.65-4.42c.81-1.19,1.67-2.34,2.5-3.51s1.73-2.27,2.59-3.41a156.07,156.07,0,0,1,11.08-12.66l2.91-2.93c1-.94,2-1.89,2.95-2.84l2-1.83c.5-.46,1-.94,1.49-1.38l1.51-1.33c.5-.45,1-.91,1.5-1.34l1.53-1.31c4.71-4,9.46-7.94,14.39-11.63,1.07-.77,2.14-1.53,3.21-2.32.52-.41,1.08-.76,1.62-1.14l1.64-1.13c.36-.25.72-.51,1.09-.75l1.12-.72,2.23-1.45c.75-.48,1.52-.92,2.28-1.39l1.15-.7c.38-.23.76-.48,1.15-.69l2.35-1.32,1.17-.66,1.2-.63,2.1-1.09a121.14,121.14,0,0,1,13.15-5.9c.76-.29,1.51-.6,2.28-.86l2.33-.75c2.32-.8,4.72-1.38,7.12-2,.8-.21,1.62-.34,2.43-.5l2.45-.44,1.23-.2c.41-.07.82-.1,1.24-.15.83-.1,1.66-.18,2.49-.26l2.12-.19c.71,0,1.43-.07,2.14-.1l4.3-.14,4.45.06,2.22,0,1.11,0,1.11.07,4.4.28c.68.05,1.35.09,2,.15l6.7.72c1.43.19,2.86.42,4.28.62l.64.1a.77.77,0,0,0,.37.12,15.24,15.24,0,0,1,2.33.35c.77.19,1.53.41,2.29.65l2.26.69c.76.23,1.52.42,2.26.64q2.52.66,5,1.28l4.92,1.4,1.23.33,1.22.38,2.41.74c.81.25,1.62.47,2.42.72s1.58.53,2.37.78,1.59.5,2.38.73,1.57.54,2.35.79c1.56.54,3.15,1,4.68,1.54a.75.75,0,0,0,.26,0,.7.7,0,0,0,.33.2c4.85,1.17,9.74,2.24,14.61,3.6,6.23,1.77,12.37,4.2,17.46,8.21,1,.86,2.12,1.69,3.15,2.58l3,2.7c.75.69,1.47,1.41,2.21,2.11l1.09,1.05c.37.35.71.73,1.07,1.1l2.11,2.19c.7.74,1.37,1.51,2,2.26l1,1.13c.34.37.66.77,1,1.16l2,2.32,1.91,2.38,1,1.19.92,1.22,1.67,2.15,1.62,2.2c1.11,1.44,2.13,3,3.21,4.43l3.16,4.49c1,1.53,2.11,3,3.12,4.56l1.56,2.3,1.53,2.34.77,1.17.76,1.19,1.52,2.37c4,6.39,7.91,13,11.46,20,1.57,3,3.08,6.09,4.56,9.21s2.86,6.29,4.13,9.53a106.37,106.37,0,0,1,5.9,20c.51,2.91.93,5.85,1.25,8.77s.54,5.84.65,8.68c0,1,.07,2.06.08,3.05V431c0,.22,0,.46,0,.65v.26l0,.1,55.18-2.66-.07-1.13-.06-.87-.14-1.62-.27-3.11-.55-6C673,412.63,672.64,408.71,672.43,404.76Z"/></g></g></svg>