<svg xmlns="http://www.w3.org/2000/svg" viewBox="0 0 432 790.93"><defs><style>.cls-1{fill:#fdc7bc;}.cls-2{fill:#e8ac3d;}.cls-3{fill:#d89279;}.cls-4{fill:#c1d6e1;}.cls-5{fill:#2c3e50;}.cls-6{fill:#fff;}</style></defs><title>Asset 4</title><g id="Layer_2" data-name="Layer 2"><g id="Layer_1-2" data-name="Layer 1"><path class="cls-1" d="M309.94,219.94a499.38,499.38,0,0,0-3.38,50.31c-.34,16.92,0,33.83.83,50.74a254.83,254.83,0,0,1,.43,25.63c-.46,8.68-1.34,17.34-1.47,26-.11,8.4,1.09,16.76,1.51,25.15.4,8,.47,15.94,1.23,23.9.17,1.78.38,3.55.64,5.33a1.28,1.28,0,0,0,.2.5c0,13.37,1.6,26.77,1,40.15a.81.81,0,0,0-.06.31c0,.7-.05,1.41-.07,2.11,0,.23,0,.46,0,.68a.87.87,0,0,0,0,.23c-.2,7.8.06,15.61.11,23.41a173.1,173.1,0,0,1-1,22.05q-.76,6.28-1.34,12.56t-1,12.58q-.51,7.86-.79,15.73c-.11,3.15-.2,6.29-.26,9.44q-.19,9.51-.1,19,.14,15.86.93,31.7c.1,2.14.21,4.28.31,6.42.28,6.4.46,12.8.12,19.22s-.93,13-1.25,19.51c-.11,2.17-.19,4.34-.22,6.51-.1,7.87.94,15.71,1.42,23.57l.09,1.57c.2,4,.31,8,.48,12s.37,8,.75,12c.17,1.78.38,3.55.64,5.32a1.39,1.39,0,0,0,.2.51c0,13.37,1.6,26.77,1,40.14a.87.87,0,0,0-.06.32c0,.7-.05,1.4-.07,2.11,0,.23,0,.45,0,.68a.89.89,0,0,0,0,.23c-.2,7.8.06,15.6.11,23.41h51.66q.42-6.55.86-13.09c0-.26,0-.51.05-.77a1.08,1.08,0,0,0,.09-.44,39.92,39.92,0,0,1,.57-5.65c.3-1.88.63-3.76.8-5.64.39-4.22.76-8.43,1.07-12.65s.58-8.46.76-12.69.29-8.46.29-12.69A1.27,1.27,0,0,0,367,727a1.12,1.12,0,0,0,.08-.49c-.36-6.44-1.2-12.87-2-19.31-1-8.28-1.84-16.56-1.41-24.85.18-3.49.38-7,.59-10.46.42-7,.88-13.94,1.27-20.91.19-3.48.37-7,.53-10.45.05-1.16.1-2.33.14-3.49q.21-5.22.3-10.46c.15-8.1,0-16.21-.33-24.32-.15-3.47-.32-7-.52-10.42q-.4-6.94-.92-13.89c-.08-1.16-.17-2.32-.25-3.47s-.18-2.32-.26-3.48l-.24-3c-.49-6.05-1-12.1-1.53-18.15q-.24-3-.45-6.06c-.2-3-.38-6-.5-9.08q-.12-3-.18-6c0-1,0-2,0-3s0-2,0-3c.09-6.87.38-13.75.76-20.62l.3-5.15.15-2.37q.26-4,.52-7.94c.11-1.71.22-3.43.34-5.15,0-.25,0-.51.05-.77a1,1,0,0,0,.09-.44,39.92,39.92,0,0,1,.57-5.65c.3-1.88.63-3.75.8-5.64.39-4.21.76-8.43,1.07-12.65s.58-8.45.76-12.68.29-8.47.29-12.7a1.27,1.27,0,0,0-.05-.34,1.1,1.1,0,0,0,.08-.48c-.36-6.44-1.2-12.88-2-19.32-1-8.28-1.84-16.56-1.41-24.85.18-3.48.38-7,.59-10.45.63-10.46,1.34-20.91,1.8-31.37.2-4.65.36-9.29.44-13.94.34-18.54-.87-37.07-2.28-55.58-1.23-16.13-3.14-32.28-2.9-48.42.09-6.88.38-13.75.76-20.62q.21-3.76.45-7.53H310.92A172.94,172.94,0,0,1,309.94,219.94Z"/><path class="cls-2" d="M215.74,232.6c.06,8.86,1.77,17.66,3.15,26.48a160.27,160.27,0,0,1,1.57,27.31c-.13,9.33-.47,18.67-1.3,28-.82,9.15-1.8,18.25-1.35,27.42.75,15.6,4.64,31.1,5.28,46.69.51,12.72-.07,25.43.13,38.15,0,.87,0,1.75.07,2.62a1.15,1.15,0,0,0-.13.53,235.26,235.26,0,0,1-1.44,26c-.48,4.25-1,8.51-1.81,12.75-.78,4.07-1.93,8.1-1.67,12.21l0,.19c-.2,4.5-.49,9-.81,13.51h0c-.82,11.57-1.8,23.13-1.72,34.71,0,2.21.14,4.42.33,6.63s.45,4.42.75,6.62c.61,4.41,1.38,8.82,2.07,13.22a138.55,138.55,0,0,1,1.51,17.06c.1,3.41.11,6.83.06,10.26-.13,9.33-.47,18.66-1.3,28-.15,1.71-.31,3.43-.47,5.14l-.3,3.42c-.09,1.15-.18,2.29-.26,3.43a128.07,128.07,0,0,0-.32,15.43c.37,7.8,1.54,15.57,2.68,23.34.15,1,.29,2,.43,2.92.28,1.94.56,3.89.81,5.83.39,2.92.73,5.83,1,8.75q.25,2.93.38,5.85c.09,2.38.15,4.77.18,7.15.13,9.54-.16,19.07-.07,28.61,0,.8,0,1.59,0,2.38s0,1.75.07,2.63a1.14,1.14,0,0,0-.13.52,235,235,0,0,1-1.44,26c-.48,4.25-1,8.52-1.81,12.75-.78,4.07-1.93,8.11-1.67,12.21l0,.2c-.2,4.5-.49,9-.81,13.51H273.2c.58-5.47,1.08-10.93,1.28-16.4.06-1.55.08-3.1.06-4.64a.49.49,0,0,0,0-.12c.2-1.82.44-3.64.61-5.46.41-4.29.64-8.58.84-12.88.4-8.59.51-17.18.51-25.77v-.06c0-.27,0-.54,0-.81v0c0-13.62,0-27.24-.05-40.85q0-13.93-.4-27.84-.1-3.47-.23-7-.39-10.44-1-20.87c-.42-7-.77-14-1.09-21.07s-.59-14-.86-21.07c-.18-4.68-.35-9.36-.54-14q-.4-10.55-.9-21.07-.17-3.53-.36-7l-.15-2.82c-.25-4.24-.51-8.47-.56-12.7q0-1.41,0-2.82c0-1.42.06-2.83.14-4.24q.17-2.71.39-5.43c.23-2.71.51-5.42.8-8.13.2-1.81.41-3.62.61-5.42.31-2.67.62-5.34.91-8,.58-5.46,1.08-10.93,1.28-16.4,0-.77,0-1.54.06-2.32s0-1.54,0-2.32a.41.41,0,0,0,0-.11c.2-1.82.44-3.64.61-5.46.41-4.29.64-8.59.84-12.88.4-8.59.51-17.19.51-25.78v-.05c0-.27,0-.54,0-.81v0c0-13.62,0-27.23-.05-40.85q0-27.84-1.63-55.66c-1.12-18.72-1.75-37.45-2.49-56.18-.37-9.37-.76-18.73-1.26-28.09-.39-7.54-1-15.05-.57-22.59.53-9,1.74-18,2.71-27H217.46C216.64,209.46,215.66,221,215.74,232.6Z"/><path class="cls-3" d="M51,232.6c.06,8.86,1.77,17.66,3.15,26.48a161.3,161.3,0,0,1,1.57,27.31c-.13,9.33-.47,18.67-1.3,28-.82,9.15-1.8,18.25-1.36,27.42.76,15.6,4.65,31.1,5.28,46.69.52,12.72-.06,25.43.14,38.15,0,.87,0,1.75.07,2.62a1.15,1.15,0,0,0-.13.53,235.28,235.28,0,0,1-1.45,26c-.47,4.25-1,8.51-1.81,12.75-.77,4.07-1.92,8.1-1.66,12.21a1.25,1.25,0,0,0,0,.19c-.2,4.5-.5,9-.81,13.51h0C51.9,506,50.92,517.54,51,529.12q0,3.32.32,6.63c.19,2.21.46,4.42.76,6.62.61,4.41,1.38,8.82,2.07,13.22a136.61,136.61,0,0,1,1.5,17.06c.11,3.41.12,6.83.07,10.26-.13,9.33-.47,18.66-1.3,28-.16,1.71-.31,3.43-.47,5.14l-.3,3.42-.27,3.43a130.17,130.17,0,0,0-.32,15.43c.38,7.8,1.54,15.57,2.69,23.34.14,1,.29,2,.43,2.92.28,1.94.56,3.89.81,5.83.38,2.92.72,5.83,1,8.75.16,2,.29,3.9.37,5.85.1,2.38.16,4.77.19,7.15.13,9.54-.16,19.07-.08,28.61l0,2.38c0,.88,0,1.75.07,2.63a1.14,1.14,0,0,0-.13.52,235,235,0,0,1-1.45,26c-.47,4.25-1,8.52-1.81,12.75-.77,4.07-1.92,8.11-1.66,12.21a1.38,1.38,0,0,0,0,.2c-.2,4.5-.5,9-.81,13.51h55.73c.59-5.47,1.09-10.93,1.29-16.4.06-1.55.08-3.1.06-4.64,0,0,0-.08,0-.12.2-1.82.44-3.64.61-5.46.41-4.29.64-8.58.84-12.88.4-8.59.5-17.18.51-25.77v-.89c0-13.62,0-27.24,0-40.85q0-13.93-.4-27.84-.1-3.47-.23-7-.39-10.44-1-20.87T109,607.19q-.47-10.53-.86-21.07l-.54-14q-.42-10.55-.9-21.07c-.12-2.35-.23-4.69-.36-7l-.15-2.82c-.25-4.24-.51-8.47-.56-12.7,0-.94,0-1.88,0-2.82,0-1.42.06-2.83.14-4.24q.16-2.71.39-5.43c.23-2.71.51-5.42.8-8.13.2-1.81.41-3.62.61-5.42.31-2.67.62-5.34.9-8,.59-5.46,1.09-10.93,1.29-16.4,0-.77.05-1.54.06-2.32s0-1.54,0-2.32c0,0,0-.07,0-.11.2-1.82.44-3.64.61-5.46.41-4.29.64-8.59.84-12.88.4-8.59.5-17.19.51-25.78v-.89c0-13.62,0-27.23,0-40.85q0-27.84-1.64-55.66c-1.11-18.72-1.74-37.45-2.48-56.18-.37-9.37-.76-18.73-1.26-28.09-.4-7.54-1-15.05-.57-22.59.52-9,1.74-18,2.7-27H52.72C51.9,209.46,50.92,221,51,232.6Z"/><path class="cls-4" d="M132.11,214.93q.22,2,.48,4c.13,1.06.25,2.12.37,3.18.45,4.25.78,8.5,1,12.75s.4,8.51.5,12.77c.13,5.32.19,10.64.24,16,0,2.12.05,4.25.07,6.37q.12,9.67.07,19.36-.09,16.13-.74,32.24c-.14,3.22-.3,6.43-.51,9.65q-.41,6.42-1.06,12.84l-.36,3.21c-.25,2.14-.51,4.29-.77,6.43-.12,1.07-.25,2.15-.37,3.22-.62,5.36-1.15,10.72-1.35,16.09-.12,3-.08,6.06,0,9.1,0,.5,0,1,.05,1.51,0,1,.09,2,.14,3,.12,2.53.26,5.05.37,7.58q.08,1.51.12,3,.19,6.21.3,12.42c0,2.07.06,4.14.09,6.21s0,4.14,0,6.21,0,3.93,0,5.9a1.13,1.13,0,0,0,.06.36,119.56,119.56,0,0,0,.86,12.38c.13,1,.28,2.06.43,3.09.08.52.15,1,.23,1.55a63.49,63.49,0,0,1,.83,7.75q0,.7,0,1.41c0,.47,0,.93,0,1.4-.17,2.82-.6,5.62-.71,8.44-.08,2.35,0,4.7.09,7.06a1.11,1.11,0,0,0-.28.79c.08,2.7.05,5.41-.05,8.11q0,1.35-.12,2.7c-.13,2.7-.32,5.41-.5,8.11l-.18,2.7,0,.52c0,.28,0,.56-.05.83a105.89,105.89,0,0,0,.73,16.21c.15,1.34.31,2.7.48,4.05.13,1.06.25,2.12.37,3.18.34,3.18.61,6.37.83,9.56.07,1.06.13,2.12.19,3.18s.12,2.13.17,3.2q.22,4.78.33,9.57c.13,5.33.19,10.65.24,16,0,2.13.05,4.26.07,6.38q.08,6.45.09,12.9,0,3.23,0,6.45t-.06,6.45q-.15,12.9-.68,25.8c-.14,3.22-.3,6.43-.51,9.64q-.41,6.43-1.06,12.85l-.36,3.21q-.37,3.21-.77,6.43c-.12,1.07-.25,2.14-.37,3.21-.37,3.22-.71,6.44-1,9.66q-.26,3.21-.38,6.44c0,.5,0,1,0,1.51-.06,2.53,0,5.06.07,7.58,0,.51,0,1,.05,1.52,0,1,.09,2,.14,3,.12,2.52.26,5,.37,7.57q.08,1.51.12,3,.19,6.21.3,12.42c0,2.07.06,4.14.09,6.21s0,4.14,0,6.21,0,3.93,0,5.9a1,1,0,0,0,.06.36,119.37,119.37,0,0,0,.86,12.38c.13,1,.28,2.07.43,3.1.08.51.15,1,.23,1.55a63.12,63.12,0,0,1,.83,7.74q0,.71,0,1.41c0,.47,0,.94,0,1.41-.17,2.81-.6,5.62-.71,8.44-.08,2.35,0,4.7.09,7a1.14,1.14,0,0,0-.28.79c.22,7.21-.38,14.42-.85,21.62l0,.53h58.11c.15-6,.34-12,.51-18.06,0-1.67.09-3.34.13-5a1.08,1.08,0,0,0,.12-1.05l0-.07s0,0,0-.06c0-.23,0-.47-.07-.71s0-.56-.05-.85,0-.56,0-.84c-.05-.91-.13-1.82-.25-2.73s-.26-1.81-.45-2.71c-.84-4-1.89-8-2.49-12.06a127.52,127.52,0,0,1-1-22,.69.69,0,0,1,0-.13c.18-2.13.26-4.27.28-6.4,0-1.6,0-3.2-.08-4.8s-.14-3.2-.24-4.8c-.07-1.07-.14-2.14-.22-3.2l-.24-3.2-.24-3.2c-.12-1.61-.23-3.21-.31-4.82,0-.54,0-1.07-.08-1.61l-.06-1.6c-.05-1.61-.06-3.22,0-4.83,0-1.07.07-2.15.14-3.23.14-2.15.35-4.3.52-6.45,0-.54.09-1.08.13-1.62l.09-1.61c.11-2.16.16-4.31.17-6.47,0-3.23,0-6.46-.17-9.69,0-1.08-.09-2.16-.13-3.24-.1-2.15-.22-4.31-.34-6.46s-.25-4.31-.36-6.47c-.06-1.07-.12-2.15-.17-3.23-.27-5.39-.45-10.78-.37-16.16.13-7.63.49-15.26,1-22.88.07-1.09.14-2.18.22-3.26q.21-3.27.45-6.54c.16-2.17.33-4.35.49-6.53.09-1.09.17-2.18.25-3.26q.39-4.9.76-9.8l.24-3.24q.36-4.84.66-9.71.19-3.23.37-6.47c.11-2.16.21-4.31.3-6.47s.17-4.32.24-6.47c0-1.08.06-2.16.08-3.24.06-2.16.09-4.32.11-6.48,0-3.23,0-6.47,0-9.71q-.06-5.14,0-10.29c0-4.27.13-8.53.23-12.8.15-6,.34-12,.51-18.05,0-1.67.09-3.35.13-5a1.06,1.06,0,0,0,.12-1l0-.08a.43.43,0,0,1,0-.05c0-.24,0-.48-.07-.71s0-.57-.05-.85,0-.57,0-.85c-.05-.91-.13-1.82-.25-2.72s-.26-1.82-.45-2.72c-.84-4-1.89-8-2.49-12.05a127.56,127.56,0,0,1-1-22,.51.51,0,0,1,0-.13c.18-2.14.26-4.27.28-6.41,0-3.2-.12-6.4-.32-9.6-.07-1.07-.14-2.13-.22-3.2l-.24-3.2-.24-3.2c-.12-1.6-.23-3.21-.31-4.82-.06-1.07-.1-2.14-.14-3.21-.05-1.61-.06-3.21,0-4.82.08-4.31.67-8.61.88-12.92.11-2.15.16-4.31.17-6.46,0-3.23,0-6.47-.17-9.7s-.29-6.46-.47-9.7-.37-6.46-.53-9.69c-.27-5.39-.45-10.78-.37-16.17.18-10.9.84-21.79,1.63-32.67.48-6.53,1-13.07,1.5-19.6l.24-3.23q.36-4.86.66-9.71.19-3.24.37-6.47t.3-6.48q.21-4.84.32-9.71c.06-2.15.09-4.31.11-6.47,0-3.24,0-6.48,0-9.72q-.06-5.14,0-10.28c0-4.27.13-8.54.23-12.81H131.43c0,.28,0,.56-.05.84A105.82,105.82,0,0,0,132.11,214.93Z"/><path class="cls-5" d="M431.65,185.69c2.27-22.17-6.5-42.48-27.15-52.88-23.08-11.63-54.53.41-66.84,21.5-4.26-16.92-7.9-34.14-13.44-50.38-8.47-24.81-18-52.28-34.46-73C272.93,9.78,242,.11,215.59,0c-33.33-.14-61.37,14.67-84.07,37.14-12.88,12.74-23.59,34-30.72,50.62-3.11,7.28-6,15-8.39,22.56-2.87,9.23-2.48,18.42-2.61,28-5.45-18.64-14.7-34.1-35.29-36.82-24.25-3.21-41.28,9.25-50.12,31.29-10.42,26-.19,70.89,9,81.08,2.38,2.63,102.85.68,147.17,0,26.42-.39,261.16.61,265.38-6.63C428.67,202.64,431.76,190.47,431.65,185.69Z"/><path class="cls-1" d="M137.12,133.87c-2.09,4.52,1.12,23.23,3.82,27.09,7.61,10.9,22.18,13.15,30.51.11,4.44-6.95,4-27.3,4-27.3s-11.24-.57-13.87-.54C153.65,133.31,137.12,133.87,137.12,133.87Z"/><path class="cls-1" d="M294.05,132.22a39.34,39.34,0,0,0-5.2-.34c-1.32.06-7,0-7.27,0-8-.4-25.39-.32-25.39-.32s-1,9.15,2.09,16.08c1.92,8.38,8.64,15.21,11.26,16.72a15.91,15.91,0,0,0,2.51,1.3c1.81,1.16,4.19,1.33,6.74,1C294.66,164.62,295.38,132.54,294.05,132.22Z"/><path class="cls-6" d="M147.93,100.46a8.4,8.4,0,0,0-1.38.12,15,15,0,0,0-3.66.92,6.77,6.77,0,0,0-.78.42,8.92,8.92,0,0,0-.8.52,10.89,10.89,0,0,0-1.31,1.17c-.17.17-.35.36-.55.59l-.07.08a5.46,5.46,0,0,0-.36.45,8.08,8.08,0,0,0-.69,1.16l-.15.19-.05.06a4.58,4.58,0,0,0-.56,1,4.7,4.7,0,0,0-.32,1.32,7.9,7.9,0,0,0,0,2.37l0,.18c0,.25.08.51.13.76s.17.68.25,1a10,10,0,0,0,.39,1,8,8,0,0,0,.51.9,2.39,2.39,0,0,0,.13.21,9.23,9.23,0,0,0,.6.89,4.34,4.34,0,0,0,.43.52l.27.25.06.06.09.08.37.31,0,0,.37.29.21.16.55.41a17.52,17.52,0,0,0,1.53,1c.27.15.55.3.86.45l.42.18.37.13.08,0c.29.09.58.15.87.22h0l.08,0c.32.07.65.15,1,.19l.24,0,.26,0,.38,0h.43l.68,0,.17,0A8.31,8.31,0,0,0,150,120a6,6,0,0,0,1-.33,6.13,6.13,0,0,0,.81-.37l.93-.51.79-.47.05,0c.31-.19.62-.38.92-.59a8.28,8.28,0,0,0,.71-.58,6.94,6.94,0,0,0,.72-.81,9.54,9.54,0,0,0,.95-1.54,4.46,4.46,0,0,0,.36-.87,4.55,4.55,0,0,0,.13-.49l0-.11c0-.14.07-.29.09-.43l0-.09.08-.54c.09-.53.16-1.11.24-1.88v0a8.63,8.63,0,0,0,0-2.27c0-.24-.11-.48-.17-.71a1.6,1.6,0,0,0-.05-.21c-.08-.31-.17-.62-.24-.85a6.93,6.93,0,0,0-.4-1,9.74,9.74,0,0,0-.54-.87c-.14-.21-.31-.42-.53-.69a7,7,0,0,0-.73-.71,7.28,7.28,0,0,0-1.39-1,16.15,16.15,0,0,0-1.73-.76c-.58-.21-1.17-.38-1.72-.53a8.31,8.31,0,0,0-1-.18c-.3,0-.61-.07-.94-.09l-.5,0Z"/><path class="cls-6" d="M283.34,99.38a6.25,6.25,0,0,0-.38-1.72,11,11,0,0,0-.74-1.51,9.24,9.24,0,0,0-1-1.45,10.39,10.39,0,0,0-1.29-1.2,5.93,5.93,0,0,0-.64-.45c-.23-.14-.48-.27-.72-.39a5,5,0,0,0-.85-.33l-.07,0-.72-.19a15.8,15.8,0,0,0-1.72-.3l-.46,0-.2,0a13.1,13.1,0,0,0-2.45-.34h-.34a14.08,14.08,0,0,0-1.45.07,6.83,6.83,0,0,0-.79.11,6.22,6.22,0,0,0-.87.25,5.22,5.22,0,0,0-1.59,1,4.58,4.58,0,0,0-.67.65l-.18.22-.1.06-.13.08a7.74,7.74,0,0,0-.67.44,5.05,5.05,0,0,0-.51.43,4.87,4.87,0,0,0-.39.47,5.64,5.64,0,0,0-.43.67,7.19,7.19,0,0,0-.43.88c-.09.23-.16.47-.23.7l0,.07a9.19,9.19,0,0,0-.34,1.72c0,.24-.05.49-.07.81a6.42,6.42,0,0,0,0,.76v.07a12.18,12.18,0,0,0,.18,1.79c.05.27.12.53.2.81s.11.32.17.47.1.27.16.39.13.27.2.39a3.53,3.53,0,0,0,.21.32l.08.12a4.71,4.71,0,0,0,.47.61c.3.34.61.68.91,1l.19.2c.23.25.42.44.61.61l.1.1.55.48a10.57,10.57,0,0,0,1.36,1c.28.16.58.33.89.49s.46.21.76.32a7,7,0,0,0,.77.26c.34.1.68.17,1,.23a11.88,11.88,0,0,0,1.61.19H274c.37,0,.73,0,1.07,0a10.73,10.73,0,0,0,1.64-.26,6.54,6.54,0,0,0,.91-.31c.24-.11.5-.23.74-.37a11.17,11.17,0,0,0,1.43-1h0c.21-.18.42-.36.62-.55l.58-.64,0-.05c.17-.19.35-.39.51-.6s.29-.39.43-.58l.07-.09a6.75,6.75,0,0,0,.77-1.55c.11-.28.2-.55.28-.82a8.85,8.85,0,0,0,.18-.87v-.09c0-.24.08-.49.1-.73s0-.58,0-.84C283.41,100.64,283.4,100,283.34,99.38Z"/><path class="cls-4" d="M232,131.69a37.57,37.57,0,0,0-4.87-.32c-.42,0-1.31,0-2.31,0,.34,4.14-.84,22-8.5,23.23a4.42,4.42,0,0,1-3.66-.7,7.54,7.54,0,0,1-1.37-.91c-1.42-1.06-5.08-5.83-6.13-11.69a30.43,30.43,0,0,1-1.19-10.25c-4.22,0-7.43,0-7.43,0s-1,8.58,2,15.07c1.8,7.85,8.09,14.24,10.54,15.65a13.72,13.72,0,0,0,2.36,1.22,9.35,9.35,0,0,0,6.3.94C232.54,162,233.22,132,232,131.69Z"/><path class="cls-5" d="M152,141.2a2.09,2.09,0,0,0-.09-.41c-.05-.12-.11-.24-.18-.37a2.41,2.41,0,0,0-.25-.35,3.29,3.29,0,0,0-.32-.29l-.15-.11-.17-.09a.9.9,0,0,0-.21-.08h0l-.17,0-.42-.08h-.16l-.22,0a1.55,1.55,0,0,0-.37,0h-.08l-.36,0-.19,0-.21.06a1.17,1.17,0,0,0-.38.24.81.81,0,0,0-.16.16l-.05,0,0,0,0,0-.16.1a.69.69,0,0,0-.13.11l-.09.11a.74.74,0,0,0-.11.16c0,.07-.07.14-.1.22l-.06.16v0a1.74,1.74,0,0,0-.08.42,1,1,0,0,0,0,.19v.19h0a3,3,0,0,0,0,.44c0,.06,0,.12.05.19s0,.08,0,.12l0,.09a.36.36,0,0,0,.05.09.56.56,0,0,0,0,.08l0,0,.11.15.22.24,0,.05.15.15,0,0,.14.12a2,2,0,0,0,.33.23l.21.12.18.08.19.06.23.05a2.3,2.3,0,0,0,.39,0h.44a1.84,1.84,0,0,0,.4-.06l.22-.07.18-.09a1.87,1.87,0,0,0,.34-.25h0l.15-.13.14-.16h0l.12-.14a1.71,1.71,0,0,1,.11-.14v0a1.45,1.45,0,0,0,.19-.37,1.59,1.59,0,0,0,.07-.2c0-.06,0-.13,0-.21v0l0-.18v-.2C152,141.51,152,141.36,152,141.2Z"/><path class="cls-5" d="M167.31,145a1.54,1.54,0,0,0-.1-.41,1.79,1.79,0,0,0-.18-.37,1.83,1.83,0,0,0-.25-.35,2.26,2.26,0,0,0-.31-.29l-.15-.11-.18-.09a.84.84,0,0,0-.2-.08h0l-.17,0a3.16,3.16,0,0,0-.42-.08h-.16l-.22,0a1.55,1.55,0,0,0-.37,0h-.08a2.17,2.17,0,0,0-.36,0l-.19,0-.21.06a1.17,1.17,0,0,0-.38.24,1.29,1.29,0,0,0-.17.16l0,0,0,0,0,0-.16.1-.12.11-.1.11-.1.16-.1.21-.06.17v0a2.38,2.38,0,0,0-.09.42c0,.05,0,.12,0,.19a1.21,1.21,0,0,0,0,.19h0a3,3,0,0,0,0,.44,1.8,1.8,0,0,0,.05.19s0,.08,0,.12a.36.36,0,0,0,0,.09.36.36,0,0,0,0,.09.22.22,0,0,0,.05.08l0,0,.11.15.22.24.05.05a1.06,1.06,0,0,0,.15.15l0,0,.13.12.33.23.22.12.18.08.19.06.23,0a2.3,2.3,0,0,0,.39.05h.44l.4-.06.22-.07.18-.1a1.72,1.72,0,0,0,.34-.24h0l.15-.13.15-.16h0l.12-.14.1-.14,0,0a1.45,1.45,0,0,0,.19-.37,1.52,1.52,0,0,0,.06-.2,1.08,1.08,0,0,0,0-.21v0a1.1,1.1,0,0,0,0-.18,1.41,1.41,0,0,0,0-.2C167.32,145.35,167.32,145.2,167.31,145Z"/><path class="cls-5" d="M156.56,153.49a1.62,1.62,0,0,0-.1-.42,2,2,0,0,0-.18-.36,1.83,1.83,0,0,0-.25-.35,1.76,1.76,0,0,0-.31-.29l-.15-.11-.18-.1-.21-.08h0l-.17-.05-.42-.07h-.16l-.22,0a2.31,2.31,0,0,0-.37,0h-.44l-.19,0-.21.06a1.17,1.17,0,0,0-.38.24l-.17.15,0,.06h0l0,0-.16.11-.12.1-.1.11-.1.17a1.36,1.36,0,0,0-.1.21l-.06.17v0a2.26,2.26,0,0,0-.09.41c0,.06,0,.12,0,.2a1.08,1.08,0,0,0,0,.18v0a2.74,2.74,0,0,0,0,.43,1.46,1.46,0,0,0,.05.2s0,.08,0,.11a.3.3,0,0,0,0,.1l0,.09a.35.35,0,0,0,.05.08l0,0,.11.15.22.24.05,0a1,1,0,0,0,.15.14l0,0,.13.11a3.75,3.75,0,0,0,.33.24l.22.11.18.08.19.07.23.05.39,0h.44l.4-.06a1.52,1.52,0,0,0,.22-.08l.18-.09a3.33,3.33,0,0,0,.34-.24h0a1,1,0,0,0,.15-.14,1,1,0,0,0,.14-.15h0l.12-.15a.71.71,0,0,0,.1-.14l0,0a1.63,1.63,0,0,0,.19-.37c0-.07,0-.14.06-.2a1.6,1.6,0,0,0,0-.21v0a1.1,1.1,0,0,0,0-.18,1.55,1.55,0,0,0,0-.21C156.57,153.8,156.57,153.64,156.56,153.49Z"/><path class="cls-5" d="M269.05,140.43A1.24,1.24,0,0,0,269,140a2.5,2.5,0,0,0-.18-.37,2.22,2.22,0,0,0-.25-.35,3.05,3.05,0,0,0-.31-.29l-.16-.11-.17-.09a.9.9,0,0,0-.21-.08h0l-.17,0-.42-.07H267l0,0-.22,0-.38,0h-.08l-.35,0a.58.58,0,0,0-.19,0,.83.83,0,0,0-.21.06,1.38,1.38,0,0,0-.39.23l-.16.16,0,.05,0,0,0,0-.16.1a1.31,1.31,0,0,0-.12.11.52.52,0,0,0-.1.11l-.1.16a1.51,1.51,0,0,0-.11.22c0,.05,0,.11-.05.17h0a2.41,2.41,0,0,0-.08.42c0,.06,0,.12,0,.2v.2a3,3,0,0,0,.05.43,1.33,1.33,0,0,0,.05.19.56.56,0,0,0,0,.12.36.36,0,0,0,0,.09,1,1,0,0,0,0,.1.22.22,0,0,1,.05.08l0,0a1,1,0,0,0,.12.15l.22.24,0,0,.15.15,0,0,.13.12a2.51,2.51,0,0,0,.33.23l.21.12.19.08.18.06.24.06.39,0h.18l.26,0a1.85,1.85,0,0,0,.39-.06l.22-.07.18-.09a3.53,3.53,0,0,0,.35-.24h0l.15-.13.14-.15v0l.13-.14.1-.14,0,0a1.61,1.61,0,0,0,.18-.38,1.59,1.59,0,0,0,.07-.2c0-.06,0-.13.05-.21v0a1.1,1.1,0,0,0,0-.18,1.41,1.41,0,0,0,0-.2A3.47,3.47,0,0,0,269.05,140.43Z"/><path class="cls-5" d="M287.48,142.74a1.3,1.3,0,0,0-.09-.42l-.18-.36a2.41,2.41,0,0,0-.25-.35,1.76,1.76,0,0,0-.31-.29l-.16-.11-.17-.1-.21-.08h0l-.17-.05-.42-.07h-.15l-.22,0a2.43,2.43,0,0,0-.38,0h-.08l-.35,0-.19,0a1.29,1.29,0,0,0-.21.06,1.11,1.11,0,0,0-.39.24l-.16.15,0,.06h0l0,0-.16.11a.58.58,0,0,0-.12.1.52.52,0,0,0-.1.11,1.28,1.28,0,0,0-.1.17,1.39,1.39,0,0,0-.11.21,1.09,1.09,0,0,0-.05.17v0a2.29,2.29,0,0,0-.08.41c0,.06,0,.12,0,.2v.2a2.68,2.68,0,0,0,.05.43,1.46,1.46,0,0,0,.05.2.36.36,0,0,0,0,.11.42.42,0,0,0,0,.1l0,.09a.35.35,0,0,1,.05.08l0,0,.12.15.22.24,0,0,.15.14,0,0a.69.69,0,0,0,.13.11,2.69,2.69,0,0,0,.33.24l.21.11.19.08.18.07.24.05.39,0h.44l.39-.06a1,1,0,0,0,.22-.08l.18-.09a3.53,3.53,0,0,0,.35-.24h0l.15-.14a1,1,0,0,0,.14-.15h0l.13-.15.1-.14,0,0a2.46,2.46,0,0,0,.18-.37c0-.07,0-.14.07-.2a1.43,1.43,0,0,0,0-.22v0a.88.88,0,0,0,0-.17,1.55,1.55,0,0,0,0-.21A3.24,3.24,0,0,0,287.48,142.74Z"/><path class="cls-5" d="M276.73,150.42a1.63,1.63,0,0,0-.09-.42,4,4,0,0,0-.18-.36,2.41,2.41,0,0,0-.25-.35,1.76,1.76,0,0,0-.31-.29.66.66,0,0,0-.16-.11l-.17-.1-.21-.08h0l-.17-.05-.42-.07h-.15l-.22,0-.38,0h-.08l-.35,0-.19,0a1.05,1.05,0,0,0-.21.06,1.11,1.11,0,0,0-.39.24.75.75,0,0,0-.16.15l0,.06h0l0,0-.16.11-.13.1-.09.11a1.28,1.28,0,0,0-.1.17,1,1,0,0,0-.11.21.84.84,0,0,0-.05.17v0a2.29,2.29,0,0,0-.08.41c0,.06,0,.12,0,.2v.2a2.68,2.68,0,0,0,.05.43,1.46,1.46,0,0,0,.05.2l0,.11a.42.42,0,0,1,0,.1.41.41,0,0,1,.05.09.35.35,0,0,1,.05.08l0,0,.12.14a2.62,2.62,0,0,0,.22.25l0,0,.15.15,0,0a.69.69,0,0,0,.13.11,2.69,2.69,0,0,0,.33.24l.21.11.19.08.18.06.24.06a2.13,2.13,0,0,0,.39,0h.44a1.89,1.89,0,0,0,.39-.07.94.94,0,0,0,.22-.07l.18-.09a3.53,3.53,0,0,0,.35-.24h0l.15-.14.14-.15h0l.13-.15.1-.14,0,0a2.13,2.13,0,0,0,.18-.38,1.18,1.18,0,0,0,.07-.2,1.12,1.12,0,0,0,0-.21v0a.88.88,0,0,0,0-.17c0-.08,0-.15,0-.21A3.24,3.24,0,0,0,276.73,150.42Z"/><path class="cls-5" d="M276.73,150.42a1.63,1.63,0,0,0-.09-.42,4,4,0,0,0-.18-.36,2.41,2.41,0,0,0-.25-.35,1.76,1.76,0,0,0-.31-.29.66.66,0,0,0-.16-.11l-.17-.1-.21-.08h0l-.17-.05-.42-.07h-.15l-.22,0-.38,0h-.08l-.35,0-.19,0a1.05,1.05,0,0,0-.21.06,1.11,1.11,0,0,0-.39.24.75.75,0,0,0-.16.15l0,.06h0l0,0-.16.11-.13.1-.09.11a1.28,1.28,0,0,0-.1.17,1,1,0,0,0-.11.21.84.84,0,0,0-.05.17v0a2.29,2.29,0,0,0-.08.41c0,.06,0,.12,0,.2v.2a2.68,2.68,0,0,0,.05.43,1.46,1.46,0,0,0,.05.2l0,.11a.42.42,0,0,1,0,.1.41.41,0,0,1,.05.09.35.35,0,0,1,.05.08l0,0,.12.14a2.62,2.62,0,0,0,.22.25l0,0,.15.15,0,0a.69.69,0,0,0,.13.11,2.69,2.69,0,0,0,.33.24l.21.11.19.08.18.06.24.06a2.13,2.13,0,0,0,.39,0h.44a1.89,1.89,0,0,0,.39-.07.94.94,0,0,0,.22-.07l.18-.09a3.53,3.53,0,0,0,.35-.24h0l.15-.14.14-.15h0l.13-.15.1-.14,0,0a2.13,2.13,0,0,0,.18-.38,1.18,1.18,0,0,0,.07-.2,1.12,1.12,0,0,0,0-.21v0a.88.88,0,0,0,0-.17c0-.08,0-.15,0-.21A3.24,3.24,0,0,0,276.73,150.42Z"/><path class="cls-5" d="M281.32,97.87a3,3,0,0,0-.18-.8,6.33,6.33,0,0,0-.34-.7,4.28,4.28,0,0,0-.49-.67,4.2,4.2,0,0,0-.6-.56,2.06,2.06,0,0,0-.29-.21c-.11-.07-.23-.12-.34-.18a2,2,0,0,0-.4-.16h0l-.33-.08a6.21,6.21,0,0,0-.8-.14l-.21,0-.1,0-.42-.08a4.28,4.28,0,0,0-.72-.07h-.15c-.23,0-.46,0-.68,0l-.37,0a2.64,2.64,0,0,0-.4.12,2.17,2.17,0,0,0-.74.45,2.94,2.94,0,0,0-.31.3.76.76,0,0,0-.08.11l0,0-.06,0a2.4,2.4,0,0,0-.31.21,1.5,1.5,0,0,0-.24.2,2,2,0,0,0-.18.21,4,4,0,0,0-.4.73A3,3,0,0,0,272,97v0a5.51,5.51,0,0,0-.16.79c0,.11,0,.23,0,.38s0,.24,0,.35v0a6.88,6.88,0,0,0,.08.83c0,.12.06.24.1.37s0,.15.07.22,0,.13.08.19l.09.17c0,.06.07.11.1.16l0,.05a3.15,3.15,0,0,0,.22.29l.42.46.09.09.28.29.05,0,.26.23a4.06,4.06,0,0,0,.63.44l.41.23.35.15.36.12c.16.05.32.08.45.11a5.39,5.39,0,0,0,.75.08H277l.5,0a4.24,4.24,0,0,0,.77-.12c.12,0,.28-.08.42-.14a2.79,2.79,0,0,0,.34-.18,5.22,5.22,0,0,0,.67-.46h0a3.47,3.47,0,0,0,.29-.25l.27-.3,0,0a3.22,3.22,0,0,0,.24-.28l.2-.27,0,0a3.22,3.22,0,0,0,.36-.72c.05-.13.09-.26.13-.39s.06-.25.09-.4v0a2,2,0,0,0,0-.34c0-.14,0-.27,0-.39A8.34,8.34,0,0,0,281.32,97.87Z"/><path class="cls-5" d="M156.62,106.65a3,3,0,0,0-.18-.8,4.07,4.07,0,0,0-.34-.7,4.34,4.34,0,0,0-.48-.68,4.16,4.16,0,0,0-.6-.55l-.3-.22-.33-.18-.4-.15h0l-.34-.09a8.06,8.06,0,0,0-.8-.14l-.21,0-.09,0c-.14,0-.28-.06-.42-.09a5.85,5.85,0,0,0-.72-.07h-.16l-.68,0a2.25,2.25,0,0,0-.36.06,2.75,2.75,0,0,0-.41.11,2.48,2.48,0,0,0-.74.46,2.2,2.2,0,0,0-.31.3l-.08.1,0,0-.06,0-.31.2-.24.2-.18.22c-.06.08-.12.18-.2.31s-.14.27-.2.41-.07.22-.1.33v0a3.65,3.65,0,0,0-.16.8,2.09,2.09,0,0,0,0,.38c0,.11,0,.23,0,.35v0a4.52,4.52,0,0,0,.08.84,2.83,2.83,0,0,0,.09.37,2,2,0,0,0,.08.22,1.42,1.42,0,0,0,.08.18l.09.18.1.15,0,0a2.21,2.21,0,0,0,.22.29c.14.16.28.31.43.46l.08.1a3.62,3.62,0,0,0,.29.28l.05,0,.25.22a7.12,7.12,0,0,0,.63.45l.42.22a3.05,3.05,0,0,0,.35.15c.13.06.25.09.36.13l.45.1a7,7,0,0,0,.75.09h.34a4.07,4.07,0,0,0,.5,0,4.13,4.13,0,0,0,.76-.12,1.88,1.88,0,0,0,.42-.14l.35-.17a5.1,5.1,0,0,0,.66-.47h0l.28-.26.28-.29,0,0,.24-.28a2.61,2.61,0,0,0,.19-.27l0,0a3.22,3.22,0,0,0,.36-.72,3.3,3.3,0,0,0,.12-.38,2.26,2.26,0,0,0,.09-.41v0c0-.12,0-.23,0-.35s0-.27,0-.39A8.15,8.15,0,0,0,156.62,106.65Z"/><path class="cls-4" d="M228.85,22.23c-5.81,1-7.71,10.4-6.81,15.24a33.32,33.32,0,0,0,3.57,8.88c.28.54,1.87,2.5,1.81,3.07-.08.88-3.26,2.65-4,3.11-6.07,3.83-12.7,3-18-1.78-.55-.49-2.27-1.77-2.29-2.49,0-.48,1.84-3,2.13-3.49a24.57,24.57,0,0,0,2.81-8.34c.76-5.34.24-15.62-7.94-13.37-6.44,1.77-6.92,10.79-5.8,16.11.53,2.47,2.85,5.17,3.1,7.47.17,1.47.2,1.34-1.86,2.28a11.08,11.08,0,0,1-5.51.9c-6-.28-11.42-2.9-13.58-8.76-1-2.86-1-6-2-8.87-.49-1.42-1.07-3-3-2.13s-.83,3.54-.54,5.06c1.37,7.08,3.47,13.31,10.25,16.82a21.61,21.61,0,0,0,8.66,1.88,17.13,17.13,0,0,0,4.52-.25c1.8-.39,3.29-1.91,5-2.27s1.25.08,2.71,1.52a25,25,0,0,0,4.33,3.41,16.76,16.76,0,0,0,10.21,2.62,19.91,19.91,0,0,0,7.67-2.38c1.45-.84,2.7-2.18,4.17-2.94.3-.16.86-1,1.18-1,.14,0,2.27,2.36,2.26,2.35,4.28,3.92,11,6.93,16.76,4.95,6.08-2.08,9.23-8.83,11.05-14.5.73-2.25,5.24-17,.85-17.36-3-.22-2.29,8.13-2.67,10.1A42,42,0,0,1,254,49.77C250,57,243.67,58.47,236.78,54c-1.12-.73-3-2-3.66-3.18-1-1.81-.08-1.93,1.11-3.94a29.32,29.32,0,0,0,3.65-9.19c1.22-6.24.13-17.05-9-15.47Zm2,3.69c8.34,2.13,2,16.42-.86,20.61-2.1-3.47-4.62-8.07-4.36-12.22.17-2.86,1.25-9,5.22-8.39Zm-28.28.82c3.45,1,1.8,8.25,1.44,10.63a34,34,0,0,1-3.24,7.37c-1.79-3.12-6.53-19.2,1.8-18Zm2.73,23.87Z"/></g></g></svg>