<svg xmlns="http://www.w3.org/2000/svg" viewBox="0 0 438.68 432"><defs><style>.cls-1{fill:#e8ac3d;}.cls-2{fill:#fdc7bc;}.cls-3{fill:#d89279;}.cls-4{fill:#2c3e50;}</style></defs><title>Asset 5</title><g id="Layer_2" data-name="Layer 2"><g id="Layer_1-2" data-name="Layer 1"><path class="cls-1" d="M26.38,123.37a.4.4,0,0,0,.29.18h0l.22.09.25.12.25.11c.27.13.55.24.83.35s.56.21.85.3c1.28.4,2.58.75,3.83,1.22a47.64,47.64,0,0,1,6.49,3.09l0,0c.59.36,1.19.7,1.81,1l1.4.71,1.41.67,1,.43,1,.43,1,.43,1.43.66.48.23.47.23c.47.23.94.47,1.4.72.3.16.61.34.91.52l1.8,1.1.45.27.45.26c.61.35,1.22.69,1.85,1,.93.49,1.87,1,2.82,1.43l.95.46,1.91.91,1.91.9,1,.45c1.58.76,3.16,1.54,4.71,2.37,2.18,1.19,4.34,2.42,6.48,3.67l.92.54,1.83,1.09,1.83,1.09.91.54,2.74,1.64.91.54,2.73,1.59,1.83,1c.61.35,1.22.7,1.84,1l1.84,1,.93.51c.62.33,1.24.67,1.86,1,.93.5,1.87,1,2.81,1.46s2,1,3,1.55l3.68,2q2.58,1.41,5.17,2.81l1.43.78a.48.48,0,0,0,.29.18h0l.22.1.25.12.25.12.81.36c.28.12.55.23.84.33,1.25.45,2.51.87,3.74,1.37a67.58,67.58,0,0,1,6.46,3.15l0,0c.6.35,1.21.69,1.82,1,.93.49,1.86,1,2.81,1.4l.94.45.95.44,1,.45,1.42.68.94.46,1.4.72c1.23.67,2.42,1.42,3.64,2.11l1.85,1c.94.5,1.88,1,2.82,1.44l2.84,1.4,2.85,1.38c1.58.78,3.15,1.57,4.7,2.4,3.13,1.68,6.22,3.43,9.29,5.19l5.54,3.18.92.52c.91.53,1.83,1.05,2.75,1.56l1.84,1,1.85,1,2.78,1.5,1.87,1,2.81,1.46,3,1.55c1.23.65,2.46,1.3,3.68,2l2.53-4.36.44.42,2.5,2.44,3.09,3.06,7.72-4.36.24.37q1.22,1.89,2.41,3.8l7.05-4.15-.15-.25c-.93-1.66-2-3.26-3-4.85l-.79-1.2-.62-.93c-.81-1.25-1.62-2.51-2.41-3.78s-1.58-2.55-2.36-3.83q-1.46-2.4-2.89-4.81L204,184.7c-1.17-1.95-2.33-3.89-3.48-5.85q-2.88-4.89-5.68-9.82c-.56-1-1.11-2-1.66-3q-1.1-2-2.14-4l-.52-1c-.35-.67-.69-1.34-1-2l-.52-1c-.86-1.68-1.74-3.35-2.67-5-.52-.93-1.07-1.85-1.62-2.76-.1-.15-.19-.3-.28-.45s-.38-.6-.56-.91c-.48-.75-.95-1.5-1.42-2.26l-.56-.9c-.76-1.24-1.51-2.49-2.27-3.74-.37-.62-.75-1.24-1.12-1.87l-1.12-1.88-1-1.78a1,1,0,0,0-.08-.11q-1.12-1.86-2.36-3.66l-.63-.89-.31-.45c-.53-.74-1.06-1.48-1.53-2.26-.09-.14-.18-.28-.26-.43l-.24-.43c-.48-.87-.9-1.76-1.39-2.62s-.84-1.43-1.28-2.13a.48.48,0,0,0-.09-.27q-.75-1.22-1.44-2.46l-.47-.83-1.35-2.51c-.15-.28-.3-.56-.46-.84a1.19,1.19,0,0,0-.08-.16c-.05-.09-.1-.17-.14-.26-.93-1.66-2-3.25-3-4.82l-.81-1.18-.64-.92c-.63-.93-1.26-1.86-1.87-2.8l-.61-1-.6-.94c-.6-1-1.2-1.91-1.78-2.86q-1.47-2.4-2.91-4.8L150.74,95c-.79-1.29-1.56-2.59-2.34-3.89l-1.15-2-1.15-2q-2.28-3.92-4.49-7.89c-.55-1-1.09-2-1.62-3-.71-1.33-1.41-2.66-2.08-4-.17-.33-.33-.67-.5-1-.33-.68-.66-1.37-1-2l-.5-1c-.49-1-1-2-1.52-3-.34-.67-.7-1.34-1.06-2l-.26-.46c-.44-.78-.9-1.54-1.37-2.29l-.28-.45-.57-.9-1.44-2.25-.57-.9q-1.16-1.86-2.28-3.73c-.38-.62-.76-1.24-1.13-1.87s-.75-1.25-1.12-1.87l-1.06-1.79a.39.39,0,0,0-.08-.1c-.75-1.24-1.56-2.45-2.41-3.63l-.65-.88-.33-.44c-.56-.73-1.11-1.46-1.59-2.23L118,39l-.24-.44c-.46-.87-.86-1.78-1.34-2.65s-.85-1.42-1.29-2.13a.46.46,0,0,0-.07-.27c-1.35-2.16-2.49-4.42-3.67-6.67l-.08-.16-14.1,8.29c1.11,1.81,2.22,3.61,3.32,5.42l.93,1.5a.49.49,0,0,0,.17.33h0v0l.16.2.17.24.17.25c.19.26.38.52.58.77s.41.5.63.74c1,1.07,2,2.11,2.88,3.22A59,59,0,0,1,110.62,54a.08.08,0,0,0,0,0c.36.66.75,1.3,1.15,1.93.3.48.61,1,.93,1.42s.64.93,1,1.39c.22.3.43.61.65.92l.67.91.66.92c.33.46.66.92,1,1.39l.32.46.32.47c.32.47.63.95.92,1.43.21.32.4.64.59,1,.38.66.74,1.32,1.11,2l.28.5.28.49c.39.65.79,1.3,1.19,1.94.61,1,1.24,1.91,1.88,2.85l.65.94c.43.63.86,1.25,1.3,1.87l1.3,1.88.65.93c1.08,1.57,2.14,3.14,3.14,4.75,1.42,2.28,2.79,4.58,4.14,6.9.2.33.39.66.58,1,.39.66.77,1.33,1.15,2l1.14,2,.57,1c.57,1,1.14,2,1.72,3l.57,1c.56,1,1.14,2,1.72,2.95l1.16,2,1.17,2c.39.65.79,1.29,1.19,1.94l.6,1L147.5,113l1.86,2.87c.66,1,1.32,2,2,3l2.4,3.81,3.35,5.4.93,1.5a.61.61,0,0,0,.18.32l0,0h0l.15.21.17.24.17.25q.27.39.57.78c.19.25.39.51.59.75.92,1.11,1.86,2.18,2.73,3.32A77,77,0,0,1,167,141.9s0,0,0,0q.57,1,1.17,1.92c.61.95,1.24,1.89,1.88,2.82l.64.92.65.93c.22.31.43.62.65.92l1,1.4c.22.32.43.63.63.94.32.47.63,1,.93,1.43.8,1.28,1.52,2.61,2.31,3.91.39.65.79,1.29,1.2,1.93.61,1,1.24,1.91,1.87,2.86s1.27,1.89,1.91,2.83l1.92,2.83c1.06,1.57,2.11,3.15,3.12,4.76,2,3.25,4,6.53,6,9.82q1.75,3,3.52,5.93l.58,1,1.76,2.93,1.18,1.94,1.2,1.94,1.81,2.9c.4.64.81,1.28,1.22,1.92s.77,1.2,1.16,1.8l-.94-.89-1-1-.82-.76c-1.08-1-2.14-2-3.2-3.07s-2.09-2.07-3.13-3.12l-3.85-3.93-1.54-1.58c-1.56-1.59-3.1-3.18-4.64-4.78q-3.84-4-7.6-8.07l-2.23-2.45q-1.47-1.63-2.9-3.3l-.71-.84-1.42-1.68-.71-.85c-1.18-1.4-2.38-2.79-3.63-4.15-.7-.77-1.43-1.52-2.17-2.26l-.37-.37-.75-.74-1.87-1.84-.74-.74q-1.51-1.51-3-3.05l-1.5-1.53L154.94,150l-1.41-1.46a.81.81,0,0,0-.1-.09c-1-1-2-2-3.1-3l-.81-.71-.41-.36c-.68-.59-1.36-1.18-2-1.81l-.34-.35-.33-.36c-.64-.72-1.24-1.47-1.9-2.19s-1.12-1.16-1.7-1.74a.44.44,0,0,0-.14-.23c-.66-.66-1.3-1.34-1.93-2l-.63-.69L138.3,133c-.2-.23-.41-.46-.61-.7l-.12-.13-.2-.21a54.68,54.68,0,0,0-4-3.92l-1-.94-.83-.74q-1.23-1.11-2.43-2.25l-.79-.76-.79-.76c-.79-.77-1.58-1.55-2.35-2.33-1.3-1.3-2.58-2.61-3.86-3.92-.52-.52-1-1.05-1.54-1.57-1-1-2.08-2.12-3.1-3.18l-1.55-1.6-1.53-1.61q-3.06-3.22-6-6.5l-2.22-2.48q-1.46-1.66-2.87-3.36l-.71-.86c-.46-.58-.93-1.15-1.4-1.73-.23-.29-.46-.58-.7-.86-.7-.87-1.4-1.72-2.13-2.57-.48-.56-1-1.12-1.46-1.67l-.36-.38c-.59-.64-1.2-1.26-1.82-1.88l-.37-.36L92.72,85l-1.88-1.82-.75-.73q-1.52-1.52-3-3l-1.5-1.52L84.08,76.3l-1.42-1.46a.32.32,0,0,0-.09-.08c-1-1-2-2-3.13-2.92-.27-.23-.54-.46-.82-.68l-.41-.35a25.83,25.83,0,0,1-2-1.76l-.34-.35-.32-.36c-.64-.73-1.23-1.51-1.89-2.23S72.53,65,72,64.38a.45.45,0,0,0-.14-.25c-1.76-1.75-3.37-3.66-5-5.54l-.12-.14L55.49,70l4.3,4.38L61,75.56a.45.45,0,0,0,.24.27l0,0h0l.19.15.22.19.21.2.71.59c.25.2.49.38.75.56,1.14.79,2.31,1.54,3.41,2.39a55.11,55.11,0,0,1,5.54,5l0,0c.49.54,1,1.06,1.51,1.57s.78.76,1.18,1.13l1.21,1.1.82.72.83.72.82.72,1.23,1.09.4.37.4.37c.4.37.8.75,1.18,1.14s.52.52.76.79c.5.54,1,1.09,1.48,1.63l.37.41c.12.13.25.26.37.4.51.53,1,1,1.54,1.56.79.78,1.59,1.53,2.39,2.28l.82.75,1.63,1.48,1.64,1.48.81.74c1.36,1.24,2.7,2.49,4,3.79,1.83,1.83,3.62,3.71,5.39,5.6l.76.81,1.5,1.63c.51.54,1,1.08,1.51,1.63l.75.81,2.25,2.45.74.81,2.25,2.4c.5.54,1,1.07,1.51,1.6l1.52,1.58,1.54,1.57.77.78,1.56,1.55c.78.77,1.57,1.54,2.37,2.3s1.68,1.62,2.51,2.44q1.55,1.53,3.08,3.07l4.31,4.35,1.2,1.21a.52.52,0,0,0,.23.26h0v0l.18.15.22.2.21.19.71.62.74.58c1.12.84,2.26,1.65,3.35,2.53a70.32,70.32,0,0,1,5.51,5.1l0,0c.49.53,1,1,1.51,1.55.78.77,1.58,1.51,2.39,2.25l.81.73.82.73.82.73,1.22,1.11.8.75c.4.38.8.76,1.18,1.15,1,1,2,2.12,3,3.17.51.53,1,1.05,1.55,1.56.78.77,1.58,1.53,2.38,2.29l2.44,2.25,2.44,2.25c1.35,1.26,2.69,2.52,4,3.81,2.62,2.62,5.16,5.28,7.69,8,1.51,1.6,3,3.21,4.54,4.81l.75.79L185,195.8l.68.7-.78-.41c-1.22-.66-2.43-1.33-3.64-2-1.52-.84-3-1.7-4.53-2.55l-1.81-1c-1.83-1-3.66-2.08-5.47-3.13q-4.56-2.62-9.05-5.34c-.9-.54-1.79-1.09-2.68-1.64-1.19-.74-2.37-1.49-3.53-2.25l-.88-.58-1.74-1.17-.88-.58c-1.45-1-2.91-1.93-4.41-2.84-.84-.52-1.7-1-2.57-1.48l-.43-.24-.87-.47-2.17-1.18-.86-.47-3.54-2-1.76-1-1.75-1-1.67-1-.11-.05c-1.17-.66-2.37-1.28-3.58-1.86l-.92-.43-.46-.21c-.76-.35-1.53-.7-2.27-1.11l-.4-.23-.39-.24c-.78-.49-1.52-1-2.31-1.5s-1.33-.76-2-1.13a.55.55,0,0,0-.19-.18c-.77-.42-1.53-.87-2.29-1.33l-.75-.46-2.23-1.41-.74-.48-.15-.09-.23-.14a50.65,50.65,0,0,0-4.65-2.5l-1.2-.57-.94-.44c-.93-.46-1.86-.92-2.79-1.4l-.92-.48-.92-.48L97.49,146,93,143.44l-1.81-1-3.66-2.08-1.82-1-1.82-1.06c-2.41-1.42-4.82-2.86-7.2-4.33-.89-.55-1.78-1.11-2.66-1.68-1.18-.75-2.34-1.52-3.49-2.32q-.44-.28-.87-.6l-1.71-1.21-.86-.61-2.6-1.79c-.58-.38-1.17-.76-1.77-1.13l-.42-.26c-.7-.43-1.42-.83-2.14-1.22l-.44-.24-.87-.46-2.19-1.15-.87-.47c-1.18-.64-2.36-1.3-3.54-2-.59-.32-1.18-.66-1.76-1s-1.18-.66-1.76-1l-1.67-1-.11,0c-1.17-.66-2.38-1.26-3.61-1.81l-.93-.4-.47-.2c-.78-.33-1.56-.66-2.3-1.06-.14-.07-.27-.15-.4-.23l-.39-.24c-.77-.5-1.51-1.06-2.29-1.54s-1.33-.77-2-1.13a.49.49,0,0,0-.18-.2c-2.07-1.11-4-2.44-6-3.73l-.15-.09L19.8,119.74,25,122.58C25.43,122.84,25.91,123.1,26.38,123.37ZM249.5,163.74c.23-.92.45-1.85.69-2.77s.44-1.74.66-2.61c.14-.59.27-1.17.41-1.75.2-.88.4-1.75.59-2.63.12-.58.25-1.17.37-1.75l.36-1.76c.17-.88.35-1.76.51-2.64.06-.29.12-.58.17-.88l1-5.33c.55-3,1.13-5.93,1.8-8.87.34-1.46.73-2.9,1.14-4.35l.75-2.59c.25-.86.5-1.73.74-2.59s.47-1.74.68-2.61c.14-.58.27-1.17.39-1.75.23-1.17.37-2.35.64-3.52.1-.43.21-.87.33-1.3s.15-.57.24-.86.25-.86.39-1.28l.26-.86.27-.85c.09-.28.18-.57.26-.85.26-.86.51-1.71.71-2.58.14-.57.26-1.15.36-1.73v0a38.71,38.71,0,0,1,1.7-5.89c.42-1.06.95-2.08,1.43-3.13.11-.23.21-.47.3-.71s.17-.48.24-.72a2,2,0,0,0,.07-.23l.07-.22c0-.07.05-.13.07-.19v0l0,0a.28.28,0,0,0,0-.28c.11-.45.21-.91.31-1.36.36-1.63.71-3.26,1.07-4.88.26-1.16.52-2.31.8-3.46.22-.93.45-1.85.69-2.77s.45-1.75.66-2.62c.14-.58.27-1.16.4-1.75.06-.29.13-.58.19-.87.13-.59.25-1.17.37-1.76s.23-1.17.34-1.76.23-1.17.33-1.76c.16-.88.31-1.77.46-2.65.05-.3.1-.59.14-.89.15-.89.29-1.78.43-2.67l.15-.9c.09-.59.19-1.19.28-1.78l.3-1.79.15-.89c.36-2.08.75-4.16,1.21-6.22.33-1.46.74-2.9,1.17-4.34.09-.28.18-.57.26-.86l.54-1.72c.18-.58.36-1.15.53-1.73.08-.28.17-.57.25-.86.25-.86.49-1.73.69-2.6.14-.59.27-1.17.38-1.76,0-.14.05-.29.07-.44s.05-.29.07-.44c.08-.59.16-1.18.25-1.77.05-.29.11-.59.17-.88s.21-.87.33-1.3l.12-.43c.05-.14.09-.28.14-.42.13-.43.27-.86.41-1.28s.19-.57.29-.85.19-.57.29-.85l.28-.85c.14-.43.27-.85.4-1.28s.24-.86.34-1.29c.13-.58.25-1.16.33-1.74v0a28.93,28.93,0,0,1,1.78-5.87c.47-1.05,1.1-2.06,1.65-3.09a6.59,6.59,0,0,0,.34-.71c.1-.23.19-.47.27-.71,0-.08.05-.15.07-.23l.08-.23.07-.18v0l0,0a.23.23,0,0,0,0-.28c.1-.46.19-.91.29-1.36.35-1.63.68-3.27,1-4.9l-20.5-3.69c0,.05,0,.1,0,.15a49.25,49.25,0,0,1-.78,5.94.25.25,0,0,0,.06.23c-.15.64-.3,1.27-.39,1.92s-.09,1.56-.18,2.34c0,.13,0,.26-.05.39s0,.25-.07.38a14.14,14.14,0,0,1-.67,2.06c0,.14-.1.27-.16.41s-.2.54-.29.81a27.81,27.81,0,0,0-.91,3.33.25.25,0,0,0,0,.09c-.09.54-.19,1.07-.29,1.61s-.21,1.12-.32,1.69-.23,1.12-.34,1.68c-.23,1.13-.46,2.25-.71,3.37-.06.27-.12.55-.19.82-.16.68-.33,1.36-.49,2-.07.27-.13.55-.19.82s-.07.27-.1.41c-.15.68-.28,1.37-.39,2.06l-.06.42c-.08.59-.14,1.18-.19,1.77-.08.9-.13,1.79-.18,2.69,0,.3,0,.6,0,.9,0,.59-.05,1.19-.08,1.79,0,.3,0,.6-.05.9-.08,1.19-.19,2.37-.32,3.55-.1.89-.21,1.77-.33,2.66q-.5,3.54-1.1,7.06c-.1.58-.21,1.17-.31,1.76s-.21,1.17-.32,1.75c-.22,1.17-.45,2.34-.68,3.51-.12.58-.23,1.16-.34,1.73-.29,1.45-.57,2.89-.88,4.34-.18.86-.37,1.73-.57,2.59l-.21.86-.21.86c-.22.86-.46,1.71-.71,2.56-.09.28-.17.57-.26.85L254.18,80a28.63,28.63,0,0,0-1,4.38l0,.23s0,.09,0,.14l-.09.74c-.08.75-.17,1.49-.27,2.24,0,.24-.06.49-.1.74-.11.74-.24,1.48-.39,2.21a.31.31,0,0,0,0,.23c-.14.64-.28,1.27-.37,1.92s-.15,1.55-.25,2.33c0,.13,0,.25-.05.38s0,.26-.08.39A19.4,19.4,0,0,1,251,98l-.14.41c-.09.27-.17.55-.26.82-.32,1.1-.6,2.22-.82,3.34a.36.36,0,0,0,0,.09c-.09.54-.19,1.08-.29,1.61s-.21,1.13-.32,1.69l-.33,1.69c-.22,1.12-.45,2.25-.68,3.37l-.18.82c-.15.69-.31,1.37-.46,2l-.18.82-.09.41c-.17.82-.33,1.65-.45,2.48-.22,1.47-.36,3-.49,4.44,0,.3-.05.59-.07.89l-.15,1.78c0,.3-.05.6-.08.89-.12,1.19-.26,2.37-.41,3.54-.12.89-.25,1.77-.38,2.65q-.68,4.41-1.48,8.81c-.32,1.75-.65,3.51-1,5.26-.11.58-.22,1.16-.34,1.74-.28,1.44-.56,2.89-.85,4.33-.23,1.16-.48,2.31-.74,3.46s-.53,2.3-.83,3.44c-.07.29-.15.57-.23.85s-.19.73-.28,1.09a41.32,41.32,0,0,0-.94,4.39l0,.23,10.25,1.85C249,166,249.22,164.89,249.5,163.74ZM156,15.88a.29.29,0,0,0,.05.28l0,0h0a1.42,1.42,0,0,1,.08.18c0,.08.06.15.08.22s.06.15.08.22c.09.24.19.47.29.7s.22.46.35.68c.56,1,1.18,2,1.67,3a32.41,32.41,0,0,1,2,5.72s0,0,0,0c.11.57.26,1.14.42,1.7s.26.84.4,1.26.29.83.44,1.25c.11.27.21.55.31.82s.22.55.32.83l.32.83c.16.41.31.83.46,1.24l.15.42c.05.14.09.28.14.42.14.42.27.84.39,1.27s.15.57.21.86c.13.57.24,1.15.36,1.73,0,.14.06.29.1.43s.06.29.1.43c.14.58.29,1.15.46,1.72.24.85.52,1.7.8,2.54l.29.84c.2.56.39,1.12.6,1.68l.6,1.68c.09.28.19.56.29.84.49,1.4,1,2.81,1.36,4.23.56,2,1.06,4.05,1.54,6.08.07.29.13.58.2.88.13.58.27,1.16.4,1.74l.39,1.75c.06.29.13.58.19.87.2.88.39,1.75.59,2.63.06.29.13.57.19.86.2.87.4,1.73.61,2.59l.42,1.73c.14.57.29,1.14.44,1.72s.3,1.14.46,1.71c.07.29.15.57.23.86.16.57.32,1.14.49,1.71.25.85.51,1.7.77,2.55s.56,1.8.82,2.71c.33,1.12.65,2.25,1,3.37.44,1.59.87,3.19,1.31,4.78.13.44.25.88.37,1.32a.36.36,0,0,0,.06.28v0l.07.18c0,.07,0,.15.08.22s.05.15.08.22c.08.24.17.47.27.7s.2.47.31.69c.5,1,1,2,1.49,3a43.85,43.85,0,0,1,1.93,5.73.08.08,0,0,1,0,0c.13.57.28,1.14.44,1.7.25.84.53,1.68.82,2.51l.3.83.3.83.3.83.43,1.26c.1.28.19.56.28.84s.27.84.39,1.26c.32,1.14.54,2.3.83,3.44q.23.87.48,1.71c.25.86.51,1.7.79,2.55s.56,1.69.85,2.53.57,1.68.85,2.53c.47,1.4.93,2.81,1.33,4.24.82,2.87,1.55,5.77,2.26,8.67.43,1.74.85,3.48,1.28,5.21.08.29.15.58.22.87.21.86.43,1.72.65,2.58l.45,1.71c.16.58.31,1.15.47,1.72.23.85.47,1.71.71,2.56.17.57.33,1.14.5,1.71.25.85.51,1.7.77,2.55s.55,1.81.82,2.71c.33,1.12.66,2.25,1,3.37l8.72-2.09c0-.08,0-.15,0-.23-.32-1.45-.72-2.87-1.16-4.29l-.34-1.06c-.09-.28-.18-.56-.26-.83q-.53-1.68-1-3.36c-.32-1.12-.62-2.25-.92-3.38-.37-1.41-.72-2.83-1.08-4.24-.14-.57-.29-1.13-.43-1.7q-.65-2.57-1.28-5.15-1-4.29-2-8.62c-.19-.86-.37-1.72-.54-2.59-.23-1.15-.44-2.31-.63-3.47l-.15-.87-.27-1.75c0-.29-.09-.58-.13-.87-.23-1.46-.47-2.91-.78-4.35-.17-.82-.37-1.62-.58-2.43,0-.13-.08-.26-.11-.4s-.15-.53-.22-.8c-.19-.67-.38-1.33-.56-2-.08-.27-.15-.53-.22-.8-.3-1.1-.58-2.2-.86-3.3l-.42-1.65c-.14-.55-.27-1.1-.41-1.65s-.26-1-.38-1.57a.3.3,0,0,0,0-.1c-.28-1.09-.61-2.18-1-3.25-.09-.27-.19-.54-.29-.8l-.15-.41a20,20,0,0,1-.68-2l-.09-.37c0-.13-.06-.25-.08-.38-.15-.76-.24-1.53-.4-2.28s-.3-1.26-.47-1.88a.41.41,0,0,0,0-.22c-.2-.72-.36-1.44-.52-2.17l-.15-.72c-.14-.73-.27-1.46-.41-2.19,0-.24-.09-.49-.13-.73l0-.14c0-.08,0-.15,0-.23a33.5,33.5,0,0,0-1.22-4.27c-.12-.35-.24-.71-.37-1.06s-.19-.55-.29-.82c-.28-.83-.55-1.67-.81-2.5-.09-.28-.17-.56-.26-.84l-.24-.84c-.25-.84-.48-1.69-.71-2.53-.38-1.41-.74-2.83-1.1-4.24l-.43-1.69c-.3-1.15-.58-2.29-.87-3.43l-.42-1.72c-.13-.58-.27-1.15-.4-1.72-.54-2.3-1-4.6-1.51-6.92-.18-.86-.35-1.73-.5-2.59-.21-1.16-.4-2.32-.56-3.49,0-.3-.08-.59-.11-.88-.08-.59-.15-1.18-.22-1.76,0-.3-.07-.59-.1-.88-.11-.89-.23-1.76-.37-2.64-.09-.58-.19-1.16-.31-1.74,0-.14-.05-.27-.08-.41q-.23-1-.51-2c0-.14-.07-.27-.11-.4s-.15-.54-.23-.8c-.2-.67-.4-1.33-.59-2-.08-.26-.15-.53-.23-.8-.3-1.09-.59-2.19-.88-3.29l-.42-1.65-.42-1.65c-.12-.52-.25-1.05-.38-1.57a.25.25,0,0,0,0-.09,28.46,28.46,0,0,0-1-3.24c-.1-.27-.21-.53-.32-.8l-.16-.39a16.82,16.82,0,0,1-.75-2l-.09-.38c0-.12,0-.25-.07-.37-.14-.77-.19-1.54-.35-2.3s-.3-1.25-.48-1.88a.31.31,0,0,0,0-.23,53.91,53.91,0,0,1-1.14-5.82l0-.14L154.4,9.77c.44,1.59.86,3.18,1.28,4.78ZM378.27,126.47c-1.3.9-2.6,1.81-3.88,2.74-2.9,2.08-5.77,4.21-8.65,6.31l-2.89,2.09a72,72,0,0,1-7.22,4.39c-1.91,1.06-3.83,2.12-5.69,3.27a.47.47,0,0,0-.13.11l-.1.05c-1.2.8-2.38,1.62-3.56,2.46s-2.35,1.68-3.51,2.53L339.17,153c-.52.38-1,.79-1.53,1.19s-1,.8-1.54,1.16a.4.4,0,0,0-.12.1l-.21.15-1.43,1-2.21,1.56-.66.47-1.44,1q-2.88,2-5.79,4l-.86.57-.87.56-1.73,1.1-2.63,1.63-1.75,1.08-5.26,3.22-.88.54-1,.62-1,.63q-2,1.24-4,2.52l-3,1.91q-3.46,2.25-6.9,4.57l-2.94,2-1,.67-2.94,2-5.87,4-2.95,2c-2.34,1.58-4.71,3.09-7.09,4.6q-2.76,1.77-5.51,3.58l-.14.09-.09.06L262.28,204l-3.58,2.41-3.57,2.41-1.59,1.07-1.6,1.06-.13.09-.22.14-3.71,2.46,7-3.76.07,0,.21-.11.63-.34.09,0c4-2.16,8-4.27,12.07-6.4l.16-.08,1.61-.82,3.61-1.87,3.61-1.88.48-.24c2.38-1.22,4.78-2.4,7.15-3.65l2-1.05c1.95-1,3.89-2.12,5.83-3.18s3.85-2,5.79-3l1.95-1q4.81-2.44,9.61-4.93c1.91-1,3.82-2,5.73-3l2.82-1.52c1.57-.85,3.13-1.72,4.68-2.59,1.24-.7,2.48-1.41,3.71-2.13s2.45-1.45,3.67-2.19c2.12-1.3,4.32-2.5,6.53-3.67s4.71-2.45,7-3.74l.07,0,.2-.12.63-.35.09-.06c3.95-2.24,8.14-4.11,12.16-6.24a.58.58,0,0,0,.18,0c.56-.23,1.12-.48,1.67-.73,2.48-1.12,4.89-2.37,7.34-3.56s5.24-2.31,7.76-3.66,5.09-3,7.64-4.45,5.15-2.7,7.78-4c5.22-2.47,10.37-5.05,15.42-7.81a161.22,161.22,0,0,0,14.57-9,56.24,56.24,0,0,1,6.44-3.82l-9.46-15.91-2.05,1.55c-1.89,1.4-3.79,2.76-5.73,4.08-4.56,3.07-9.47,5.56-14.24,8.25C388.89,119.68,383.46,122.88,378.27,126.47ZM215.29,18a41.4,41.4,0,0,1,.7,7.76c0,2.66,0,5.32-.17,8a55.06,55.06,0,0,0-.16,7.81c.34,4.43,1.55,8.81,1.83,13.24.22,3.61.15,7.23.29,10.85,0,.25,0,.5,0,.75a.33.33,0,0,0,0,.15q.08,3.69-.19,7.4c-.08,1.21-.18,2.43-.35,3.64a16.41,16.41,0,0,0-.3,3.49.11.11,0,0,0,0,0c0,1.28,0,2.57-.08,3.85h0c-.09,3.3-.21,6.59-.09,9.89,0,.63.07,1.25.14,1.88s.14,1.25.22,1.88c.18,1.25.38,2.5.57,3.75.24,1.61.37,3.22.45,4.84.05,1,.08,1.94.1,2.92,0,2.65,0,5.31-.05,8,0,.49,0,1-.05,1.46l0,1c0,.33,0,.65,0,1,0,1.46,0,2.92.07,4.39.14,2.21.42,4.42.69,6.62,0,.28.06.55.1.83l.18,1.65q.14,1.25.24,2.49c0,.55.08,1.11.1,1.66s.06,1.36.09,2c.08,2.72.1,5.43.18,8.15,0,.22,0,.45,0,.67s0,.5,0,.75a.39.39,0,0,0,0,.15c.06,2.46,0,4.93,0,7.39,0,1.22-.09,2.43-.18,3.64a27,27,0,0,0-.14,3.48.13.13,0,0,0,0,.06c0,1.28,0,2.56,0,3.85l7.71-.26c.13-1.56.26-3.12.34-4.68,0-.44,0-.88.06-1.32v0c0-.52.1-1,.14-1.56.11-1.23.19-2.45.26-3.68.16-2.45.26-4.9.36-7.35v-.25h0c.15-3.89.28-7.77.43-11.65q.15-4,.23-7.93l0-2q0-3,0-5.94t0-6c0-2,0-4,0-6,0-1.33,0-2.67,0-4q0-3,0-6c0-.67,0-1.33,0-2,0-.27,0-.54,0-.8,0-1.21,0-2.41,0-3.62,0-.27,0-.54,0-.8s0-.81.07-1.21.09-1,.14-1.55c.08-.78.16-1.55.26-2.33.06-.51.13-1,.19-1.55.1-.76.2-1.52.29-2.29.19-1.56.37-3.12.47-4.68,0-.22,0-.44,0-.66s0-.45,0-.67v0c.07-.52.14-1,.2-1.56.15-1.23.25-2.45.35-3.68.19-2.45.31-4.9.4-7.35v0a1.77,1.77,0,0,0,0-.23h0c.15-3.88.28-7.76.43-11.64q.3-7.95.13-15.86c-.14-5.32-.15-10.66-.19-16,0-2.67-.07-5.33-.14-8a51.11,51.11,0,0,1,0-6.43c.25-2.57.73-5.15,1.14-7.72L214.31.6c-.17,3.3-.39,6.6-.25,9.9A47.17,47.17,0,0,0,215.29,18Zm69.5,89.79c-.3.59-.58,1.19-.84,1.79s-.51,1.22-.75,1.83c-.48,1.23-.93,2.47-1.4,3.7-.61,1.6-1.3,3.14-2.05,4.66-.44.91-.91,1.82-1.39,2.72-1.3,2.45-2.64,4.89-4.06,7.28-.27.44-.53.88-.79,1.32-.17.29-.35.58-.52.88l-.51.88c-.76,1.32-1.5,2.67-2.16,4-1,2.1-1.87,4.25-2.75,6.4l-.33.81c-.22.54-.44,1.07-.67,1.61-.34.8-.69,1.6-1.05,2.39-.24.52-.49,1.05-.74,1.57l-1,1.9c-1.3,2.53-2.65,5-4,7.54l-.32.64c-.12.23-.24.46-.35.69a.38.38,0,0,0-.09.13q-1.8,3.44-3.78,6.75c-.64,1.09-1.3,2.18-2,3.25a28.13,28.13,0,0,0-1.89,3.12l0,.05c-.64,1.18-1.29,2.35-1.94,3.52l6.87,3.52q1.36-2,2.66-4.12c.25-.39.49-.79.72-1.18l0,0c.3-.46.61-.91.91-1.36.71-1.07,1.4-2.15,2.09-3.24,1.37-2.17,2.7-4.36,4-6.56h0l.13-.21h0l6.26-10.45c1.43-2.38,2.83-4.76,4.21-7.16l1-1.8q1.53-2.7,3-5.43t3-5.49c1-1.83,2-3.65,3.06-5.48l2-3.65q1.53-2.75,3-5.5l1-1.84.39-.74c.6-1.11,1.19-2.22,1.82-3.31.14-.25.28-.49.43-.73s.44-.72.67-1.07.6-.91.9-1.35c.46-.68.93-1.34,1.4-2l1-1.32,1.4-2c1-1.34,1.9-2.68,2.78-4.06l.37-.59c.12-.2.24-.39.35-.59l0,0c.32-.45.65-.89,1-1.33.74-1.06,1.45-2.13,2.16-3.21,1.4-2.15,2.75-4.34,4.07-6.53v0l.13-.2h0q3.13-5.22,6.26-10.46,4.28-7.12,8.12-14.46c2.57-4.94,5.26-9.83,7.91-14.73q2-3.69,3.93-7.39a56.25,56.25,0,0,1,3.26-5.88c1.52-2.24,3.24-4.36,4.9-6.52l-16.59-8.49c-1.81,2.94-3.67,5.86-5.22,8.94a52.59,52.59,0,0,0-2.71,7.46,45,45,0,0,1-3.3,7.44c-1.31,2.45-2.68,4.87-4.18,7.23a60.64,60.64,0,0,0-4.09,7.07c-1.94,4.23-3.09,8.82-5.09,13-1.63,3.42-3.51,6.71-5.22,10.09-.12.23-.23.46-.35.7a.4.4,0,0,0-.1.12q-1.79,3.42-3.9,6.68c-.69,1.07-1.39,2.14-2.14,3.17a17,17,0,0,0-2,3,.08.08,0,0,0,0,0c-.66,1.17-1.33,2.33-2,3.49h0C288.11,101.74,286.34,104.7,284.79,107.78ZM416.53,169a62.28,62.28,0,0,1-7.78,2.37c-2.7.67-5.41,1.29-8.14,1.81a80.57,80.57,0,0,0-8,1.77c-4.45,1.31-8.72,3.22-13.19,4.49-3.64,1-7.34,1.86-11,2.83l-.75.21a.45.45,0,0,0-.16,0q-3.73,1-7.55,1.66c-1.25.23-2.5.45-3.76.63a24.06,24.06,0,0,0-3.59.62l-.06,0c-1.3.31-2.61.59-3.93.88h0c-3.36.73-6.74,1.44-10.07,2.32-.63.17-1.27.36-1.89.55l-1.88.62c-1.25.42-2.48.87-3.73,1.3-1.6.56-3.22,1-4.86,1.49-1,.27-2,.53-2.95.77-2.7.68-5.4,1.32-8.12,1.9l-1.5.32-1,.21-1,.22c-1.49.33-3,.69-4.46,1.11-2.23.63-4.43,1.36-6.64,2.09l-.82.27-1.66.53-2.49.77-1.67.47-2.06.55c-2.75.72-5.51,1.38-8.26,2.09l-.68.18-.76.2a.8.8,0,0,0-.15,0c-2.5.63-5,1.22-7.53,1.75-1.24.27-2.48.53-3.73.76a36.28,36.28,0,0,0-3.56.74h-.06c-1.3.32-2.6.63-3.91.93l1.41,5.41c1.61-.28,3.22-.57,4.82-.88l1.35-.28h0l1.61-.27c1.26-.23,2.52-.46,3.78-.71q3.78-.72,7.53-1.52h0l.24-.05h0l11.92-2.51q4.06-.85,8.1-1.75l2-.46L312.1,204l6.1-1.45,6.11-1.43,4.07-1,6.11-1.45,2-.49.82-.2c1.22-.3,2.44-.61,3.67-.88l.83-.18,1.24-.24,1.59-.28,2.41-.37,1.6-.24,2.38-.35c1.61-.24,3.23-.49,4.83-.8l.68-.13.68-.14h0l1.62-.23c1.27-.2,2.53-.42,3.79-.65,2.53-.45,5-1,7.55-1.48h0l.24,0h0l11.91-2.51c5.42-1.13,10.79-2.37,16.15-3.73s10.82-2.68,16.24-4c2.71-.66,5.42-1.33,8.12-2,2.17-.56,4.32-1.16,6.54-1.54,2.66-.44,5.35-.72,8-1.05l-3.41-13.06c-3.38.68-6.77,1.32-10.1,2.21A71.14,71.14,0,0,0,416.53,169ZM216.66,237l-7-4.15q-1.2,1.91-2.41,3.81l-.1.16L198.58,232l-3.09,3.06c-.83.82-1.66,1.63-2.51,2.44-.18.18-.36.36-.55.53l-3.74-6.46c-1.22.66-2.45,1.31-3.68,2l-3,1.54c-.94.49-1.88,1-2.81,1.47-.63.32-1.25.65-1.87,1l-2.78,1.51-1.85,1-1.84,1-2.75,1.55-.92.53-5.54,3.17c-3.07,1.77-6.16,3.52-9.29,5.2-1.55.83-3.12,1.62-4.7,2.39l-2.85,1.39L142,256.73q-1.43.7-2.82,1.44l-1.85,1c-1.22.69-2.41,1.44-3.64,2.1l-1.4.73-.94.46-1.42.68-.95.44L128,264l-.94.45c-1,.45-1.89.91-2.81,1.39-.61.33-1.22.67-1.82,1a.05.05,0,0,1,0,0,66.36,66.36,0,0,1-6.45,3.16c-1.23.5-2.49.92-3.75,1.37-.28.1-.55.21-.83.33l-.81.36-.25.12-.25.12-.22.09h0a.48.48,0,0,0-.29.18l-1.44.77-5.16,2.82-3.68,2c-1,.52-2,1-3,1.54l-2.81,1.46-1.86,1-.93.5-1.84,1-1.84,1-1.83,1-2.73,1.6-.91.54-2.74,1.63-.91.55L76,291.25l-1.83,1.08-.92.54c-2.14,1.26-4.3,2.49-6.48,3.67-1.55.84-3.13,1.62-4.72,2.38l-.95.45-1.91.9-1.91.91-1,.46c-1,.46-1.89.93-2.83,1.43-.62.33-1.23.66-1.84,1l-.45.27-.45.27-1.8,1.1-.91.52c-.47.25-.93.49-1.4.72l-.47.23-.48.23-1.43.66-1,.43-1,.43-1,.43L40,310c-.47.23-.93.46-1.39.71-.62.32-1.22.67-1.81,1l0,0a50.14,50.14,0,0,1-6.49,3.09c-1.25.46-2.55.81-3.84,1.22l-.84.29-.83.35-.25.12-.25.11-.22.09h0a.41.41,0,0,0-.29.19l-1.43.79-5.15,2.84,8.42,14.55a.71.71,0,0,0,.14-.1c2-1.29,3.92-2.61,6-3.73a.41.41,0,0,0,.18-.19c.67-.37,1.35-.73,2-1.13s1.51-1,2.29-1.54a2.55,2.55,0,0,1,.39-.24l.39-.23a22.85,22.85,0,0,1,2.31-1.06l.47-.2.93-.4c1.23-.55,2.44-1.15,3.61-1.81a.22.22,0,0,0,.11-.05l1.67-.95,1.76-1,1.76-1,3.54-1.95.87-.47,2.19-1.15.87-.46.44-.24c.72-.39,1.44-.8,2.14-1.22l.42-.26q.9-.56,1.77-1.14c.87-.58,1.74-1.18,2.6-1.79l.86-.6L67,311.33l.86-.6c1.16-.79,2.32-1.56,3.5-2.32L74,306.74c2.38-1.47,4.79-2.91,7.2-4.33L83,301.35l1.82-1.05,3.66-2.07,1.81-1c1.51-.85,3-1.71,4.53-2.54.92-.51,1.83-1,2.75-1.49l.92-.49.92-.48c.93-.47,1.86-.94,2.79-1.39l.94-.44,1.2-.57a50.65,50.65,0,0,0,4.65-2.5l.23-.15.15-.09.74-.47c.74-.47,1.48-1,2.23-1.41l.75-.46c.76-.46,1.51-.91,2.29-1.33a.55.55,0,0,0,.19-.18c.67-.37,1.35-.74,2-1.13s1.53-1,2.31-1.5l.39-.24.4-.23c.74-.41,1.51-.76,2.27-1.11l.46-.21.92-.43c1.21-.59,2.41-1.2,3.58-1.87l.11,0,1.67-1,1.75-1c.59-.33,1.18-.66,1.76-1,1.18-.66,2.35-1.32,3.54-2l.86-.47,2.17-1.18.87-.47.43-.24c.87-.48,1.73-1,2.57-1.48,1.49-.91,3-1.87,4.41-2.84l.88-.58,1.74-1.17.88-.58c1.16-.77,2.34-1.51,3.53-2.25.89-.56,1.78-1.1,2.68-1.64,3-1.82,6-3.59,9-5.35q2.73-1.58,5.48-3.12l1.81-1c1.5-.85,3-1.71,4.52-2.55,1.22-.68,2.43-1.35,3.65-2s2.45-1.3,3.68-1.93l.93-.47,1.17-.6,1.76-.92-.74.74c-.78.77-1.55,1.55-2.32,2.33l-1.53,1.56-1.52,1.58c-.76.78-1.51,1.57-2.26,2.36l-.75.8-4.54,4.8c-2.53,2.67-5.07,5.34-7.69,7.95-1.3,1.29-2.64,2.56-4,3.81L162,268.82l-2.44,2.25c-.8.76-1.6,1.52-2.38,2.29-.52.51-1,1-1.55,1.56-1,1.05-2,2.14-3,3.18-.38.38-.78.76-1.18,1.14l-.8.75-1.22,1.11-.82.73-.82.73-.81.74c-.81.73-1.61,1.48-2.39,2.24-.52.51-1,1-1.51,1.56l0,0a68.44,68.44,0,0,1-5.51,5.1c-1.09.88-2.23,1.69-3.35,2.53l-.74.59-.71.61-.21.19-.22.2-.18.16h0a.58.58,0,0,0-.23.27l-1.2,1.2c-1.44,1.45-2.87,2.91-4.31,4.35-1,1-2.05,2.06-3.08,3.07-.83.82-1.67,1.63-2.51,2.44s-1.59,1.53-2.37,2.3l-1.56,1.55-.77.78c-.51.53-1,1.05-1.54,1.57L113,315.65l-1.51,1.59-2.25,2.41c-.25.26-.5.53-.74.8l-2.25,2.45-.75.81c-.5.55-1,1.09-1.51,1.63l-1.5,1.63-.76.81c-1.77,1.89-3.56,3.77-5.39,5.61-1.3,1.29-2.64,2.55-4,3.78l-.81.75-1.64,1.47-1.63,1.48-.82.75c-.8.75-1.6,1.51-2.39,2.28-.52.51-1,1-1.54,1.57-.12.13-.25.26-.37.4s-.25.27-.37.4c-.49.54-1,1.09-1.48,1.63-.24.27-.5.54-.76.79s-.78.77-1.18,1.15l-.4.37-.4.37-1.23,1.09-.82.72-.83.71-.82.73-1.21,1.09c-.4.37-.79.75-1.18,1.13s-1,1-1.51,1.57l0,0a55.2,55.2,0,0,1-5.53,5c-1.1.84-2.27,1.59-3.41,2.38-.26.18-.5.37-.75.56s-.48.39-.71.6l-.21.19-.22.19-.19.16h0a.47.47,0,0,0-.23.27l-1.19,1.21-4.3,4.38,11.2,11.52.12-.14c1.63-1.88,3.24-3.79,5-5.53a.49.49,0,0,0,.14-.25c.58-.57,1.16-1.14,1.7-1.74s1.25-1.5,1.89-2.23l.32-.36.34-.35a25.83,25.83,0,0,1,2-1.76l.41-.34.82-.69c1.08-.93,2.13-1.9,3.13-2.91l.09-.08,1.42-1.47,1.49-1.53,1.5-1.53q1.5-1.53,3-3l.75-.74,1.88-1.81.75-.73c.12-.13.25-.25.37-.37.62-.61,1.23-1.24,1.82-1.87l.36-.39c.49-.55,1-1.1,1.46-1.67.73-.84,1.43-1.7,2.13-2.56l.7-.87c.47-.57.94-1.15,1.4-1.73l.71-.85q1.41-1.71,2.87-3.37c.74-.83,1.47-1.65,2.22-2.47q3-3.29,6-6.51l1.53-1.61c.52-.53,1-1.06,1.54-1.6l3.11-3.18,1.53-1.57c1.29-1.31,2.57-2.62,3.87-3.92.77-.78,1.56-1.55,2.34-2.32l.8-.77.79-.76q1.2-1.14,2.43-2.25l.83-.74,1.05-.93c1.39-1.26,2.74-2.54,4-3.92l.2-.22.12-.13c.2-.23.41-.46.61-.7l1.85-2.08.63-.69c.63-.68,1.27-1.36,1.93-2a.51.51,0,0,0,.14-.23c.58-.58,1.16-1.15,1.7-1.74s1.26-1.47,1.9-2.19l.33-.36.34-.35c.63-.63,1.31-1.22,2-1.81l.41-.35.81-.72c1.06-1,2.1-1.94,3.1-3l.1-.08,1.41-1.47,1.49-1.53,1.5-1.54c1-1,2-2,3-3.05l.74-.74,1.87-1.84.75-.73.37-.37c.74-.75,1.47-1.5,2.17-2.26,1.25-1.36,2.45-2.76,3.63-4.16l.71-.84c.47-.56.94-1.13,1.42-1.69.23-.28.47-.56.71-.83q1.42-1.68,2.9-3.31c.74-.82,1.48-1.63,2.23-2.44q3.75-4.06,7.6-8.07c1.54-1.6,3.08-3.2,4.64-4.79.51-.52,1-1,1.54-1.57q1.92-2,3.85-3.94l3.13-3.12q1.58-1.55,3.2-3.07l.82-.75,1-1c1.38-1.29,2.72-2.6,4-4l.13-.14c-.6.94-1.2,1.87-1.81,2.8s-1.24,1.91-1.86,2.88l-1.22,1.92c-.61,1-1.21,1.93-1.81,2.9-.4.64-.79,1.29-1.19,1.94s-.79,1.29-1.18,1.94c-.59,1-1.18,1.95-1.76,2.93l-.59,1c-1.17,2-2.34,4-3.52,5.92-2,3.3-3.92,6.58-6,9.83-1,1.6-2.06,3.18-3.12,4.76l-1.92,2.83-1.92,2.83c-.63.95-1.25,1.9-1.87,2.86l-1.2,1.93c-.78,1.3-1.5,2.62-2.31,3.91-.3.48-.61,1-.92,1.43l-.63.94c-.32.46-.64.93-1,1.39l-.64.93-.65.92-.64.93c-.65.93-1.28,1.87-1.88,2.82q-.61.94-1.17,1.92a.08.08,0,0,0,0,0c-1.37,2.2-2.78,4.36-4.35,6.42-.88,1.14-1.82,2.21-2.73,3.31-.21.25-.41.5-.6.76l-.56.78a2.2,2.2,0,0,0-.17.25l-.18.24a1.43,1.43,0,0,1-.14.2v0l0,0a.55.55,0,0,0-.18.32l-.94,1.5c-1.12,1.8-2.23,3.6-3.35,5.39q-1.19,1.92-2.4,3.82c-.65,1-1.3,2-2,3s-1.25,1.91-1.86,2.87c-.41.64-.81,1.29-1.21,1.93-.21.32-.41.64-.61,1l-1.18,1.94c-.4.65-.79,1.3-1.18,1.95l-1.16,2c-.58,1-1.15,2-1.72,2.95l-.57,1-1.71,3-.57,1-1.15,2-1.14,2c-.2.33-.39.66-.58,1-1.35,2.32-2.72,4.62-4.14,6.9-1,1.61-2.07,3.18-3.15,4.75l-.65.93c-.43.63-.86,1.25-1.3,1.87l-1.3,1.88c-.21.31-.43.62-.64.94-.64.94-1.27,1.89-1.88,2.85-.41.64-.8,1.29-1.19,1.94l-.29.49c-.09.16-.18.33-.28.49-.37.66-.73,1.33-1.11,2-.19.32-.38.65-.58,1-.3.48-.61,1-.92,1.43l-.32.46-.32.47-1,1.39-.66.92-.66.91-.66.92c-.32.46-.65.92-1,1.39s-.63.94-.93,1.41c-.41.64-.79,1.28-1.16,1.94l0,0a57.5,57.5,0,0,1-4.41,6.38c-.91,1.12-1.91,2.16-2.88,3.23-.21.24-.42.49-.62.74s-.39.51-.58.77l-.17.24-.18.25-.15.2h0l0,0a.45.45,0,0,0-.17.33l-.93,1.5-3.32,5.41,14.09,8.3.09-.16c1.17-2.25,2.32-4.52,3.66-6.67a.48.48,0,0,0,.08-.28c.44-.7.88-1.4,1.28-2.12.48-.87.88-1.78,1.35-2.65a4.77,4.77,0,0,1,.24-.44c.08-.14.16-.28.25-.42a27.14,27.14,0,0,1,1.58-2.23l.33-.44c.22-.29.44-.58.65-.88q1.27-1.77,2.42-3.63l.08-.1,1-1.79,1.12-1.87,1.13-1.87q1.14-1.87,2.29-3.73l.57-.9c.47-.75.95-1.5,1.43-2.25l.57-.9.29-.45c.46-.76.92-1.52,1.36-2.29l.26-.46c.37-.67.72-1.33,1.07-2,.52-1,1-2,1.52-3,.16-.34.33-.68.49-1l1-2c.16-.34.33-.68.5-1q1-2,2.07-4c.54-1,1.08-2,1.63-3q2.2-4,4.49-7.88l1.14-2,1.16-1.95q1.15-1.95,2.33-3.9l1.16-1.92c1-1.6,1.93-3.2,2.91-4.8.59-1,1.18-1.91,1.78-2.86l.61-1c.2-.31.4-.63.61-.94.61-.94,1.23-1.87,1.87-2.8l.63-.92c.28-.39.55-.78.82-1.18,1.07-1.57,2.11-3.16,3-4.83l.14-.25.09-.16.45-.84c.45-.84.9-1.68,1.36-2.51l.46-.83c.47-.83.95-1.65,1.45-2.46a.72.72,0,0,0,.09-.27c.43-.7.87-1.41,1.28-2.13s.91-1.75,1.38-2.62l.25-.44c.08-.14.16-.28.25-.42.48-.78,1-1.52,1.53-2.26l.32-.45c.21-.29.42-.59.62-.89q1.25-1.8,2.37-3.67a.86.86,0,0,0,.07-.1l1.06-1.79c.37-.62.74-1.25,1.12-1.87l1.12-1.88,2.27-3.73.56-.91,1.41-2.26c.19-.3.38-.6.56-.9.1-.15.19-.31.28-.46.56-.91,1.11-1.82,1.63-2.75.92-1.65,1.8-3.32,2.66-5l.52-1c.34-.67.69-1.34,1-2l.53-1c.69-1.34,1.41-2.66,2.14-4,.54-1,1.09-2,1.65-3q2.79-4.93,5.68-9.82,1.74-2.94,3.49-5.85l1.15-1.92c1-1.61,1.92-3.21,2.9-4.81.77-1.28,1.56-2.56,2.35-3.83s1.6-2.53,2.42-3.78l.62-.94.78-1.19c1-1.59,2.05-3.19,3-4.85ZM285,421.73a.21.21,0,0,0,0-.27v0h0a1.34,1.34,0,0,0-.07-.18c0-.07,0-.14-.07-.21l-.07-.22c-.08-.23-.17-.45-.26-.68s-.21-.44-.33-.66c-.55-1-1.16-1.94-1.62-2.93a25.63,25.63,0,0,1-1.73-5.57v0c-.08-.56-.19-1.11-.32-1.66s-.21-.81-.33-1.22-.25-.81-.38-1.21-.18-.54-.28-.81-.18-.54-.28-.8-.18-.54-.28-.81-.27-.81-.4-1.21c0-.14-.09-.27-.13-.41l-.12-.41c-.11-.41-.22-.82-.31-1.23a7.6,7.6,0,0,1-.16-.83c-.09-.56-.16-1.12-.24-1.68,0-.14,0-.28-.07-.42s0-.28-.07-.42c-.1-.56-.22-1.11-.35-1.67-.2-.82-.43-1.65-.67-2.47-.08-.27-.16-.54-.25-.82-.16-.54-.34-1.09-.51-1.63l-.52-1.63c-.09-.28-.17-.55-.26-.82-.42-1.37-.81-2.73-1.12-4.12-.45-2-.82-3.93-1.16-5.9-.05-.28-.09-.57-.14-.85-.1-.56-.19-1.13-.28-1.69l-.27-1.7c-.05-.28-.09-.56-.14-.85-.13-.85-.26-1.69-.4-2.54-.05-.28-.09-.56-.14-.84-.14-.84-.28-1.68-.43-2.52-.1-.55-.21-1.11-.31-1.67l-.33-1.67c-.12-.56-.23-1.11-.35-1.67-.06-.27-.13-.55-.19-.83-.12-.55-.25-1.11-.39-1.66-.2-.83-.4-1.65-.63-2.48s-.45-1.75-.66-2.63c-.27-1.09-.52-2.19-.77-3.28-.34-1.55-.68-3.09-1-4.64-.09-.43-.19-.86-.29-1.29a.25.25,0,0,0,0-.27v0h0l-.07-.18-.06-.21a1.87,1.87,0,0,1-.07-.22c-.07-.23-.15-.45-.24-.68s-.19-.45-.29-.67c-.47-1-1-2-1.4-3a34.91,34.91,0,0,1-1.65-5.58v0c-.09-.55-.2-1.1-.34-1.65-.19-.82-.43-1.63-.68-2.44-.09-.27-.17-.54-.26-.81s-.17-.54-.26-.81-.17-.54-.26-.81-.25-.81-.37-1.22l-.24-.81c-.11-.41-.22-.82-.31-1.23-.26-1.11-.39-2.23-.61-3.34-.12-.56-.24-1.11-.37-1.66-.2-.83-.42-1.66-.66-2.48s-.47-1.64-.71-2.46-.49-1.64-.73-2.46c-.4-1.37-.78-2.74-1.1-4.12-.64-2.79-1.19-5.61-1.72-8.42q-.47-2.53-.94-5.06c0-.28-.11-.56-.16-.84-.16-.84-.32-1.67-.49-2.51-.11-.55-.23-1.11-.34-1.66l-.36-1.67c-.18-.83-.37-1.66-.56-2.49-.13-.55-.27-1.11-.4-1.66-.2-.83-.41-1.66-.63-2.48s-.45-1.75-.67-2.63l-.78-3.28L237.77,278l0,.21a39.69,39.69,0,0,0,.9,4.17c.09.35.18.69.28,1s.14.54.22.81c.28,1.09.55,2.17.79,3.27s.49,2.18.71,3.28c.28,1.37.55,2.74.82,4.12.1.55.21,1.09.32,1.64.32,1.67.64,3.33.94,5q.76,4.17,1.4,8.37c.12.83.24,1.67.35,2.51.15,1.12.27,2.24.38,3.36,0,.28.05.57.07.85.05.56.09,1.13.14,1.69l.06.85c.12,1.41.25,2.82.45,4.22.12.79.27,1.57.43,2.35,0,.13.06.26.08.39l.18.78c.14.65.29,1.29.44,1.94.06.26.11.52.17.78.22,1.07.44,2.13.65,3.2.11.54.21,1.07.31,1.6s.21,1.07.31,1.61.18,1,.28,1.52a.17.17,0,0,0,0,.1,31.77,31.77,0,0,0,.8,3.16c.08.26.16.52.25.78s.09.26.13.39a17.08,17.08,0,0,1,.58,2c0,.12,0,.24.06.36l.06.37c.09.73.11,1.48.22,2.21s.22,1.22.36,1.82a.29.29,0,0,0,0,.22c.15.7.27,1.4.37,2.1,0,.23.07.47.1.7.09.71.17,1.42.25,2.12,0,.24.06.48.08.71,0,.05,0,.09,0,.14l0,.22a26,26,0,0,0,1,4.15c.1.34.21.68.32,1s.17.53.25.8c.24.81.47,1.62.68,2.43l.21.82c.07.27.13.54.2.81.19.82.37,1.64.55,2.46.29,1.37.56,2.74.83,4.12l.33,1.64c.22,1.11.44,2.22.65,3.33l.3,1.67.3,1.67c.38,2.23.73,4.46,1,6.71.12.83.22,1.67.31,2.52.12,1.12.22,2.24.28,3.38,0,.28,0,.56,0,.85l.06,1.7c0,.29,0,.57,0,.86q0,1.28.15,2.55c0,.56.1,1.13.18,1.69,0,.13,0,.26.05.39.1.66.23,1.31.38,2l.09.39.18.77.48,1.94c.06.26.12.52.17.78.24,1.06.47,2.13.69,3.19.1.54.21,1.07.31,1.61s.21,1.06.31,1.6.19,1,.28,1.53a.36.36,0,0,0,0,.09,25.4,25.4,0,0,0,.87,3.15c.1.25.19.51.29.77l.16.39a13.52,13.52,0,0,1,.65,1.95c0,.12,0,.24.06.36s0,.25,0,.37c.08.74.06,1.49.16,2.23s.23,1.21.37,1.82a.23.23,0,0,0-.06.22,42.63,42.63,0,0,1,.72,5.64s0,.09,0,.14l20.5-3.69c-.34-1.55-.66-3.1-1-4.65C285.15,422.59,285.05,422.16,285,421.73Zm-82.54-149.4c-.26.9-.53,1.81-.81,2.71s-.52,1.7-.78,2.55c-.16.57-.33,1.14-.49,1.71-.25.85-.48,1.71-.72,2.56l-.46,1.72-.45,1.71-.66,2.58-.21.87c-.43,1.73-.85,3.47-1.28,5.21-.71,2.9-1.45,5.8-2.26,8.67-.41,1.43-.86,2.84-1.33,4.24-.28.85-.57,1.69-.86,2.53s-.57,1.69-.85,2.53-.54,1.7-.79,2.55c-.16.56-.32,1.13-.47,1.71-.3,1.14-.52,2.3-.84,3.44-.12.42-.25.84-.38,1.26s-.19.57-.28.84-.29.84-.44,1.26l-.3.83-.3.83-.29.83c-.29.83-.57,1.67-.82,2.51-.16.56-.31,1.13-.44,1.7,0,0,0,0,0,0a43.9,43.9,0,0,1-1.94,5.73c-.44,1-1,2-1.48,3.05-.11.22-.22.45-.32.69l-.27.7-.07.22a2,2,0,0,0-.08.22,1.34,1.34,0,0,0-.07.18v0a.33.33,0,0,0-.06.28c-.12.44-.25.88-.37,1.32l-1.32,4.78c-.31,1.12-.63,2.25-1,3.37-.27.91-.54,1.81-.82,2.71s-.53,1.7-.77,2.55c-.17.57-.33,1.14-.49,1.71l-.24.86c-.15.57-.31,1.14-.45,1.71s-.3,1.15-.44,1.72-.29,1.15-.43,1.73l-.6,2.59c-.07.29-.13.58-.2.86-.19.88-.39,1.75-.58,2.63-.07.29-.13.58-.2.87l-.39,1.75-.39,1.75-.21.87c-.47,2-1,4.06-1.54,6.08-.4,1.42-.86,2.83-1.35,4.23l-.3.84-.6,1.68c-.2.56-.4,1.12-.59,1.68-.1.28-.2.56-.29.84-.29.85-.56,1.69-.81,2.54-.16.57-.32,1.14-.46,1.72,0,.14-.07.28-.1.43l-.09.43c-.12.58-.23,1.16-.36,1.73-.07.29-.14.58-.22.86s-.25.85-.39,1.27c0,.14-.09.28-.14.42l-.14.42c-.15.41-.31.83-.47,1.24s-.21.56-.31.83l-.32.83-.31.82-.45,1.25q-.21.63-.39,1.26c-.17.56-.31,1.13-.43,1.7v0a32.41,32.41,0,0,1-2,5.72c-.49,1-1.11,2-1.67,3a6.24,6.24,0,0,0-.35.68c-.11.23-.2.46-.29.7a1.43,1.43,0,0,0-.08.22l-.09.22-.07.18h0v0a.25.25,0,0,0-.05.28l-.36,1.33c-.43,1.6-.85,3.19-1.28,4.78l17.45,4.2a.68.68,0,0,1,0-.14,54.43,54.43,0,0,1,1.15-5.82.31.31,0,0,0,0-.23c.17-.62.35-1.24.48-1.88s.21-1.53.34-2.29c0-.13.05-.26.08-.38A2.62,2.62,0,0,1,176,418a16.61,16.61,0,0,1,.74-2c.06-.14.11-.27.17-.4s.22-.53.32-.8a30.59,30.59,0,0,0,1-3.24.39.39,0,0,0,0-.09c.12-.52.25-1.05.38-1.57s.27-1.1.41-1.65.28-1.1.43-1.65c.28-1.1.58-2.2.88-3.29.07-.27.15-.53.23-.8.19-.67.39-1.33.59-2,.07-.26.15-.53.23-.8s.07-.26.11-.4c.18-.66.36-1.33.5-2l.09-.41c.11-.58.22-1.16.31-1.74.14-.87.25-1.75.36-2.63,0-.3.07-.59.11-.89l.21-1.76.12-.88c.16-1.16.35-2.33.55-3.48.16-.87.33-1.74.5-2.6.47-2.32,1-4.62,1.51-6.92.14-.57.27-1.14.41-1.72l.42-1.72c.28-1.14.57-2.28.86-3.43.15-.56.29-1.12.44-1.69.36-1.41.72-2.83,1.1-4.24.22-.84.46-1.69.7-2.53.08-.28.17-.56.25-.84s.17-.56.25-.84c.26-.83.53-1.67.82-2.5.09-.27.19-.55.29-.82s.25-.7.37-1.06a33.46,33.46,0,0,0,1.21-4.27c0-.08,0-.15.05-.23a.59.59,0,0,0,0-.14c.05-.24.09-.48.14-.73.13-.73.27-1.46.41-2.18l.15-.73q.22-1.1.51-2.16a.3.3,0,0,0,0-.23c.17-.62.35-1.24.48-1.88s.25-1.52.4-2.28c0-.13,0-.25.07-.38s.06-.25.1-.37a20,20,0,0,1,.68-2l.15-.4.29-.81c.37-1.07.7-2.16,1-3.25a.29.29,0,0,0,0-.1l.39-1.57c.13-.55.27-1.1.41-1.65s.27-1.1.41-1.65c.28-1.1.57-2.2.86-3.3.07-.26.15-.53.22-.8.19-.67.38-1.33.56-2,.08-.27.15-.53.22-.8s.08-.27.11-.4c.22-.81.42-1.61.59-2.43.3-1.44.55-2.89.77-4.35,0-.29.09-.58.14-.87l.27-1.75c0-.29.09-.58.14-.87.2-1.16.41-2.32.64-3.47.17-.87.35-1.73.53-2.59.62-2.88,1.29-5.76,2-8.62q.62-2.58,1.28-5.15c.14-.57.28-1.13.43-1.7.35-1.41.71-2.83,1.08-4.24.29-1.13.6-2.26.91-3.38s.65-2.24,1-3.36l.27-.83.33-1.06c.44-1.42.85-2.84,1.16-4.29,0-.08,0-.15,0-.23L203.4,269C203.08,270.08,202.76,271.21,202.42,272.33ZM48.77,271c1.51-.48,3-1,4.51-1.51,3.37-1.17,6.73-2.4,10.1-3.6l3.37-1.18a64.13,64.13,0,0,1,8.19-2.06c2.14-.44,4.29-.87,6.41-1.43a.34.34,0,0,0,.15-.06l.12,0c1.37-.43,2.75-.87,4.11-1.33l4.09-1.43,4.07-1.49c.61-.22,1.2-.47,1.8-.72s1.2-.48,1.81-.67a.35.35,0,0,0,.14-.06l.25-.08,1.66-.57c.86-.3,1.71-.59,2.57-.87l.76-.26,1.67-.56q3.35-1.1,6.7-2.12l1-.29,1-.29,2-.55c1-.27,2-.53,3-.78.66-.18,1.33-.35,2-.51,2-.51,4-1,6-1.53l1-.26,1.14-.3,1.15-.3L134,245l3.41-1c2.65-.77,5.3-1.55,7.94-2.37l3.4-1.07,1.13-.36,3.39-1.08,6.79-2.16,3.4-1.07c2.7-.83,5.41-1.58,8.12-2.34q3.16-.89,6.32-1.81l.16,0,.11,0,4.13-1.28,4.13-1.28,4.11-1.26,1.84-.57,1.84-.56.14,0,.25-.07,4.27-1.27-7.83,1.45H191l-.22,0L190,227l-.1,0c-4.48.85-9,1.63-13.45,2.45l-.17,0-1.79.3-4,.68-4,.69-.53.09c-2.65.44-5.29.82-7.93,1.3l-2.18.4c-2.17.41-4.34.85-6.51,1.28s-4.29.78-6.45,1.14l-2.15.34q-5.34.85-10.66,1.77c-2.13.37-4.26.74-6.38,1.14l-3.15.6c-1.76.34-3.5.69-5.25,1.06l-4.17.92c-1.39.33-2.77.66-4.15,1-2.42.62-4.87,1.1-7.33,1.55-2.62.47-5.24.9-7.84,1.43h-.08l-.23,0-.7.15a.17.17,0,0,0-.1,0c-4.45,1-9,1.42-13.49,2.24a.55.55,0,0,0-.18,0c-.61,0-1.22.1-1.82.17-2.72.29-5.39.75-8.09,1.13s-5.72.56-8.53,1.09-5.74,1.31-8.62,2-5.72,1-8.62,1.4c-5.73.74-11.43,1.62-17.07,2.74a140.62,140.62,0,0,0-16.56,4.26A49.54,49.54,0,0,1,.45,262.1l4.9,20.46,2.42-.91c2.2-.8,4.42-1.57,6.66-2.27,5.25-1.63,10.68-2.5,16.05-3.63C36.63,274.41,42.76,273,48.77,271Zm183,146.83c.07-2.67.11-5.33.14-8,0-5.33,0-10.67.19-16s.07-10.56-.13-15.86c-.15-3.88-.28-7.76-.43-11.64h0a1.77,1.77,0,0,0,0-.23v0c-.09-2.45-.21-4.9-.4-7.35-.1-1.23-.2-2.45-.35-3.68-.06-.52-.13-1-.2-1.56v0c0-.22,0-.45,0-.67s0-.44,0-.66c-.1-1.56-.28-3.12-.47-4.68-.09-.77-.19-1.53-.29-2.29-.06-.52-.13-1-.19-1.55-.1-.78-.18-1.55-.26-2.33-.05-.51-.1-1-.14-1.55s0-.8-.07-1.21,0-.53,0-.8c0-1.21,0-2.41,0-3.62,0-.26,0-.53,0-.8,0-.67,0-1.33,0-2q0-3,0-6c0-1.33,0-2.67,0-4,0-2,0-4,0-6s0-4,0-6,0-4,0-5.94l0-2q-.08-4-.23-7.93c-.15-3.88-.28-7.76-.43-11.65h0v-.25c-.1-2.45-.2-4.9-.36-7.35-.07-1.23-.15-2.45-.26-3.68,0-.52-.1-1-.14-1.56v0c0-.44,0-.88-.06-1.32-.08-1.56-.21-3.13-.34-4.68l-7.71-.26c0,1.29,0,2.57,0,3.85a.13.13,0,0,0,0,.06,27,27,0,0,0,.14,3.48c.09,1.21.14,2.42.18,3.64.08,2.46.1,4.93,0,7.39a.39.39,0,0,0,0,.15c0,.25,0,.5,0,.75s0,.45,0,.67c-.08,2.72-.1,5.43-.18,8.15,0,.67-.05,1.35-.09,2s-.06,1.11-.1,1.66q-.1,1.25-.24,2.49l-.18,1.65c0,.28-.07.55-.1.83-.27,2.2-.55,4.41-.69,6.62-.09,1.47-.1,2.93-.07,4.39,0,.33,0,.65,0,1l0,1c0,.48,0,1,.05,1.46.1,2.66.09,5.32.05,8,0,1-.05,1.95-.1,2.92-.08,1.62-.21,3.23-.45,4.84-.19,1.25-.39,2.5-.57,3.75-.08.63-.16,1.25-.22,1.88s-.11,1.25-.14,1.88c-.12,3.3,0,6.59.09,9.89h0c0,1.28.07,2.57.08,3.85a.11.11,0,0,0,0,.05,16.41,16.41,0,0,0,.3,3.49c.17,1.21.27,2.43.35,3.64q.27,3.71.19,7.4a.33.33,0,0,0,0,.15c0,.25,0,.5,0,.75-.14,3.62-.07,7.24-.29,10.85-.28,4.43-1.49,8.81-1.83,13.24a55.06,55.06,0,0,0,.16,7.81c.17,2.66.2,5.32.17,8a41.22,41.22,0,0,1-.7,7.75,47.47,47.47,0,0,0-1.23,7.5c-.14,3.3.08,6.6.25,9.9l18.61.6c-.41-2.57-.89-5.15-1.14-7.72A51.11,51.11,0,0,1,231.76,417.85Zm107.55-17.7c-1.28-2.47-2.6-4.93-3.92-7.38-2.65-4.91-5.34-9.8-7.92-14.74s-5.27-9.71-8.11-14.46q-3.14-5.22-6.26-10.46h0l-.12-.21h0c-1.32-2.2-2.66-4.39-4.07-6.54-.7-1.08-1.41-2.15-2.16-3.2-.31-.45-.64-.89-1-1.33a0,0,0,0,0,0,0c-.12-.2-.23-.4-.36-.6l-.36-.59c-.88-1.38-1.82-2.72-2.78-4.06l-1.41-2-.95-1.33c-.47-.66-.94-1.33-1.4-2-.31-.45-.61-.9-.9-1.36s-.46-.71-.68-1.07l-.42-.72c-.64-1.1-1.23-2.21-1.82-3.32l-.4-.74c-.33-.62-.66-1.23-1-1.84-1-1.83-2-3.67-3-5.49l-2-3.66-3.06-5.48q-1.53-2.74-3-5.49t-3-5.43c-.34-.6-.68-1.2-1-1.8q-2.07-3.6-4.2-7.15-3.14-5.23-6.26-10.46h0l-.12-.2v0q-2-3.3-4-6.56c-.68-1.08-1.37-2.17-2.08-3.24l-.92-1.36v0l-.72-1.19c-.86-1.39-1.76-2.76-2.67-4.12l-6.87,3.52c.66,1.17,1.31,2.34,1.95,3.52a.08.08,0,0,0,0,.05,26.62,26.62,0,0,0,1.88,3.12c.69,1.07,1.34,2.16,2,3.25q2,3.33,3.77,6.75l.09.13.35.7.33.63c1.3,2.52,2.66,5,4,7.54.33.63.65,1.27,1,1.9s.51,1.05.75,1.58c.36.79.71,1.58,1.05,2.39l.67,1.6.33.81c.88,2.15,1.75,4.3,2.75,6.4.66,1.39,1.39,2.73,2.15,4.05l.52.89.52.88.78,1.32c1.42,2.38,2.76,4.82,4.07,7.27.47.91.94,1.81,1.39,2.72.75,1.52,1.44,3.06,2.05,4.66.46,1.23.91,2.47,1.4,3.7.24.62.48,1.23.75,1.83s.53,1.2.83,1.79c1.55,3.08,3.33,6,5.07,9h0c.68,1.15,1.36,2.31,2,3.48a.14.14,0,0,1,0,.06,18.51,18.51,0,0,0,2,3c.76,1,1.46,2.1,2.15,3.17q2.1,3.26,3.9,6.68a.41.41,0,0,0,.1.13c.11.23.23.46.34.7,1.71,3.38,3.6,6.66,5.23,10.08,2,4.19,3.15,8.78,5.09,13a58.8,58.8,0,0,0,4.09,7.08c1.49,2.35,2.86,4.77,4.17,7.22a45.44,45.44,0,0,1,3.31,7.44,51.94,51.94,0,0,0,2.71,7.47c1.55,3.08,3.4,6,5.22,8.93l16.58-8.49c-1.65-2.16-3.38-4.28-4.89-6.51A56.48,56.48,0,0,1,339.31,400.15Zm82.27-136.6c-2.69-.69-5.4-1.36-8.11-2-5.42-1.32-10.84-2.61-16.24-4s-10.73-2.6-16.15-3.74l-11.91-2.5h0l-.24,0h0c-2.51-.52-5-1-7.55-1.48-1.26-.23-2.52-.46-3.79-.65l-1.62-.23h0l-.68-.14-.68-.14c-1.6-.3-3.22-.55-4.83-.79l-2.38-.35-1.6-.24c-.8-.12-1.61-.24-2.41-.38l-1.59-.27-1.24-.25-.83-.17c-1.23-.28-2.45-.58-3.67-.88l-.82-.2-2-.5c-2-.49-4.07-1-6.11-1.44l-4.07-1-6.11-1.43-6.1-1.45-6.06-1.41-2-.46c-2.69-.6-5.39-1.19-8.1-1.75l-11.92-2.51h0l-.24-.05h0q-3.75-.79-7.53-1.53c-1.26-.24-2.52-.48-3.78-.7l-1.61-.27h0l-1.35-.28c-1.6-.32-3.21-.6-4.82-.88l-1.4,5.38c-2.22-1.17-4.44-2.34-6.65-3.53l-.09-.05-.64-.34-.2-.11-.07,0-7-3.75,3.72,2.46.22.14.12.09,1.6,1.06,1.59,1.07,3.58,2.4q1.79,1.22,3.58,2.42L265.2,239l.1.07.13.09c1.83,1.21,3.67,2.39,5.52,3.58,2.37,1.51,4.75,3,7.09,4.6l2.94,2,5.88,4,2.93,2,1,.67,3,2q3.42,2.31,6.9,4.56c1,.65,2,1.29,3,1.92q2,1.28,4,2.52l1,.63,1,.62.87.54,5.26,3.22,1.76,1.07,2.62,1.63,1.74,1.11.86.56.86.57c1.95,1.29,3.88,2.62,5.8,4l1.44,1,.66.46,2.2,1.57,1.43,1,.22.15a.52.52,0,0,0,.11.1c.54.36,1.05.75,1.55,1.15s1,.81,1.52,1.2l3.47,2.57c1.17.85,2.34,1.7,3.51,2.53s2.37,1.65,3.56,2.46l.1,0a.69.69,0,0,0,.13.11c1.86,1.15,3.78,2.2,5.69,3.27a72.63,72.63,0,0,1,7.22,4.38l2.89,2.09c2.89,2.11,5.75,4.24,8.65,6.32,1.29.92,2.58,1.84,3.88,2.74,5.2,3.59,10.63,6.78,16.09,9.9,4.78,2.69,9.69,5.17,14.24,8.25,1.94,1.31,3.85,2.68,5.73,4.08l2.06,1.54,9.45-15.9a56.59,56.59,0,0,1-6.44-3.83,162,162,0,0,0-14.57-9c-5-2.76-10.2-5.34-15.41-7.81-2.64-1.26-5.27-2.5-7.78-4s-5-3.05-7.65-4.44-5.18-2.42-7.76-3.67-4.85-2.44-7.34-3.56c-.55-.25-1.11-.49-1.67-.72a.38.38,0,0,0-.17,0c-4-2.14-8.21-4-12.17-6.25l-.08-.06-.63-.35-.2-.11-.07,0c-2.32-1.28-4.69-2.49-7-3.73s-4.4-2.37-6.53-3.67c-1.21-.74-2.44-1.47-3.67-2.19s-2.46-1.43-3.7-2.13c-1.55-.88-3.12-1.74-4.68-2.59l-2.83-1.53c-1.9-1-3.81-2-5.73-3q-4.79-2.49-9.61-4.93l-1.94-1c-1.95-1-3.88-2-5.8-3s-3.87-2.13-5.82-3.18l-1.95-1c-2.37-1.25-4.77-2.43-7.15-3.65l-.48-.24-3.61-1.88-3.61-1.87-1.62-.83-.15-.07L262,234.86l3.82.9.06,0c1.17.33,2.37.52,3.56.74s2.49.49,3.73.76c2.52.53,5,1.12,7.53,1.75a.8.8,0,0,0,.15,0l.76.2.68.17c2.75.71,5.51,1.38,8.26,2.1l2.06.55,1.67.47,2.49.77,1.66.53.82.27c2.21.73,4.41,1.46,6.64,2.09,1.48.42,3,.77,4.46,1.11l1,.22,1,.21,1.5.32c2.72.58,5.42,1.22,8.12,1.89l2.95.77c1.64.45,3.26.94,4.86,1.5,1.24.43,2.48.88,3.73,1.3.62.21,1.25.42,1.88.61s1.26.39,1.89.55c3.33.89,6.71,1.6,10.07,2.33h0q2,.42,3.93.87l.06,0a24.07,24.07,0,0,0,3.59.63c1.26.18,2.51.4,3.76.63q3.81.7,7.55,1.66h.16l.75.21c3.66,1,7.36,1.79,11,2.83,4.47,1.26,8.74,3.17,13.19,4.49,2.62.78,5.3,1.25,8,1.77s5.44,1.14,8.14,1.8a62.28,62.28,0,0,1,7.78,2.37,69,69,0,0,0,7.45,2.69c3.33.89,6.72,1.53,10.1,2.21l3.41-13.06c-2.68-.33-5.37-.61-8-1.06C425.91,264.72,423.76,264.11,421.58,263.55Zm-413.74-39a.68.68,0,0,0,.35,0h.05l.24,0,.29,0h.29l.92-.08.93-.11c1.36-.2,2.72-.43,4.09-.58,2.49-.27,5-.36,7.48-.39h0c.73,0,1.45,0,2.18,0l1.63-.06,1.63-.09,1.09-.07,1.09-.07,1.09-.07,1.63-.1.55,0,.54,0c.55,0,1.1,0,1.64-.05h1.1l2.2,0H40c.74,0,1.47,0,2.2,0,1.1,0,2.2-.06,3.3-.11l1.09-.06,2.2-.11,2.2-.12,1.1-.06c1.83-.09,3.66-.17,5.49-.21q3.88-.06,7.78,0h3.33l2.22,0H72l3.33,0h8.8l2.2,0,1.1,0,2.2,0,3.31-.1,3.49-.11,4.35-.09,6.14-.1,1.7,0a.87.87,0,0,0,.36,0h0l.24,0h.29l.29,0,.93-.06.92-.09c1.36-.16,2.72-.34,4.09-.46,2.49-.22,5-.3,7.48-.34h0c.72,0,1.45,0,2.17,0,1.09,0,2.18-.08,3.27-.13l1.08-.06,1.09-.06,1.09-.06,1.64-.08,1.09-.05,1.64-.05c1.46,0,2.92,0,4.39,0l2.19,0,3.3-.11,3.29-.15,3.3-.15c1.83-.08,3.66-.15,5.49-.19,3.71-.07,7.41-.1,11.11-.11h7.76l3.3,0,2.2,0,2.2,0,3.3-.06,2.2-.05,3.3-.1,3.49-.1,4.35-.11V214.4l4.78,1L202,214.18l-.25-.07-.15-.05-.1,0v-.78h-2.73L198,213l-4.14-1.19-4.15-1.19-4.15-1.19-.11,0-.16,0c-2.11-.59-4.22-1.16-6.34-1.73-2.72-.72-5.44-1.44-8.15-2.22l-3.42-1-6.83-2-3.41-1-1.14-.34-3.41-1c-2.66-.76-5.31-1.5-8-2.23l-3.42-.92-4.57-1.19-1.14-.29-1.15-.3-1-.25-6-1.5-2-.5-3-.76-2-.53-1-.27-1-.28c-2.25-.63-4.49-1.29-6.73-2l-1.68-.51-.78-.24-2.58-.79-1.68-.52-.25-.07-.14-.06c-.62-.17-1.22-.38-1.83-.6s-1.21-.43-1.82-.63l-4.1-1.33c-1.37-.44-2.75-.87-4.12-1.29s-2.76-.83-4.15-1.23l-.11,0-.15-.06c-2.13-.54-4.27-1-6.41-1.46-2.75-.59-5.5-1.19-8.19-2l-3.4-1.06c-3.4-1.08-6.79-2.19-10.19-3.25-1.51-.47-3-.93-4.54-1.38-6-1.79-12.17-3.24-18.31-4.62-5.36-1.18-10.76-2.18-16-3.7-2.25-.65-4.48-1.35-6.71-2.07l-2.44-.8L8.67,175.3c2.46.49,4.9,1,7.29,1.75,5.46,1.64,11,3,16.58,4.17s11.29,2.22,17,3.15c2.87.48,5.74.95,8.57,1.61s5.73,1.41,8.62,2,5.64.9,8.46,1.38c2.67.45,5.33,1,8,1.37.6.09,1.2.18,1.8.25a.54.54,0,0,0,.18,0c4.46.9,9,1.55,13.42,2.54a.17.17,0,0,0,.1,0l.7.16.23,0h.07c2.6.56,5.21,1,7.81,1.57s4.9,1,7.32,1.61c1.38.34,2.76.68,4.15,1s2.78.64,4.17,1q2.61.58,5.22,1.12l3.15.65q3.17.65,6.35,1.26,5.29,1,10.6,2l2.14.4c2.15.4,4.28.82,6.42,1.26l6.49,1.37,2.17.44c2.63.52,5.26,1,7.88,1.48l.53.1,4,.77,4,.77,1.78.33.17,0,12.19,2.44-.45,0-1.38,0-1.08,0c-1.44.05-2.89.09-4.33.12l-4.34.06-5.43,0H177l-6.57,0c-3.66,0-7.31,0-11-.06l-3.28-.05c-1.45,0-2.91-.07-4.36-.12l-1.1,0-2.18-.09-1.09-.05c-1.83-.07-3.65-.14-5.47-.16-1,0-2.06,0-3.09,0h-1.55l-2.57,0-1,0-4.22,0h-6.35c-1.41,0-2.81.05-4.21.12l-1,.06-.53,0c-.87.06-1.75.11-2.63.12h-1c-1,0-1.91-.08-2.87-.09-.8,0-1.59,0-2.39,0a.77.77,0,0,0-.27,0c-.92,0-1.84,0-2.76,0h-.92l-2.75-.07-.92,0h-.46c-1.84,0-3.67,0-5.51.12l-1.37.07-1.09.05c-1.08.06-2.16.1-3.24.13l-1.09,0-1.08,0c-1.09,0-2.17,0-3.26.06-1.81,0-3.61,0-5.42,0l-2.17,0-4.38,0H67.49q-4.38,0-8.76-.09c-1.1,0-2.19,0-3.28-.08-1.46,0-2.91-.1-4.37-.17L50,213.52l-2.18-.13-1.1-.06c-1.09-.06-2.18-.12-3.28-.16-.73,0-1.46-.06-2.19-.07h-.51c-.86,0-1.72,0-2.58,0h-.51l-1,0L34,213.2l-1,0c-1.4,0-2.81.05-4.22.06l-2.11,0H22.43c-1.4,0-2.8.07-4.2.16l-1.05.08-.53.05c-.88.07-1.75.14-2.63.16h-1c-1,0-1.91-.11-2.87-.13-.8,0-1.6,0-2.4,0a.44.44,0,0,0-.26-.05c-2.46,0-4.9-.07-7.35-.16H0v11.24l6.14-.08Zm423.35-10c-5.69-.32-11.39-.34-17.1-.19s-11.5.47-17.24.89c-2.91.21-5.8.42-8.71.44s-5.9,0-8.85.07-5.69.44-8.54.63-5.42.3-8.13.53l-1.81.18-.17,0c-4.54.17-9.1.59-13.64.66h-.11l-.72,0h-.3c-2.66.07-5.31.2-8,.3s-5,.17-7.49.14h-4.27c-1.43,0-2.85,0-4.28.06q-2.67,0-5.34.12l-3.21.11c-2.16.07-4.31.16-6.47.25q-5.39.24-10.77.53l-2.18.11c-2.18.11-4.35.21-6.54.27s-4.42.11-6.63.19l-2.21.08c-2.67.1-5.34.26-8,.39l-.53,0-4.07.18-4.06.18-1.81.09h-.17c-4.54.17-9.1.37-13.64.52h-.11l-.72,0h-.31l-4.63.16-2.37-2.37-.17-.18c.64-.64,1.27-1.28,1.91-1.91l1.89-1.88c1.91-1.91,3.82-3.8,5.74-5.69q4.81-4.72,9.69-9.37l2.93-2.76c1.31-1.22,2.63-2.42,4-3.62l1-.89,2-1.77,1-.89c1.69-1.48,3.36-3,5-4.52.92-.87,1.82-1.76,2.71-2.66l.44-.45.89-.91c.73-.76,1.46-1.52,2.2-2.27.29-.31.59-.61.88-.91l3.66-3.68,1.84-1.83,1.84-1.82,1.76-1.73.1-.12c1.22-1.22,2.4-2.48,3.55-3.76.29-.32.57-.65.86-1l.42-.49c.71-.81,1.42-1.63,2.18-2.4l.41-.41.43-.41c.87-.79,1.77-1.55,2.62-2.36s1.4-1.38,2.09-2.08a.67.67,0,0,0,.28-.18c.79-.81,1.6-1.6,2.42-2.37l.83-.78c.82-.77,1.66-1.53,2.49-2.29l.84-.76L309,150l.25-.23c1.66-1.55,3.2-3.19,4.71-4.87l1.12-1.27.89-1q1.33-1.49,2.7-2.94c.3-.33.61-.65.91-1l.92-1,2.79-2.87c1.56-1.58,3.14-3.15,4.71-4.72l1.88-1.89q1.9-1.91,3.82-3.8l1.92-1.89c.64-.63,1.28-1.26,1.93-1.88q3.86-3.76,7.79-7.45c1-.91,2-1.83,3-2.73q2-1.8,4-3.56l1-.87,2.07-1.73,1-.87c1-.87,2.05-1.74,3.06-2.63.67-.6,1.34-1.2,2-1.81l.46-.43c.76-.73,1.51-1.48,2.25-2.23.14-.16.29-.31.44-.46l.87-.91,2.19-2.3c.29-.3.58-.61.88-.91,1.2-1.24,2.42-2.47,3.63-3.69.61-.62,1.23-1.23,1.84-1.84l1.84-1.83,1.75-1.73.1-.12c1.22-1.22,2.38-2.5,3.51-3.81l.83-1,.41-.5c.68-.84,1.37-1.67,2.13-2.45l.42-.41.43-.4c.87-.79,1.8-1.52,2.66-2.32s1.4-1.38,2.08-2.09a.57.57,0,0,0,.3-.17c2.09-2.16,4.37-4.14,6.62-6.15l.16-.14-12.76-13c-1.76,1.8-3.53,3.58-5.29,5.38L377.76,57a.6.6,0,0,0-.32.29l0,0v0l-.19.23-.23.27-.24.27c-.25.29-.49.58-.72.88s-.47.61-.69.93c-1,1.4-1.9,2.84-2.93,4.19A74.34,74.34,0,0,1,366.29,71l-.05,0c-.65.61-1.28,1.24-1.9,1.89-.46.48-.91,1-1.36,1.47s-.89,1-1.33,1.5l-.88,1-.87,1-.87,1c-.44.51-.88,1-1.33,1.52l-.45.5-.45.5q-.68.75-1.38,1.47c-.31.32-.63.64-1,1-.64.63-1.3,1.24-2,1.85l-.49.47-.48.47q-1,.95-1.89,1.92c-.94,1-1.86,2-2.76,3l-.91,1c-.6.68-1.2,1.35-1.79,2s-1.2,1.35-1.79,2l-.9,1c-1.5,1.68-3,3.35-4.59,5q-3.33,3.42-6.77,6.74l-1,1-2,1.89-2,1.89-1,.94-2.95,2.84-1,.94-2.9,2.82-1.93,1.9-1.91,1.92c-.64.63-1.27,1.28-1.9,1.92-.32.32-.63.65-.94,1-.63.65-1.26,1.29-1.88,1.95-.94,1-1.87,2-2.79,2.95s-2,2.09-2.95,3.13q-1.85,1.94-3.71,3.85l-5.27,5.4-1.46,1.51a.72.72,0,0,0-.31.29l0,0,0,0-.19.23-.23.26-.24.27c-.25.28-.5.57-.74.87s-.48.59-.71.9c-1,1.35-2,2.73-3.07,4-1.94,2.4-4,4.64-6.18,6.83,0,0,0,0,0,0-.64.62-1.27,1.25-1.88,1.9-.93,1-1.83,2-2.72,3l-.89,1-.88,1-.89,1c-.44.51-.89,1-1.34,1.51l-.9,1c-.46.5-.92,1-1.39,1.47-1.25,1.3-2.57,2.51-3.84,3.78-.64.64-1.26,1.29-1.89,1.94-.93,1-1.85,2-2.76,3s-1.82,2-2.73,3l-2.72,3c-1.51,1.67-3,3.33-4.61,5-3.16,3.27-6.38,6.49-9.61,9.68L236,207.83l-1,1-2.87,2.86-.75.75-.78-.82-.9-1-1.15-1.24c-1.55-1.65-3.11-3.27-4.75-4.83l-.25-.24-6.38,6.5c1.24,1.29,2.47,2.57,3.7,3.87,1,1,2,2.08,3,3.12L225,219l-1.33,1.38c-.93,1-1.86,2-2.78,3s-2,2.09-3,3.13c-1.22,1.29-2.46,2.58-3.7,3.86l6.38,6.5.26-.24c1.64-1.56,3.2-3.18,4.74-4.83.38-.41.77-.82,1.15-1.24s.6-.65.91-1q1.81-2,3.67-3.86l0,0,1.87,1.9,1.91,1.92c.95,1,1.91,1.91,2.87,2.87l1,1,5.82,5.75c3.24,3.2,6.46,6.41,9.62,9.68,1.56,1.62,3.09,3.28,4.61,5l2.72,3c.9,1,1.81,2,2.72,3s1.84,2,2.77,3c.62.65,1.25,1.3,1.88,1.94,1.28,1.27,2.6,2.49,3.85,3.78q.71.72,1.38,1.47l.91,1,1.34,1.51.89,1c.29.34.58.68.88,1l.89,1c.89,1,1.79,2,2.71,3,.62.65,1.25,1.28,1.89,1.9l0,0c2.14,2.19,4.24,4.43,6.18,6.83,1.06,1.32,2.05,2.7,3.07,4.06.23.3.46.6.7.89s.49.59.75.87l.23.27.24.26.19.23v0l0,0a.73.73,0,0,0,.32.29l1.46,1.51,5.26,5.4q1.88,1.92,3.72,3.85,1.49,1.56,3,3.13c.92,1,1.85,2,2.78,2.95.63.66,1.25,1.31,1.88,1.95l.95,1c.63.65,1.26,1.29,1.9,1.93l1.91,1.91,1.92,1.9,2.91,2.83,1,.93,3,2.84,1,.94,2,1.89,2,1.9,1,.95c2.28,2.22,4.55,4.46,6.77,6.74,1.57,1.62,3.08,3.29,4.58,5l.9,1,1.79,2,1.8,2,.9,1c.91,1,1.83,2,2.76,3,.62.65,1.26,1.29,1.9,1.92l.48.47.49.47c.65.62,1.31,1.22,2,1.85.32.31.65.63,1,.95q.71.72,1.38,1.47l.45.5.45.5,1.32,1.52.87,1,.88,1,.87,1,1.33,1.5c.45.5.91,1,1.37,1.48.62.64,1.25,1.27,1.9,1.88l0,0a72.91,72.91,0,0,1,6.12,6.89c1,1.35,2,2.79,2.94,4.19.22.32.45.63.68.93s.48.59.73.88l.23.27.24.27.18.23,0,0v0a.61.61,0,0,0,.33.29l1.47,1.49c1.76,1.8,3.53,3.58,5.29,5.38l12.76-13a1.07,1.07,0,0,1-.16-.14c-2.25-2-4.53-4-6.63-6.15a.67.67,0,0,0-.29-.17c-.69-.7-1.37-1.41-2.08-2.09-.87-.8-1.79-1.53-2.66-2.32l-.44-.4-.41-.41c-.76-.77-1.45-1.61-2.13-2.45l-.42-.5c-.27-.34-.55-.67-.83-1-1.12-1.31-2.29-2.59-3.5-3.81l-.1-.12-1.76-1.73L377,354.86,375.18,353q-1.83-1.84-3.64-3.7l-.88-.91c-.73-.76-1.45-1.53-2.18-2.3-.29-.3-.58-.61-.88-.91l-.44-.45c-.74-.76-1.48-1.51-2.24-2.23l-.47-.44c-.65-.61-1.32-1.21-2-1.81-1-.89-2-1.76-3.07-2.63l-1-.87-2.06-1.73-1-.87q-2-1.76-4-3.56c-1-.9-2-1.81-3-2.73-2.63-2.46-5.22-4.94-7.8-7.44l-1.93-1.89-1.92-1.89c-1.27-1.26-2.55-2.53-3.81-3.8L330.94,311q-2.35-2.36-4.7-4.73c-.94-.95-1.87-1.91-2.79-2.87l-.92-1-.91-1c-.92-1-1.82-1.95-2.71-2.94-.29-.33-.59-.66-.88-1l-1.13-1.27c-1.51-1.68-3-3.32-4.7-4.87l-.26-.23-.16-.15-.83-.76-2.5-2.29-.82-.77c-.82-.78-1.63-1.57-2.42-2.37a.66.66,0,0,0-.28-.19c-.69-.7-1.38-1.41-2.09-2.08s-1.76-1.56-2.62-2.36l-.43-.41-.42-.41c-.76-.77-1.47-1.59-2.17-2.4-.14-.17-.29-.33-.43-.49l-.85-1c-1.15-1.28-2.34-2.54-3.56-3.76a.52.52,0,0,0-.1-.11l-1.75-1.73-1.85-1.83-1.83-1.83q-1.84-1.83-3.66-3.68l-.88-.9-2.21-2.28-.88-.9-.45-.46c-.89-.9-1.78-1.79-2.7-2.66-1.63-1.54-3.31-3-5-4.52l-1-.88-2-1.78-1-.89q-2-1.78-4-3.62c-1-.91-2-1.83-2.94-2.76q-4.87-4.63-9.68-9.37c-1.92-1.88-3.84-3.78-5.74-5.68L242.81,224l-2.1-2.1.88,0H242l1.92.07,1.91.09,4.3.18,4.32.19,4.31.19H259c2.19.08,4.38.14,6.56.2,2.82.07,5.63.13,8.45.26l3.55.16,7.11.35,3.55.18,1.19.06L293,224c2.76.13,5.51.23,8.27.31l3.54.1c1.57,0,3.15.07,4.72.09l1.18,0,1.18,0,1,0,6.17.06,2.05,0,3.09,0,2.06.05,1,0,1,0c2.33.09,4.67.21,7,.34l1.76.1.8.05,2.7.17,1.75.11.26,0,.15,0c.64,0,1.28.09,1.92.15s1.28.15,1.92.2l4.3.33c1.43.11,2.87.21,4.31.3s2.87.16,4.31.22a.48.48,0,0,0,.12,0l.16,0c2.19,0,4.38,0,6.57-.07,2.81-.07,5.62-.13,8.44.06l3.55.24c3.56.26,7.11.54,10.66.78,1.58.11,3.16.21,4.74.29,6.3.33,12.6.31,18.89.22,5.48-.1,11-.39,16.46-.14,2.34.1,4.67.26,7,.44l2.55.22V214.6A74.85,74.85,0,0,1,431.19,214.6Z"/><path class="cls-1" d="M230.44,124.32a94.94,94.94,0,0,0-14.36,1.17c-11.8,1.85-25.46,4.26-38.08,9.64a66.57,66.57,0,0,0-8.16,4.35c-2.52,1.51-5.48,3.34-8.35,5.43a114.83,114.83,0,0,0-13.63,12.19c-1.78,1.78-3.59,3.75-5.71,6.18l-.67.77a58,58,0,0,0-3.84,4.71,96.18,96.18,0,0,0-7.15,12.11l-1.56,2-.48.61a46.46,46.46,0,0,0-5.84,10c-2,4.48-2.8,9.45-3.39,13.76a85.43,85.43,0,0,0,.41,24.7l.26,1.81c.39,2.63.79,5.36,1.39,8,.86,3.77,1.7,7,2.56,10a94.17,94.17,0,0,0,4.07,10.9,71.29,71.29,0,0,0,5.26,9.44l1.35,2.15c2,3.18,4.06,6.29,6.24,9.26a50.41,50.41,0,0,0,4.5,5.38c.91.91,1.89,1.79,2.84,2.64l.66.59.89.81c1.22,1.12,2.49,2.28,3.82,3.32l.28.22c1.28,1,2.55,2,3.85,3l2.13,1.61c1.89,1.44,3.84,2.92,5.79,4.33,5,3.6,10.19,7,15.9,10.29,2.76,1.61,5.67,3.13,8.89,4.65,1.33.64,2.78,1.26,4.41,1.91,1.27.51,2.58.93,3.85,1.33l.9.29c2.94.94,6,1.66,9,2.35l.44.1.79.18a91.76,91.76,0,0,0,10.22,2l2.46.29,2.76.32c1.3.15,2.63.21,3.91.27l1.92.1c.85.05,1.7.07,2.56.07,2.36,0,4.76-.17,7.09-.35l1.79-.13a79.21,79.21,0,0,0,9.62-1.3,67.68,67.68,0,0,0,10.83-3.37,71.27,71.27,0,0,0,8.37-3.92c3.28-1.75,6.49-3.47,9.67-5.3,2.9-1.66,5.77-3.39,8.23-4.88l.56-.34c3.19-1.94,6.48-3.94,9.56-6.15a65.94,65.94,0,0,0,7.36-6,82.51,82.51,0,0,0,7.56-8.4,108.29,108.29,0,0,0,9.89-16,47.86,47.86,0,0,0,3.76-9.1c.57-1.94,1-3.56,1.36-5.11l.27-1.14c.34-1.46.7-3,.95-4.48l.15-.92.92-5.61c.92-5.57,1.66-11.59,2.41-19.53l0-.28c.74-7.81,1.5-15.88.09-23.64-.44-2.48-1.08-5-1.7-7.39-.18-.73-.37-1.46-.55-2.19-.8-3.23-1.78-6.4-2.54-8.8A64.09,64.09,0,0,0,325,174.73a90.29,90.29,0,0,0-11.13-16.26,69.61,69.61,0,0,0-7.58-7.42,73.81,73.81,0,0,0-14.42-10.27,170.16,170.16,0,0,0-18.1-7.91c-5.95-2.24-12.11-4-17.9-5.53a76.59,76.59,0,0,0-10.45-1.89c-3.14-.4-6.36-.71-9.84-1-1.71-.12-3.45-.18-5.18-.18Z"/><path class="cls-2" d="M182.37,250.11a15.67,15.67,0,0,0-.94-4.21,27.83,27.83,0,0,0-1.81-3.7,22.39,22.39,0,0,0-2.55-3.57,24.55,24.55,0,0,0-3.16-2.93,16,16,0,0,0-1.57-1.12c-.58-.34-1.18-.65-1.76-.94a10.81,10.81,0,0,0-2.11-.82l-.17,0c-.57-.15-1.16-.32-1.74-.46a36.07,36.07,0,0,0-4.24-.73c-.37-.05-.75-.08-1.11-.11l-.49-.12c-.73-.2-1.47-.31-2.21-.45a23.21,23.21,0,0,0-3.81-.38h-.82c-1.19,0-2.38.06-3.57.17a17.77,17.77,0,0,0-1.94.28,14.54,14.54,0,0,0-2.14.62,12.31,12.31,0,0,0-3.89,2.39,14.6,14.6,0,0,0-1.65,1.59l-.42.54-.25.15-.33.21a19.19,19.19,0,0,0-1.64,1.07,12.06,12.06,0,0,0-1.25,1.07,10.31,10.31,0,0,0-1,1.13,14.56,14.56,0,0,0-1,1.64,16.78,16.78,0,0,0-1.06,2.17c-.21.56-.39,1.15-.56,1.71l-.06.18a22.58,22.58,0,0,0-.83,4.21c-.07.58-.12,1.22-.17,2,0,.61,0,1.24,0,1.85v.18a29.79,29.79,0,0,0,.44,4.4,18.38,18.38,0,0,0,.5,2c.11.39.26.78.4,1.15a9.2,9.2,0,0,0,.4,1c.17.35.33.66.49.94a8.57,8.57,0,0,0,.52.81l.18.28a15,15,0,0,0,1.16,1.51c.73.83,1.5,1.65,2.24,2.44l.45.49c.58.63,1,1.09,1.51,1.51l.25.23c.44.4.89.81,1.35,1.19a26.12,26.12,0,0,0,3.34,2.35c.68.4,1.42.82,2.18,1.19.52.26,1.11.51,1.84.8s1.32.47,1.9.64c.84.23,1.67.41,2.38.55a28.65,28.65,0,0,0,3.95.46c.62,0,1.22,0,1.8,0,.91,0,1.8,0,2.64-.11a24,24,0,0,0,4-.64,14.28,14.28,0,0,0,2.24-.74,19.47,19.47,0,0,0,1.81-.93,25.14,25.14,0,0,0,3.51-2.45l0,0c.5-.43,1-.87,1.5-1.35s.92-1,1.44-1.56l.11-.13c.43-.47.87-1,1.27-1.47s.71-.94,1-1.41l.17-.23a17,17,0,0,0,1.91-3.79c.26-.7.48-1.36.67-2a18.2,18.2,0,0,0,.45-2.14l0-.2c.09-.59.18-1.2.22-1.81s.08-1.42.09-2C182.54,253.21,182.52,251.67,182.37,250.11Z"/><path class="cls-2" d="M321.3,252.3a15.86,15.86,0,0,1-.93,4.21,27.92,27.92,0,0,1-1.82,3.7,22.07,22.07,0,0,1-2.54,3.56,23.86,23.86,0,0,1-3.16,2.93,14.53,14.53,0,0,1-1.58,1.12c-.57.34-1.17.65-1.75.94a11.53,11.53,0,0,1-2.11.83l-.17,0c-.57.16-1.16.32-1.75.46a35.5,35.5,0,0,1-4.23.73c-.37.05-.75.08-1.12.11l-.48.13c-.73.19-1.47.31-2.22.44a23,23,0,0,1-3.8.38h-.82c-1.19,0-2.39-.06-3.57-.17a15.63,15.63,0,0,1-1.94-.28,15.83,15.83,0,0,1-2.14-.61,12.23,12.23,0,0,1-3.89-2.4,13.07,13.07,0,0,1-1.65-1.59l-.42-.54-.25-.15-.34-.21a19,19,0,0,1-1.63-1.07,11,11,0,0,1-1.25-1.06,12.61,12.61,0,0,1-1-1.13,12.34,12.34,0,0,1-1-1.65,16.78,16.78,0,0,1-1.06-2.17c-.21-.56-.39-1.14-.56-1.71l-.06-.18a23.45,23.45,0,0,1-.84-4.2c-.06-.59-.11-1.22-.16-2,0-.62,0-1.25,0-1.86v-.17a28.25,28.25,0,0,1,.44-4.4,20.21,20.21,0,0,1,.49-2c.12-.4.26-.79.41-1.16a10.2,10.2,0,0,1,.4-1c.17-.35.33-.65.49-.94s.34-.55.51-.81a2.75,2.75,0,0,0,.19-.28,13.56,13.56,0,0,1,1.16-1.5c.73-.83,1.49-1.66,2.24-2.45l.45-.49c.58-.62,1.05-1.09,1.51-1.51l.25-.23c.44-.4.89-.81,1.35-1.19a26.81,26.81,0,0,1,3.33-2.35c.69-.39,1.42-.81,2.19-1.19.52-.26,1.11-.51,1.84-.79s1.32-.48,1.9-.65c.83-.23,1.67-.41,2.37-.55a29,29,0,0,1,4-.46c.62,0,1.22,0,1.8,0,.91,0,1.8,0,2.64.11a24,24,0,0,1,4,.64,13,13,0,0,1,2.23.75c.59.27,1.22.57,1.82.92a25.27,25.27,0,0,1,3.5,2.45l0,0c.51.43,1,.87,1.51,1.35s.92,1,1.44,1.57l.11.12c.43.47.87,1,1.27,1.47s.71.95,1,1.42l.16.23a16,16,0,0,1,1.91,3.79,19.88,19.88,0,0,1,.67,2,18.2,18.2,0,0,1,.45,2.14l0,.2c.09.59.19,1.2.23,1.81s.08,1.42.08,2.06A40.65,40.65,0,0,1,321.3,252.3Z"/><path class="cls-3" d="M152.14,246.64a1.55,1.55,0,0,0-.09-.41,2.23,2.23,0,0,0-.17-.35,2.3,2.3,0,0,0-.25-.34,2.09,2.09,0,0,0-.3-.28l-.15-.11-.17-.09a.84.84,0,0,0-.2-.08h0l-.16,0-.41-.07h-.15l-.22,0a1.47,1.47,0,0,0-.36,0h-.42l-.19,0a1.52,1.52,0,0,0-.2.06,1.16,1.16,0,0,0-.37.23,1.17,1.17,0,0,0-.16.15l0,0,0,0,0,0-.16.1-.12.1-.09.11-.1.16a2.09,2.09,0,0,0-.1.21,1,1,0,0,0,0,.16v0a2.18,2.18,0,0,0-.08.4c0,.06,0,.12,0,.19a.54.54,0,0,0,0,.18v0a1.87,1.87,0,0,0,0,.42,1.8,1.8,0,0,0,0,.19l0,.11a.36.36,0,0,1,0,.09l0,.09a.35.35,0,0,0,.05.08l0,0a.83.83,0,0,0,.11.15l.21.23,0,0,.14.14,0,0a.69.69,0,0,1,.13.11,2.48,2.48,0,0,0,.32.23l.21.11.18.08.18.06.23.05a2.11,2.11,0,0,0,.38,0h.42a2.63,2.63,0,0,0,.39-.06,1.11,1.11,0,0,0,.21-.08L151,249a3.14,3.14,0,0,0,.33-.24h0l.15-.13.14-.15h0l.12-.14.1-.14v0a1.58,1.58,0,0,0,.19-.36l.06-.2a1.18,1.18,0,0,0,0-.2v0c0-.06,0-.12,0-.17s0-.14,0-.2S152.15,246.79,152.14,246.64Z"/><path class="cls-3" d="M167.05,250.36a1.24,1.24,0,0,0-.09-.4,2.23,2.23,0,0,0-.17-.35,2.41,2.41,0,0,0-.25-.35,2.86,2.86,0,0,0-.3-.28,1,1,0,0,0-.15-.1.56.56,0,0,0-.17-.09.84.84,0,0,0-.2-.08h0l-.16,0-.41-.07H165l-.21,0-.37,0H164l-.19,0a1.52,1.52,0,0,0-.2.06,1.1,1.1,0,0,0-.37.23.57.57,0,0,0-.16.15l0,.05,0,0,0,0-.15.1a.58.58,0,0,0-.12.1l-.1.11-.1.16c0,.06-.07.13-.1.2l0,.17v0a3.53,3.53,0,0,0-.08.4c0,.05,0,.12,0,.19a1.08,1.08,0,0,0,0,.18h0a2.86,2.86,0,0,0,0,.43,1.21,1.21,0,0,0,.05.18.56.56,0,0,0,0,.12l0,.09a.41.41,0,0,1,0,.09.56.56,0,0,1,.05.08l0,0,.11.15.21.23,0,0,.14.14,0,0,.13.12a2.28,2.28,0,0,0,.31.22l.21.12.18.07.18.06.23.06.38,0h.42a2.66,2.66,0,0,0,.39-.07.65.65,0,0,0,.21-.07.76.76,0,0,0,.18-.09,2.13,2.13,0,0,0,.33-.23h0l.15-.13.14-.15h0l.12-.14.1-.14v0a1.45,1.45,0,0,0,.19-.37l.06-.19a1.18,1.18,0,0,0,0-.2v0a1.1,1.1,0,0,0,0-.18c0-.07,0-.13,0-.19A3.24,3.24,0,0,0,167.05,250.36Z"/><path class="cls-3" d="M156.61,258.56a1.24,1.24,0,0,0-.09-.4,2.23,2.23,0,0,0-.17-.35,2.27,2.27,0,0,0-.24-.34,2.23,2.23,0,0,0-.31-.29l-.15-.1a.91.91,0,0,0-.17-.09.7.7,0,0,0-.2-.08h0l-.17,0-.41-.07h-.15l-.21,0a2.22,2.22,0,0,0-.37,0h-.42l-.18,0-.21.06a1.1,1.1,0,0,0-.37.23l-.16.15,0,.05,0,0,0,0-.15.1-.12.1-.09.11a.49.49,0,0,0-.1.16,1,1,0,0,0-.11.21c0,.05,0,.11,0,.16v0a1.57,1.57,0,0,0-.08.4,1.11,1.11,0,0,0,0,.19v.2a2.72,2.72,0,0,0,0,.42,1.8,1.8,0,0,0,0,.19.76.76,0,0,0,0,.11.36.36,0,0,0,0,.09l0,.09a.35.35,0,0,1,.05.08l0,0,.11.15a2.39,2.39,0,0,0,.22.23l0,0,.14.14,0,0,.13.11a1.68,1.68,0,0,0,.32.22l.21.12.17.07.18.07.23,0a2.22,2.22,0,0,0,.38,0h.43l.38-.06a1.19,1.19,0,0,0,.22-.08l.17-.08a2.36,2.36,0,0,0,.33-.24h0a.86.86,0,0,0,.14-.13l.14-.15h0l.12-.14.1-.14,0,0a2,2,0,0,0,.18-.36,1.52,1.52,0,0,0,.06-.2,1.17,1.17,0,0,0,0-.2v0a1.1,1.1,0,0,0,0-.18,1.28,1.28,0,0,0,0-.19A3.24,3.24,0,0,0,156.61,258.56Z"/><path class="cls-3" d="M290.46,245a1.18,1.18,0,0,0-.09-.4,2.84,2.84,0,0,0-.17-.36,2.93,2.93,0,0,0-.24-.34,3.09,3.09,0,0,0-.31-.28.65.65,0,0,0-.15-.1.56.56,0,0,0-.17-.09.5.5,0,0,0-.2-.08h0l-.17,0-.41-.07h-.15l-.21-.05a2.31,2.31,0,0,0-.37,0h-.42l-.18,0-.21.06a1.1,1.1,0,0,0-.37.23.75.75,0,0,0-.16.15l0,0,0,0,0,0-.15.1-.12.1-.1.11a.76.76,0,0,0-.09.16,1.28,1.28,0,0,0-.11.2l-.05.17h0c0,.13-.06.26-.08.41s0,.11,0,.19a1.08,1.08,0,0,0,0,.18h0a2.86,2.86,0,0,0,0,.43,1.21,1.21,0,0,0,.05.18.36.36,0,0,0,0,.11.3.3,0,0,0,0,.1l0,.09.05.07,0,0,.11.15.22.23,0,.05.14.14,0,0,.13.12.32.22.21.12.17.07.18.06.23.06.38,0h.17l.26,0a1.76,1.76,0,0,0,.38-.06l.21-.07.18-.09a2.13,2.13,0,0,0,.33-.23h0l.14-.13.14-.15h0l.12-.15a1.13,1.13,0,0,0,.1-.13l0,0a1.79,1.79,0,0,0,.18-.37,1.39,1.39,0,0,0,.06-.19c0-.06,0-.13.05-.21h0a1.1,1.1,0,0,0,0-.18,1.28,1.28,0,0,0,0-.19A3.24,3.24,0,0,0,290.46,245Z"/><path class="cls-3" d="M308.36,247.24a1.83,1.83,0,0,0-.09-.4,2.41,2.41,0,0,0-.18-.36,2,2,0,0,0-.54-.62l-.15-.11-.17-.09-.2-.08h0l-.17-.05-.4-.07h-.16l-.21,0-.36,0h-.08l-.35,0-.18,0-.21.06a1.43,1.43,0,0,0-.37.23l-.16.16,0,.05h0l0,0-.16.1-.12.11a.53.53,0,0,0-.09.11l-.1.15a2,2,0,0,0-.1.21l-.06.16v0a1.67,1.67,0,0,0-.08.4c0,.06,0,.12,0,.2v.19c0,.15,0,.29,0,.42s0,.12.05.19,0,.08,0,.11a.36.36,0,0,0,0,.09.36.36,0,0,0,.05.09.22.22,0,0,0,.05.08v0l.11.14.22.24,0,0,.15.15,0,0,.13.11a2.48,2.48,0,0,0,.32.23l.21.11.18.08.18.06.22,0a2.18,2.18,0,0,0,.38.05h.43a2.5,2.5,0,0,0,.38-.06l.22-.07.17-.09a2.24,2.24,0,0,0,.34-.23h0a.86.86,0,0,0,.14-.13,1,1,0,0,0,.14-.15h0a.81.81,0,0,0,.12-.14,1.13,1.13,0,0,0,.1-.13l0,0a1.34,1.34,0,0,0,.18-.36c0-.07,0-.13.07-.19s0-.13,0-.21v0a.88.88,0,0,0,0-.17,1.41,1.41,0,0,0,0-.2C308.37,247.54,308.37,247.39,308.36,247.24Z"/><path class="cls-3" d="M297.92,254.7a2.09,2.09,0,0,0-.09-.41,2.34,2.34,0,0,0-.18-.35,1.72,1.72,0,0,0-.24-.34,2.09,2.09,0,0,0-.3-.28l-.15-.11-.17-.09a.84.84,0,0,0-.2-.08h0l-.17,0a3,3,0,0,0-.4-.07h-.16l-.21-.05-.36,0h-.42l-.19,0a1.17,1.17,0,0,0-.2.06,1.14,1.14,0,0,0-.38.23l-.15.15,0,0,0,0,0,0-.16.1-.12.1-.09.11-.1.16a2.09,2.09,0,0,0-.1.21,1,1,0,0,0-.05.16v0a2.18,2.18,0,0,0-.08.4c0,.06,0,.12,0,.19v.2a2.68,2.68,0,0,0,0,.42,1.62,1.62,0,0,0,0,.19.36.36,0,0,1,0,.11l0,.09.05.09a.35.35,0,0,0,.05.08l0,0a.83.83,0,0,0,.11.15l.21.23,0,.05.15.14,0,0,.13.11a1.68,1.68,0,0,0,.32.22l.21.12.18.07.18.07.23,0a2,2,0,0,0,.38,0H296a2.63,2.63,0,0,0,.39-.06,1.11,1.11,0,0,0,.21-.08l.17-.08a3.33,3.33,0,0,0,.34-.24h0l.15-.13.13-.15h0l.13-.14.1-.14v0a1.51,1.51,0,0,0,.18-.36,1.59,1.59,0,0,0,.07-.2,1.18,1.18,0,0,0,0-.2v0l0-.18v-.19C297.93,255,297.93,254.84,297.92,254.7Z"/><path class="cls-4" d="M244.91,242.66c-7.49,0-15-.07-22.52.08l-6.67.15c-1.39,0-4.36.24-4.36.24s-.38,4.32.3,5.52A19.56,19.56,0,0,0,226.23,259c4.47.59,9.13.27,12.82-1.38a11,11,0,0,0,4-3.15c2.37-2.71,3.32-5.72,4.39-8.66a23.69,23.69,0,0,0,.52-3s-1.86-.09-3.06-.09Z"/><path class="cls-4" d="M206.93,157c-21.23.09-42.64-.17-63.85.63-6.32.24-12.61.55-18.92.86-4,.2-12.35,1.2-12.35,1.2s-1,21.43.94,27.4C119.23,207,132,232.85,154.28,238c12.68,2.9,25.91,1.24,36.33-7,5.32-4.16,8.38-9.8,11.3-15.68,6.67-13.45,9.32-28.38,12.28-43,.7-3.46,1.42-14.89,1.42-14.89s-5.28-.44-8.68-.43Z"/><path class="cls-4" d="M339.05,158.44c-21.23.08-42.63-.18-63.85.63-6.32.24-12.61.54-18.92.85-4,.2-12.35,1.2-12.35,1.2s-1,21.43.94,27.4c6.48,19.89,19.22,45.74,41.54,50.85,12.68,2.9,25.9,1.24,36.33-6.94,5.31-4.17,8.37-9.81,11.29-15.69,6.68-13.45,9.32-28.38,12.29-43,.7-3.46,1.41-14.89,1.41-14.89s-5.27-.44-8.68-.42Z"/><path class="cls-4" d="M346.72,151.33c-1.29.09-2.6.07-3.9.12s-2.51.13-3.77.22c-2.64.2-5.28.41-7.92.58s-5.24.28-7.87.36-5.28.2-7.92.25-5.46.06-8.19.09c-5.52,0-11,.17-16.57.09s-10.79-.14-16.18-.13-11,.11-16.57,0c-4.24-.09-8.47-.22-12.71-.35-6.74-.2-13.48-.4-20.23-.47-5.54-.06-11.08,0-16.62.07-2.77,0-5.53.08-8.3.09-2.59,0-5.19-.08-7.78-.13q-16.32-.33-32.64-.14c-5.71.07-11.43.14-17.14.11s-11.27,0-16.91,0c-6.86,0-13.7.1-20.57,0a2.89,2.89,0,0,0-.3,1.35c-.27,1.87-.36,3.78-.45,5.67,0,.34-.38,7,.06,7,6.27.1,12.53.06,18.8,0,5.23,0,10.46,0,15.7,0s10.7,0,16.06,0c5.81,0,11.61,0,17.41,0,5.45.06,10.9.22,16.35.36s10.66.32,16,.25q16.66-.21,33.32.19c5.44.11,10.87.26,16.3.39s10.93.06,16.4,0c5.65,0,11.3,0,17,.07,2.48,0,5,.06,7.45,0l8.71-.14c10.61-.2,21.24-.25,31.77-1.39,3.06-.33,6.09-.71,9.17-.88,1.6-.09,3.21-.05,4.81-.13s3.48-.2,5.22-.31a2.77,2.77,0,0,0,.29-1.26c.25-1.77.33-3.57.42-5.35.07-1.3.11-2.61.12-3.92,0,.14.09-2.71-.18-2.72-1.05-.06-2.11-.11-3.16-.14-1.82-.05-3.63-.05-5.44.08Z"/><path class="cls-1" d="M165.91,188.41l.1-.19c1.31-2.46,2.77-4.8,4-7.35s2.25-5.09,3.52-7.53c.6-1.16,1.18-2.34,1.76-3.51.32-.64.64-1.27,1-1.9s1.17-1.64,1.09-2.32c-.11-.93-1.25-.15-1.56,0a18,18,0,0,0-1.84,1.3,20.54,20.54,0,0,1-3,1.76,80.88,80.88,0,0,0-7.92,5.23c-2.59,1.84-5.08,3.8-7.62,5.7-1.73,1.3-4.28,3-6.21,4.42-.59.43-2.7,1.84-2.7,1.84l6.67,6.77c-.81,1.93-1.59,3.87-2.36,5.84-1.54,4-3.18,7.86-4.7,11.82-.76,2-1.43,4.06-2.3,6-.27.62-2.1,3.83-1.33,4.39,1,.7,3.21-1.5,4-2.06,1.77-1.28,3.56-2.53,5.34-3.8,2.91-2.07,6-3.78,9-5.78,3.61-2.45,7.32-4.84,10.71-7.57.93-.74,5.21-3.74,5.21-3.74S170.73,192.51,165.91,188.41Z"/><path class="cls-1" d="M304.84,192.71a1.86,1.86,0,0,0,.1-.2c1.31-2.45,2.77-4.79,3.95-7.34s2.25-5.09,3.52-7.53c.61-1.16,1.18-2.34,1.77-3.51.31-.64.64-1.27,1-1.91s1.16-1.63,1.08-2.31c-.1-.93-1.24-.16-1.56,0a19.64,19.64,0,0,0-1.83,1.31,21,21,0,0,1-3,1.76,80.73,80.73,0,0,0-7.91,5.23c-2.6,1.84-5.09,3.8-7.62,5.7-1.73,1.3-4.29,3-6.21,4.42-.6.43-2.7,1.84-2.7,1.84l6.67,6.77c-.82,1.93-1.59,3.87-2.36,5.84-1.54,3.94-3.19,7.86-4.7,11.82-.77,2-1.43,4.06-2.3,6-.27.62-2.11,3.83-1.34,4.38,1,.71,3.21-1.49,4-2,1.77-1.28,3.56-2.53,5.33-3.8,2.91-2.08,6-3.78,9-5.78,3.6-2.45,7.31-4.84,10.71-7.57.93-.75,5.2-3.74,5.2-3.74S309.67,196.81,304.84,192.71Z"/></g></g></svg>