<svg xmlns="http://www.w3.org/2000/svg" viewBox="0 0 432.29 432"><defs><style>.cls-1{fill:#c1d6e1;}.cls-2{fill:#e8ac3d;}.cls-3{fill:#fdc7bc;}.cls-4{fill:#d89279;}.cls-5{fill:#2c3e50;}.cls-6{fill:#fff;}</style></defs><title>Asset 8</title><g id="Layer_2" data-name="Layer 2"><g id="Layer_1-2" data-name="Layer 1"><path class="cls-1" d="M339.4,193.52l-.61-2.62c-.23-.86-.45-1.73-.68-2.6-.17-.68-.39-1.35-.58-2s-.37-1.35-.59-2l-.63-2c-.2-.67-.44-1.33-.66-2-.43-1.33-.92-2.65-1.39-4-.24-.66-.5-1.32-.75-2l-.37-1-.4-1-.79-2-.84-1.93-.42-1-.44-.95c-.29-.64-.58-1.28-.88-1.91-.62-1.26-1.22-2.53-1.87-3.77s-1.31-2.48-2-3.71c-.34-.62-.7-1.22-1-1.83s-.69-1.22-1.06-1.81a127.53,127.53,0,0,0-12.14-17.08l-1.36-1.6-1.4-1.56c-.46-.52-.94-1-1.42-1.54s-.95-1-1.43-1.52A128.82,128.82,0,0,0,248.1,95.83c-4.08-1.15-8.22-2.1-12.39-2.86-.69-.14-1.39-.24-2.09-.36s-1.39-.24-2.09-.33c-1.4-.2-2.81-.41-4.21-.56-2.81-.35-5.63-.58-8.46-.76-1.42-.07-2.83-.15-4.25-.18-2.84-.1-5.69-.07-8.54,0-1.43.07-2.85.12-4.28.24-3.56.26-7.13.67-10.67,1.28a106.3,106.3,0,0,0-10.52,2.34,99.08,99.08,0,0,0-11.51,4l-1.87.79c-.62.27-1.24.56-1.85.84s-1.24.56-1.84.86c-3.06,1.45-6,3.06-8.95,4.75-1.18.67-2.33,1.38-3.48,2.08-2.34,1.47-4.66,3-6.91,4.59-1.13.78-2.23,1.62-3.34,2.44l-1.64,1.27-.81.64-.81.65-1.6,1.31-1.58,1.34-.78.68-.77.69L131.32,123c-1,1-2,1.88-3,2.86-.49.48-1,1-1.47,1.45l-1.44,1.49c-.46.46-.9,1-1.35,1.43s-.9.95-1.33,1.45c-.87,1-1.75,2-2.59,3-.11.13-.2.26-.29.39-.89,1-1.73,2.14-2.57,3.22-.42.55-.83,1.1-1.23,1.66l-.61.83-.59.84-1.17,1.7L112.56,145l-.55.87-.54.88c-.35.59-.71,1.17-1,1.76-.68,1.2-1.36,2.39-2,3.61-.32.61-.64,1.21-1,1.82-1.54,3.06-2.95,6.18-4.37,9.29l-.78,1.69c-.26.57-.52,1.13-.77,1.7-1.55,3.38-3.06,6.79-4.28,10.32a90.55,90.55,0,0,0-2.54,9,3.25,3.25,0,0,0-.38,1q-1.19,5.25-2.06,10.56L92,199.24l-.14.89-.12.88c-.11.89-.25,1.78-.34,2.67l-.3,2.68L90.91,209c-.08.89-.12,1.79-.18,2.68-.09,1.2-.11,2.39-.16,3.59l0,.69v2.46c0,.44,0,.89,0,1.34,0,.9.06,1.8.1,2.7l.19,2.68c.06.9.17,1.79.26,2.68a106,106,0,0,0,1.78,10.62l.61,2.62c.23.86.46,1.73.68,2.6.18.68.39,1.35.58,2s.37,1.35.59,2q1.84,6.06,4.2,11.92l.79,1.95.84,1.93.42,1,.44,1c.29.64.58,1.28.88,1.91q2.72,5.7,5.94,11.12A127.53,127.53,0,0,0,121,295.58l1.36,1.6,1.4,1.56c.46.52.94,1,1.42,1.54s.95,1,1.43,1.52q3,3,6.09,5.89c2.1,1.88,4.24,3.73,6.46,5.47s4.47,3.45,6.81,5l.87.61.88.58c.59.39,1.17.79,1.77,1.17,1.19.75,2.38,1.51,3.6,2.22a128,128,0,0,0,31.1,13.39c4.08,1.15,8.22,2.1,12.39,2.86.69.14,1.39.24,2.09.36s1.39.24,2.1.33c1.4.2,2.8.41,4.2.56,2.81.35,5.63.58,8.46.76,1.42.07,2.83.15,4.25.18,2.84.1,5.69.07,8.54,0,1.43-.07,2.85-.12,4.28-.24a113,113,0,0,0,12.79-1.66c1.41-.25,2.81-.58,4.22-.89.7-.16,1.4-.34,2.09-.51l1.05-.27,1-.29,1.95-.56c3.24-1,6.43-2.14,9.56-3.43l1.87-.79c.62-.27,1.24-.56,1.85-.84s1.24-.56,1.84-.86c3.06-1.45,6-3.06,9-4.75,1.17-.67,2.32-1.38,3.47-2.08,2.34-1.47,4.66-3,6.91-4.59,1.13-.78,2.23-1.62,3.34-2.44l1.64-1.27.82-.64.8-.65,1.6-1.31,1.58-1.34.78-.68.77-.69L301,309c1-1,2-1.88,3-2.86.49-.48,1-1,1.47-1.45l1.44-1.49c.46-.46.9-.95,1.35-1.43s.9-.95,1.33-1.45c.87-1,1.75-1.95,2.59-3,.11-.13.2-.26.29-.39.89-1,1.73-2.14,2.57-3.22.42-.55.83-1.1,1.23-1.66l.61-.83.59-.84,1.17-1.7,1.12-1.73.55-.87.54-.88c.35-.59.71-1.17,1.05-1.76.68-1.2,1.36-2.39,2-3.61.32-.61.64-1.21.95-1.82,1.54-3.06,2.95-6.18,4.37-9.29l.78-1.69.77-1.7c1.55-3.38,3.06-6.79,4.28-10.32a90.55,90.55,0,0,0,2.54-9,3.25,3.25,0,0,0,.38-1l.2-.87.19-.88.37-1.75c.24-1.17.46-2.35.69-3.52s.43-2.36.61-3.54l.27-1.77.14-.89.12-.88a134.3,134.3,0,0,0,1.21-14.3l0-.69H314.26a98.47,98.47,0,0,1-2,18.63c-.09.42-.16.85-.26,1.27l-.29,1.26c-.19.85-.41,1.69-.62,2.53a2.28,2.28,0,0,0-.32,1v.14l-.16.71-.21.86c-.06.28-.14.57-.22.85-.24.91-.46,1.82-.71,2.73-.12.46-.23.91-.34,1.37s-.25.91-.36,1.37a79.2,79.2,0,0,1-3.87,12c-.18.45-.39.89-.58,1.33l-.61,1.32-.64,1.29c-.22.44-.43.87-.67,1.29-.46.85-.92,1.71-1.42,2.54l-.74,1.25-.77,1.23c-.51.83-1.07,1.62-1.62,2.43-.26.4-.56.79-.84,1.18l-.86,1.18c-1.18,1.54-2.38,3.07-3.66,4.53l-.1.1c-.75.85-1.54,1.66-2.3,2.49l-1.17,1.22-.58.62-.59.6-.89.91c-.29.31-.6.59-.9.89l-.9.9-.91.88-.92.88-.93.86-.93.87-.95.84-.63.57-.64.55-1.29,1.11c-.88.71-1.74,1.44-2.64,2.13-.44.35-.88.71-1.34,1l-1.36,1c-.69.5-1.39,1-2.09,1.48s-1.42.94-2.13,1.41l-1.45.91-.73.44-.74.43-1.11.64c-.37.22-.75.41-1.13.61l-1.13.6c-.38.2-.77.38-1.15.57-1,.51-2.08,1-3.13,1.42-.52.23-1.06.43-1.59.65s-1.06.42-1.6.61l-1.61.59-1.62.54-.81.28-.81.26-1.63.52c-1.1.32-2.18.67-3.28,1s-2.2.61-3.3.9q-5,1.29-10,2.16l-1.69.26-.85.14-.85.11-1.7.23-1.7.19-.86.1-.85.07-1.71.15-1.72.11-.86.05-.86,0-1.72.06-1.72,0h-1.73l-1.72,0c-2.87-.09-5.74-.31-8.59-.67a81.19,81.19,0,0,1-8.47-1.51,91.94,91.94,0,0,1-22.68-8.63c-.51-.26-1-.55-1.51-.84s-1-.55-1.51-.86c-2-1.16-3.93-2.42-5.84-3.71s-3.74-2.69-5.54-4.12l-1.34-1.1-.66-.54-.65-.57a98.59,98.59,0,0,1-7.48-7.11l-.59-.61-.57-.63c-.38-.42-.77-.84-1.14-1.26q-3.39-3.82-6.38-7.94c-1.34-1.82-2.59-3.69-3.81-5.59l-.9-1.44-.86-1.45-.43-.72-.42-.74-.82-1.47c-1.08-2-2.09-4-3.05-6-.24-.51-.46-1-.7-1.54l-.35-.76-.33-.78-.65-1.55-.63-1.56c-.21-.52-.4-1.05-.6-1.57s-.4-1-.58-1.58c-1.13-3.17-2.12-6.4-3-9.66a90.9,90.9,0,0,1-2-10.5l-.11-.83-.09-.82-.18-1.66-.13-1.66-.07-.83,0-.83L118.1,221l0-1.66,0-.84V216a98.47,98.47,0,0,1,2-18.63c.09-.42.17-.85.26-1.27l.29-1.26c.19-.85.41-1.69.62-2.53a2.28,2.28,0,0,0,.32-1v-.14l.16-.71.21-.86c.06-.28.14-.57.22-.85.24-.91.46-1.82.71-2.73.12-.46.23-.91.34-1.37s.25-.91.36-1.37a79.2,79.2,0,0,1,3.87-12c.18-.45.39-.89.58-1.33l.61-1.32.64-1.29c.22-.44.43-.87.67-1.29.46-.85.92-1.71,1.42-2.54l.74-1.25.77-1.23c.51-.83,1.07-1.62,1.62-2.43.26-.4.56-.79.84-1.18l.86-1.18c1.18-1.54,2.38-3.07,3.66-4.53l.1-.1c.75-.85,1.54-1.66,2.3-2.49l1.17-1.22.58-.62.59-.6c2.37-2.42,4.8-4.78,7.33-7l.63-.57.64-.55,1.29-1.11c.88-.71,1.74-1.44,2.64-2.13.45-.35.88-.71,1.34-1l1.36-1c.69-.5,1.39-1,2.09-1.48s1.42-.94,2.13-1.41l1.45-.91.73-.44.74-.43,1.11-.64c.37-.22.75-.41,1.13-.61l1.13-.6c.38-.2.77-.38,1.15-.57a90.07,90.07,0,0,1,12.8-4.87c1.1-.32,2.18-.67,3.28-1s2.2-.61,3.3-.9q5-1.29,10-2.16t10.21-1.25a101.64,101.64,0,0,1,10.33-.24c2.87.09,5.74.31,8.59.67a81.19,81.19,0,0,1,8.47,1.51,91.27,91.27,0,0,1,16.45,5.56A96.19,96.19,0,0,1,270,131.9a100.17,100.17,0,0,1,15.67,13.44l.59.61.57.63,1.15,1.26q3.38,3.82,6.37,7.94c1.34,1.82,2.6,3.69,3.81,5.59l.9,1.44.86,1.45.43.72.42.74.82,1.47c1.62,3,3.1,6,4.43,9.09l.66,1.55.62,1.56c.21.52.4,1.05.6,1.57s.4,1,.58,1.58c1.13,3.17,2.12,6.4,2.95,9.66a90.9,90.9,0,0,1,2,10.5l.11.83.09.82.18,1.66.13,1.66.07.83.05.83.09,1.67,0,1.66,0,.84V216h27.48v-2.45c0-.45,0-.9,0-1.35,0-.9-.06-1.8-.1-2.7l-.19-2.68c-.06-.9-.17-1.79-.26-2.68A106,106,0,0,0,339.4,193.52Z"/><path class="cls-2" d="M158.79,351.27A70.9,70.9,0,0,0,172,355c4.62,1,9.13,2.06,13.72,3.08s9.39,1.92,14.12,2.73a76.31,76.31,0,0,0,14.07,1.35l1.51-.05.75,0,.75-.05c1-.07,2-.16,3-.25l3-.38.74-.1.74-.12,1.49-.24c4-.65,7.86-1.43,11.77-2.14,3.2-.58,6.39-1.13,9.56-1.83,1.59-.32,3.16-.71,4.74-1.08.79-.2,1.57-.42,2.35-.63l1.17-.32,1.17-.35,1.27-.41a.63.63,0,0,0,.27,0c4.23-1.29,8.44-2.61,12.66-4l1.56-.5,1.56-.53,3.13-1a30,30,0,0,0,5.89-2.25l.09-.05c1-.52,2.09-1,3.13-1.53s2.09-1,3.12-1.58h0c1.32-.71,2.66-1.38,3.95-2.13l2-1.1,1.93-1.16,1-.59.95-.61,1.88-1.23c.62-.42,1.23-.86,1.84-1.29s1.23-.87,1.81-1.34.91-.71,1.35-1.07.89-.73,1.31-1.12c.85-.77,1.69-1.54,2.5-2.36s1.61-1.63,2.38-2.47,1.55-1.68,2.31-2.53q.72-.84,1.47-1.65l.74-.8.74-.82c.49-.54,1-1.07,1.5-1.6l1.48-1.61.9-.95.89-1c.6-.64,1.21-1.28,1.8-1.93,3.24-3.52,6.36-7.16,9.44-10.85l1.69-2,1.09-1.4,1.08-1.4c.78-1.07,1.56-2.14,2.29-3.25.36-.56.71-1.12,1.06-1.68l.52-.86c.17-.28.33-.58.49-.87.48-.88,1-1.77,1.41-2.67s.86-1.82,1.28-2.73.78-1.86,1.17-2.78c.19-.46.38-.93.55-1.4l.54-1.41c.18-.47.36-.93.53-1.4l1-2.83c.5-1.41,1-2.82,1.48-4.23.33-1,.67-1.88,1-2.81.4-1.15.82-2.29,1.23-3.44,1.62-4.58,3.14-9.21,4.31-13.94l.27-1.18.3-1.31a.82.82,0,0,0,.1-.25q1.5-6.45,2.87-12.95c.11-.54.24-1.07.34-1.61l.32-1.61.35-1.6c.1-.54.21-1.08.33-1.61a30.65,30.65,0,0,0,1-6.23.31.31,0,0,0,0-.1l.25-3.48.2-3.48H343.64l-.66,7.36c-.06.7-.11,1.39-.15,2.08v.05c-.12.81-.29,1.62-.41,2.43s-.32,1.9-.47,2.85l-.23,1.42-.25,1.42c-.66,3.78-1.39,7.55-2.27,11.28v0l-.09.35v0l-.54,2.21-.59,2.2c-.1.36-.19.73-.3,1.1l-.33,1.09L337,253c-.1.37-.21.73-.33,1.09l-.7,2.17c-.24.72-.5,1.43-.75,2.15l-.38,1.07-.4,1.07c-.27.71-.53,1.42-.82,2.13q-2.29,5.78-5,11.36l-.69,1.39c-.23.46-.45.93-.7,1.39l-1.08,2.07c-.36.68-.74,1.36-1.11,2.05-.19.34-.37.69-.56,1l-.58,1c-.39.68-.76,1.36-1.17,2l-1.21,2-1.27,2c-.42.67-.87,1.31-1.31,2l-.67,1c-.22.33-.45.64-.68,1-1.82,2.59-3.77,5.08-5.79,7.52l-1,1.21c-.34.41-.69.8-1,1.2l-1.05,1.19-1.07,1.17c-1.06,1.18-2.18,2.3-3.28,3.45l-1.69,1.68-.42.42-.43.41-.87.82c-.38.37-.76.74-1.15,1.1l-1.18,1.07-.94.87-2.17,1.89c-.74.62-1.49,1.22-2.24,1.81-.33.27-.69.51-1,.77-.52.37-1.05.73-1.58,1.09-.69.45-1.4.87-2.1,1.3-.26.15-.52.32-.79.47l-.81.45-1.61.89c-.73.39-1.46.75-2.19,1.13l-.8.41-.82.39-1.63.79L276.54,328l-1.67.77-.83.4-.84.38-.94.45-.93.46-.05,0c-.77.28-1.54.55-2.3.85l-.68.26-.67.24-1.35.51c-.9.36-1.81.67-2.7,1-3.61,1.32-7.24,2.56-10.91,3.66h0l-.35.1h0c-1.45.45-2.92.83-4.39,1.23-.73.19-1.47.36-2.21.54l-1.11.27-1.11.25c-3,.67-6,1.2-9,1.64a165.87,165.87,0,0,1-24.83,1.73,118.64,118.64,0,0,1-25.08-2.93q-6.18-1.38-12.25-3.32a64.91,64.91,0,0,1-9.54-3.7,92.28,92.28,0,0,1-10.41-6.41L143,342.73A104.36,104.36,0,0,0,158.79,351.27Z"/><path class="cls-2" d="M127.69,98.72a72.32,72.32,0,0,0-9.85,9.55c-3.13,3.52-6.34,6.87-9.52,10.33s-6.36,7.16-9.44,10.85A75.36,75.36,0,0,0,90.66,141c-.48.88-1,1.77-1.41,2.67s-.86,1.82-1.28,2.73-.78,1.86-1.17,2.78c-.19.46-.37.93-.55,1.4l-.54,1.41c-1.41,3.75-2.67,7.54-4,11.27-.53,1.54-1.11,3-1.63,4.59-.26.77-.54,1.53-.79,2.3l-.76,2.31c-1,3.09-1.92,6.2-2.63,9.36l-.3,1.31a.82.82,0,0,0-.1.25q-1.5,6.45-2.87,12.95c-.11.54-.24,1.07-.34,1.61l-.32,1.61-.35,1.6c-.1.54-.21,1.08-.33,1.61a30.65,30.65,0,0,0-1,6.23.31.31,0,0,0,0,.1L70,212.52l-.2,3.48h0A105.58,105.58,0,0,0,70.34,234c.06.57.15,1.14.25,1.71s.2,1.12.32,1.69c.21,1.12.5,2.24.78,3.34s.62,2.21,1,3.31c.17.54.33,1.09.5,1.64l.54,1.62c.9,2.81,1.79,5.59,2.62,8.39.25.84.51,1.68.77,2.52.13.42.25.84.38,1.26s.27.84.4,1.25c1.43,4.58,3,9.1,4.69,13.61.31.83.6,1.67.93,2.49l.66,1.64.33.82c.12.27.24.54.35.81.54,1.21,1.07,2.43,1.68,3.61.3.59.61,1.18.92,1.77s.66,1.16,1,1.73a81.87,81.87,0,0,0,7,9.77c.31.39.65.77,1,1.15l1,1.15c.32.38.64.77,1,1.14l2.94,3.4,1.93,2.27c.79.92,1.56,1.86,2.36,2.78,3.16,3.69,6.4,7.32,9.91,10.69l.88.84c.32.31.66.6,1,.9a.65.65,0,0,0,.16.21q4.83,4.53,9.77,9c.81.72,1.62,1.47,2.44,2.19s1.63,1.46,2.44,2.2,1.55,1.43,2.34,2.12a19.33,19.33,0,0,0,2.55,1.86l.09.05,2.89,2,2.92,1.91,9.43-16.3-6-4.25c-.57-.4-1.15-.77-1.72-1.17l0,0c-.64-.52-1.26-1.05-1.9-1.56s-1.48-1.23-2.23-1.84l-2.22-1.84c-2.94-2.47-5.83-5-8.62-7.63l0,0-.26-.24h0c-.28-.26-.56-.52-.83-.79l-.81-.79-.82-.8-.8-.81c-.53-.55-1.07-1.09-1.59-1.64l-1.56-1.66c-.26-.28-.51-.56-.76-.85l-.76-.85-.76-.85-.74-.87c-.49-.58-1-1.16-1.47-1.74L117,294.41q-3.86-4.87-7.34-10L108,281.79q-2.52-3.93-4.86-8t-4.32-8.41q-2-4.31-3.62-8.77c-.35-1-.72-2-1.06-3s-.67-2-1-3c-1-3-1.77-6.1-2.53-9.18-.23-1-.48-2.07-.7-3.1l-.26-1.26-.3-1.41c-.09-.47-.17-.94-.26-1.41-.16-1-.34-1.89-.44-2.85-.06-.42-.1-.85-.15-1.27l-.09-1c0-.32,0-.64-.06-1,0-.82-.06-1.64-.08-2.46v-1.85c0-.62,0-1.23,0-1.84l.11-2.46c.08-1.21.18-2.42.25-3.62l.66-7.36c0-.35.06-.7.08-1s0-.69.07-1v-.05c.12-.81.29-1.62.41-2.43s.32-1.9.47-2.85l.23-1.42.25-1.42c.66-3.78,1.39-7.55,2.27-11.28v0l.09-.35v0l.54-2.21.59-2.2c.1-.36.19-.73.3-1.1l.33-1.09.32-1.09c.11-.37.21-.73.33-1.09l.7-2.17c.24-.72.5-1.43.75-2.15l.38-1.07.4-1.07c.28-.71.53-1.42.82-2.13A163.5,163.5,0,0,1,109.56,147a119.79,119.79,0,0,1,15.11-20.24q4.31-4.66,9-9a63.06,63.06,0,0,1,8-6.43,91.55,91.55,0,0,1,10.75-5.83L143,89.27c-1.32.71-2.66,1.38-3.95,2.13l-2,1.1-1.93,1.16-1,.59-.95.61-1.88,1.23c-.62.42-1.23.86-1.84,1.29S128.28,98.25,127.69,98.72Z"/><path class="cls-2" d="M362,198.05a72.25,72.25,0,0,0-3.34-13.31c-1.47-4.49-2.77-8.94-4.17-13.42s-3-9.1-4.69-13.61a75.42,75.42,0,0,0-5.87-12.87,81.87,81.87,0,0,0-7.05-9.77c-2.55-3.09-5.21-6.06-7.77-9.11l-1.57-1.86-1.58-1.84c-.52-.62-1.06-1.22-1.6-1.83s-1.06-1.22-1.61-1.82l-1.65-1.79c-.27-.3-.55-.59-.83-.88l-.85-.88c-1.11-1.17-2.29-2.29-3.46-3.41-.32-.31-.66-.6-1-.9a.65.65,0,0,0-.16-.21q-4.83-4.53-9.76-9c-.82-.72-1.62-1.47-2.45-2.19s-1.63-1.46-2.44-2.2-1.55-1.43-2.34-2.12a19.33,19.33,0,0,0-2.55-1.86l-.09,0-2.89-2-2.92-1.91h0a104.36,104.36,0,0,0-15.82-8.54c-1.06-.44-2.14-.84-3.22-1.21s-2.2-.68-3.3-1-2.22-.56-3.33-.83L262,77.33,260.3,77l-2.16-.46c-.72-.15-1.43-.32-2.15-.48l-2.14-.48c-.71-.16-1.42-.34-2.13-.49s-1.71-.39-2.56-.6l-2.58-.57c-4.67-1-9.39-1.92-14.12-2.73l-1.31-.23-1.31-.2-1.75-.26-1.75-.22c-1.32-.14-2.64-.29-4-.35l-2-.08c-.66,0-1.32,0-2,0l-1.51.05-.75,0-.75,0c-1,.07-2,.16-3,.25l-3,.38-.75.1-.74.12-1.49.24-1.48.24-3,.53c-.74.13-1.47.29-2.2.42l-2.21.41c-1,.19-1.95.37-2.93.54l-3.59.64c-4.79.89-9.56,1.87-14.23,3.22l-1.17.35-1.27.41a.63.63,0,0,0-.27,0c-4.23,1.29-8.44,2.61-12.66,4l-1.56.5-1.56.53-3.13,1a30.19,30.19,0,0,0-5.89,2.25l-.09,0c-1,.52-2.09,1-3.13,1.53s-2.09,1-3.12,1.58l9.43,16.3,3.35-1.57,1.67-.77.83-.4.84-.38c.63-.29,1.26-.59,1.87-.91l0,0c.77-.28,1.54-.55,2.3-.85l.68-.26.67-.24,1.35-.51c.9-.36,1.81-.67,2.7-1,3.61-1.32,7.24-2.56,10.91-3.66h0l.34-.1h0c1.45-.45,2.92-.83,4.39-1.23.73-.19,1.47-.36,2.21-.54.37-.09.74-.19,1.11-.27l1.11-.25c3-.67,6-1.2,9-1.64q6.15-.9,12.36-1.33c1,0,2.07-.13,3.11-.18l2.34-.1.58,0h.59l1.17,0c1.56-.05,3.12,0,4.68-.05,3.15,0,6.31.18,9.46.47s6.28.69,9.4,1.23c1,.18,2.08.39,3.12.58s2.06.43,3.1.65c3.09.7,6.17,1.49,9.21,2.39,1,.3,2,.63,3,.93l1.22.4c1.82.59,3.63,1.24,5.41,2q.58.24,1.17.51c.59.26,1.17.52,1.74.82.73.38,1.45.77,2.17,1.16l1.6.94c.52.31,1.06.61,1.57.95l2.07,1.33c.51.33,1,.67,1.5,1s1,.67,1.5,1q3,2.12,6,4.25l.86.58.86.59,0,0c.64.52,1.26,1,1.9,1.56s1.48,1.23,2.23,1.84l2.22,1.84c2.94,2.47,5.83,5,8.62,7.63l0,0,.26.24h0c.28.26.56.52.83.79l.81.79.82.8.8.81c.53.55,1.07,1.09,1.59,1.64l1.56,1.66c.26.28.51.56.76.85l.76.85.76.85.74.87c.49.58,1,1.16,1.47,1.74l1.43,1.78A163.94,163.94,0,0,1,329.2,158.2a117.16,117.16,0,0,1,10,23.17q1.89,6.06,3.23,12.28A64.13,64.13,0,0,1,344,203.77a94.13,94.13,0,0,1-.33,12.23h18.83A106.63,106.63,0,0,0,362,198.05Z"/><path class="cls-3" d="M223.83,386.43c.61-.07,1.22-.14,1.82-.24l1.43-.22,1.42-.2.72-.09.71-.11,2.85-.4.71-.09.71-.11,1.42-.21,1.42-.2.72-.09.71-.12,3.54-.55,3.54-.61,1.41-.27,1.4-.28,2.14-.43,2.12-.47c.71-.16,1.42-.3,2.12-.47l2.12-.51q7-1.71,14-3.83l4.15-1.29c1.83-.6,3.69-1.16,5.53-1.77l1.39-.44.69-.21.69-.23,1.39-.47,1.39-.47a72.07,72.07,0,0,0,6.78-2.72c1.26-.57,2.47-1.23,3.67-1.9l.6-.34c.4-.22.8-.45,1.19-.69l2.94-1.79,1.16-.73,2.4-1.49,2.36-1.52,1.19-.76,1.17-.78,2.33-1.57,2.2-1.52a.65.65,0,0,0,.12-.11l1.13-.83c.37-.29.74-.58,1.1-.88.72-.59,1.44-1.19,2.14-1.82.34-.31.68-.64,1-1l.51-.49,1.27-1.21c.42-.4.86-.8,1.3-1.17.16-.14.33-.27.5-.4l.5-.38,1.55-1.12c.52-.37,1-.74,1.53-1.14s.82-.67,1.21-1l1.17-1.08a.66.66,0,0,0,.33-.17c.45-.42.9-.82,1.36-1.23s.9-.82,1.36-1.22l.92-.81.7-.59.68-.61,1.38-1.21.92-.82.17-.15.28-.26q1.32-1.28,2.55-2.64c.8-.92,1.57-1.87,2.32-2.83.39-.48.74-1,1.11-1.47l.86-1.16c.87-1.14,1.71-2.31,2.59-3.45.29-.38.59-.75.87-1.14l.86-1.16,1.3-1.72,1.27-1.73,1.07-1.44c.36-.49.7-1,1.05-1.46.69-1,1.4-1.94,2.07-2.93l1.61-2.37,1.58-2.43.79-1.22.77-1.23c.51-.82,1-1.63,1.53-2.46l1.49-2.49c2-3.33,3.89-6.69,5.69-10.11.7-1.27,1.35-2.57,2-3.85l.68-1.28.66-1.29c.44-.86.89-1.72,1.34-2.58l.66-1.3c.44-.87.9-1.72,1.33-2.6l.63-1.32.95-2,.87-2c.37-.91.75-1.81,1.07-2.73l.23-.65.54-1.63.25-.83c.08-.27.16-.55.23-.82l.18-.67.35-1.33c.14-.56.29-1.11.42-1.67l.39-1.68.32-1.34c.23-.9.42-1.83.63-2.74l.31-1.37q.17-.69.3-1.38l.57-2.76c.2-.91.36-1.84.54-2.76s.34-1.75.49-2.63a.43.43,0,0,0,0-.16,50,50,0,0,0,.58-5.59c0-.46,0-.93.06-1.4v-.7c0-1.18,0-2.35.13-3.51,0-.21.05-.42.07-.63l.09-.63c.17-1.26.43-2.5.58-3.77.11-1.06.13-2.12.18-3.18a.67.67,0,0,0,.12-.35c0-.41,0-.81.06-1.22l.05-1.22c0-.81.1-1.62.16-2.44s.1-1.62.16-2.43l.15-2.44V216H367.36l-.13,3.62c-.06,1.2-.15,2.41-.22,3.61,0,.67-.1,1.33-.15,2a.51.51,0,0,0-.07.42v1c0,.37,0,.73,0,1.1s0,.73.05,1.09c.07.82.16,1.63.24,2.45s.1,1.64.11,2.46a43.7,43.7,0,0,1-.94,8.83.43.43,0,0,0,0,0c-.21.84-.41,1.67-.57,2.52-.13.63-.23,1.27-.35,1.91s-.23,1.27-.33,1.91l-.21,1.27c-.06.43-.15.85-.22,1.28l-.23,1.28c-.12.63-.22,1.28-.37,1.91l-.15.64-.15.63c-.15.63-.31,1.26-.49,1.89-.13.41-.28.82-.42,1.24-.3.82-.61,1.63-.92,2.44l-.24.61-.23.61c-.31.82-.58,1.65-.87,2.47-.22.61-.43,1.23-.64,1.85s-.4,1.24-.62,1.85l-.42,1.24c-.29.83-.54,1.66-.84,2.48l-.88,2.47c-.14.41-.3.81-.46,1.22-.4,1-.79,2-1.23,3s-.89,2-1.37,3a91.25,91.25,0,0,1-4.57,8.06l-.7,1.12c-.48.74-1,1.47-1.47,2.2l-.74,1.09c-.25.37-.51.72-.77,1.08L345,297c-.75,1.08-1.57,2.12-2.36,3.18-.26.34-.51.7-.79,1l-1.21,1.54c-.4.52-.79,1-1.21,1.54l-1.63,2c-.54.68-1.11,1.34-1.65,2l-.83,1c-.27.34-.56.66-.84,1l-.83,1-.84,1-.85,1-1.26,1.49-1.28,1.47c-.45.52-.9,1-1.36,1.55l-1.41,1.5-.88.93c-.29.31-.6.61-.9.91l-1.83,1.81-2.65,2.46-2.7,2.4-1.53,1.3a.5.5,0,0,0-.34.25l0,0h0l-.2.21-.24.24-.24.23c-.26.26-.53.51-.78.78s-.49.53-.73.81c-1,1.28-2.08,2.54-3.22,3.72-.51.54-1.06,1-1.61,1.53s-1.12,1-1.7,1.44-1.18.9-1.78,1.33l-.9.65-.93.62-.05,0c-.74.44-1.46.91-2.17,1.4-1.09.7-2.14,1.46-3.19,2.21l-1.05.75-1.06.75c-.35.26-.7.51-1.06.75l-1.62,1.08-1.1.7c-.56.33-1.13.66-1.7,1-1.52.84-3.17,1.46-4.74,2.21-.79.36-1.58.73-2.36,1.11-1.17.59-2.35,1.15-3.51,1.74l-.87.45-.89.43-1.76.86-.88.43-.89.42-1.78.82c-.5.23-1,.44-1.5.65l-1.52.63c-1,.42-2,.77-3.07,1.13a99.73,99.73,0,0,1-12.8,3.29l-1.95.35c-.66.11-1.3.25-2,.34l-1.95.29c-.65.1-1.3.2-2,.28l-1.29.16-1.94.25-1.94.22c-.87.09-1.72.2-2.59.28l-2.58.25c-1.3.12-2.59.22-3.89.35l-2.58.19c-.65.05-1.3.12-1.95.16l-1.94.14c-1.37.11-2.75.15-4.12.2l-1.28,0h-3.85v19.63h.37c1.23,0,2.45,0,3.67-.07S222.62,386.58,223.83,386.43Z"/><path class="cls-3" d="M45.71,223.69c.07.61.15,1.21.25,1.82l.21,1.42.2,1.43.1.71.1.71c.15.95.28,1.9.4,2.85l.1.71.1.71.21,1.43.2,1.42.1.71.11.71.55,3.55c.21,1.18.41,2.36.62,3.53.07.48.17.94.26,1.41l.28,1.41.43,2.13.48,2.12c.15.71.3,1.42.47,2.13l.51,2.11q1.71,7.05,3.82,14l1.29,4.15c.6,1.84,1.16,3.69,1.77,5.53l.44,1.39.22.7.23.69.46,1.38.47,1.39a72.33,72.33,0,0,0,2.73,6.79c.56,1.25,1.23,2.46,1.9,3.66l.33.6c.23.4.46.8.7,1.19l1.79,2.94.73,1.17,1.48,2.39,1.53,2.37.76,1.18.78,1.17,1.56,2.34,1.53,2.19a.69.69,0,0,0,.11.13c.27.38.54.76.83,1.13l.88,1.1c.59.72,1.18,1.44,1.81,2.13.32.35.64.69,1,1l.49.5,1.2,1.28c.41.42.8.85,1.18,1.3.13.16.27.32.4.49l.38.51,1.11,1.55c.37.51.75,1,1.15,1.52s.67.83,1,1.22L88.53,329a.66.66,0,0,0,.17.33c.41.44.82.9,1.22,1.35s.82.91,1.23,1.37l.8.92.6.69.61.69,1.21,1.37.81.92.16.18.26.27c.84.89,1.73,1.73,2.63,2.55s1.88,1.57,2.84,2.33c.47.38,1,.74,1.47,1.1l1.15.86c1.14.88,2.31,1.72,3.45,2.59.39.29.76.59,1.15.87l1.15.86,1.72,1.3,1.74,1.28,1.44,1.07,1.46,1c1,.69,1.93,1.41,2.93,2.07l2.37,1.61,2.43,1.59,1.21.79,1.23.76c.83.51,1.64,1,2.47,1.53l2.48,1.5c3.33,2,6.69,3.88,10.12,5.69,1.27.7,2.56,1.35,3.84,2l1.29.68,1.29.66,2.58,1.34,1.29.66c.87.44,1.73.9,2.61,1.33l1.31.64,2,.94c.67.3,1.34.59,2,.87.9.37,1.8.76,2.72,1.08l.65.22c.55.19,1.09.37,1.64.54l.82.26.83.23.67.18,1.33.34c.55.14,1.11.3,1.67.42l1.67.39,1.34.32c.91.24,1.83.42,2.75.63l1.37.32c.46.1.91.21,1.37.3l2.76.57c.92.2,1.84.35,2.76.53s1.76.34,2.63.49h.17A52.23,52.23,0,0,0,192,385l1.41.05.7,0c1.17,0,2.34,0,3.5.13l.64.07.62.09c1.26.17,2.51.42,3.78.57,1.05.12,2.11.14,3.17.18a.62.62,0,0,0,.36.12l1.22.06,1.21.06c.82,0,1.63.09,2.44.15s1.63.11,2.44.16l2.44.15.24,0V367.22l-3.62-.13-3.61-.22c-.67,0-1.34-.11-2-.16a.48.48,0,0,0-.41-.07h-1c-.36,0-.73,0-1.09,0s-.73,0-1.1.06l-2.45.23c-.81.07-1.63.11-2.45.12a43.63,43.63,0,0,1-8.83-.94l-.05,0c-.84-.2-1.68-.41-2.52-.57-.64-.13-1.28-.23-1.91-.35s-1.27-.23-1.91-.33l-1.28-.2-1.27-.23-1.28-.22c-.64-.12-1.28-.23-1.92-.38l-.63-.14-.63-.15c-.63-.16-1.26-.32-1.89-.5-.42-.13-.83-.27-1.24-.42-.82-.29-1.64-.6-2.45-.91l-.61-.25-.61-.23c-.81-.3-1.64-.58-2.46-.87l-1.85-.64c-.62-.21-1.25-.39-1.86-.62l-1.24-.42c-.82-.28-1.66-.53-2.47-.84L157,357c-.41-.14-.82-.31-1.23-.47-1-.4-2-.78-3-1.22s-2-.9-3-1.37c-2.75-1.41-5.46-2.91-8.06-4.57l-1.11-.71c-.75-.47-1.47-1-2.2-1.47l-1.1-.74-1.07-.76-1.08-.77c-1.08-.76-2.12-1.58-3.17-2.36-.35-.27-.7-.52-1-.79l-1.54-1.21c-.51-.4-1-.79-1.53-1.21l-2-1.63c-.68-.54-1.33-1.11-2-1.66l-1-.82-1-.84-1-.84-1-.83-1-.85-1.48-1.26c-.5-.42-1-.86-1.47-1.28s-1-.9-1.55-1.36l-1.51-1.41-.93-.88-.91-.91-1.8-1.82-2.47-2.65-2.4-2.71-1.3-1.53a.46.46,0,0,0-.24-.33l0,0,0,0-.2-.19-.24-.25-.24-.24c-.26-.26-.5-.52-.77-.77s-.54-.5-.82-.74c-1.27-1-2.54-2.07-3.72-3.21-.54-.52-1-1.07-1.53-1.62s-1-1.12-1.43-1.7-.9-1.18-1.34-1.78l-.65-.9-.61-.92,0-.05c-.44-.74-.91-1.47-1.39-2.18-.7-1.08-1.46-2.13-2.22-3.18l-.75-1.06-.75-1.05c-.25-.35-.51-.7-.74-1.06-.37-.54-.73-1.08-1.09-1.63l-.7-1.1c-.33-.56-.65-1.12-1-1.69-.85-1.53-1.46-3.17-2.21-4.74-.37-.79-.73-1.59-1.12-2.37-.59-1.16-1.14-2.34-1.74-3.51l-.44-.87-.43-.88-.87-1.76c-.14-.3-.29-.59-.43-.88l-.41-.89-.82-1.79c-.24-.49-.45-1-.66-1.5l-.62-1.51c-.42-1-.78-2-1.13-3.08a99.35,99.35,0,0,1-3.3-12.8l-.35-2c-.11-.65-.24-1.3-.33-1.95l-.29-2c-.1-.65-.21-1.3-.28-1.95l-.17-1.3-.25-1.94-.21-1.94c-.1-.86-.21-1.72-.28-2.58L66,235.61c-.12-1.29-.21-2.59-.34-3.88l-.2-2.59c0-.65-.12-1.29-.15-1.94l-.14-1.94c-.12-1.37-.16-2.75-.2-4.12l0-1.29V216H45.3v.38c0,1.22,0,2.44.06,3.66S45.57,222.48,45.71,223.69Z"/><path class="cls-3" d="M208.46,45.57c-.61.07-1.22.14-1.82.24l-1.43.22-1.42.2-.72.09-.71.11-2.85.4-.71.09-.71.11-1.42.21-1.42.2-.72.09-.7.12-3.55.55-3.54.61q-.7.12-1.41.27l-1.4.28-2.14.43-2.12.47c-.71.16-1.42.3-2.12.47l-2.12.51q-7.05,1.71-14,3.83l-4.15,1.29c-1.83.6-3.69,1.16-5.53,1.77l-1.39.44-.69.21L149,59l-1.39.47L146.2,60a72.07,72.07,0,0,0-6.78,2.72c-1.26.57-2.47,1.23-3.67,1.9l-.6.34c-.4.22-.8.45-1.19.69L131,67.39l-1.16.73-2.4,1.49-2.36,1.52-1.19.76-1.16.78-2.34,1.57-2.2,1.52a.65.65,0,0,0-.12.11L117,76.7c-.37.29-.74.58-1.1.88-.72.59-1.44,1.19-2.14,1.82-.34.31-.68.64-1,1l-.51.49-1.27,1.21c-.42.4-.85.8-1.3,1.17-.16.14-.33.27-.5.4l-.5.38-1.55,1.12c-.52.37-1,.74-1.53,1.14s-.82.67-1.21,1l-1.17,1.08a.66.66,0,0,0-.33.17c-.45.42-.9.82-1.36,1.23s-.9.82-1.36,1.22l-.92.81-.7.59-.68.61-1.38,1.21-.92.82-.17.15-.28.26q-1.32,1.27-2.55,2.64c-.8.92-1.57,1.87-2.32,2.83-.39.48-.74,1-1.11,1.47l-.86,1.16c-.87,1.14-1.71,2.31-2.59,3.45-.29.38-.59.75-.87,1.14l-.86,1.16L82.6,111l-1.27,1.73-1.07,1.44c-.36.49-.7,1-1.05,1.46-.69,1-1.4,1.94-2.07,2.93L75.53,121,74,123.38l-.79,1.22-.77,1.23c-.51.82-1,1.63-1.53,2.46l-1.49,2.49c-2,3.33-3.89,6.69-5.69,10.11-.7,1.27-1.35,2.57-2,3.85L61,146l-.65,1.29L59,149.89l-.66,1.3c-.44.87-.9,1.72-1.33,2.6l-.63,1.32-.94,2q-.45,1-.87,2c-.38.91-.76,1.81-1.08,2.73l-.23.65-.54,1.63-.25.83c-.08.27-.16.55-.23.82l-.18.67-.35,1.33c-.14.56-.29,1.11-.42,1.67l-.39,1.68-.32,1.34c-.23.9-.42,1.83-.63,2.74l-.31,1.37q-.16.69-.3,1.38l-.57,2.76c-.2.91-.36,1.84-.54,2.76s-.34,1.75-.49,2.63a.43.43,0,0,0,0,.16,50,50,0,0,0-.58,5.59c0,.46,0,.93-.06,1.4v.7c0,1.18,0,2.35-.13,3.51,0,.21,0,.42-.07.63l-.09.63c-.17,1.26-.43,2.5-.58,3.77-.11,1.06-.13,2.12-.18,3.18a.67.67,0,0,0-.12.35c0,.41,0,.81-.06,1.22l0,1.22c0,.81-.1,1.62-.16,2.44s-.1,1.62-.16,2.43l-.15,2.44V216H64.93l.13-3.62c.06-1.2.15-2.41.22-3.61,0-.67.1-1.33.15-2a.51.51,0,0,0,.07-.42v-1c0-.37,0-.73,0-1.1s0-.73,0-1.09c-.07-.82-.16-1.63-.24-2.45s-.1-1.64-.11-2.46a43.7,43.7,0,0,1,.94-8.83.43.43,0,0,0,0,0c.21-.84.41-1.67.57-2.52.13-.63.23-1.27.35-1.91s.23-1.27.33-1.91l.21-1.27c.06-.43.15-.85.22-1.28l.23-1.28c.12-.63.22-1.28.37-1.91l.15-.64.15-.63c.15-.63.31-1.26.49-1.89.13-.41.28-.82.42-1.24.3-.82.61-1.63.92-2.44l.24-.61.23-.61c.31-.82.58-1.65.87-2.47.22-.61.44-1.23.64-1.85s.4-1.24.62-1.85l.42-1.24c.29-.83.54-1.66.84-2.48l.88-2.47c.14-.41.31-.81.46-1.22.4-1,.79-2,1.23-3s.89-2,1.37-3a91.25,91.25,0,0,1,4.57-8.06l.71-1.12c.47-.74,1-1.47,1.46-2.2l.74-1.09c.25-.37.51-.72.77-1.08l.77-1.07c.75-1.08,1.57-2.12,2.36-3.18.26-.34.51-.7.79-1l1.21-1.54c.4-.51.79-1,1.21-1.54l1.63-2c.54-.68,1.11-1.34,1.65-2l.83-1c.27-.34.56-.66.84-1l.83-1,.84-1,.85-1,1.26-1.49,1.28-1.47c.45-.52.9-1,1.36-1.55l1.41-1.5.88-.93c.29-.31.6-.61.9-.91l1.83-1.81,2.65-2.46,2.7-2.4,1.53-1.3a.5.5,0,0,0,.34-.25l0,0h0l.2-.21.24-.24.24-.23c.26-.26.53-.51.78-.78s.5-.53.73-.81c1-1.28,2.08-2.54,3.22-3.72.51-.54,1.06-1,1.62-1.53s1.11-1,1.69-1.44L127,92.33l.9-.65.93-.62,0,0c.74-.44,1.46-.91,2.17-1.4,1.09-.7,2.14-1.46,3.19-2.21l1-.75,1.06-.75c.35-.26.7-.51,1.06-.75L139,84.1l1.1-.7c.56-.33,1.13-.66,1.7-1,1.52-.84,3.17-1.46,4.74-2.21.79-.36,1.58-.73,2.36-1.11,1.17-.59,2.35-1.15,3.51-1.74l.88-.45.88-.43,1.76-.86.88-.43.89-.42,1.78-.82c.5-.23,1-.44,1.5-.65l1.52-.63c1-.42,2-.77,3.07-1.13a99.46,99.46,0,0,1,12.81-3.29l2-.35c.65-.11,1.29-.25,1.95-.34l1.95-.29c.65-.1,1.3-.2,2-.28l1.29-.16,1.94-.25,1.94-.22c.87-.09,1.72-.2,2.59-.28l2.59-.25c1.29-.12,2.58-.22,3.88-.35L203,65.3c.65,0,1.3-.12,1.95-.16l1.94-.14c1.37-.11,2.75-.15,4.12-.2l1.28,0h3.86V45.15h-.38c-1.23,0-2.45,0-3.67.07S209.67,45.42,208.46,45.57Z"/><path class="cls-3" d="M386.58,208.31c-.07-.61-.15-1.21-.25-1.82l-.21-1.42-.2-1.43-.1-.71-.1-.71c-.14-.95-.28-1.9-.4-2.85l-.1-.71-.1-.71-.21-1.43-.2-1.42-.1-.71-.11-.71-.55-3.55c-.21-1.18-.41-2.36-.62-3.53-.07-.48-.17-.94-.26-1.41l-.28-1.41-.43-2.13-.47-2.12c-.16-.71-.31-1.42-.48-2.13l-.51-2.11q-1.71-7-3.82-14l-1.29-4.15c-.6-1.84-1.16-3.69-1.77-5.53l-.44-1.39-.22-.7-.23-.69-.46-1.38-.47-1.39a72.33,72.33,0,0,0-2.73-6.79c-.56-1.25-1.23-2.46-1.9-3.66l-.33-.6c-.23-.4-.46-.8-.7-1.19l-1.79-2.94-.73-1.17-1.48-2.39L361,125l-.76-1.18-.78-1.17-1.56-2.34-1.53-2.19a.69.69,0,0,0-.11-.13c-.27-.38-.54-.76-.83-1.13l-.87-1.1c-.6-.72-1.19-1.44-1.82-2.13-.32-.35-.64-.69-1-1l-.48-.5c-.41-.42-.81-.85-1.21-1.28s-.8-.85-1.18-1.3c-.13-.16-.27-.32-.4-.49l-.38-.51L347,106.92c-.37-.51-.75-1-1.15-1.52s-.67-.83-1-1.22L343.76,103a.72.72,0,0,0-.16-.33c-.42-.44-.83-.9-1.23-1.35s-.82-.91-1.23-1.37l-.8-.92-.6-.69-.6-.69-1.22-1.37-.81-.92-.16-.18-.26-.27c-.84-.89-1.73-1.73-2.63-2.55s-1.88-1.57-2.84-2.33c-.47-.38-1-.74-1.47-1.1l-1.15-.86c-1.14-.88-2.31-1.72-3.45-2.59-.39-.29-.76-.59-1.15-.87l-1.15-.86-1.72-1.3-1.74-1.28L318,80.11l-1.46-1c-1-.69-1.93-1.41-2.93-2.07l-2.37-1.61-2.43-1.59L307.55,73l-1.23-.76c-.83-.51-1.64-1-2.47-1.53l-2.48-1.5c-3.33-2-6.69-3.88-10.12-5.69-1.27-.69-2.56-1.35-3.84-2l-1.29-.68-1.29-.66-2.58-1.34L281,58.17c-.87-.44-1.73-.9-2.6-1.33L277,56.2l-2-.94c-.67-.3-1.34-.59-2-.87-.9-.37-1.8-.76-2.72-1.08l-.65-.22c-.55-.19-1.09-.37-1.64-.54l-.82-.26-.83-.23-.66-.18-1.34-.34c-.55-.14-1.11-.3-1.67-.42L261,50.73l-1.34-.32c-.91-.24-1.83-.42-2.75-.63l-1.37-.32c-.46-.1-.91-.21-1.37-.3l-2.76-.57c-.92-.2-1.84-.35-2.76-.53s-1.75-.34-2.63-.49h-.17a52.23,52.23,0,0,0-5.58-.58l-1.41,0-.7,0c-1.17,0-2.34,0-3.5-.13l-.63-.07-.63-.09c-1.26-.17-2.51-.42-3.77-.57-1.06-.12-2.12-.14-3.18-.18a.62.62,0,0,0-.36-.12l-1.21-.06-1.22-.06c-.82,0-1.63-.09-2.44-.15s-1.63-.11-2.44-.16l-2.44-.15-.23,0V64.78l3.61.13,3.61.22c.67,0,1.34.11,2,.16a.48.48,0,0,0,.41.07h1c.36,0,.73,0,1.09,0s.73,0,1.1-.06l2.45-.23c.82-.07,1.63-.11,2.45-.12a44.35,44.35,0,0,1,8.83.94l.05,0c.84.2,1.68.41,2.53.57.63.13,1.27.23,1.9.35s1.27.23,1.91.33l1.28.2,1.28.23,1.27.22c.64.12,1.28.23,1.92.38l.63.14.63.15c.64.16,1.27.32,1.89.5.42.13.83.27,1.24.42.82.29,1.64.6,2.45.91l.61.25.61.23c.81.3,1.64.58,2.46.87l1.85.64c.62.21,1.25.39,1.86.62l1.24.42c.82.28,1.66.53,2.47.84l2.47.87c.42.14.82.31,1.23.47,1,.4,2,.78,3,1.22s2,.9,3,1.37c2.75,1.41,5.46,2.91,8.06,4.57l1.12.71c.74.47,1.46,1,2.2,1.47l1.09.74,1.07.76,1.08.77c1.08.76,2.12,1.58,3.17,2.36.35.27.7.52,1,.79l1.54,1.21c.51.4,1,.79,1.53,1.21l2,1.63c.68.54,1.33,1.11,2,1.66l1,.82,1,.84,1,.84,1,.83,1,.85,1.48,1.26c.5.42,1,.86,1.47,1.28s1,.9,1.55,1.36l1.51,1.41.93.88c.31.3.61.61.91.91l1.8,1.82,2.47,2.65,2.4,2.71,1.3,1.53a.5.5,0,0,0,.24.34h0l0,0,.2.19.24.25.24.24.77.77c.26.26.54.5.82.74,1.27,1,2.54,2.07,3.72,3.21.54.52,1,1.07,1.53,1.62s1,1.12,1.43,1.7.9,1.18,1.34,1.78l.65.9.61.92,0,0c.44.74.91,1.47,1.39,2.18.7,1.08,1.46,2.13,2.22,3.18l.75,1.06.75,1c.25.35.51.7.74,1.06.37.54.73,1.08,1.09,1.63l.7,1.1c.33.56.65,1.12,1,1.69.85,1.53,1.46,3.17,2.21,4.74.37.8.73,1.59,1.12,2.37.59,1.16,1.14,2.34,1.74,3.51l.44.87.43.88.87,1.76c.14.3.29.59.43.88l.41.89.83,1.79c.23.49.44,1,.65,1.5l.62,1.51c.42,1,.78,2,1.13,3.08a99.35,99.35,0,0,1,3.3,12.8l.35,2c.11.65.24,1.3.33,1.95l.29,2c.1.65.21,1.3.28,1.95l.17,1.3.25,1.94.21,1.94c.1.86.21,1.72.28,2.58l.26,2.59c.12,1.29.21,2.59.34,3.88l.2,2.59c0,.65.12,1.29.15,1.94l.14,1.94c.12,1.37.16,2.75.2,4.13l0,1.28v1.28l0,2.57H387v-.38c0-1.22,0-2.44-.06-3.66S386.72,209.52,386.58,208.31Z"/><path class="cls-4" d="M290.26,397.49c.85-.35,1.69-.73,2.51-1.15s1.62-.87,2.42-1.33l1.18-.7c.4-.24.79-.49,1.17-.74l2.33-1.48c.8-.5,1.6-1,2.41-1.5s1.62-.95,2.44-1.4,1.63-.93,2.45-1.38,1.66-.87,2.49-1.33L319.82,381l1.26-.66,1.24-.69c.83-.46,1.65-.93,2.47-1.41.41-.23.81-.48,1.21-.74l1.18-.78c.78-.53,1.57-1.07,2.31-1.65,1.27-1,2.5-2.05,3.69-3.14l1.75-1.68.87-.84.43-.43.42-.43,3.39-3.44c.56-.58,1.12-1.15,1.69-1.71l1.74-1.66c3.82-3.55,7.72-7,11.31-10.79l.73-.79a.36.36,0,0,0,.18-.12c.63-.63,1.23-1.28,1.86-1.92s1.24-1.26,1.88-1.88,1.24-1.27,1.88-1.89l1-.93,1-.93c.62-.62,1.25-1.23,1.89-1.84l1.94-1.8a21.39,21.39,0,0,0,3.58-3.6l0-.07c.59-.72,1.19-1.43,1.79-2.14l1.78-2.17h0l1.14-1.39c.39-.46.75-.94,1.12-1.41.74-.94,1.48-1.89,2.2-2.85s1.41-2,2.1-2.93l1-1.5c.32-.51.64-1,.95-1.53.48-.79.95-1.58,1.35-2.41s.8-1.65,1.18-2.49c.19-.42.38-.84.55-1.26l.52-1.29,1-2.56c.43-1.1.87-2.2,1.34-3.27.24-.54.49-1.07.73-1.6s.48-1.07.73-1.6c.59-1.28,1.23-2.54,1.83-3.81l1.26-2.6,1.24-2.6.63-1.3.32-.65.31-.66c.41-.87.83-1.73,1.26-2.6l.47-.95c.16-.32.31-.65.46-1l.6-1.29.58-1.29c.45-1,.83-2,1.21-2.95.19-.5.37-1,.54-1.51s.35-1,.49-1.52c.22-.78.42-1.56.61-2.35s.38-1.57.52-2.36.3-1.59.44-2.39.29-1.58.39-2.39l.18-1.19.36-2.39c.1-.6.17-1.2.26-1.79s.19-1.19.29-1.78c.12-.79.29-1.58.42-2.37q.27-1.44.57-2.88c.09-.47.2-.95.29-1.43l.28-1.44.57-2.88c.18-1,.34-1.92.5-2.89s.34-1.92.46-2.9l.13-1,.12-1.06a.49.49,0,0,0,.08-.21c.26-1.76.48-3.52.77-5.27l.22-1.32.2-1.32c.14-.87.29-1.75.45-2.63s.3-1.73.45-2.6.32-1.73.51-2.6.37-1.65.53-2.49a12.51,12.51,0,0,0,.24-2.52v-.08c0-.46.06-.93.08-1.39l.09-1.4.19-2.79H392.75c-.12,1-.22,2-.31,3.07s-.16,2-.25,3.06c0,.57-.07,1.15-.08,1.73v0l-.14,1-.17,1c-.12.79-.22,1.59-.32,2.38l-.13,1.2-.16,1.19c-.22,1.58-.37,3.17-.6,4.76l-.3,2.38c0,.39-.1.79-.16,1.18l-.17,1.19v0l0,.3h0c-.71,5-1.6,10-2.73,14.94l-.6,2.51-.3,1.26-.14.63-.16.63-.64,2.51c-.1.41-.2.84-.31,1.25l-.34,1.25L384,268l-1,3.75c-.16.62-.36,1.24-.54,1.87l-.55,1.86-.28.95-.3.93-.61,1.87c-.4,1.26-.85,2.49-1.3,3.72-.23.62-.44,1.24-.68,1.86l-.72,1.83-.72,1.83c-.25.61-.52,1.21-.77,1.82l-1,2.42-1.09,2.4c-.28.6-.54,1.2-.83,1.8l-.85,1.78-.86,1.78-.89,1.77c-.4.78-.78,1.58-1.19,2.35l-.5.94-1.11,2.12c-.38.7-.79,1.39-1.2,2.07-.18.3-.37.6-.56.9s-.57.9-.89,1.32-.82,1.1-1.23,1.63c-.63.81-1.26,1.62-1.93,2.39L361,317.53c-.65.77-1.33,1.51-2,2.26L358,321l-.51.58-.51.57c-.68.77-1.35,1.54-2,2.33-.18.23-.36.45-.55.67l-.54.67,0,0c-.48.49-1,1-1.44,1.46L350.77,329c-.55.58-1.1,1.16-1.64,1.75l-1.65,1.75c-.55.58-1.08,1.17-1.63,1.75L344.19,336c-.55.58-1.09,1.16-1.65,1.73h0l-.21.22h0c-3.52,3.64-7.17,7.15-11,10.47-5.21,4.54-10.57,8.88-16.07,13.1-.69.55-1.4,1-2.11,1.57L311,364.65l-2.17,1.48-1.09.74-1.1.72L304.42,369c-.73.47-1.49.91-2.24,1.37l-1.13.68c-.37.23-.75.46-1.13.67L297.64,373c-.39.22-.76.44-1.15.65l-1.16.63L293,375.58l-2.34,1.22c-.78.4-1.56.82-2.35,1.2l-1.9.95c-.64.32-1.27.64-1.92.92s-1.29.58-1.95.85-1.31.53-2,.74-1.62.5-2.43.74c-.41.11-.81.24-1.22.34l-1.24.31-2.47.6c-.82.19-1.66.36-2.48.54l5.82,17.91c2.33-.59,4.63-1.27,6.93-1.95S288.05,398.44,290.26,397.49Z"/><path class="cls-4" d="M66.47,342.55c.61.69,1.22,1.38,1.87,2s1.33,1.27,2,1.89l1,.91,1.06.89L74.57,350l.55.46.54.45c.37.3.73.61,1.08.92.71.61,1.4,1.25,2.09,1.88s1.38,1.27,2.06,1.92l1,1,1,1,8.34,8c.34.33.67.67,1,1l1,1q1,1,2.1,1.92c.71.62,1.44,1.22,2.18,1.81l1.12.86.58.43.58.4c.68.45,1.36.88,2,1.31s1.38.84,2.09,1.23l2.13,1.15,1.07.57c.35.19.72.36,1.08.54,2.88,1.46,5.78,2.85,8.58,4.39,1.14.63,2.27,1.29,3.4,1.92s2.28,1.27,3.41,1.92c2.29,1.24,4.58,2.5,6.94,3.61l1,.45a.47.47,0,0,0,.17.14c.39.2.8.39,1.2.58l1.19.59c.8.39,1.59.79,2.38,1.2l2.38,1.21,1.18.63.59.31.59.31c.78.41,1.56.82,2.33,1.24l2.32,1.29c.74.42,1.46.86,2.2,1.27a11,11,0,0,0,1.14.57,10,10,0,0,0,1.19.44l.08,0,2.6,1c.86.35,1.74.68,2.6,1h0c2.22.89,4.49,1.7,6.76,2.49s4.58,1.47,6.93,2c.89.21,1.79.4,2.7.54s1.82.24,2.74.34c1.83.21,3.67.27,5.5.39,1.18.08,2.36.16,3.53.27.59.05,1.17.12,1.75.18l.87.11.88.1c1.4.16,2.79.36,4.19.56l2.86.37c.95.13,1.9.28,2.86.39,1.91.23,3.81.53,5.72.77l2.11.29,1.41.18L208,411c1.06.1,2.12.19,3.18.25s2.13.05,3.2,0l1.2,0,.61,0,.6,0c.81-.07,1.61-.15,2.41-.24s1.6-.18,2.4-.31l2.39-.37,1.2-.19c.39-.07.79-.12,1.19-.2l1.19-.21c1.18-.2,2.37-.39,3.56-.55.79-.13,1.58-.24,2.38-.34l2.91-.34,2.91-.34,1.46-.16,1.45-.19,2.91-.39c1-.13,1.93-.31,2.9-.47l1-.17,1.06-.19a.54.54,0,0,0,.22,0c1.74-.33,3.49-.61,5.25-.88l2.64-.42c.88-.13,1.76-.24,2.64-.38s1.74-.26,2.62-.37l2.63-.32a21.14,21.14,0,0,0,5-.81l.07,0,2.72-.68,2.71-.71L270.73,384c-2,.47-4,.86-6,1.38l-1.68.45h0c-.67.11-1.35.21-2,.33l-2.36.43-2.36.46-1.18.22-1.18.22-2.35.46c-1.57.27-3.14.57-4.71.85h0l-.29.05h0c-5,.89-10,1.53-15.06,2-3.44.32-6.89.53-10.34.74-.86.05-1.72.07-2.59.12l-1.94.09c-.65,0-1.3,0-2,.07l-1.94.06-1,0-1,0c-1.32,0-2.63,0-3.94,0l-4-.08c-1.31-.05-2.62-.13-3.94-.19l-1-.06-1-.07-2-.16-1.31-.1-1.31-.14-2.62-.27c-2.62-.31-5.24-.64-7.84-1.05l-1.31-.19c-.43-.06-.87-.15-1.3-.22l-1-.17c-.79-.13-1.57-.25-2.36-.4s-1.56-.32-2.33-.5l-1-.25-.77-.2-.76-.24c-.64-.21-1.29-.43-1.93-.66l-1.44-.52-1.43-.57-1.88-.78-.7-.29-.69-.3-1.38-.61c-1.89-.8-3.75-1.66-5.66-2.39l-.8-.32-.81-.31h0l-1.83-.92-2.17-1c-.72-.35-1.45-.68-2.17-1l-2.17-1-2.17-1-2.16-1c-.72-.34-1.45-.67-2.16-1h0l-.27-.13h0c-4.55-2.22-9-4.63-13.34-7.25-.75-.43-1.48-.9-2.21-1.35l-2.21-1.35-2.19-1.39-1.09-.68L117,361l-2.17-1.41c-.73-.47-1.43-1-2.16-1.45s-1.44-.95-2.15-1.44l-2.14-1.48-1.08-.74-1.06-.77-2.12-1.56-2.08-1.6c-.69-.54-1.39-1.07-2.06-1.64-1.35-1.11-2.72-2.22-4-3.38-.66-.58-1.33-1.15-2-1.74L92,342l-1-.89-1-.9-1.91-1.82c-.64-.61-1.26-1.24-1.89-1.85s-1.26-1.23-1.87-1.86l-1.49-1.52c-.49-.51-1-1-1.47-1.54s-.94-1.05-1.4-1.59-.91-1.09-1.32-1.67-1-1.38-1.46-2.08c-.24-.36-.48-.7-.71-1.06l-.67-1.08L74.55,322l-1.28-2.2L58,330.87c1.28,2,2.64,4,4,6S64.89,340.74,66.47,342.55Z"/><path class="cls-4" d="M49.53,112.74a63,63,0,0,0-4.62,10c-.34.88-.69,1.76-1.06,2.62l-.57,1.29c-.19.43-.39.85-.58,1.28-.38.86-.78,1.71-1.19,2.56l-.62,1.26-.6,1.27L39,135.63l-1.24,2.6-.63,1.3-.32.65-.31.66c-.41.87-.83,1.73-1.26,2.6l-.63,1.28L34,146c-.4.86-.79,1.72-1.17,2.59s-.71,1.75-1,2.63c-.17.45-.33.89-.48,1.34s-.3.9-.43,1.36c-.22.78-.42,1.56-.61,2.35s-.38,1.57-.52,2.36-.3,1.59-.44,2.39-.29,1.58-.39,2.39l-.72,4.77c-.11.8-.23,1.59-.37,2.38s-.29,1.58-.42,2.37c-.24,1.28-.5,2.56-.77,3.83l-.75,3.84c-.27,1.28-.47,2.56-.69,3.85l-.32,1.93c-.1.64-.18,1.29-.27,1.94l-.12,1.06a.66.66,0,0,0-.08.21c-.26,1.76-.48,3.52-.77,5.27l-.22,1.32-.2,1.32c-.14.87-.29,1.75-.45,2.63s-.3,1.73-.45,2.6-.32,1.73-.51,2.6-.37,1.65-.53,2.49a13.28,13.28,0,0,0-.24,2.52v.08c0,.46-.06.93-.08,1.39l-.09,1.4L20.72,216h0l-.17,3.59c0,.6-.06,1.2-.07,1.8l0,1.8V225c0,.6,0,1.21,0,1.81,0,1.2.1,2.4.18,3.59l.06.69.08.69c.06.45.13.91.2,1.36.14.91.31,1.81.5,2.71s.42,1.79.64,2.69.44,1.78.68,2.67c.31,1.14.58,2.29.83,3.44l.18.86.18.86c.12.57.24,1.15.35,1.72.25,1.39.5,2.77.76,4.16l.49,2.84.53,2.84c.33,1.9.7,3.79,1,5.69l.18,1.06.2,1,.27,1.39.28,1.4c.21,1,.48,2.07.76,3.1q.21.76.45,1.53c.15.51.31,1,.5,1.52.28.76.58,1.51.88,2.26s.62,1.49,1,2.22.69,1.46,1.05,2.19.7,1.45,1.08,2.16l.56,1.07,1.11,2.15c.56,1.07,1.13,2.13,1.66,3.21l1,2.16c.42.88.83,1.77,1.23,2.66s.82,1.78,1.23,2.67l1.23,2.66,1.29,2.64.65,1.31c.22.44.46.87.69,1.3l.46.86.52.94a.83.83,0,0,0,.06.21c.41.79.84,1.57,1.25,2.35s.83,1.57,1.23,2.37l1.21,2.37c.4.8.79,1.6,1.18,2.4s.78,1.58,1.16,2.37.74,1.6,1.12,2.4.67,1.56,1,2.33c.18.38.37.76.58,1.13a10.19,10.19,0,0,0,.71,1l0,.06c.5.79,1,1.57,1.49,2.37l.37.59.38.59.76,1.17,15.23-11.08c-1.07-1.75-2.06-3.54-3.18-5.26-.3-.49-.61-1-.94-1.45a.05.05,0,0,0,0,0l-.95-1.81c-.39-.7-.75-1.42-1.14-2.12s-.78-1.4-1.17-2.1-.76-1.41-1.15-2.1l-.58-1.05-.3-.52-.28-.53-1.14-2.11-.58-1.05-.56-1.06v0l-.14-.26h0c-2.38-4.47-4.6-9-6.57-13.69-.34-.79-.66-1.6-1-2.39l-.5-1.19c-.17-.4-.34-.8-.49-1.2l-1-2.4c-.16-.41-.33-.8-.49-1.21L50.67,275l-.93-2.41L48.39,269c-.23-.6-.44-1.22-.65-1.83l-.65-1.84-.33-.92c-.11-.31-.21-.63-.31-.94l-.61-1.87c-.19-.63-.41-1.25-.58-1.88l-.55-1.89-.54-1.9L43.68,254l-.49-1.91c-.17-.63-.3-1.28-.45-1.92l-.59-2.56c-.18-.86-.35-1.72-.52-2.58l-.4-1.94-.35-1.95c-.22-1.29-.48-2.59-.67-3.9l-.42-2.6c-.06-.35-.11-.7-.16-1.06-.1-.79-.21-1.57-.32-2.36s-.21-1.58-.26-2.38c0-.35,0-.71-.07-1.06,0-.53,0-1.06,0-1.6v-1l0-1c0-1,.09-2.05.15-3.07,0-.68.11-1.36.17-2l.26-3c.12-1,.22-2,.31-3.07s.16-2,.25-3.06c0-.28,0-.57,0-.86s0-.58,0-.87v0l.15-1,.16-1c.12-.79.22-1.59.32-2.38l.13-1.19.16-1.2c.22-1.58.37-3.17.6-4.76l.3-2.38c0-.39.1-.79.16-1.18l.17-1.19v0l0-.3h0c.71-5,1.6-10,2.73-14.94q2.32-10.08,5.31-20a149.88,149.88,0,0,1,7.49-19.63l.55-1.2c.18-.4.37-.79.56-1.19l1.14-2.38c.19-.4.39-.79.59-1.18l.59-1.18c.4-.78.78-1.58,1.19-2.35.67-1.25,1.3-2.52,2-3.76S66,121.19,66.78,120a99.43,99.43,0,0,1,6.49-7.83L58,101.13l-1.14,1.39c-.39.46-.75.94-1.12,1.41-.74.94-1.48,1.89-2.2,2.85s-1.41,2-2.1,2.93q-.51.75-1,1.5T49.53,112.74Z"/><path class="cls-4" d="M262.85,25.61c-.89-.21-1.79-.4-2.7-.54s-1.82-.24-2.74-.34c-1.83-.21-3.67-.27-5.5-.39l-1.42-.1-1.41-.1c-.94-.08-1.87-.18-2.8-.3l-1.4-.16-1.39-.17-2.8-.39-2.86-.37c-1-.13-1.9-.28-2.86-.39-1.91-.23-3.81-.53-5.72-.77l-2.82-.38c-.94-.12-1.88-.21-2.82-.3s-1.88-.16-2.82-.19-1.9,0-2.84,0l-1.21,0-.61,0-.6.05c-.81.07-1.61.15-2.41.24s-1.6.18-2.4.31l-2.39.37-2.39.39c-.79.14-1.58.28-2.37.4l-2.38.36c-.79.13-1.58.24-2.38.34l-7.76.9-3.88.52c-1.29.18-2.58.41-3.86.64l-1.06.19a.54.54,0,0,0-.22,0c-1.74.33-3.49.61-5.25.88q-1.32.23-2.64.42c-.88.13-1.76.24-2.64.38s-1.74.26-2.62.37l-2.63.32a21.14,21.14,0,0,0-5,.81l-.07,0-2.72.68-2.71.71h0c-2.33.59-4.64,1.27-6.94,1.95s-4.57,1.51-6.78,2.46c-.85.35-1.69.73-2.51,1.15s-1.62.87-2.41,1.33l-1.19.7c-.4.24-.78.49-1.17.74l-2.33,1.48-.75.47-.75.47c-.5.32-1,.62-1.51.92s-1,.59-1.53.87l-1.53.87-1.85,1-.94.49-.93.51L112.47,51c-.63.34-1.27.65-1.88,1l-1.24.69-1.23.7c-.46.27-.93.53-1.38.82l-1.34.86c-.88.59-1.76,1.19-2.6,1.85-1.27,1-2.5,2-3.69,3.14l-1.75,1.68-.87.84-.43.43-.42.43-.85.87L93.1,66c-.85.86-1.68,1.73-2.54,2.57l-1.74,1.66c-.71.67-1.42,1.34-2.15,2s-1.43,1.33-2.15,2-1.44,1.32-2.15,2l-2.11,2-1.05,1-1,1.06-.68.7-.73.79a.36.36,0,0,0-.18.12c-.63.63-1.23,1.28-1.85,1.92s-1.25,1.26-1.89,1.88S71.62,87,71,87.65l-1,.93-1,.93c-.62.62-1.25,1.23-1.89,1.84l-1.94,1.8a21.77,21.77,0,0,0-3.58,3.6l0,.07c-.59.72-1.19,1.43-1.79,2.14L58,101.13l15.23,11.08,1-1.16.51-.58.51-.57c.68-.77,1.35-1.54,2-2.33.36-.45.74-.89,1.09-1.34l0,0c.48-.49,1-1,1.44-1.46L81.52,103c.55-.58,1.1-1.16,1.64-1.75l1.65-1.75c.55-.58,1.08-1.17,1.63-1.75L88.1,96c.55-.58,1.09-1.16,1.65-1.73h0L90,94h0c3.52-3.64,7.17-7.15,11-10.47.65-.57,1.31-1.12,2-1.69l1-.84c.32-.28.65-.57,1-.84l2-1.66c.33-.27.65-.56,1-.83l1-.81,2-1.64,3-2.41c1-.8,2.06-1.58,3.08-2.38,2.09-1.59,4.22-3.13,6.4-4.59,1.08-.75,2.19-1.45,3.3-2.17l1.66-1.06,1.69-1,1.13-.68c.37-.23.75-.46,1.13-.67L134.65,59l.86-.49.87-.47,1.73-1c1.16-.64,2.33-1.24,3.5-1.85.78-.4,1.56-.82,2.35-1.2l.95-.48,2.14-1.06c.73-.34,1.45-.66,2.19-1l1-.4.74-.29.76-.26,1.95-.6,1.47-.42,1.49-.37,2-.49.73-.17.74-.16,1.47-.32c2-.47,4-.86,6-1.38l.84-.22.84-.23h0c.67-.11,1.35-.21,2-.33l2.36-.43L176,45l1.18-.22,1.18-.22,2.35-.46c1.57-.27,3.14-.57,4.72-.85h0l.29,0h0c5-.89,10-1.53,15.06-2,6.88-.59,13.78-1,20.72-1.14a156.81,156.81,0,0,1,21,1c.44,0,.88.1,1.31.16l1.31.17,2.61.33,2.61.39,1.31.19c.44.06.87.15,1.3.22l2.1.34,1.05.18c.35.06.69.13,1,.21.69.14,1.38.29,2.07.46s1.37.34,2,.57,1.6.54,2.4.83c.4.14.8.28,1.19.44l1.18.48,2.35,1c.78.33,1.56.69,2.33,1l5.82-17.91c-2.23-.89-4.5-1.7-6.77-2.49S265.2,26.14,262.85,25.61Z"/><path class="cls-4" d="M411.63,201.61l-.06-.69-.08-.69c-.06-.45-.13-.91-.2-1.36-.14-.91-.31-1.81-.5-2.71s-.42-1.79-.64-2.69-.44-1.78-.68-2.67c-1-3.66-1.62-7.33-2.3-11l-.49-2.84-.53-2.84c-.33-1.9-.7-3.79-1-5.69-.15-.94-.33-1.87-.51-2.8s-.37-1.85-.57-2.78-.45-1.84-.71-2.75c-.12-.45-.26-.91-.4-1.36s-.28-.9-.45-1.35c-.28-.76-.58-1.51-.88-2.26s-.61-1.49-1-2.22-.69-1.46-1.05-2.19-.7-1.45-1.08-2.16l-2.23-4.29c-.38-.71-.74-1.42-1.1-2.14l-1-2.16c-.56-1.18-1.1-2.36-1.63-3.56s-1.11-2.36-1.65-3.54c-.27-.6-.55-1.18-.84-1.77l-.86-1.76c-.29-.58-.57-1.17-.88-1.74l-.92-1.73-.52-.94a.83.83,0,0,0-.06-.21c-.41-.79-.84-1.57-1.25-2.35s-.83-1.57-1.22-2.37-.82-1.58-1.22-2.37-.79-1.6-1.18-2.4-.78-1.58-1.16-2.37-.74-1.6-1.12-2.4-.67-1.56-1-2.33c-.18-.38-.37-.76-.58-1.13a10.19,10.19,0,0,0-.71-1l-.05-.06c-.5-.79-1-1.57-1.49-2.37l-.37-.59-.38-.59-.76-1.17h0c-1.28-2-2.64-4-4-6s-2.84-3.88-4.42-5.69c-.6-.69-1.22-1.38-1.87-2s-1.33-1.27-2-1.89l-1-.91-1.06-.89L357.72,82l-1.37-1.14L355,79.7c-.44-.39-.87-.79-1.3-1.19l-1.3-1.18c-1-1-2-2-3.06-2.92l-8.34-8-.76-.75c-.25-.25-.52-.49-.77-.73l-1-1L337.4,63c-.78-.73-1.6-1.4-2.43-2.07l-1.26-1-.64-.47-.66-.46c-.68-.45-1.36-.88-2-1.31s-1.38-.84-2.09-1.23l-2.13-1.15-1.07-.57c-.35-.19-.72-.36-1.08-.54l-1.08-.54-2.15-1.09c-1.09-.53-2.17-1.07-3.23-1.63l-2.11-1.13c-.86-.47-1.71-1-2.56-1.44s-1.71-1-2.56-1.43L309,46.26l-.64-.36-.64-.35c-1.73-.92-3.43-1.87-5.2-2.71l-.88-.43-1-.45a.62.62,0,0,0-.18-.14c-.39-.2-.79-.39-1.2-.58l-1.19-.59c-.8-.39-1.59-.79-2.38-1.2l-2.38-1.21-1.18-.63-.59-.31L291,37c-.78-.41-1.56-.82-2.33-1.24l-2.32-1.29c-.73-.42-1.46-.86-2.2-1.27a11,11,0,0,0-1.14-.57,10,10,0,0,0-1.19-.44l-.08,0-2.59-1c-.87-.35-1.74-.68-2.61-1L270.73,48c1.89.8,3.75,1.66,5.66,2.39.54.21,1.07.44,1.61.63h0l1.83.92L282,53c.72.35,1.45.68,2.17,1l2.17,1,2.17,1,2.16,1c.72.34,1.45.67,2.16,1h0l.27.13h0c4.55,2.22,9,4.63,13.34,7.25.75.43,1.48.9,2.21,1.35l2.21,1.35,2.19,1.39,1.09.68,1.09.71,2.17,1.41c1.08.71,2.15,1.45,3.24,2.17.26.18.54.35.81.54l.79.55,1.61,1.11c1.09.73,2.14,1.52,3.2,2.29s2.1,1.58,3.14,2.38l1.55,1.22,1.52,1.26,1.53,1.25,1.49,1.29c.66.58,1.33,1.15,2,1.74L340.28,90c1,.88,1.93,1.8,2.89,2.7.47.46,1,.9,1.43,1.37L346,95.45c.62.62,1.26,1.23,1.87,1.86l.74.76,1.68,1.71c.54.58,1.07,1.18,1.6,1.78l.68.81c.34.41.67.82,1,1.26s.79,1.11,1.18,1.67l.86,1.27.81,1.3,1.08,1.74.39.64.38.65.76,1.31c1.07,1.75,2.06,3.54,3.18,5.26l.46.73c.16.24.31.48.48.72a.05.05,0,0,0,0,0l.95,1.81c.39.7.75,1.42,1.14,2.12s.78,1.4,1.17,2.1.76,1.41,1.15,2.1l.58,1,.3.52.28.53,1.14,2.11.58,1,.56,1.06v0l.14.26h0c2.37,4.47,4.59,9,6.56,13.69,2.7,6.35,5.17,12.79,7.47,19.33A148.29,148.29,0,0,1,390.66,187l.27,1.3c.08.43.17.86.24,1.29l.47,2.59.23,1.3.21,1.31.42,2.6c.21,1.41.41,2.81.59,4.21.09.71.14,1.41.19,2.12s.08,1.42.08,2.13c0,.42,0,.84,0,1.27l-.05,1.27c0,.85-.08,1.7-.13,2.54,0,.43-.06.85-.1,1.27l-.11,1.27-.22,2.53h18.82l.17-3.59c0-.6.06-1.2.07-1.8l0-1.8V207c0-.6,0-1.21,0-1.81C411.77,204,411.71,202.8,411.63,201.61Z"/><path class="cls-5" d="M131.63,415.33a149.72,149.72,0,0,0,19.17,6.41c6.71,1.82,13.39,3.53,20.2,5s13.95,2.71,21,3.66A157.73,157.73,0,0,0,212.83,432h3.34l1.11,0c1.49-.05,3-.11,4.45-.18l4.44-.33,1.1-.09,1.11-.11,2.21-.23,2.2-.22,2.21-.28,2.2-.28,1.1-.14,1.09-.16,4.4-.64,4.38-.69c4.76-.79,9.52-1.61,14.23-2.66,2.37-.49,4.71-1.09,7.05-1.65,1.17-.29,2.34-.62,3.5-.93l1.75-.48c.58-.16,1.16-.34,1.73-.51l1.91-.58.39-.09q9.43-2.87,18.68-6.33l2.27-.84,2.26-.89c1.51-.6,3-1.17,4.51-1.8l2.16-.86,1.08-.44,1.06-.46c.71-.32,1.42-.63,2.12-1l1.06-.5.52-.26.52-.28.12-.08,2.3-1.17,1.15-.58.57-.29.57-.31,2.27-1.22,1.14-.61c.38-.2.75-.4,1.13-.62h0l2.88-1.63,1.44-.82,1.42-.85,2.84-1.71,2.8-1.77,1.4-.89,1.38-.93,2.74-1.86c.91-.63,1.8-1.28,2.7-1.93s1.8-1.29,2.67-2l2-1.56c.66-.52,1.33-1,2-1.59l1.92-1.64c.64-.55,1.29-1.09,1.91-1.67l1.86-1.7.93-.86.46-.42.46-.44c1.21-1.18,2.42-2.33,3.62-3.52.76-.77,1.53-1.53,2.3-2.3l1.15-1.15,1.13-1.16,2.28-2.31,2.24-2.34,1.36-1.41,1.32-1.43,1.33-1.43c.45-.47.9-.94,1.33-1.43q7.17-7.89,13.69-16.33l2.39-3.11,1.54-2.11,1.53-2.12,1.66-2.42.82-1.22c.27-.41.55-.81.81-1.23l1.56-2.49.78-1.26.74-1.27,1.1-1.94.55-1,.27-.49.26-.49c.7-1.32,1.38-2.63,2.06-3.95s1.3-2.67,1.94-4l.48-1,.45-1,.91-2c.3-.68.62-1.34.9-2l1.73-4.09c.42-1,.82-2.06,1.24-3.09s.84-2.05,1.23-3.09l1.6-4.14c.62-1.7,1.27-3.39,1.88-5.09a215.34,215.34,0,0,0,6.39-20.76L425,267l.46-1.94a1.89,1.89,0,0,0,.12-.38c1.48-6.4,2.75-12.86,3.83-19.34l.21-1.2c.07-.4.13-.79.19-1.2l.36-2.4c.12-.8.24-1.6.37-2.4l.33-2.4c.21-1.54.46-3.06.62-4.61.08-.77.16-1.54.22-2.31s.14-1.55.14-2.34v-.14c.08-1.72.19-3.43.26-5.15l.16-5.15H421l-.12,3-.06,1.49c0,.49,0,1-.07,1.48l-.17,3-.08,1.48c0,.49-.08,1-.11,1.48-.08,1.11-.16,2.23-.22,3.34v.08c-.13,1.31-.31,2.62-.46,3.93l-.13,1.15-.07.58-.07.57-.31,2.31-.31,2.3-.35,2.3c-.93,6.12-2.08,12.21-3.49,18.25v0l-.14.56v0l-.87,3.58-1,3.55c-.16.59-.31,1.19-.49,1.78l-.52,1.76-.53,1.77-.26.88c-.09.29-.19.58-.28.87L409.74,281c-.19.58-.4,1.16-.6,1.74l-.61,1.73-.61,1.74-.66,1.72-.65,1.72c-.22.57-.43,1.15-.67,1.72q-3.7,9.33-8.24,18.29l-1.16,2.22c-.38.75-.75,1.5-1.16,2.23l-1.8,3.3c-.61,1.1-1.25,2.18-1.87,3.27-.32.54-.62,1.1-.94,1.63l-1,1.61-1,1.62c-.16.27-.32.54-.49.8l-.5.8-2.05,3.21-2.12,3.16c-.69,1.06-1.45,2.08-2.17,3.12l-1.11,1.56c-.36.52-.75,1-1.13,1.53-3,4.09-6.21,8-9.53,11.89l-1.66,1.92c-.56.64-1.14,1.26-1.71,1.89l-1.71,1.88c-.58.62-1.17,1.22-1.75,1.84-1.74,1.86-3.56,3.63-5.36,5.43l-2.76,2.64-.69.66-.71.64L352,369.77c-.63.57-1.25,1.16-1.89,1.71l-1.92,1.67-1.54,1.35-3.55,2.94c-1.2,1-2.41,1.9-3.62,2.84-.54.42-1.1.81-1.65,1.22l-2.5,1.79c-1.09.74-2.19,1.45-3.28,2.18l-1.23.81-1.26.77L327,388.6c-1.13.68-2.27,1.32-3.4,2l-1.25.73-1.27.7-2.54,1.39c-.43.25-.87.47-1.31.7l-1.31.69c-.88.45-1.75.93-2.63,1.37l-2.65,1.33-1.32.67-1.33.65-1.51.73-1.5.75-.07,0-3.63,1.56-1.06.47-1.08.44-2.15.89c-1.42.61-2.87,1.15-4.31,1.73-5.77,2.24-11.63,4.28-17.56,6.07h0l-.56.17h0c-2.35.73-4.73,1.34-7.09,2l-3.58.88c-.59.14-1.19.3-1.79.43l-1.79.39-1.8.4c-.6.13-1.2.27-1.8.37l-3.62.7-.9.17-.91.15-1.82.3-1.81.3c-.61.11-1.22.18-1.83.27a227.19,227.19,0,0,1-40,2.22,199.15,199.15,0,0,1-40.19-5.54Q155.67,412.31,146,409a154.27,154.27,0,0,1-15.19-6.1,180.09,180.09,0,0,1-17.11-9.46l-5.66,9.78c.47.3,1,.57,1.43.85l1.43.84,1.43.83.71.42.73.4c1.93,1.06,3.86,2.16,5.83,3.15,1,.5,2,1,3,1.51l3,1.43,1.5.72,1.52.67Z"/><path class="cls-5" d="M85.8,43.18a153.12,153.12,0,0,0-15.13,13.4c-4.93,4.89-9.75,9.82-14.44,15S46.9,82.26,42.54,87.87A157.77,157.77,0,0,0,30.71,105.1L29.61,107l-.55,1-.27.49-.26.49c-.69,1.32-1.38,2.63-2.06,4s-1.3,2.67-1.94,4l-.48,1-.45,1-.91,2c-2.4,5.41-4.58,10.91-6.7,16.44-.83,2.27-1.71,4.51-2.48,6.8l-.6,1.71c-.2.57-.41,1.14-.59,1.71l-1.12,3.44c-.39,1.15-.71,2.31-1.07,3.46l-.52,1.74-.26.86-.24.88-.94,3.49-.24.88-.21.88L7.3,165,6.84,167a1.89,1.89,0,0,0-.12.38C5.24,173.76,4,180.22,2.89,186.7l-.21,1.2c-.06.4-.13.79-.19,1.2l-.36,2.4c-.12.8-.24,1.6-.37,2.4l-.33,2.4c-.21,1.54-.46,3.06-.61,4.61-.09.77-.17,1.54-.23,2.31s-.13,1.55-.14,2.34v.14c-.08,1.72-.19,3.43-.26,5.15L0,216H0A190.33,190.33,0,0,0,1.3,242.46c.05.42.09.84.15,1.26L1.64,245c.13.83.27,1.67.4,2.5l.21,1.25c.06.41.15.83.23,1.24l.5,2.48c.32,1.66.72,3.29,1.1,4.93.2.82.38,1.64.59,2.45l.64,2.44c1.08,4.21,2.26,8.37,3.44,12.54.38,1.24.75,2.49,1.13,3.73.19.62.36,1.25.56,1.87l.6,1.86c2.16,6.77,4.62,13.45,7.31,20,.5,1.21,1,2.43,1.51,3.62l1.05,2.39.53,1.19c.17.4.36.79.55,1.19.84,1.76,1.66,3.54,2.58,5.28.46.86.92,1.73,1.37,2.6s1,1.72,1.45,2.57l1.12,1.93c.37.65.78,1.27,1.17,1.9l1.18,1.89.6.94.61.93c.83,1.23,1.65,2.46,2.49,3.68L37.15,336l.32.45.34.44.66.89,1.34,1.77c.44.59.88,1.19,1.34,1.77,1.37,1.74,2.72,3.5,4.13,5.22l1.38,1.73.35.43.35.43.71.86c1.15,1.39,2.28,2.81,3.47,4.17,4.68,5.53,9.57,10.87,14.77,15.91l1.3,1.26c.48.46,1,.9,1.46,1.35a3.58,3.58,0,0,0,.27.29q7.2,6.74,14.81,13L86,387.56c.62.51,1.24,1,1.88,1.53l3.81,3c1.22.94,2.44,1.9,3.67,2.84s2.53,1.81,3.85,2.64l.12.08c1.44.95,2.89,1.86,4.33,2.8s2.92,1.81,4.38,2.71l5.66-9.78-2.51-1.58L110,391l-1.24-.81-2.48-1.62c-.83-.54-1.64-1.11-2.46-1.66L102.4,386l-.7-.46-.69-.48-.07,0-3.17-2.35q-1.84-1.43-3.7-2.82L90.42,377q-7.24-5.84-14-12.19l0,0-.43-.39v0l-.67-.62-.66-.65-1.32-1.28L72,360.51l-1.29-1.31c-.85-.88-1.72-1.75-2.57-2.64l-2.51-2.7c-.2-.22-.42-.44-.62-.67l-.61-.69-1.23-1.38-1.22-1.37-1.19-1.41c-.79-.94-1.6-1.86-2.37-2.82L56,342.66q-6.24-7.87-11.75-16.27c-.91-1.41-1.8-2.82-2.7-4.23q-4-6.41-7.54-13t-6.63-13.71c-2-4.65-3.85-9.39-5.54-14.19l-.81-2.4-.41-1.21c-.13-.4-.27-.8-.39-1.21L19.51,274l-.38-1.21-.18-.61-.18-.61-1-3.67c-.18-.61-.32-1.23-.48-1.84l-.48-1.85-.47-1.85-.43-1.86-.43-1.86c-.14-.62-.3-1.23-.42-1.86l-.51-2.49L14.25,253c-.09-.41-.17-.83-.24-1.25l-.37-2-.41-2.27c-.13-.75-.24-1.51-.36-2.27-.23-1.52-.48-3-.64-4.56l-.23-2-.17-1.52-.12-1.54c-.09-1.31-.18-2.62-.26-3.93l-.11-2.94c0-1-.09-2-.08-3l0-3.93c0-.48,0-1,0-1.45l0-1.45.05-2.9.12-3,.06-1.49c0-.49,0-1,.07-1.48l.17-3,.08-1.48c0-.49.08-1,.11-1.48l.12-1.67.11-1.67v-.08c.13-1.31.31-2.62.46-3.92l.13-1.16.07-.58.07-.57.31-2.31.31-2.3.35-2.3c.93-6.12,2.08-12.21,3.49-18.25v0l.14-.56v0l.87-3.58,1-3.55c.16-.59.31-1.19.49-1.78l.52-1.76.53-1.77.26-.88c.09-.29.19-.58.28-.87L22.55,151c.19-.58.4-1.16.6-1.74l.61-1.73.61-1.74.66-1.72.65-1.72c.22-.57.43-1.15.67-1.72a222,222,0,0,1,18.12-35.77,199.62,199.62,0,0,1,24.94-32q7-7.36,14.73-14A151.56,151.56,0,0,1,97,48.71,179.11,179.11,0,0,1,113.73,38.6l-5.66-9.78-2.88,1.63-1.44.82-1.42.85-2.84,1.71-2.8,1.77-1.4.89-1.37.93-2.75,1.86c-.91.63-1.8,1.28-2.7,1.93S86.67,42.5,85.8,43.18Z"/><path class="cls-5" d="M431,189.54a151.75,151.75,0,0,0-4-19.81c-1.77-6.73-3.62-13.37-5.73-20s-4.62-13.45-7.3-20a157.42,157.42,0,0,0-9.05-18.84l-1.12-1.93c-.37-.65-.78-1.27-1.17-1.9l-1.18-1.89-.6-.94-.61-.93c-.83-1.23-1.65-2.46-2.49-3.68L395.14,96c-3.5-4.77-7.18-9.4-10.92-14l-2.29-2.8-2.35-2.75c-.39-.46-.77-.93-1.18-1.38l-1.2-1.35L376,72.34c-.4-.45-.79-.9-1.21-1.34l-2.46-2.66-.61-.66-.63-.65-1.27-1.3c-1.66-1.74-3.41-3.41-5.14-5.09-.48-.46-1-.9-1.46-1.35A3.58,3.58,0,0,0,363,59q-7.2-6.73-14.81-13l-1.88-1.54c-.62-.51-1.24-1-1.88-1.53l-3.81-3c-1.22-.94-2.44-1.9-3.67-2.84s-2.52-1.81-3.85-2.64l-.12-.08c-1.44-.95-2.89-1.86-4.33-2.8s-2.92-1.81-4.38-2.71h0c-.47-.3-1-.57-1.43-.85l-1.43-.84-1.43-.83-.71-.42-.73-.4c-1.93-1.06-3.86-2.16-5.83-3.15-1-.5-2-1-3-1.51l-3-1.43-1.5-.72L303.7,18l-3-1.33c-1.56-.65-3.14-1.26-4.71-1.87s-3.19-1.12-4.78-1.66c-.8-.28-1.61-.52-2.41-.77l-2.42-.74c-.8-.25-1.61-.47-2.42-.69l-2.43-.68c-1.05-.3-2.1-.57-3.15-.84l-3.14-.84-3.14-.79C271,7.52,270,7.24,268.91,7l-3.8-.91c-1.27-.29-2.54-.55-3.81-.84-7-1.51-14-2.71-21-3.66l-1.94-.27-2-.23L233.82.8l-1.3-.14-1.3-.11c-1.95-.15-3.91-.33-5.87-.4L222.41,0l-.73,0h-5.56L215,.06c-1.49.05-3,.11-4.45.18l-4.44.33L205,.66l-1.11.11L201.7,1l-2.2.22-4.41.56c-1.1.12-2.19.31-3.29.46l-3.29.48-4.39.69-.67.1-.67.11-1.34.24-2.67.45a216.23,216.23,0,0,0-21.18,4.82c-.58.16-1.16.34-1.73.51l-1.91.58-.39.09q-9.44,2.87-18.68,6.33l-2.27.84-2.26.89c-1.51.6-3,1.17-4.51,1.8l-2.16.86-1.08.44-1.06.46c-.71.32-1.42.63-2.12,1l-1.06.5-.52.26-.52.28-.12.08-2.3,1.17-1.15.58-.57.29-.57.31-2.27,1.22-1.14.61c-.38.2-.75.4-1.13.62l5.66,9.78c.43-.25.87-.47,1.31-.7l1.31-.69c.88-.45,1.75-.93,2.63-1.37l2.65-1.33,1.32-.67,1.34-.65c1-.48,2-1,3-1.48l.08,0L131,30.12l1.07-.47,1.07-.44,2.15-.89c1.42-.61,2.87-1.15,4.31-1.73,5.77-2.24,11.63-4.28,17.56-6.07h0l.56-.17h0c2.34-.73,4.72-1.34,7.08-2l3.58-.88c.59-.14,1.19-.3,1.79-.43l1.8-.39,1.79-.4c.6-.13,1.2-.27,1.81-.37l3.61-.7.91-.17.9-.15,1.82-.3,1.82-.3c.6-.11,1.21-.18,1.82-.27q9.93-1.44,20-2l2.5-.12,1.26-.06.62,0,.63,0,3.77-.09.94,0H219c2.52,0,5,.07,7.54.11l3.8.18c.64,0,1.27.05,1.9.1l1.9.14,1.9.14.95.07.95.1,3.79.38c.63.06,1.26.15,1.89.23l1.89.24,1.89.24,1.88.29,1.88.3c.63.09,1.26.18,1.88.3l3.75.68.63.11.62.13,1.25.26,2.48.51.63.13.62.14,1.23.29,2.48.58c.62.13,1.23.3,1.85.46l1.85.47,1.84.48,1.84.52,1.83.53c.61.17,1.23.34,1.83.53l3.65,1.13,1.21.4,1.2.4,2.42.81c.65.21,1.28.46,1.93.69q4.33,1.53,8.59,3.32l1.87.82c.94.42,1.88.81,2.8,1.28L305,30.88c.87.45,1.74.92,2.61,1.38l1.3.69.65.35.64.36,3.41,1.94c.84.49,1.66,1,2.49,1.49l1.24.75c.42.25.83.49,1.24.76l2.51,1.58,1.25.79,1.24.81L326,43.4c.83.54,1.64,1.11,2.46,1.66l1.39.93.7.46.69.48.07,0,3.17,2.35q1.85,1.43,3.7,2.82L341.87,55q7.25,5.83,14,12.19l0,0,.43.39v0l.67.62.66.65L359,70.2l1.32,1.29c.44.43.86.88,1.29,1.31.85.88,1.72,1.75,2.57,2.64l2.51,2.7c.21.22.42.44.62.67l.61.69,1.23,1.38,1.22,1.37,1.19,1.41c.79.94,1.6,1.86,2.37,2.82l2.31,2.86a223.42,223.42,0,0,1,22,33.54,198.21,198.21,0,0,1,15.27,37.58q2.85,9.76,4.76,19.78c.25,1.34.49,2.68.73,4s.43,2.69.64,4l.15,1,.08.51.06.51.24,2c.15,1.36.31,2.71.4,4.08A182.24,182.24,0,0,1,421,216h11.3A190.33,190.33,0,0,0,431,189.54Z"/><path class="cls-2" d="M225,127.4h-1.38A97.5,97.5,0,0,0,209,128.65c-1.94.32-4.51.76-7.07,1.29-1.14.23-2.29.43-3.43.64s-2.13.38-3.19.59c-2.23.45-4.3.91-6.36,1.4-1.14.26-2.29.58-3.4.89s-2.26.63-3.4.89a97.3,97.3,0,0,0-13.79,4.42,43.18,43.18,0,0,0-12.55,7.51,63.52,63.52,0,0,0-9.09,10.28,36.36,36.36,0,0,0-2,3.23l-.48.83c-1,1.63-1.8,3.33-2.6,5-.38.79-.78,1.65-1.2,2.62A35.06,35.06,0,0,0,136.8,173a74.08,74.08,0,0,0-6,13.48c-.71,2-1.52,4.24-2.1,6.5-.64,2.45-1.16,4.91-1.66,7.29a127.48,127.48,0,0,0-2.17,15.44,82.9,82.9,0,0,0,0,15.35c.27,2.76.58,5.2,1,7.44.41,2.4,1,4.8,1.6,6.84a46.79,46.79,0,0,0,2.51,6.94c.43.92.89,1.82,1.35,2.72l.21.41c1.16,2.28,2.3,4.33,3.48,6.27a66.81,66.81,0,0,0,9,11.51,70.73,70.73,0,0,0,5.34,5.13c1.43,1.21,3,2.3,4.55,3.35l1.07.73a131.57,131.57,0,0,0,11.67,7.46,84.45,84.45,0,0,0,9.25,4.12c1.35.54,2.71,1.08,4,1.65l2.26,1a85.43,85.43,0,0,0,10.36,3.95l.91.25c2.25.64,4.57,1.3,6.9,1.74l1,.21c.75.15,1.53.31,2.31.42l4.19.56a84,84,0,0,0,11.33.84c1.41,0,2.8,0,4.13-.14a127.18,127.18,0,0,0,14.7-2A85.21,85.21,0,0,0,252,298.34l.6-.22c1.86-.7,3.78-1.41,5.65-2.19s4-1.79,6.53-3.1a110,110,0,0,0,12.32-7.59,56.65,56.65,0,0,0,5.4-4.2c1.87-1.72,3.55-3.34,5.1-5a57.62,57.62,0,0,0,4.86-5.68,46.3,46.3,0,0,0,3.57-5.71,72.43,72.43,0,0,0,3.3-7.42c.87-2.16,1.71-4.42,2.5-6.72l.14-.42a58.07,58.07,0,0,0,1.87-6.22c.54-2.48,1.07-5.13,1.69-8.33a125.13,125.13,0,0,0,1.75-14.5c.32-4.38.68-9.34.55-14.16a129.2,129.2,0,0,0-1.3-15.57,63.68,63.68,0,0,0-4.33-14.14c-1.81-4.46-4-8.72-5.82-12.31a61.34,61.34,0,0,0-7.81-11.73,63.24,63.24,0,0,0-10.84-10A90.66,90.66,0,0,0,265,135.65a59.36,59.36,0,0,0-6.65-2.65c-2.39-.83-4.25-1.4-6-1.86l-1.92-.51c-1.87-.5-3.79-1-5.72-1.37-2.42-.45-4.84-.81-7.42-1.12A105.85,105.85,0,0,0,225,127.4Z"/><path class="cls-6" d="M157.7,222.81c-1.7,3.69.92,18.93,3.12,22.08,6.2,8.88,18.07,10.72,24.86.08,3.61-5.66,3.22-22.24,3.22-22.24s-9.16-.46-11.31-.44C171.17,222.36,157.7,222.81,157.7,222.81Z"/><path class="cls-6" d="M285.58,221.47a32.69,32.69,0,0,0-4.23-.28c-1.09.05-5.68,0-5.93,0-6.54-.32-20.69-.26-20.69-.26s-.83,7.46,1.7,13.1c1.57,6.84,7.05,12.39,9.18,13.63a12,12,0,0,0,2.05,1.05,8.12,8.12,0,0,0,5.48.82C286.08,247.87,286.66,221.73,285.58,221.47Z"/><path class="cls-5" d="M166.51,195.59a7.44,7.44,0,0,0-1.12.09,12.94,12.94,0,0,0-3,.76,5,5,0,0,0-.64.34c-.2.12-.43.26-.65.42a9.46,9.46,0,0,0-1.07,1l-.45.48,0,.06c-.1.12-.21.24-.3.37a8.5,8.5,0,0,0-.56,1l-.12.15,0,.05a3.4,3.4,0,0,0-.45.78,4,4,0,0,0-.27,1.08,7,7,0,0,0,0,1.93l0,.14c0,.21.06.42.11.63s.13.55.2.78.21.59.32.86a5.35,5.35,0,0,0,.41.74l.11.16c.15.25.32.5.49.73a2.42,2.42,0,0,0,.35.42l.22.21.05,0,.07.07.3.26h0l.3.24.17.12.45.34c.39.28.8.55,1.25.81q.31.18.69.36l.35.15.3.1.07,0c.23.07.47.13.71.18h.09a7.08,7.08,0,0,0,.8.16l.19,0,.22,0,.31,0h.35a5.07,5.07,0,0,0,.55,0h.14a5.55,5.55,0,0,0,.75-.1,5.69,5.69,0,0,0,.85-.26,5.84,5.84,0,0,0,.66-.31l.75-.41.65-.39,0,0c.25-.16.51-.31.75-.49a4.35,4.35,0,0,0,.58-.47,6.07,6.07,0,0,0,.59-.65,9.25,9.25,0,0,0,.77-1.26,4.17,4.17,0,0,0,.3-.71c0-.15.08-.28.1-.4l0-.09a3.59,3.59,0,0,0,.08-.35v-.07l.07-.44c.07-.44.13-.91.19-1.53v0a6.74,6.74,0,0,0,0-1.85,5.43,5.43,0,0,0-.13-.58l-.05-.17c-.06-.25-.13-.5-.19-.69a5.88,5.88,0,0,0-.33-.81,7.13,7.13,0,0,0-.44-.72c-.11-.16-.25-.34-.43-.56a5.48,5.48,0,0,0-.6-.58,5.85,5.85,0,0,0-1.12-.8,14,14,0,0,0-1.42-.62c-.47-.17-.95-.31-1.4-.43a5.29,5.29,0,0,0-.82-.15c-.25,0-.5-.06-.77-.07l-.41,0Z"/><path class="cls-5" d="M276.85,194.71a5,5,0,0,0-.31-1.4,8.14,8.14,0,0,0-.6-1.23,6.6,6.6,0,0,0-.85-1.18,7.32,7.32,0,0,0-1-1,4.3,4.3,0,0,0-.52-.37c-.19-.11-.39-.22-.58-.31a4.44,4.44,0,0,0-.7-.28h-.06c-.19,0-.38-.11-.58-.15a11.83,11.83,0,0,0-1.41-.25l-.37,0-.16,0c-.24-.06-.49-.1-.73-.14a7.7,7.7,0,0,0-1.27-.13h-.27c-.4,0-.79,0-1.19.05a4.49,4.49,0,0,0-.64.1,4.1,4.1,0,0,0-2,1,3.86,3.86,0,0,0-.54.53.86.86,0,0,0-.14.18l-.09,0-.11.07a6.33,6.33,0,0,0-.54.36,4.32,4.32,0,0,0-.42.35l-.32.38a4.13,4.13,0,0,0-.34.55,4,4,0,0,0-.35.72c-.07.18-.13.38-.19.56l0,.07a7.59,7.59,0,0,0-.28,1.39c0,.2,0,.41,0,.67a4.14,4.14,0,0,0,0,.61v.06a9.28,9.28,0,0,0,.14,1.46,5.83,5.83,0,0,0,.17.66c0,.13.09.26.13.38a3.09,3.09,0,0,0,.14.32,2.94,2.94,0,0,0,.16.31,1.78,1.78,0,0,0,.17.27l.06.09a3.92,3.92,0,0,0,.39.5c.24.28.49.55.74.82l.15.16c.2.21.35.36.5.5l.09.08a5.73,5.73,0,0,0,.45.39,7.37,7.37,0,0,0,1.1.78,7.23,7.23,0,0,0,.73.4,5.32,5.32,0,0,0,.61.26c.24.1.44.16.63.22s.56.13.79.18a8.15,8.15,0,0,0,1.31.15l.6,0a8.26,8.26,0,0,0,.88,0,8.09,8.09,0,0,0,1.34-.21,5.38,5.38,0,0,0,.74-.25c.19-.09.4-.19.6-.31a8.28,8.28,0,0,0,1.17-.81h0a5.35,5.35,0,0,0,.5-.45c.16-.16.31-.32.48-.52l0,0c.14-.15.29-.32.42-.49s.24-.31.35-.47l.05-.07a5.76,5.76,0,0,0,.64-1.26c.08-.23.16-.45.22-.67a6.81,6.81,0,0,0,.15-.71v-.07c0-.2.06-.4.07-.6s0-.48,0-.69A12.63,12.63,0,0,0,276.85,194.71Z"/><path class="cls-6" d="M274.41,193.45a1.45,1.45,0,0,0-.1-.41,2,2,0,0,0-.17-.36,2.41,2.41,0,0,0-.25-.35,1.76,1.76,0,0,0-.31-.28.72.72,0,0,0-.15-.11.7.7,0,0,0-.17-.09.64.64,0,0,0-.2-.08h0l-.17,0-.41-.07-.11,0h-.05l-.21,0-.37,0h-.08l-.35,0-.19,0-.21.06a1.12,1.12,0,0,0-.37.24,1.17,1.17,0,0,0-.16.15l0,.05,0,0,0,0-.16.1-.12.11-.1.11-.1.16a2.09,2.09,0,0,0-.1.21,1,1,0,0,0-.05.16v0a2.29,2.29,0,0,0-.08.41c0,.06,0,.12,0,.19v.2a2.82,2.82,0,0,0,.05.43c0,.06,0,.12,0,.19a.76.76,0,0,1,0,.11.42.42,0,0,1,0,.1l.05.09a.56.56,0,0,1,.05.08l0,0,.11.15.22.24,0,0a2.11,2.11,0,0,0,.15.15l0,0,.13.12.33.23.21.11.18.08.18.06.24.06.38,0h.43a1.76,1.76,0,0,0,.39-.06L273,196l.17-.09a3.53,3.53,0,0,0,.35-.24h0l.14-.13.14-.15v0a.86.86,0,0,0,.13-.14l.1-.14v0a2.55,2.55,0,0,0,.26-.56c0-.07,0-.14,0-.21v0a1.1,1.1,0,0,0,0-.18,1.34,1.34,0,0,0,0-.2C274.42,193.75,274.42,193.6,274.41,193.45Z"/><path class="cls-6" d="M172.1,200.33a2.09,2.09,0,0,0-.09-.41,2.41,2.41,0,0,0-.18-.36,2.16,2.16,0,0,0-.24-.35,3,3,0,0,0-.31-.28l-.15-.11-.17-.09a.9.9,0,0,0-.21-.08h0l-.17,0a2.86,2.86,0,0,0-.41-.07H170l-.22,0a2.22,2.22,0,0,0-.37,0h-.08l-.34,0-.19,0a.83.83,0,0,0-.21.06,1.14,1.14,0,0,0-.38.23l-.16.16,0,.05h0l0,0-.16.11-.12.1-.09.11-.1.16a1,1,0,0,0-.1.21l-.06.17h0a2.47,2.47,0,0,0-.09.41c0,.06,0,.12,0,.2a1.08,1.08,0,0,0,0,.18h0a2.74,2.74,0,0,0,0,.43,1.33,1.33,0,0,0,.05.19.36.36,0,0,0,0,.11.3.3,0,0,0,0,.1.41.41,0,0,0,.05.09.35.35,0,0,0,.05.08v0l.12.14.21.24,0,0,.14.14,0,0,.13.11a2.48,2.48,0,0,0,.32.23l.22.12.17.07.19.07.23,0a2.22,2.22,0,0,0,.38,0h.44a1.89,1.89,0,0,0,.39-.07.65.65,0,0,0,.21-.07.76.76,0,0,0,.18-.09,1.72,1.72,0,0,0,.34-.24h0l.15-.13.14-.15h0l.12-.15a1.13,1.13,0,0,0,.1-.13l0,0a1.51,1.51,0,0,0,.18-.36c0-.07.05-.14.07-.2a1.12,1.12,0,0,0,0-.21v0c0-.06,0-.11,0-.17s0-.14,0-.2A3.24,3.24,0,0,0,172.1,200.33Z"/><path class="cls-5" d="M235,221a28.66,28.66,0,0,0-4-.26l-1.89,0c.28,3.38-.68,17.9-6.92,18.93a3.61,3.61,0,0,1-3-.57,7.09,7.09,0,0,1-1.11-.74c-1.16-.86-4.14-4.75-5-9.53a24.45,24.45,0,0,1-1-8.35c-3.45,0-6.06,0-6.06,0s-.78,7,1.59,12.27c1.47,6.4,6.6,11.6,8.6,12.76a12,12,0,0,0,1.92,1,7.63,7.63,0,0,0,5.13.77C235.46,245.77,236,221.28,235,221Z"/><path class="cls-2" d="M169.79,228.79a1.13,1.13,0,0,0-.08-.34,1.59,1.59,0,0,0-.14-.3,2.15,2.15,0,0,0-.46-.52l-.13-.09-.14-.08a1.15,1.15,0,0,0-.17-.06h0l-.14,0a2.63,2.63,0,0,0-.34-.06h-.13l-.18,0-.31,0h-.06l-.29,0-.15,0-.18.05a1,1,0,0,0-.31.19.8.8,0,0,0-.13.13l0,0h0l0,0-.13.09a.39.39,0,0,0-.1.08l-.08.09a.85.85,0,0,0-.09.14.89.89,0,0,0-.08.17l0,.14h0a2.9,2.9,0,0,0-.07.34c0,.05,0,.1,0,.16v.15h0a2,2,0,0,0,0,.36s0,.1,0,.16l0,.09,0,.08a627151563669.36,627151563669.36,0,0,1,.08.14v0l.1.12.18.2,0,0,.13.12,0,0,.1.09.27.19.18.1.15.06.15,0,.19.05a1.58,1.58,0,0,0,.32,0h.35a1.88,1.88,0,0,0,.33-.05l.18-.06.14-.08c.11-.06.2-.13.29-.19h0l.12-.1.11-.13h0l.1-.12.09-.11v0a1.84,1.84,0,0,0,.16-.31c0-.05,0-.1.05-.16s0-.11,0-.17v0s0-.09,0-.14v-.17C169.8,229,169.8,228.91,169.79,228.79Z"/><path class="cls-2" d="M182.3,231.92a1.14,1.14,0,0,0-.07-.34,2.79,2.79,0,0,0-.15-.3,3,3,0,0,0-.2-.29l-.26-.23-.12-.09-.14-.08-.17-.06h0l-.14,0a1.49,1.49,0,0,0-.34-.06h-.13l-.17,0-.31,0H180l-.28,0-.16,0-.17.05a.89.89,0,0,0-.31.19.86.86,0,0,0-.14.13l0,0h0l0,0a1,1,0,0,0-.13.09l-.1.08-.08.09-.08.13-.09.18s0,.09,0,.14h0a1.59,1.59,0,0,0-.06.34c0,.05,0,.1,0,.16v.15h0a3.6,3.6,0,0,0,0,.36,1.24,1.24,0,0,0,0,.16l0,.09,0,.08a470363672758.83,470363672758.83,0,0,0,.08.14l0,0,.09.12.18.2,0,0,.12.12,0,0,.11.09a1.93,1.93,0,0,0,.27.19l.17.1.15.06.15,0,.19.05a2.91,2.91,0,0,0,.32,0h.36a1.92,1.92,0,0,0,.32-.05l.18-.06.15-.08a2,2,0,0,0,.28-.2h0l.12-.11a.68.68,0,0,0,.12-.12h0l.1-.12.08-.11,0,0a1.25,1.25,0,0,0,.15-.31,1,1,0,0,0,.05-.16.85.85,0,0,0,0-.17v0a.68.68,0,0,0,0-.14c0-.06,0-.12,0-.17A2.18,2.18,0,0,0,182.3,231.92Z"/><path class="cls-2" d="M173.54,238.8a1.14,1.14,0,0,0-.07-.34q-.06-.14-.15-.3a2,2,0,0,0-.2-.28,2.1,2.1,0,0,0-.26-.24l-.12-.09-.14-.07-.17-.07h0l-.14,0-.34-.06h-.13l-.18,0-.3,0h-.07l-.28,0-.16,0-.17.05a.89.89,0,0,0-.31.19.86.86,0,0,0-.14.13l0,0,0,0h0l-.13.09-.1.08-.08.1a.49.49,0,0,0-.08.13l-.09.17s0,.09,0,.14h0a1.86,1.86,0,0,0-.06.34c0,.05,0,.1,0,.16v.17c0,.12,0,.24,0,.35a1.24,1.24,0,0,0,0,.16l0,.09,0,.08,0,.07,0,.07,0,0,.09.12.18.2,0,0,.12.12,0,0,.11.09a1,1,0,0,0,.27.19,1,1,0,0,0,.17.1l.15.06.15,0,.19.05.32,0h.36a1.92,1.92,0,0,0,.32-.05l.18-.06.15-.08a2,2,0,0,0,.28-.19h0l.12-.11.12-.13h0l.1-.12a.44.44,0,0,0,.08-.11l0,0a1.39,1.39,0,0,0,.15-.3,1.09,1.09,0,0,0,.05-.17.85.85,0,0,0,0-.17h0a.77.77,0,0,0,0-.15c0-.06,0-.11,0-.17A2.24,2.24,0,0,0,173.54,238.8Z"/><path class="cls-2" d="M265.21,228.16a1.57,1.57,0,0,0-.07-.34,2.7,2.7,0,0,0-.15-.29,1.64,1.64,0,0,0-.2-.29,2.1,2.1,0,0,0-.26-.24l-.13-.09-.14-.07-.17-.07h0l-.14,0-.34-.06h-.13l-.18,0a1.53,1.53,0,0,0-.3,0h-.36l-.15,0-.17,0a1.07,1.07,0,0,0-.32.2l-.13.12,0,0h0l0,0-.13.08a.43.43,0,0,0-.1.09.36.36,0,0,0-.08.09.74.74,0,0,0-.08.13c0,.06-.06.11-.09.18a.65.65,0,0,0,0,.13v0a2.53,2.53,0,0,0-.07.34,1,1,0,0,1,0,.16v.16a1.87,1.87,0,0,0,0,.35.75.75,0,0,0,0,.16l0,.09,0,.08s0,.05,0,.08l0,.06,0,0,.09.13.18.19,0,0,.12.12,0,0,.11.1.26.19.18.09.15.07.15,0,.19,0,.32,0h.36a1.92,1.92,0,0,0,.32-.05l.18-.06.15-.07a2,2,0,0,0,.28-.2h0l.12-.11.12-.13h0a1.14,1.14,0,0,0,.11-.11l.08-.12v0a1.26,1.26,0,0,0,.16-.3,1.42,1.42,0,0,0,.05-.16.8.8,0,0,0,0-.18h0c0-.05,0-.1,0-.15v-.16A2.22,2.22,0,0,0,265.21,228.16Z"/><path class="cls-2" d="M280.23,230a1.13,1.13,0,0,0-.08-.34,1.94,1.94,0,0,0-.14-.3,2.15,2.15,0,0,0-.46-.52l-.13-.09-.14-.07-.17-.07h0l-.14,0-.34-.06h-.13l-.18,0a1.55,1.55,0,0,0-.31,0h-.06l-.29,0-.16,0-.17.05a1,1,0,0,0-.31.19.8.8,0,0,0-.13.13l0,0,0,0h0l-.13.09-.11.08a.86.86,0,0,0-.07.1.48.48,0,0,0-.09.13.89.89,0,0,0-.08.17l-.05.14h0a3.4,3.4,0,0,0-.07.34c0,.05,0,.1,0,.16v.17a2,2,0,0,0,0,.35s0,.1,0,.16a.36.36,0,0,0,0,.09l0,.08a.16.16,0,0,0,0,.07.43.43,0,0,0,0,.07v0a.4.4,0,0,0,.1.12l.18.2,0,0,.13.12,0,0,.1.09.27.19.18.1.15.06.15,0,.19.05.32,0h.35a1.88,1.88,0,0,0,.33-.05l.18-.06.14-.08a1.52,1.52,0,0,0,.28-.19h0l.12-.11.11-.13h0l.1-.12.09-.11v0a1.39,1.39,0,0,0,.15-.3,1.15,1.15,0,0,0,.06-.17.86.86,0,0,0,0-.17h0a.77.77,0,0,1,0-.15v-.17C280.24,230.29,280.24,230.17,280.23,230Z"/><path class="cls-2" d="M271.47,236.3a1.13,1.13,0,0,0-.08-.34,1.59,1.59,0,0,0-.14-.3,1.94,1.94,0,0,0-.21-.29,2,2,0,0,0-.25-.23l-.13-.09-.14-.08a.58.58,0,0,0-.17-.06h0l-.14,0a1.59,1.59,0,0,0-.34-.06h-.13l-.18,0a1.55,1.55,0,0,0-.31,0h-.06l-.29,0-.16,0-.17.05a1,1,0,0,0-.31.19.8.8,0,0,0-.13.13l0,0h0l0,0a.6.6,0,0,0-.13.09l-.11.08-.07.09-.09.13a1.42,1.42,0,0,0-.08.18s0,.09-.05.14h0a2.53,2.53,0,0,0-.07.34c0,.05,0,.1,0,.16v.15h0a2,2,0,0,0,0,.36c0,.05,0,.1,0,.16a.36.36,0,0,0,0,.09l0,.08a134389620780.84,134389620780.84,0,0,1,.08.14v0l.1.12.18.2,0,0,.13.12,0,0,.1.09.27.19.18.1.15.06.15,0,.19.05a2.69,2.69,0,0,0,.32,0h.35a1.88,1.88,0,0,0,.33-.05l.18-.06.14-.08a1.55,1.55,0,0,0,.28-.2h0l.12-.11a.65.65,0,0,0,.11-.12h0l.1-.12.09-.11v0a1.25,1.25,0,0,0,.15-.31,1,1,0,0,0,.06-.16.86.86,0,0,0,0-.17v0a.78.78,0,0,1,0-.14v-.17C271.48,236.55,271.48,236.42,271.47,236.3Z"/></g></g></svg>