<svg xmlns="http://www.w3.org/2000/svg" viewBox="0 0 432 590.29"><defs><style>.cls-1{fill:#c1d6e1;}.cls-2{fill:#e8ac3d;}.cls-3{fill:#d89279;}.cls-4{fill:#2c3e50;}.cls-5{fill:#fdc7bc;}.cls-6{fill:#fff;}</style></defs><title>Asset 3</title><g id="Layer_2" data-name="Layer 2"><g id="Layer_1-2" data-name="Layer 1"><polygon class="cls-1" points="182.34 239.29 160.97 454.47 236.55 408.35 161.31 564.81 311.8 359.1 224.42 353.3 268.11 243.2 182.34 239.29"/><polygon class="cls-2" points="312.11 196.44 270.93 346.53 341.85 331.52 232.7 541.46 412.77 288.99 330.41 283.99 371.59 188.93 312.11 196.44"/><path class="cls-3" d="M87,211.85S69.68,316.12,65.35,349.3s-10.84,82.94-10.84,82.94l62.85-21.33L38.89,590.29,221.4,313.75l-93.2,23.7,32.51-132.71Z"/><path class="cls-4" d="M222.32,0c-37.84-.8-65,13.74-88.81,45-16.28,21.37-21,58-22.3,84.13-14-22.4-37.49-32.32-63.46-27.06-23.11,4.68-35.52,25.32-43.39,46C-9.3,184,11.8,257.13,30.84,259.24c15.53,1.72,352.3-3.62,371.81-4.74,2.81-.16,23.14-25.64,28.27-62.95,3-21.51-.05-43.51-10.43-62.75-11-20.42-34.91-32-58.73-31.1-23.45.87-39.36,17.35-48.9,37.59-1.64-27.57-3.27-56.77-11.57-83.34C285.87,2.54,222.32,0,222.32,0ZM4.48,223.1c0,.21,0,1.25,0,0Z"/><path class="cls-5" d="M246.93,215.66c-.49.27-7.6.39-7.63.38-2-.06-10.23,0-10.68,0-11.78.44-37.28.35-37.28.35s-1.5-10.12,3.07-17.79c2.82-9.27,12.69-16.82,16.53-18.49a25.48,25.48,0,0,1,3.69-1.44c2.66-1.29,6.15-1.47,9.89-1.11C247.82,179.82,248.88,215.31,246.93,215.66Z"/><path class="cls-3" d="M242.84,216c-.4.16-6.26.22-6.29.22-1.61,0-8.43,0-8.8,0-9.71.25-30.72.2-30.72.2s-1.24-5.75,2.53-10.09c2.32-5.27,10.46-9.55,13.62-10.5a27.36,27.36,0,0,1,3-.81,22.21,22.21,0,0,1,8.15-.63C243.57,195.65,244.45,215.78,242.84,216Z"/><path class="cls-6" d="M124.28,180.9a15.35,15.35,0,0,1-2.28-.19,24.86,24.86,0,0,1-6-1.53,10.87,10.87,0,0,1-1.29-.68c-.4-.24-.87-.53-1.32-.86a18.36,18.36,0,0,1-2.16-1.94c-.28-.28-.57-.59-.91-1l-.1-.13a7.27,7.27,0,0,1-.61-.74,14.07,14.07,0,0,1-1.13-1.92l-.25-.31-.08-.1a7.56,7.56,0,0,1-.92-1.58,8.09,8.09,0,0,1-.54-2.18,13.59,13.59,0,0,1,.07-3.91l0-.28c.06-.42.12-.85.22-1.27.14-.6.27-1.12.4-1.59A17.69,17.69,0,0,1,108,159a10.87,10.87,0,0,1,.83-1.49c.07-.12.15-.23.22-.34q.47-.76,1-1.47a6.78,6.78,0,0,1,.71-.85c.14-.15.3-.28.45-.42l.1-.09.14-.13c.2-.18.4-.36.61-.53l0,0,.61-.47.34-.26.92-.68a29.33,29.33,0,0,1,2.51-1.63c.44-.26.9-.5,1.41-.74.21-.1.44-.2.7-.3s.41-.15.61-.21l.14,0c.47-.15,1-.26,1.43-.37l.07,0,.12,0a14.92,14.92,0,0,1,1.62-.31l.39,0,.44-.05.62,0h.3l.41,0c.37,0,.75,0,1.12.06l.28,0a11.85,11.85,0,0,1,1.53.21,9.76,9.76,0,0,1,1.71.53,11,11,0,0,1,1.33.62c.52.28,1,.55,1.53.84s.91.54,1.3.77l.09.06c.5.3,1,.62,1.51,1a9.72,9.72,0,0,1,1.17,1,12.64,12.64,0,0,1,1.2,1.33,17.59,17.59,0,0,1,1.56,2.53,7.49,7.49,0,0,1,.6,1.44c.09.31.16.57.21.81l.05.18c0,.24.11.47.15.71l0,.15.15.89c.14.88.26,1.83.38,3.09v0a13.85,13.85,0,0,1,0,3.75c-.07.39-.17.79-.27,1.17l-.09.35c-.13.51-.28,1-.4,1.39a10.93,10.93,0,0,1-.66,1.64,13.21,13.21,0,0,1-.88,1.44c-.24.34-.52.71-.88,1.14a11.08,11.08,0,0,1-1.21,1.17,11.69,11.69,0,0,1-2.28,1.63,25.83,25.83,0,0,1-2.87,1.25,29.56,29.56,0,0,1-2.83.88,12.62,12.62,0,0,1-1.65.3c-.5.06-1,.11-1.56.15-.27,0-.55,0-.82,0Z"/><path class="cls-4" d="M135.58,171.31a2.82,2.82,0,0,1-.19.83,5.31,5.31,0,0,1-.35.73,4.62,4.62,0,0,1-.5.7,6.06,6.06,0,0,1-.62.57,2,2,0,0,1-.31.22l-.35.19a2.31,2.31,0,0,1-.41.16h0l-.34.09a6.77,6.77,0,0,1-.83.14l-.22,0-.1,0c-.14,0-.29.06-.43.09a4.76,4.76,0,0,1-.75.07H130c-.24,0-.47,0-.7,0l-.39,0a2.8,2.8,0,0,1-.41-.13,2.11,2.11,0,0,1-.77-.47,1.87,1.87,0,0,1-.32-.31l-.09-.1,0,0-.06,0a3.62,3.62,0,0,1-.32-.22,2.43,2.43,0,0,1-.25-.2,2.33,2.33,0,0,1-.19-.23,2.23,2.23,0,0,1-.2-.32,2.86,2.86,0,0,1-.21-.43c0-.11-.08-.22-.11-.33v0a4.67,4.67,0,0,1-.17-.83q0-.17,0-.39c0-.12,0-.24,0-.36v0a5.67,5.67,0,0,1,.09-.86c0-.13.06-.25.09-.39a2.09,2.09,0,0,0,.08-.23c0-.06.05-.13.08-.19a1.62,1.62,0,0,0,.1-.18c0-.06.07-.11.1-.16l0,0a2.32,2.32,0,0,1,.22-.3l.44-.48.09-.1.3-.29,0,0a3,3,0,0,1,.27-.23,5.16,5.16,0,0,1,.65-.47c.14-.07.28-.16.43-.23l.36-.16.38-.12c.16-.05.32-.08.46-.11a4.52,4.52,0,0,1,.78-.09h.35l.52,0a5.42,5.42,0,0,1,.79.13,2.08,2.08,0,0,1,.44.15,3,3,0,0,1,.36.18,4.65,4.65,0,0,1,.69.48h0l.3.27.28.31,0,0a3.47,3.47,0,0,1,.25.29l.21.28,0,0a3.05,3.05,0,0,1,.37.75,3.17,3.17,0,0,1,.14.4,3.51,3.51,0,0,1,.08.42v0c0,.11,0,.23,0,.35s0,.28,0,.41S135.61,171,135.58,171.31Z"/><path class="cls-6" d="M333.73,167.36a10.47,10.47,0,0,1-.63,2.83,17.74,17.74,0,0,1-1.22,2.49,15.41,15.41,0,0,1-1.71,2.4,16.83,16.83,0,0,1-2.12,2,10.8,10.8,0,0,1-1.06.75c-.39.23-.79.43-1.18.63a7,7,0,0,1-1.42.56l-.11,0-1.18.31a24.25,24.25,0,0,1-2.84.49l-.75.07-.33.08c-.49.13-1,.21-1.49.31a16.94,16.94,0,0,1-2.56.25h-.55c-.8,0-1.6,0-2.4-.12a9.44,9.44,0,0,1-2.74-.6,8.42,8.42,0,0,1-2.62-1.61,9.36,9.36,0,0,1-1.11-1.07l-.28-.36-.17-.1-.22-.14a11.65,11.65,0,0,1-1.1-.73,6.87,6.87,0,0,1-.84-.71,7.16,7.16,0,0,1-.65-.76,8.16,8.16,0,0,1-.7-1.1,11.1,11.1,0,0,1-.71-1.47c-.14-.37-.26-.76-.38-1.14l0-.13a15.81,15.81,0,0,1-.56-2.82c0-.4-.08-.82-.11-1.35s0-.83,0-1.24V165a20.48,20.48,0,0,1,.29-3,12.39,12.39,0,0,1,.34-1.33,7,7,0,0,1,.27-.77c.08-.22.17-.44.27-.65s.22-.44.33-.63.23-.37.34-.55l.13-.18a9,9,0,0,1,.78-1c.49-.56,1-1.12,1.5-1.65l.31-.33c.39-.42.7-.73,1-1l.17-.16c.3-.27.6-.54.91-.8a18.93,18.93,0,0,1,2.24-1.58c.46-.26,1-.55,1.47-.8.35-.17.75-.34,1.24-.53a12,12,0,0,1,1.28-.43c.56-.16,1.12-.28,1.59-.37a18.19,18.19,0,0,1,2.66-.31l1.21,0c.61,0,1.21,0,1.78.07a16.28,16.28,0,0,1,2.7.43,9.09,9.09,0,0,1,1.5.5c.4.18.82.39,1.22.62a18.05,18.05,0,0,1,2.36,1.65h0c.34.29.7.59,1,.92s.61.65,1,1l.08.08c.28.32.58.65.85,1s.48.63.7.95l.11.16a10.61,10.61,0,0,1,1.28,2.54c.18.47.33.92.45,1.36a10.66,10.66,0,0,1,.31,1.44l0,.14c.06.39.12.81.15,1.21s.06,1,.06,1.39C333.85,165.27,333.83,166.31,333.73,167.36Z"/><path class="cls-4" d="M328.78,169.92a3,3,0,0,1-.19.82,5.36,5.36,0,0,1-.35.73,4.17,4.17,0,0,1-.5.7,4.59,4.59,0,0,1-.63.58l-.3.22-.35.18a2.75,2.75,0,0,1-.41.17h0a2.14,2.14,0,0,1-.34.09,6.61,6.61,0,0,1-.83.15l-.22,0-.1,0a3.29,3.29,0,0,1-.43.09,4.78,4.78,0,0,1-.75.08h-.16c-.24,0-.47,0-.71,0l-.38-.06a3.31,3.31,0,0,1-.42-.12,2.48,2.48,0,0,1-.76-.47c-.11-.1-.23-.2-.33-.31a.76.76,0,0,0-.08-.11l-.05,0-.06,0a3.53,3.53,0,0,1-.32-.21,1.64,1.64,0,0,1-.25-.21,2.15,2.15,0,0,1-.19-.22,1.91,1.91,0,0,1-.2-.33,2.74,2.74,0,0,1-.21-.42c0-.11-.08-.23-.11-.34v0a4.67,4.67,0,0,1-.17-.83c0-.12,0-.24,0-.39a2.29,2.29,0,0,1,0-.37v0a5.81,5.81,0,0,1,.09-.87,3.1,3.1,0,0,1,.09-.39c0-.07.05-.15.08-.22s0-.13.08-.19.07-.13.1-.19l.1-.16,0,0a2.32,2.32,0,0,1,.22-.3l.44-.48.09-.09.3-.3.05,0,.26-.23a5.79,5.79,0,0,1,.66-.46,4.34,4.34,0,0,1,.43-.23,2,2,0,0,1,.36-.16l.37-.13.47-.11a7.67,7.67,0,0,1,.78-.09h.35a5.88,5.88,0,0,1,1.31.14,2.86,2.86,0,0,1,.44.15,3,3,0,0,1,.36.18,5.54,5.54,0,0,1,.69.48h0l.3.26.28.31,0,0,.25.29.21.28,0,.05a3.19,3.19,0,0,1,.37.74,3.7,3.7,0,0,1,.13.4,2.59,2.59,0,0,1,.09.42v0a2.2,2.2,0,0,1,0,.36c0,.14,0,.28,0,.4S328.81,169.61,328.78,169.92Z"/></g></g></svg>